  0
SECTION
  2
HEADER
  9
$ACADVER
  1
AC1009
  9
$INSBASE
 10
0.0
 20
0.0
 30
0.0
  9
$EXTMIN
 10
0.0
 20
0.0
 30
0.0
  9
$EXTMAX
 10
0.0
 20
0.0
 30
0.0
  0
ENDSEC
  0
SECTION
  2
TABLES
  0
TABLE
  2
VPORT
 70
0
  0
ENDTAB
  0
TABLE
  2
LTYPE
 70
1
  0
LTYPE
  2
CONTINUOUS
 70
0
  3
Solid line
 72
65
 73
0
 40
0.0
  0
ENDTAB
  0
TABLE
  2
LAYER
 70
1
  0
LAYER
  2
0
 70
64
 62
7
  6
continuous
  0
ENDTAB
  0
TABLE
  2
STYLE
 70
1
  0
STYLE
  2
STANDARD
 70
0
 40
0
 41
1.0
 50
0.0
 71
0
 42
1
 3
ARIAL.TTF
 4

  0
ENDTAB
  0
TABLE
  2
VIEW
 70
0
  0
ENDTAB
  0
ENDSEC
  0
SECTION
  2
BLOCKS
  0
BLOCK
  8
0
  2
PCB
 70
0
 10
0.0
 20
0.0
 30
0.0
  3
PCB
  0
ARC
  8
0
 62
0
 10
-27.999999984
 20
-42.9999999886
 30
0.0
 40
2.00000001934
 50
-179.996676519
 51
-90.0051141061
  0
LINE
  8
0
 62
0
 10
-30.0
 20
43.0
 30
0.0
 11
-30.0
 21
-43.000116
 31
0.0
  0
LINE
  8
0
 62
0
 10
-28.0001785
 20
-45.0
 30
0.0
 11
28.0
 21
-45.0
 31
0.0
  0
ARC
  8
0
 62
0
 10
-28.0
 20
43.0
 30
0.0
 40
2.0
 50
90.0
 51
-180.0
  0
ARC
  8
0
 62
0
 10
28.0
 20
-43.0
 30
0.0
 40
2.0
 50
-90.0
 51
0.0
  0
LINE
  8
0
 62
0
 10
28.0
 20
45.0
 30
0.0
 11
-28.0
 21
45.0
 31
0.0
  0
LINE
  8
0
 62
0
 10
30.0
 20
-43.0
 30
0.0
 11
30.0
 21
43.0
 31
0.0
  0
ARC
  8
0
 62
0
 10
28.0
 20
43.0
 30
0.0
 40
2.0
 50
-0.0
 51
90.0
  0
CIRCLE
  8
0
 62
0
 10
-6.00128
 20
25.0045
 30
0.0
 40
0.87376
  0
CIRCLE
  8
0
 62
0
 10
1.99718
 20
25.0045
 30
0.0
 40
0.87376
  0
CIRCLE
  8
0
 62
0
 10
3.99618
 20
-32.9955
 30
0.0
 40
0.87376
  0
CIRCLE
  8
0
 62
0
 10
1.9972
 20
-28.99754
 30
0.0
 40
0.87376
  0
CIRCLE
  8
0
 62
0
 10
-2.00076
 20
-28.99754
 30
0.0
 40
0.87376
  0
CIRCLE
  8
0
 62
0
 10
3.99618
 20
-24.99958
 30
0.0
 40
0.87376
  0
CIRCLE
  8
0
 62
0
 10
-3.99974
 20
-24.99958
 30
0.0
 40
0.87376
  0
CIRCLE
  8
0
 62
0
 10
-3.99974
 20
-32.9955
 30
0.0
 40
0.87376
  0
CIRCLE
  8
0
 62
0
 10
-0.00178
 20
-24.99958
 30
0.0
 40
0.87376
  0
CIRCLE
  8
0
 62
0
 10
-0.00178
 20
-32.9955
 30
0.0
 40
0.87376
  0
CIRCLE
  8
0
 62
0
 10
-13.99974
 20
33.00042
 30
0.0
 40
0.87376
  0
CIRCLE
  8
0
 62
0
 10
-10.00178
 20
33.00042
 30
0.0
 40
0.87376
  0
CIRCLE
  8
0
 62
0
 10
-6.00128
 20
33.00042
 30
0.0
 40
0.87376
  0
CIRCLE
  8
0
 62
0
 10
-8.00026
 20
29.00246
 30
0.0
 40
0.87376
  0
CIRCLE
  8
0
 62
0
 10
-12.00076
 20
29.00246
 30
0.0
 40
0.87376
  0
CIRCLE
  8
0
 62
0
 10
-10.00178
 20
25.0045
 30
0.0
 40
0.87376
  0
CIRCLE
  8
0
 62
0
 10
-13.99974
 20
25.0045
 30
0.0
 40
0.87376
  0
CIRCLE
  8
0
 62
0
 10
-2.00078
 20
33.00042
 30
0.0
 40
0.87376
  0
CIRCLE
  8
0
 62
0
 10
-3.99976
 20
29.00246
 30
0.0
 40
0.87376
  0
CIRCLE
  8
0
 62
0
 10
-2.00078
 20
25.0045
 30
0.0
 40
0.87376
  0
CIRCLE
  8
0
 62
0
 10
3.99616
 20
29.00246
 30
0.0
 40
0.87376
  0
CIRCLE
  8
0
 62
0
 10
1.99718
 20
33.00042
 30
0.0
 40
0.87376
  0
CIRCLE
  8
0
 62
0
 10
-0.0018
 20
29.00246
 30
0.0
 40
0.87376
  0
CIRCLE
  8
0
 62
0
 10
-13.7
 20
-18.2
 30
0.0
 40
0.99949
  0
CIRCLE
  8
0
 62
0
 10
5.99768
 20
25.0045
 30
0.0
 40
0.87376
  0
CIRCLE
  8
0
 62
0
 10
5.99768
 20
33.00042
 30
0.0
 40
0.87376
  0
CIRCLE
  8
0
 62
0
 10
7.99666
 20
29.00246
 30
0.0
 40
0.87376
  0
CIRCLE
  8
0
 62
0
 10
25.19754
 20
21.7025
 30
0.0
 40
0.99949
  0
CIRCLE
  8
0
 62
0
 10
11.99716
 20
29.00246
 30
0.0
 40
0.87376
  0
CIRCLE
  8
0
 62
0
 10
9.99818
 20
33.00042
 30
0.0
 40
0.87376
  0
CIRCLE
  8
0
 62
0
 10
9.99818
 20
25.0045
 30
0.0
 40
0.87376
  0
CIRCLE
  8
0
 62
0
 10
13.99614
 20
33.00042
 30
0.0
 40
0.87376
  0
CIRCLE
  8
0
 62
0
 10
13.99614
 20
25.0045
 30
0.0
 40
0.87376
  0
CIRCLE
  8
0
 62
0
 10
13.69644
 20
-18.2
 30
0.0
 40
0.99949
  0
CIRCLE
  8
0
 62
0
 10
-15.20114
 20
-36.2975
 30
0.0
 40
0.99949
  0
CIRCLE
  8
0
 62
0
 10
15.19758
 20
-36.2975
 30
0.0
 40
0.99949
  0
CIRCLE
  8
0
 62
0
 10
23.6964
 20
39.8
 30
0.0
 40
0.99949
  0
CIRCLE
  8
0
 62
0
 10
-25.20114
 20
21.7025
 30
0.0
 40
0.99949
  0
CIRCLE
  8
0
 62
0
 10
-23.7
 20
39.8
 30
0.0
 40
0.99949
  0
ENDBLK
  0
ENDSEC
  0
SECTION
  2
ENTITIES
  0
INSERT
  2
PCB
  8
0
 62
0
 10
0.0
 20
0.0
 30
0.0
  0
ENDSEC
  0
EOF
