G04 #@! TF.GenerationSoftware,KiCad,Pcbnew,(2017-01-11 revision e99b79cb2)-master*
G04 #@! TF.CreationDate,2018-02-20T17:30:00+02:00*
G04 #@! TF.ProjectId,icu,6963752E6B696361645F706362000000,rev?*
G04 #@! TF.FileFunction,Soldermask,Top*
G04 #@! TF.FilePolarity,Negative*
%FSLAX46Y46*%
G04 Gerber Fmt 4.6, Leading zero omitted, Abs format (unit mm)*
G04 Created by KiCad (PCBNEW (2017-01-11 revision e99b79cb2)-master) date Tue Feb 20 17:30:00 2018*
%MOMM*%
%LPD*%
G01*
G04 APERTURE LIST*
%ADD10C,0.100000*%
%ADD11R,1.399540X1.297940*%
%ADD12R,0.939800X0.762000*%
%ADD13R,0.762000X0.939800*%
%ADD14R,1.899920X0.998220*%
%ADD15R,2.400000X2.700000*%
%ADD16R,0.700000X1.350000*%
%ADD17R,2.800000X2.000000*%
%ADD18R,1.400000X1.900000*%
%ADD19R,6.100000X5.970000*%
%ADD20R,1.524000X0.600000*%
%ADD21R,1.524000X0.635000*%
%ADD22R,0.998220X3.997960*%
%ADD23R,2.179320X1.900000*%
%ADD24R,3.300000X2.400000*%
%ADD25R,1.297940X1.399540*%
%ADD26R,1.905000X0.635000*%
%ADD27R,0.400000X1.200000*%
%ADD28R,3.600000X1.900000*%
%ADD29R,0.398780X1.498600*%
%ADD30R,0.279400X1.498600*%
%ADD31R,1.498600X0.398780*%
%ADD32R,1.498600X0.279400*%
%ADD33R,2.000000X1.300000*%
%ADD34R,2.623820X2.623820*%
%ADD35C,2.623820*%
%ADD36C,2.999740*%
%ADD37R,0.998220X1.899920*%
G04 APERTURE END LIST*
D10*
D11*
X194800000Y-133284700D03*
X194800000Y-136815300D03*
D12*
X151400000Y-94638200D03*
X151400000Y-92961800D03*
X162200000Y-130561800D03*
X162200000Y-132238200D03*
D13*
X140861800Y-132800000D03*
X142538200Y-132800000D03*
D14*
X192400000Y-136698600D03*
X192400000Y-133701400D03*
D12*
X170250000Y-135211800D03*
X170250000Y-136888200D03*
D15*
X153200000Y-136000000D03*
X146400000Y-136000000D03*
D16*
X142700000Y-134400000D03*
X140700000Y-134400000D03*
X141700000Y-137000000D03*
D17*
X158400000Y-133100000D03*
X158400000Y-136900000D03*
D18*
X158310000Y-112285000D03*
X162890000Y-112285000D03*
D19*
X160600000Y-106200000D03*
D20*
X168680610Y-133876856D03*
X168680610Y-135146856D03*
X168680610Y-136416856D03*
X168680610Y-137686856D03*
X162838610Y-137686856D03*
X162838610Y-136416856D03*
D21*
X162838610Y-135181856D03*
D20*
X162838610Y-133876856D03*
D22*
X175800000Y-129401620D03*
X175800000Y-136498380D03*
D12*
X148200000Y-92961800D03*
X148200000Y-94638200D03*
X146600000Y-94638200D03*
X146600000Y-92961800D03*
X157800000Y-92961800D03*
X157800000Y-94638200D03*
X164200000Y-94638200D03*
X164200000Y-92961800D03*
X170600000Y-92961800D03*
X170600000Y-94638200D03*
X177000000Y-94638200D03*
X177000000Y-92961800D03*
X183400000Y-94638200D03*
X183400000Y-92961800D03*
X189800000Y-94638200D03*
X189800000Y-92961800D03*
X183200000Y-124838200D03*
X183200000Y-123161800D03*
X148800000Y-128761800D03*
X148800000Y-130438200D03*
X139200000Y-121438200D03*
X139200000Y-119761800D03*
D13*
X146961800Y-113200000D03*
X148638200Y-113200000D03*
D12*
X139200000Y-118238200D03*
X139200000Y-116561800D03*
X155000000Y-120561800D03*
X155000000Y-122238200D03*
X155000000Y-124361800D03*
X155000000Y-126038200D03*
X147300000Y-107238200D03*
X147300000Y-105561800D03*
X147300000Y-110838200D03*
X147300000Y-109161800D03*
D18*
X173310000Y-112285000D03*
X177890000Y-112285000D03*
D19*
X175600000Y-106200000D03*
D23*
X188800000Y-136900000D03*
X188800000Y-131900000D03*
D24*
X168000000Y-111900000D03*
X168000000Y-105300000D03*
D25*
X167715300Y-130450000D03*
X164184700Y-130450000D03*
X150765300Y-96600000D03*
X147234700Y-96600000D03*
D11*
X151200000Y-82965300D03*
X151200000Y-79434700D03*
X146800000Y-79434700D03*
X146800000Y-82965300D03*
D25*
X157165300Y-96600000D03*
X153634700Y-96600000D03*
D11*
X157800000Y-82965300D03*
X157800000Y-79434700D03*
X153400000Y-79434700D03*
X153400000Y-82965300D03*
D25*
X160034700Y-96600000D03*
X163565300Y-96600000D03*
D11*
X164000000Y-79434700D03*
X164000000Y-82965300D03*
X159600000Y-82965300D03*
X159600000Y-79434700D03*
D25*
X169965300Y-96600000D03*
X166434700Y-96600000D03*
D11*
X170400000Y-82965300D03*
X170400000Y-79434700D03*
X166000000Y-79434700D03*
X166000000Y-82965300D03*
D25*
X176365300Y-96600000D03*
X172834700Y-96600000D03*
D11*
X176800000Y-79434700D03*
X176800000Y-82965300D03*
X172400000Y-82965300D03*
X172400000Y-79434700D03*
D25*
X179234700Y-96600000D03*
X182765300Y-96600000D03*
D11*
X183200000Y-82965300D03*
X183200000Y-79434700D03*
X178800000Y-79434700D03*
X178800000Y-82965300D03*
D25*
X185634700Y-96600000D03*
X189165300Y-96600000D03*
D11*
X189600000Y-79434700D03*
X189600000Y-82965300D03*
X185200000Y-82965300D03*
X185200000Y-79434700D03*
D26*
X139571753Y-107463830D03*
X144651753Y-107463830D03*
X139571753Y-108733830D03*
X144651753Y-108733830D03*
X139571753Y-110003830D03*
X144651753Y-110003830D03*
X144651753Y-111273830D03*
X139571753Y-112543830D03*
X144651753Y-112543830D03*
D12*
X149800000Y-92961800D03*
X149800000Y-94638200D03*
X154600000Y-94638200D03*
X154600000Y-92961800D03*
X153000000Y-92961800D03*
X153000000Y-94638200D03*
X156200000Y-94638200D03*
X156200000Y-92961800D03*
X161000000Y-94638200D03*
X161000000Y-92961800D03*
X159400000Y-92961800D03*
X159400000Y-94638200D03*
X162600000Y-94638200D03*
X162600000Y-92961800D03*
X167400000Y-94638200D03*
X167400000Y-92961800D03*
X165800000Y-92961800D03*
X165800000Y-94638200D03*
X169000000Y-92961800D03*
X169000000Y-94638200D03*
X173800000Y-94638200D03*
X173800000Y-92961800D03*
X172200000Y-92961800D03*
X172200000Y-94638200D03*
X175400000Y-94638200D03*
X175400000Y-92961800D03*
X180200000Y-92961800D03*
X180200000Y-94638200D03*
X178600000Y-94638200D03*
X178600000Y-92961800D03*
X181800000Y-94638200D03*
X181800000Y-92961800D03*
X186600000Y-94638200D03*
X186600000Y-92961800D03*
X185000000Y-94638200D03*
X185000000Y-92961800D03*
X188200000Y-94638200D03*
X188200000Y-92961800D03*
D13*
X144838200Y-105800000D03*
X143161800Y-105800000D03*
X144838200Y-103800000D03*
X143161800Y-103800000D03*
D27*
X147000000Y-90600000D03*
X147800000Y-90600000D03*
X148600000Y-90600000D03*
X149400000Y-90600000D03*
X150200000Y-90600000D03*
X151000000Y-90600000D03*
X151000000Y-85000000D03*
X150200000Y-85000000D03*
X149400000Y-85000000D03*
X148600000Y-85000000D03*
X147800000Y-85000000D03*
X147000000Y-85000000D03*
D28*
X149000000Y-87800000D03*
X155609657Y-87800000D03*
D27*
X153609657Y-85000000D03*
X154409657Y-85000000D03*
X155209657Y-85000000D03*
X156009657Y-85000000D03*
X156809657Y-85000000D03*
X157609657Y-85000000D03*
X157609657Y-90600000D03*
X156809657Y-90600000D03*
X156009657Y-90600000D03*
X155209657Y-90600000D03*
X154409657Y-90600000D03*
X153609657Y-90600000D03*
X159800000Y-90600000D03*
X160600000Y-90600000D03*
X161400000Y-90600000D03*
X162200000Y-90600000D03*
X163000000Y-90600000D03*
X163800000Y-90600000D03*
X163800000Y-85000000D03*
X163000000Y-85000000D03*
X162200000Y-85000000D03*
X161400000Y-85000000D03*
X160600000Y-85000000D03*
X159800000Y-85000000D03*
D28*
X161800000Y-87800000D03*
D27*
X166200000Y-90600000D03*
X167000000Y-90600000D03*
X167800000Y-90600000D03*
X168600000Y-90600000D03*
X169400000Y-90600000D03*
X170200000Y-90600000D03*
X170200000Y-85000000D03*
X169400000Y-85000000D03*
X168600000Y-85000000D03*
X167800000Y-85000000D03*
X167000000Y-85000000D03*
X166200000Y-85000000D03*
D28*
X168200000Y-87800000D03*
D27*
X172600000Y-90600000D03*
X173400000Y-90600000D03*
X174200000Y-90600000D03*
X175000000Y-90600000D03*
X175800000Y-90600000D03*
X176600000Y-90600000D03*
X176600000Y-85000000D03*
X175800000Y-85000000D03*
X175000000Y-85000000D03*
X174200000Y-85000000D03*
X173400000Y-85000000D03*
X172600000Y-85000000D03*
D28*
X174600000Y-87800000D03*
X180929657Y-87800000D03*
D27*
X178929657Y-85000000D03*
X179729657Y-85000000D03*
X180529657Y-85000000D03*
X181329657Y-85000000D03*
X182129657Y-85000000D03*
X182929657Y-85000000D03*
X182929657Y-90600000D03*
X182129657Y-90600000D03*
X181329657Y-90600000D03*
X180529657Y-90600000D03*
X179729657Y-90600000D03*
X178929657Y-90600000D03*
D28*
X187400000Y-87800000D03*
D27*
X185400000Y-85000000D03*
X186200000Y-85000000D03*
X187000000Y-85000000D03*
X187800000Y-85000000D03*
X188600000Y-85000000D03*
X189400000Y-85000000D03*
X189400000Y-90600000D03*
X188600000Y-90600000D03*
X187800000Y-90600000D03*
X187000000Y-90600000D03*
X186200000Y-90600000D03*
X185400000Y-90600000D03*
D20*
X175320433Y-125949570D03*
X175320433Y-124679570D03*
X175320433Y-123409570D03*
X175320433Y-122139570D03*
X181162433Y-122139570D03*
X181162433Y-123409570D03*
D21*
X181162433Y-124644570D03*
D20*
X181162433Y-125949570D03*
D29*
X143190000Y-126897880D03*
D30*
X143751340Y-126897880D03*
X144251720Y-126897880D03*
X144752100Y-126897880D03*
X145252480Y-126897880D03*
X145750320Y-126897880D03*
X146250700Y-126897880D03*
X146751080Y-126897880D03*
X147248920Y-126897880D03*
X147749300Y-126897880D03*
X148249680Y-126897880D03*
X148747520Y-126897880D03*
X149247900Y-126897880D03*
X149748280Y-126897880D03*
X150248660Y-126897880D03*
D29*
X150810000Y-126897880D03*
D31*
X152897880Y-124810000D03*
D32*
X152897880Y-124248660D03*
X152897880Y-123748280D03*
X152897880Y-123247900D03*
X152897880Y-122747520D03*
X152897880Y-122249680D03*
X152897880Y-121749300D03*
X152897880Y-121248920D03*
X152897880Y-120751080D03*
X152897880Y-120250700D03*
X152897880Y-119750320D03*
X152897880Y-119252480D03*
X152897880Y-118752100D03*
X152897880Y-118251720D03*
X152897880Y-117751340D03*
D31*
X152897880Y-117190000D03*
D29*
X150810000Y-115102120D03*
D30*
X150248660Y-115102120D03*
X149748280Y-115102120D03*
X149247900Y-115102120D03*
X148747520Y-115102120D03*
X148249680Y-115102120D03*
X147749300Y-115102120D03*
X147248920Y-115102120D03*
X146751080Y-115102120D03*
X146250700Y-115102120D03*
X145750320Y-115102120D03*
X145252480Y-115102120D03*
X144752100Y-115102120D03*
X144251720Y-115102120D03*
X143751340Y-115102120D03*
D29*
X143190000Y-115102120D03*
D31*
X141102120Y-117190000D03*
D32*
X141102120Y-117751340D03*
X141102120Y-118251720D03*
X141102120Y-118752100D03*
X141102120Y-119252480D03*
X141102120Y-119750320D03*
X141102120Y-120250700D03*
X141102120Y-120751080D03*
X141102120Y-121248920D03*
X141102120Y-121749300D03*
X141102120Y-122249680D03*
X141102120Y-122747520D03*
X141102120Y-123247900D03*
X141102120Y-123748280D03*
X141102120Y-124248660D03*
D31*
X141102120Y-124810000D03*
D33*
X150033170Y-105724862D03*
X150033170Y-110804862D03*
D34*
X154000260Y-60999580D03*
D35*
X157998220Y-60999580D03*
X161998720Y-60999580D03*
X165999220Y-60999580D03*
X169997180Y-60999580D03*
X173997680Y-60999580D03*
X177998180Y-60999580D03*
X181996140Y-60999580D03*
X155999240Y-64997540D03*
X159999740Y-64997540D03*
X164000240Y-64997540D03*
X167998200Y-64997540D03*
X171996160Y-64997540D03*
X175996660Y-64997540D03*
X179997160Y-64997540D03*
X154000260Y-68995500D03*
X157998220Y-68995500D03*
X161998720Y-68995500D03*
X165999220Y-68995500D03*
X169997180Y-68995500D03*
X173997680Y-68995500D03*
X177998180Y-68995500D03*
X181996140Y-68995500D03*
D36*
X144300000Y-54200000D03*
X191696400Y-54200000D03*
X142798860Y-72297500D03*
X193197540Y-72297500D03*
D34*
X164000260Y-118999580D03*
D35*
X167998220Y-118999580D03*
X171996180Y-118999580D03*
X165999240Y-122997540D03*
X169997200Y-122997540D03*
X164000260Y-126995500D03*
X167998220Y-126995500D03*
X171996180Y-126995500D03*
D36*
X154300000Y-112200000D03*
X181696440Y-112200000D03*
X183197580Y-130297500D03*
X152798860Y-130297500D03*
D11*
X170100000Y-54565300D03*
X170100000Y-51034700D03*
X174100000Y-51034700D03*
X174100000Y-54565300D03*
X178100000Y-54565300D03*
X178100000Y-51034700D03*
D37*
X188398600Y-69000000D03*
X185401400Y-69000000D03*
D12*
X153962873Y-55960460D03*
X153962873Y-57636860D03*
X158000000Y-57636860D03*
X158000000Y-55960460D03*
X162000000Y-55960460D03*
X162000000Y-57636860D03*
X169300000Y-56161800D03*
X169300000Y-57838200D03*
X170900000Y-56161800D03*
X170900000Y-57838200D03*
X173300000Y-56161800D03*
X173300000Y-57838200D03*
X174900000Y-57838200D03*
X174900000Y-56161800D03*
X177300000Y-56161800D03*
X177300000Y-57838200D03*
X178900000Y-56161800D03*
X178900000Y-57838200D03*
D11*
X182200000Y-54565300D03*
X182200000Y-51034700D03*
D12*
X181400000Y-56161800D03*
X181400000Y-57838200D03*
X183000000Y-57838200D03*
X183000000Y-56161800D03*
X166000000Y-57738200D03*
X166000000Y-56061800D03*
M02*
