G04 #@! TF.GenerationSoftware,KiCad,Pcbnew,(2017-01-11 revision e99b79cb2)-master*
G04 #@! TF.CreationDate,2018-02-20T17:30:00+02:00*
G04 #@! TF.ProjectId,icu,6963752E6B696361645F706362000000,rev?*
G04 #@! TF.FileFunction,Copper,L2,Bot,Signal*
G04 #@! TF.FilePolarity,Positive*
%FSLAX46Y46*%
G04 Gerber Fmt 4.6, Leading zero omitted, Abs format (unit mm)*
G04 Created by KiCad (PCBNEW (2017-01-11 revision e99b79cb2)-master) date Tue Feb 20 17:30:00 2018*
%MOMM*%
%LPD*%
G01*
G04 APERTURE LIST*
%ADD10C,0.100000*%
%ADD11R,2.623820X2.623820*%
%ADD12C,2.623820*%
%ADD13C,2.999740*%
%ADD14C,0.800000*%
%ADD15C,0.200000*%
%ADD16C,0.400000*%
G04 APERTURE END LIST*
D10*
D11*
X154000260Y-60999580D03*
D12*
X157998220Y-60999580D03*
X161998720Y-60999580D03*
X165999220Y-60999580D03*
X169997180Y-60999580D03*
X173997680Y-60999580D03*
X177998180Y-60999580D03*
X181996140Y-60999580D03*
X155999240Y-64997540D03*
X159999740Y-64997540D03*
X164000240Y-64997540D03*
X167998200Y-64997540D03*
X171996160Y-64997540D03*
X175996660Y-64997540D03*
X179997160Y-64997540D03*
X154000260Y-68995500D03*
X157998220Y-68995500D03*
X161998720Y-68995500D03*
X165999220Y-68995500D03*
X169997180Y-68995500D03*
X173997680Y-68995500D03*
X177998180Y-68995500D03*
X181996140Y-68995500D03*
D13*
X144300000Y-54200000D03*
X191696400Y-54200000D03*
X142798860Y-72297500D03*
X193197540Y-72297500D03*
D11*
X164000260Y-118999580D03*
D12*
X167998220Y-118999580D03*
X171996180Y-118999580D03*
X165999240Y-122997540D03*
X169997200Y-122997540D03*
X164000260Y-126995500D03*
X167998220Y-126995500D03*
X171996180Y-126995500D03*
D13*
X154300000Y-112200000D03*
X181696440Y-112200000D03*
X183197580Y-130297500D03*
X152798860Y-130297500D03*
D14*
X151350338Y-122454191D03*
X147500000Y-103100000D03*
X141500000Y-114200000D03*
X142900000Y-110400000D03*
X141900000Y-102700000D03*
X141100000Y-85800000D03*
X141600000Y-75800000D03*
X146200000Y-75700000D03*
X150600000Y-69800000D03*
X142500000Y-68500000D03*
X146500000Y-64300000D03*
X146800000Y-60100000D03*
X143900000Y-61700000D03*
X141000000Y-64500000D03*
X139100000Y-59800000D03*
X139900000Y-50500000D03*
X148300000Y-51300000D03*
X164100000Y-54900000D03*
X151300000Y-55000000D03*
X151000000Y-57600000D03*
X156000000Y-58000000D03*
X163900000Y-58300000D03*
X182800000Y-65800000D03*
X185000000Y-50400000D03*
X196700000Y-50600000D03*
X196500000Y-66700000D03*
X196100000Y-70700000D03*
X195800000Y-85300000D03*
X156500000Y-110400000D03*
X161500000Y-110200000D03*
X165700000Y-111300000D03*
X171400000Y-110400000D03*
X195900000Y-103000000D03*
X195800000Y-115000000D03*
X185000000Y-111300000D03*
X180300000Y-117400000D03*
X186400000Y-120400000D03*
X195400000Y-128900000D03*
X197000000Y-130700000D03*
X196600000Y-137600000D03*
X177900000Y-138000000D03*
X185900000Y-130500000D03*
X186400000Y-124700000D03*
X176800000Y-120900000D03*
X173700000Y-128900000D03*
X173800000Y-135200000D03*
X164900000Y-134700000D03*
X155900000Y-134300000D03*
X143900000Y-136100000D03*
X144500000Y-128500000D03*
X155700000Y-115700000D03*
X148700000Y-120100000D03*
X146500000Y-116500000D03*
X155518606Y-120175919D03*
X150102752Y-125549604D03*
X147218388Y-94954985D03*
X147300000Y-108200000D03*
X139199865Y-119226615D03*
X139799012Y-111627318D03*
X138900843Y-115967799D03*
X183700000Y-57800000D03*
X176481161Y-125928875D03*
X171700000Y-58000000D03*
X175500000Y-57800000D03*
X179500000Y-57800000D03*
X190600000Y-79400000D03*
X145800000Y-79400000D03*
X152400000Y-79400000D03*
X158600000Y-79400000D03*
X165000000Y-79400000D03*
X171400000Y-79400000D03*
X177800000Y-79400000D03*
X184200000Y-79400000D03*
X183997852Y-125002138D03*
X175985404Y-131799990D03*
X148800000Y-131400000D03*
X147600000Y-113200000D03*
X155000000Y-127200000D03*
X142600000Y-131600000D03*
X146200000Y-133800000D03*
X169000000Y-130600000D03*
X188800000Y-135200000D03*
X171400000Y-136800000D03*
X182600000Y-94638200D03*
X176200000Y-94638200D03*
X169800000Y-94638200D03*
X163400000Y-94638200D03*
X157100000Y-94638200D03*
X189000000Y-94638200D03*
X146900000Y-91600000D03*
X153500000Y-91500000D03*
X159700000Y-91800000D03*
X166100000Y-91700000D03*
X172500000Y-91600000D03*
X178900000Y-91600000D03*
X185400000Y-91600000D03*
X146300000Y-103600000D03*
X146500000Y-96700000D03*
X196800000Y-68800000D03*
X192200000Y-130400000D03*
X139800000Y-126800000D03*
X177800000Y-125600000D03*
X140500010Y-127721372D03*
X177471125Y-127118839D03*
X152000000Y-108300000D03*
X152200000Y-96600000D03*
X156000000Y-96600000D03*
X152900000Y-107300000D03*
X151800000Y-114500000D03*
X162400000Y-96600000D03*
X153700000Y-116500000D03*
X168500000Y-96600000D03*
X155400990Y-118184236D03*
X175300000Y-96700000D03*
X148956111Y-124172742D03*
X180700000Y-96600000D03*
X149958586Y-124358501D03*
X187800000Y-96600000D03*
X146335989Y-117933926D03*
X148300000Y-93658198D03*
X145567173Y-117296002D03*
X146600000Y-93658198D03*
X145782853Y-120293286D03*
X154600000Y-93658198D03*
X153000000Y-93658198D03*
X145825379Y-118986071D03*
X147124335Y-121114315D03*
X161000000Y-93658198D03*
X146817166Y-120163698D03*
X159376626Y-93634824D03*
X167400000Y-93658198D03*
X146300000Y-128400000D03*
X147773511Y-121873653D03*
X165800000Y-93658198D03*
X154954479Y-117290562D03*
X173800000Y-93658198D03*
X172200000Y-93658198D03*
X147400000Y-128400000D03*
X151500000Y-123441929D03*
X180200000Y-93658198D03*
X154702905Y-118977119D03*
X178600000Y-93658198D03*
X152296610Y-125400990D03*
X186600000Y-93658198D03*
X151437606Y-124839940D03*
X185000000Y-93658198D03*
X173000000Y-124600000D03*
X173200000Y-123400000D03*
X147159089Y-124622337D03*
X168100000Y-56100000D03*
X146776407Y-125545148D03*
X172100000Y-56000000D03*
X145362419Y-124099332D03*
X176700000Y-54900000D03*
X143141601Y-124763306D03*
X153900000Y-52403957D03*
X143996952Y-122774195D03*
X158000000Y-52400000D03*
X142866608Y-122744842D03*
X162000002Y-52400000D03*
X144539613Y-124665914D03*
X181202366Y-53749530D03*
X166000000Y-52400001D03*
X140200000Y-115100000D03*
D15*
X147500000Y-103100000D02*
X147500000Y-108000000D01*
X147500000Y-108000000D02*
X147300000Y-108200000D01*
X141500000Y-114200000D02*
X139799012Y-112499012D01*
X139799012Y-112499012D02*
X139799012Y-111627318D01*
X141900000Y-102700000D02*
X142900000Y-103700000D01*
X142900000Y-103700000D02*
X142900000Y-110400000D01*
X142100000Y-87365685D02*
X142100000Y-102500000D01*
X142100000Y-102500000D02*
X141900000Y-102700000D01*
X141100000Y-85800000D02*
X141100000Y-86365685D01*
X141100000Y-86365685D02*
X142100000Y-87365685D01*
X141600000Y-75800000D02*
X141100000Y-76300000D01*
X141100000Y-76300000D02*
X141100000Y-85800000D01*
X150600000Y-69800000D02*
X146200000Y-74200000D01*
X146200000Y-74200000D02*
X146200000Y-75700000D01*
X146800000Y-60100000D02*
X146800000Y-64000000D01*
X146800000Y-64000000D02*
X146500000Y-64300000D01*
X143400000Y-62100000D02*
X143800000Y-61700000D01*
X143800000Y-61700000D02*
X143900000Y-61700000D01*
X141000000Y-64500000D02*
X143400000Y-62100000D01*
X139900000Y-50500000D02*
X139900000Y-59000000D01*
X139900000Y-59000000D02*
X139100000Y-59800000D01*
X148300000Y-51300000D02*
X147500000Y-50500000D01*
X147500000Y-50500000D02*
X139900000Y-50500000D01*
X151300000Y-55000000D02*
X164000000Y-55000000D01*
X164000000Y-55000000D02*
X164100000Y-54900000D01*
X156000000Y-58000000D02*
X155600000Y-57600000D01*
X155600000Y-57600000D02*
X151000000Y-57600000D01*
X163900000Y-58300000D02*
X156300000Y-58300000D01*
X156300000Y-58300000D02*
X156000000Y-58000000D01*
X171700000Y-58000000D02*
X164200000Y-58000000D01*
X164200000Y-58000000D02*
X163900000Y-58300000D01*
X185000000Y-63100000D02*
X182800000Y-65300000D01*
X182800000Y-65300000D02*
X182800000Y-65800000D01*
X185000000Y-61800000D02*
X185000000Y-63100000D01*
X183700000Y-60500000D02*
X185000000Y-61800000D01*
X183700000Y-57800000D02*
X183700000Y-60500000D01*
X185000000Y-50400000D02*
X183700000Y-51700000D01*
X183700000Y-51700000D02*
X183700000Y-57800000D01*
X196700000Y-50600000D02*
X185200000Y-50600000D01*
X185200000Y-50600000D02*
X185000000Y-50400000D01*
X196500000Y-66700000D02*
X196500000Y-50800000D01*
X196500000Y-50800000D02*
X196700000Y-50600000D01*
X195000000Y-69600000D02*
X195000000Y-68200000D01*
X195000000Y-68200000D02*
X196500000Y-66700000D01*
X196100000Y-70700000D02*
X195000000Y-69600000D01*
X195800000Y-85300000D02*
X195800000Y-71000000D01*
X195800000Y-71000000D02*
X196100000Y-70700000D01*
X189000000Y-94638200D02*
X189000000Y-92100000D01*
X189000000Y-92100000D02*
X195800000Y-85300000D01*
X190100000Y-100000000D02*
X190100000Y-95738200D01*
X190100000Y-95738200D02*
X189000000Y-94638200D01*
X185000000Y-105100000D02*
X190100000Y-100000000D01*
X185000000Y-111300000D02*
X185000000Y-105100000D01*
X164500000Y-101834315D02*
X164500000Y-95738200D01*
X164500000Y-95738200D02*
X163400000Y-94638200D01*
X156500000Y-110400000D02*
X156500000Y-109834315D01*
X156500000Y-109834315D02*
X164500000Y-101834315D01*
X189700000Y-109200000D02*
X172600000Y-109200000D01*
X172600000Y-109200000D02*
X171400000Y-110400000D01*
X195900000Y-103000000D02*
X189700000Y-109200000D01*
X195800000Y-115000000D02*
X195800000Y-103100000D01*
X195800000Y-103100000D02*
X195900000Y-103000000D01*
X185000000Y-111300000D02*
X192100000Y-111300000D01*
X192100000Y-111300000D02*
X195800000Y-115000000D01*
X180300000Y-117400000D02*
X185000000Y-112700000D01*
X185000000Y-112700000D02*
X185000000Y-111300000D01*
X186400000Y-120400000D02*
X183300000Y-120400000D01*
X183300000Y-120400000D02*
X180300000Y-117400000D01*
X195400000Y-128900000D02*
X186900000Y-120400000D01*
X186900000Y-120400000D02*
X186400000Y-120400000D01*
X196600000Y-137600000D02*
X196600000Y-131100000D01*
X196600000Y-131100000D02*
X197000000Y-130700000D01*
X177900000Y-138000000D02*
X178300000Y-137600000D01*
X178300000Y-137600000D02*
X196600000Y-137600000D01*
X188800000Y-135200000D02*
X180700000Y-135200000D01*
X180700000Y-135200000D02*
X177900000Y-138000000D01*
X185900000Y-130500000D02*
X188800000Y-133400000D01*
X188800000Y-133400000D02*
X188800000Y-135200000D01*
X186400000Y-124700000D02*
X186400000Y-130000000D01*
X186400000Y-130000000D02*
X185900000Y-130500000D01*
X176800000Y-120900000D02*
X180600000Y-124700000D01*
X180600000Y-124700000D02*
X186400000Y-124700000D01*
X176481161Y-125928875D02*
X176481161Y-121218839D01*
X176481161Y-121218839D02*
X176800000Y-120900000D01*
X173700000Y-128900000D02*
X176481161Y-126118839D01*
X176481161Y-126118839D02*
X176481161Y-125928875D01*
X175985404Y-131799990D02*
X175985404Y-131185404D01*
X175985404Y-131185404D02*
X173700000Y-128900000D01*
X173800000Y-135200000D02*
X175985404Y-133014596D01*
X175985404Y-133014596D02*
X175985404Y-131799990D01*
X171400000Y-136800000D02*
X172200000Y-136800000D01*
X172200000Y-136800000D02*
X173800000Y-135200000D01*
X164900000Y-134700000D02*
X169300000Y-134700000D01*
X169300000Y-134700000D02*
X171400000Y-136800000D01*
X155900000Y-134300000D02*
X156300000Y-134700000D01*
X156300000Y-134700000D02*
X164900000Y-134700000D01*
X146600000Y-133400000D02*
X155000000Y-133400000D01*
X155000000Y-133400000D02*
X155900000Y-134300000D01*
X143900000Y-136100000D02*
X146600000Y-133400000D01*
X146200000Y-133800000D02*
X143900000Y-136100000D01*
X144500000Y-128500000D02*
X143934315Y-128500000D01*
X143934315Y-128500000D02*
X142600000Y-129834315D01*
X142600000Y-129834315D02*
X142600000Y-131034315D01*
X142600000Y-131034315D02*
X142600000Y-131600000D01*
X147434315Y-130600000D02*
X146600000Y-130600000D01*
X146600000Y-130600000D02*
X144500000Y-128500000D01*
X148800000Y-131400000D02*
X148234315Y-131400000D01*
X148234315Y-131400000D02*
X147434315Y-130600000D01*
X146500000Y-96700000D02*
X146500000Y-103400000D01*
X146500000Y-103400000D02*
X146300000Y-103600000D01*
D16*
X197200000Y-69200000D02*
X196800000Y-68800000D01*
X192200000Y-130400000D02*
X195800000Y-130400000D01*
X195800000Y-130400000D02*
X197200000Y-129000000D01*
X197200000Y-129000000D02*
X197200000Y-69200000D01*
D15*
X178199999Y-125999999D02*
X177800000Y-125600000D01*
X178500011Y-126300011D02*
X178199999Y-125999999D01*
X178500011Y-133765689D02*
X178500011Y-126300011D01*
X174265689Y-138000011D02*
X178500011Y-133765689D01*
X143034311Y-138000011D02*
X174265689Y-138000011D01*
X139399989Y-134365689D02*
X143034311Y-138000011D01*
X139399989Y-127200011D02*
X139399989Y-134365689D01*
X139800000Y-126800000D02*
X139399989Y-127200011D01*
X139800000Y-128987067D02*
X140500010Y-128287057D01*
X177471125Y-127118839D02*
X178100000Y-127747714D01*
X139800000Y-134200000D02*
X139800000Y-128987067D01*
X174100000Y-137600000D02*
X143200000Y-137600000D01*
X143200000Y-137600000D02*
X139800000Y-134200000D01*
X178100000Y-127747714D02*
X178100000Y-133600000D01*
X178100000Y-133600000D02*
X174100000Y-137600000D01*
X140500010Y-128287057D02*
X140500010Y-127721372D01*
X152200000Y-96600000D02*
X152000000Y-96800000D01*
X152000000Y-96800000D02*
X152000000Y-108300000D01*
X152900000Y-107300000D02*
X152400000Y-106800000D01*
X153900000Y-96600000D02*
X156000000Y-96600000D01*
X152400000Y-106800000D02*
X152400000Y-98100000D01*
X152400000Y-98100000D02*
X153900000Y-96600000D01*
X162400000Y-96600000D02*
X162400000Y-100100000D01*
X162400000Y-100100000D02*
X151500000Y-111000000D01*
X151500000Y-111000000D02*
X151500000Y-113634315D01*
X151500000Y-113634315D02*
X151800000Y-113934315D01*
X151800000Y-113934315D02*
X151800000Y-114500000D01*
X166600000Y-98500000D02*
X166600000Y-103700000D01*
X168500000Y-96600000D02*
X166600000Y-98500000D01*
X155199999Y-115100001D02*
X153900000Y-116400000D01*
X153900000Y-116400000D02*
X153900000Y-116500000D01*
X153900000Y-116500000D02*
X153700000Y-116500000D01*
X166600000Y-103700000D02*
X155199999Y-115100001D01*
X166600000Y-103600000D02*
X166600000Y-103700000D01*
X155966675Y-118184236D02*
X155400990Y-118184236D01*
X175300000Y-99228572D02*
X156344336Y-118184236D01*
X175300000Y-96700000D02*
X175300000Y-99228572D01*
X156344336Y-118184236D02*
X155966675Y-118184236D01*
X150294107Y-123659500D02*
X149469353Y-123659500D01*
X151773127Y-124140939D02*
X150775546Y-124140939D01*
X151777685Y-124145497D02*
X151773127Y-124140939D01*
X154054503Y-124145497D02*
X151777685Y-124145497D01*
X180700000Y-96600000D02*
X180700000Y-97500000D01*
X149356110Y-123772743D02*
X148956111Y-124172742D01*
X150775546Y-124140939D02*
X150294107Y-123659500D01*
X149469353Y-123659500D02*
X149356110Y-123772743D01*
X180700000Y-97500000D02*
X154054503Y-124145497D01*
X151700085Y-126100000D02*
X150358585Y-124758500D01*
X183292858Y-96600000D02*
X153792858Y-126100000D01*
X187800000Y-96600000D02*
X183292858Y-96600000D01*
X150358585Y-124758500D02*
X149958586Y-124358501D01*
X153792858Y-126100000D02*
X151700085Y-126100000D01*
X146808930Y-117933926D02*
X146335989Y-117933926D01*
X149401978Y-94760176D02*
X149401978Y-115340878D01*
X149401978Y-115340878D02*
X146808930Y-117933926D01*
X148300000Y-93658198D02*
X149401978Y-94760176D01*
X146600000Y-93658198D02*
X147165685Y-93658198D01*
X149000000Y-100100000D02*
X149000000Y-115178570D01*
X148000000Y-94492513D02*
X148000000Y-99100000D01*
X147165685Y-93658198D02*
X148000000Y-94492513D01*
X148000000Y-99100000D02*
X149000000Y-100100000D01*
X149000000Y-115178570D02*
X146961396Y-117217174D01*
X145646001Y-117217174D02*
X145567173Y-117296002D01*
X146961396Y-117217174D02*
X145646001Y-117217174D01*
X145782853Y-120088575D02*
X145782853Y-120293286D01*
X150299010Y-115572418D02*
X145782853Y-120088575D01*
X154034315Y-93658198D02*
X150299010Y-97393503D01*
X154600000Y-93658198D02*
X154034315Y-93658198D01*
X150299010Y-97393503D02*
X150299010Y-115572418D01*
X145800000Y-120000000D02*
X145800000Y-120276139D01*
X145800000Y-120276139D02*
X145782853Y-120293286D01*
X152600001Y-94058197D02*
X153000000Y-93658198D01*
X149899999Y-115407143D02*
X149900000Y-96758198D01*
X146321071Y-118986071D02*
X149899999Y-115407143D01*
X149900000Y-96758198D02*
X152600001Y-94058197D01*
X145825379Y-118986071D02*
X146321071Y-118986071D01*
X159800989Y-94857209D02*
X159800989Y-102097821D01*
X151100990Y-115899010D02*
X147524334Y-119475666D01*
X147524334Y-120714316D02*
X147124335Y-121114315D01*
X161000000Y-93658198D02*
X159800989Y-94857209D01*
X159800989Y-102097821D02*
X151100990Y-110797820D01*
X151100990Y-110797820D02*
X151100990Y-115899010D01*
X147524334Y-119475666D02*
X147524334Y-120714316D01*
X150701979Y-110632545D02*
X150701979Y-115733735D01*
X146817166Y-119618548D02*
X146817166Y-120163698D01*
X150701979Y-115733735D02*
X146817166Y-119618548D01*
X159376626Y-101957898D02*
X150701979Y-110632545D01*
X159376626Y-93634824D02*
X159376626Y-101957898D01*
X166200989Y-94857209D02*
X167000001Y-94058197D01*
X153936703Y-115699011D02*
X166200989Y-103434725D01*
X153366467Y-115699011D02*
X153936703Y-115699011D01*
X153000999Y-117681547D02*
X153000999Y-116064479D01*
X167000001Y-94058197D02*
X167400000Y-93658198D01*
X147858100Y-122824446D02*
X153000999Y-117681547D01*
X153000999Y-116064479D02*
X153366467Y-115699011D01*
X146300000Y-128400000D02*
X147858100Y-126841900D01*
X166200989Y-103434725D02*
X166200989Y-94857209D01*
X147858100Y-126841900D02*
X147858100Y-122824446D01*
X165800000Y-93658198D02*
X165800000Y-103271428D01*
X165800000Y-103271428D02*
X153771428Y-115300000D01*
X153771428Y-115300000D02*
X153201192Y-115300000D01*
X153201192Y-115300000D02*
X152601988Y-115899204D01*
X152601988Y-115899204D02*
X152601988Y-117498012D01*
X152601988Y-117498012D02*
X148626346Y-121473654D01*
X148626346Y-121473654D02*
X148173510Y-121473654D01*
X148173510Y-121473654D02*
X147773511Y-121873653D01*
X156673724Y-117290562D02*
X155520164Y-117290562D01*
X173800000Y-100164286D02*
X156673724Y-117290562D01*
X173800000Y-93658198D02*
X173800000Y-100164286D01*
X155520164Y-117290562D02*
X154954479Y-117290562D01*
X147400000Y-128400000D02*
X148257110Y-127542890D01*
X148257110Y-127542890D02*
X148257110Y-122989722D01*
X148257110Y-122989722D02*
X154814078Y-116432754D01*
X156967246Y-116432754D02*
X172200000Y-101200000D01*
X172200000Y-94223883D02*
X172200000Y-93658198D01*
X154814078Y-116432754D02*
X156967246Y-116432754D01*
X172200000Y-101200000D02*
X172200000Y-94223883D01*
X155029908Y-119676129D02*
X152223871Y-119676129D01*
X150300000Y-122807614D02*
X150934315Y-123441929D01*
X156344494Y-119312649D02*
X155393388Y-119312649D01*
X150934315Y-123441929D02*
X151500000Y-123441929D01*
X150300000Y-121600000D02*
X150300000Y-122807614D01*
X155393388Y-119312649D02*
X155029908Y-119676129D01*
X152223871Y-119676129D02*
X150300000Y-121600000D01*
X180200000Y-93658198D02*
X180200000Y-95457143D01*
X180200000Y-95457143D02*
X156344494Y-119312649D01*
X178600000Y-96492858D02*
X156208430Y-118884428D01*
X178600000Y-93658198D02*
X178600000Y-96492858D01*
X156208430Y-118884428D02*
X154795596Y-118884428D01*
X154795596Y-118884428D02*
X154702905Y-118977119D01*
X181498020Y-97775512D02*
X181498020Y-97830552D01*
X152862295Y-125400990D02*
X152296610Y-125400990D01*
X184673532Y-94600000D02*
X181498020Y-97775512D01*
X153927582Y-125400990D02*
X152862295Y-125400990D01*
X181498020Y-97830552D02*
X153927582Y-125400990D01*
X186600000Y-93658198D02*
X185658198Y-94600000D01*
X185658198Y-94600000D02*
X184673532Y-94600000D01*
X181099011Y-97559187D02*
X181099010Y-97665276D01*
X185000000Y-93658198D02*
X181099011Y-97559187D01*
X181099010Y-97665276D02*
X154062297Y-124701989D01*
X154062297Y-124701989D02*
X151575557Y-124701989D01*
X151575557Y-124701989D02*
X151437606Y-124839940D01*
D16*
X172034315Y-125000000D02*
X168001700Y-125000000D01*
X168001700Y-125000000D02*
X165999240Y-122997540D01*
X173000000Y-124600000D02*
X172434315Y-124600000D01*
X172434315Y-124600000D02*
X172034315Y-125000000D01*
X173200000Y-123400000D02*
X170399660Y-123400000D01*
X170399660Y-123400000D02*
X169997200Y-122997540D01*
D15*
X147159089Y-124056652D02*
X147159089Y-124622337D01*
X147159089Y-122670377D02*
X147159089Y-124056652D01*
X145498022Y-74030550D02*
X144800001Y-74728571D01*
X145498022Y-59901978D02*
X145498022Y-74030550D01*
X168100000Y-56100000D02*
X149300001Y-56100000D01*
X144800001Y-74728571D02*
X144800001Y-120311289D01*
X149300001Y-56100000D02*
X145498022Y-59901978D01*
X144800001Y-120311289D02*
X147159089Y-122670377D01*
X144400990Y-74563296D02*
X144400990Y-120476564D01*
X172100000Y-56000000D02*
X170000990Y-53900990D01*
X170000990Y-53900990D02*
X150934725Y-53900990D01*
X146376408Y-125145149D02*
X146776407Y-125545148D01*
X146376408Y-124392912D02*
X146376408Y-125145149D01*
X146502978Y-124266342D02*
X146376408Y-124392912D01*
X146502978Y-122578552D02*
X146502978Y-124266342D01*
X150934725Y-53900990D02*
X145099012Y-59736702D01*
X145099012Y-59736702D02*
X145099011Y-73865275D01*
X144400990Y-120476564D02*
X146502978Y-122578552D01*
X145099011Y-73865275D02*
X144400990Y-74563296D01*
X145762418Y-123699333D02*
X145362419Y-124099332D01*
X146100989Y-123360762D02*
X145762418Y-123699333D01*
X146100989Y-122740851D02*
X146100989Y-123360762D01*
X144001979Y-120641841D02*
X146100989Y-122740851D01*
X144001979Y-74298021D02*
X144001979Y-120641841D01*
X176700000Y-54900000D02*
X175301980Y-53501980D01*
X144700000Y-59571428D02*
X144700000Y-73600000D01*
X175301980Y-53501980D02*
X150769450Y-53501979D01*
X150769450Y-53501979D02*
X144700000Y-59571428D01*
X144700000Y-73600000D02*
X144001979Y-74298021D01*
X143541600Y-124363307D02*
X143141601Y-124763306D01*
X145051415Y-122853492D02*
X143541600Y-124363307D01*
X143203959Y-120972393D02*
X145051415Y-122819849D01*
X143203958Y-112869171D02*
X143203959Y-120972393D01*
X139800991Y-63341865D02*
X139800991Y-109466202D01*
X150738899Y-52403957D02*
X139800991Y-63341865D01*
X153900000Y-52403957D02*
X150738899Y-52403957D01*
X145051415Y-122819849D02*
X145051415Y-122853492D01*
X139800991Y-109466202D02*
X143203958Y-112869171D01*
X158000000Y-52400000D02*
X157304956Y-51704956D01*
X143596953Y-122374196D02*
X143996952Y-122774195D01*
X139401980Y-109631477D02*
X142804947Y-113034446D01*
X142804947Y-121582190D02*
X143596953Y-122374196D01*
X139401980Y-63176590D02*
X139401980Y-109631477D01*
X150873614Y-51704956D02*
X139401980Y-63176590D01*
X142804947Y-113034446D02*
X142804947Y-121582190D01*
X157304956Y-51704956D02*
X150873614Y-51704956D01*
X160905947Y-51305945D02*
X150708339Y-51305945D01*
X139002969Y-109796752D02*
X142298693Y-113092476D01*
X150708339Y-51305945D02*
X139002970Y-63011314D01*
X162000002Y-52400000D02*
X160905947Y-51305945D01*
X142466609Y-122344843D02*
X142866608Y-122744842D01*
X142298693Y-122176927D02*
X142466609Y-122344843D01*
X142298693Y-113092476D02*
X142298693Y-122176927D01*
X139002970Y-63011314D02*
X139002969Y-109796752D01*
X181202366Y-53749530D02*
X180555806Y-53102970D01*
X140200002Y-109300927D02*
X143602968Y-112703895D01*
X143602968Y-112703895D02*
X143602969Y-120807117D01*
X150604174Y-53102968D02*
X140200002Y-63507140D01*
X145213844Y-123401717D02*
X145069841Y-123401717D01*
X145069841Y-123401717D02*
X144539613Y-123931945D01*
X145690810Y-122924751D02*
X145213844Y-123401717D01*
X143602969Y-120807117D02*
X145690810Y-122894958D01*
X140200002Y-63507140D02*
X140200002Y-109300927D01*
X180555806Y-53102970D02*
X150604174Y-53102968D01*
X144539613Y-123931945D02*
X144539613Y-124100229D01*
X144539613Y-124100229D02*
X144539613Y-124665914D01*
X145690810Y-122894958D02*
X145690810Y-122924751D01*
X150543064Y-50906934D02*
X164506933Y-50906934D01*
X138603958Y-113503958D02*
X138603958Y-62846040D01*
X140200000Y-115100000D02*
X138603958Y-113503958D01*
X138603958Y-62846040D02*
X150543064Y-50906934D01*
X164506933Y-50906934D02*
X165600001Y-52000002D01*
X165600001Y-52000002D02*
X166000000Y-52400001D01*
G36*
X196550768Y-49670330D02*
X197017686Y-49982314D01*
X197329670Y-50449232D01*
X197450000Y-51054170D01*
X197450000Y-68177231D01*
X197310475Y-68037462D01*
X196979806Y-67900157D01*
X196621764Y-67899844D01*
X196290857Y-68036572D01*
X196037462Y-68289525D01*
X195900157Y-68620194D01*
X195899844Y-68978236D01*
X196036572Y-69309143D01*
X196289525Y-69562538D01*
X196500000Y-69649934D01*
X196500000Y-128710050D01*
X195510050Y-129700000D01*
X192772904Y-129700000D01*
X192710475Y-129637462D01*
X192379806Y-129500157D01*
X192021764Y-129499844D01*
X191690857Y-129636572D01*
X191437462Y-129889525D01*
X191300157Y-130220194D01*
X191299844Y-130578236D01*
X191436572Y-130909143D01*
X191689525Y-131162538D01*
X192020194Y-131299843D01*
X192378236Y-131300156D01*
X192709143Y-131163428D01*
X192772682Y-131100000D01*
X195800000Y-131100000D01*
X196067879Y-131046716D01*
X196294975Y-130894975D01*
X197450000Y-129739950D01*
X197450000Y-136945830D01*
X197329670Y-137550768D01*
X197017686Y-138017686D01*
X196550768Y-138329670D01*
X195945829Y-138450000D01*
X174651453Y-138450000D01*
X174689953Y-138424275D01*
X178924275Y-134189953D01*
X179054339Y-133995299D01*
X179100011Y-133765689D01*
X179100011Y-130693554D01*
X181197363Y-130693554D01*
X181501184Y-131428856D01*
X182063265Y-131991919D01*
X182798036Y-132297022D01*
X183593634Y-132297717D01*
X184328936Y-131993896D01*
X184891999Y-131431815D01*
X185197102Y-130697044D01*
X185197797Y-129901446D01*
X184893976Y-129166144D01*
X184331895Y-128603081D01*
X183597124Y-128297978D01*
X182801526Y-128297283D01*
X182066224Y-128601104D01*
X181503161Y-129163185D01*
X181198058Y-129897956D01*
X181197363Y-130693554D01*
X179100011Y-130693554D01*
X179100011Y-126300011D01*
X179054339Y-126070401D01*
X178924275Y-125875747D01*
X178699955Y-125651427D01*
X178700156Y-125421764D01*
X178563428Y-125090857D01*
X178310475Y-124837462D01*
X177979806Y-124700157D01*
X177621764Y-124699844D01*
X177290857Y-124836572D01*
X177037462Y-125089525D01*
X176900157Y-125420194D01*
X176899844Y-125778236D01*
X177036572Y-126109143D01*
X177188839Y-126261676D01*
X176961982Y-126355411D01*
X176708587Y-126608364D01*
X176571282Y-126939033D01*
X176570969Y-127297075D01*
X176707697Y-127627982D01*
X176960650Y-127881377D01*
X177291319Y-128018682D01*
X177500000Y-128018864D01*
X177500000Y-133351472D01*
X173851472Y-137000000D01*
X143448528Y-137000000D01*
X140400000Y-133951472D01*
X140400000Y-130693554D01*
X150798643Y-130693554D01*
X151102464Y-131428856D01*
X151664545Y-131991919D01*
X152399316Y-132297022D01*
X153194914Y-132297717D01*
X153930216Y-131993896D01*
X154493279Y-131431815D01*
X154798382Y-130697044D01*
X154799077Y-129901446D01*
X154495256Y-129166144D01*
X153933175Y-128603081D01*
X153198404Y-128297978D01*
X152402806Y-128297283D01*
X151667504Y-128601104D01*
X151104441Y-129163185D01*
X150799338Y-129897956D01*
X150798643Y-130693554D01*
X140400000Y-130693554D01*
X140400000Y-129235595D01*
X140924274Y-128711321D01*
X141054338Y-128516667D01*
X141073442Y-128420623D01*
X141262548Y-128231847D01*
X141399853Y-127901178D01*
X141400166Y-127543136D01*
X141263438Y-127212229D01*
X141010485Y-126958834D01*
X140699974Y-126829899D01*
X140700156Y-126621764D01*
X140563428Y-126290857D01*
X140310475Y-126037462D01*
X139979806Y-125900157D01*
X139621764Y-125899844D01*
X139290857Y-126036572D01*
X139037462Y-126289525D01*
X138900157Y-126620194D01*
X138899922Y-126889194D01*
X138845661Y-126970401D01*
X138799989Y-127200011D01*
X138799989Y-134365689D01*
X138845661Y-134595299D01*
X138975725Y-134789953D01*
X142610047Y-138424275D01*
X142648547Y-138450000D01*
X140054170Y-138450000D01*
X139449232Y-138329670D01*
X138982314Y-138017686D01*
X138670330Y-137550768D01*
X138550000Y-136945829D01*
X138550000Y-114298528D01*
X139300045Y-115048573D01*
X139299844Y-115278236D01*
X139436572Y-115609143D01*
X139689525Y-115862538D01*
X140020194Y-115999843D01*
X140378236Y-116000156D01*
X140709143Y-115863428D01*
X140962538Y-115610475D01*
X141099843Y-115279806D01*
X141100156Y-114921764D01*
X140963428Y-114590857D01*
X140710475Y-114337462D01*
X140379806Y-114200157D01*
X140148483Y-114199955D01*
X139203958Y-113255430D01*
X139203958Y-110846269D01*
X141698693Y-113341004D01*
X141698693Y-122176927D01*
X141744365Y-122406537D01*
X141874429Y-122601191D01*
X141966653Y-122693415D01*
X141966452Y-122923078D01*
X142103180Y-123253985D01*
X142356133Y-123507380D01*
X142686802Y-123644685D01*
X143044844Y-123644998D01*
X143375751Y-123508270D01*
X143416979Y-123467114D01*
X143486477Y-123536733D01*
X143509914Y-123546465D01*
X143193028Y-123863351D01*
X142963365Y-123863150D01*
X142632458Y-123999878D01*
X142379063Y-124252831D01*
X142241758Y-124583500D01*
X142241445Y-124941542D01*
X142378173Y-125272449D01*
X142631126Y-125525844D01*
X142961795Y-125663149D01*
X143319837Y-125663462D01*
X143650744Y-125526734D01*
X143889412Y-125288482D01*
X144029138Y-125428452D01*
X144359807Y-125565757D01*
X144717849Y-125566070D01*
X145048756Y-125429342D01*
X145302151Y-125176389D01*
X145375666Y-124999344D01*
X145540655Y-124999488D01*
X145776408Y-124902077D01*
X145776408Y-125145149D01*
X145822080Y-125374759D01*
X145876485Y-125456181D01*
X145876251Y-125723384D01*
X146012979Y-126054291D01*
X146265932Y-126307686D01*
X146596601Y-126444991D01*
X146954643Y-126445304D01*
X147258100Y-126319918D01*
X147258100Y-126593372D01*
X146351427Y-127500045D01*
X146121764Y-127499844D01*
X145790857Y-127636572D01*
X145537462Y-127889525D01*
X145400157Y-128220194D01*
X145399844Y-128578236D01*
X145536572Y-128909143D01*
X145789525Y-129162538D01*
X146120194Y-129299843D01*
X146478236Y-129300156D01*
X146809143Y-129163428D01*
X146849849Y-129122793D01*
X146889525Y-129162538D01*
X147220194Y-129299843D01*
X147578236Y-129300156D01*
X147909143Y-129163428D01*
X148162538Y-128910475D01*
X148299843Y-128579806D01*
X148300045Y-128348483D01*
X148681374Y-127967154D01*
X148811438Y-127772500D01*
X148857110Y-127542890D01*
X148857110Y-127354330D01*
X162188037Y-127354330D01*
X162463302Y-128020523D01*
X162972556Y-128530667D01*
X163638268Y-128807094D01*
X164359090Y-128807723D01*
X165025283Y-128532458D01*
X165535427Y-128023204D01*
X165811854Y-127357492D01*
X165812483Y-126636670D01*
X165537218Y-125970477D01*
X165027964Y-125460333D01*
X164362252Y-125183906D01*
X163641430Y-125183277D01*
X162975237Y-125458542D01*
X162465093Y-125967796D01*
X162188666Y-126633508D01*
X162188037Y-127354330D01*
X148857110Y-127354330D01*
X148857110Y-125072656D01*
X149134347Y-125072898D01*
X149322462Y-124995170D01*
X149448111Y-125121039D01*
X149778780Y-125258344D01*
X150010103Y-125258546D01*
X151275821Y-126524264D01*
X151470474Y-126654328D01*
X151700085Y-126700000D01*
X153792858Y-126700000D01*
X154022468Y-126654328D01*
X154217122Y-126524264D01*
X157385016Y-123356370D01*
X164187017Y-123356370D01*
X164462282Y-124022563D01*
X164971536Y-124532707D01*
X165637248Y-124809134D01*
X166358070Y-124809763D01*
X166686011Y-124674261D01*
X167324951Y-125313201D01*
X166973197Y-125458542D01*
X166463053Y-125967796D01*
X166186626Y-126633508D01*
X166185997Y-127354330D01*
X166461262Y-128020523D01*
X166970516Y-128530667D01*
X167636228Y-128807094D01*
X168357050Y-128807723D01*
X169023243Y-128532458D01*
X169533387Y-128023204D01*
X169809814Y-127357492D01*
X169810443Y-126636670D01*
X169535178Y-125970477D01*
X169265173Y-125700000D01*
X170729277Y-125700000D01*
X170461013Y-125967796D01*
X170184586Y-126633508D01*
X170183957Y-127354330D01*
X170459222Y-128020523D01*
X170968476Y-128530667D01*
X171634188Y-128807094D01*
X172355010Y-128807723D01*
X173021203Y-128532458D01*
X173531347Y-128023204D01*
X173807774Y-127357492D01*
X173808403Y-126636670D01*
X173533138Y-125970477D01*
X173063537Y-125500056D01*
X173178236Y-125500156D01*
X173509143Y-125363428D01*
X173762538Y-125110475D01*
X173899843Y-124779806D01*
X173900156Y-124421764D01*
X173768805Y-124103870D01*
X173962538Y-123910475D01*
X174099843Y-123579806D01*
X174100156Y-123221764D01*
X173963428Y-122890857D01*
X173710475Y-122637462D01*
X173379806Y-122500157D01*
X173021764Y-122499844D01*
X172690857Y-122636572D01*
X172627318Y-122700000D01*
X171809370Y-122700000D01*
X171809423Y-122638710D01*
X171534158Y-121972517D01*
X171024904Y-121462373D01*
X170359192Y-121185946D01*
X169638370Y-121185317D01*
X168972177Y-121460582D01*
X168462033Y-121969836D01*
X168185606Y-122635548D01*
X168184977Y-123356370D01*
X168460242Y-124022563D01*
X168737195Y-124300000D01*
X168291650Y-124300000D01*
X167675970Y-123684320D01*
X167810834Y-123359532D01*
X167811463Y-122638710D01*
X167536198Y-121972517D01*
X167026944Y-121462373D01*
X166361232Y-121185946D01*
X165640410Y-121185317D01*
X164974217Y-121460582D01*
X164464073Y-121969836D01*
X164187646Y-122635548D01*
X164187017Y-123356370D01*
X157385016Y-123356370D01*
X162178555Y-118562831D01*
X162178555Y-120311490D01*
X162217361Y-120506580D01*
X162327870Y-120671970D01*
X162493260Y-120782479D01*
X162688350Y-120821285D01*
X165312170Y-120821285D01*
X165507260Y-120782479D01*
X165672650Y-120671970D01*
X165783159Y-120506580D01*
X165821965Y-120311490D01*
X165821965Y-120221036D01*
X166783835Y-120221036D01*
X166916390Y-120497096D01*
X167571815Y-120797103D01*
X168292156Y-120823453D01*
X168967747Y-120572135D01*
X169080050Y-120497096D01*
X169212605Y-120221036D01*
X167998220Y-119006651D01*
X166783835Y-120221036D01*
X165821965Y-120221036D01*
X165821965Y-119293516D01*
X166174347Y-119293516D01*
X166425665Y-119969107D01*
X166500704Y-120081410D01*
X166776764Y-120213965D01*
X167991149Y-118999580D01*
X168005291Y-118999580D01*
X169219676Y-120213965D01*
X169495736Y-120081410D01*
X169795743Y-119425985D01*
X169798214Y-119358410D01*
X170183957Y-119358410D01*
X170459222Y-120024603D01*
X170968476Y-120534747D01*
X171634188Y-120811174D01*
X172355010Y-120811803D01*
X173021203Y-120536538D01*
X173531347Y-120027284D01*
X173807774Y-119361572D01*
X173808403Y-118640750D01*
X173533138Y-117974557D01*
X173023884Y-117464413D01*
X172358172Y-117187986D01*
X171637350Y-117187357D01*
X170971157Y-117462622D01*
X170461013Y-117971876D01*
X170184586Y-118637588D01*
X170183957Y-119358410D01*
X169798214Y-119358410D01*
X169822093Y-118705644D01*
X169570775Y-118030053D01*
X169495736Y-117917750D01*
X169219676Y-117785195D01*
X168005291Y-118999580D01*
X167991149Y-118999580D01*
X166776764Y-117785195D01*
X166500704Y-117917750D01*
X166200697Y-118573175D01*
X166174347Y-119293516D01*
X165821965Y-119293516D01*
X165821965Y-117778124D01*
X166783835Y-117778124D01*
X167998220Y-118992509D01*
X169212605Y-117778124D01*
X169080050Y-117502064D01*
X168424625Y-117202057D01*
X167704284Y-117175707D01*
X167028693Y-117427025D01*
X166916390Y-117502064D01*
X166783835Y-117778124D01*
X165821965Y-117778124D01*
X165821965Y-117687670D01*
X165783159Y-117492580D01*
X165672650Y-117327190D01*
X165507260Y-117216681D01*
X165312170Y-117177875D01*
X163563511Y-117177875D01*
X168145332Y-112596054D01*
X179696223Y-112596054D01*
X180000044Y-113331356D01*
X180562125Y-113894419D01*
X181296896Y-114199522D01*
X182092494Y-114200217D01*
X182827796Y-113896396D01*
X183390859Y-113334315D01*
X183695962Y-112599544D01*
X183696657Y-111803946D01*
X183392836Y-111068644D01*
X182830755Y-110505581D01*
X182095984Y-110200478D01*
X181300386Y-110199783D01*
X180565084Y-110503604D01*
X180002021Y-111065685D01*
X179696918Y-111800456D01*
X179696223Y-112596054D01*
X168145332Y-112596054D01*
X183541386Y-97200000D01*
X187127271Y-97200000D01*
X187289525Y-97362538D01*
X187620194Y-97499843D01*
X187978236Y-97500156D01*
X188309143Y-97363428D01*
X188562538Y-97110475D01*
X188699843Y-96779806D01*
X188700156Y-96421764D01*
X188563428Y-96090857D01*
X188310475Y-95837462D01*
X187979806Y-95700157D01*
X187621764Y-95699844D01*
X187290857Y-95836572D01*
X187127143Y-96000000D01*
X184122060Y-96000000D01*
X184922060Y-95200000D01*
X185658198Y-95200000D01*
X185887808Y-95154328D01*
X186082462Y-95024264D01*
X186548573Y-94558153D01*
X186778236Y-94558354D01*
X187109143Y-94421626D01*
X187362538Y-94168673D01*
X187499843Y-93838004D01*
X187500156Y-93479962D01*
X187363428Y-93149055D01*
X187110475Y-92895660D01*
X186779806Y-92758355D01*
X186421764Y-92758042D01*
X186090857Y-92894770D01*
X185837462Y-93147723D01*
X185800078Y-93237754D01*
X185763428Y-93149055D01*
X185510475Y-92895660D01*
X185179806Y-92758355D01*
X184821764Y-92758042D01*
X184490857Y-92894770D01*
X184237462Y-93147723D01*
X184100157Y-93478392D01*
X184099955Y-93709715D01*
X181538098Y-96271572D01*
X181463428Y-96090857D01*
X181210475Y-95837462D01*
X180879806Y-95700157D01*
X180745450Y-95700040D01*
X180754328Y-95686753D01*
X180800000Y-95457143D01*
X180800000Y-94330927D01*
X180962538Y-94168673D01*
X181099843Y-93838004D01*
X181100156Y-93479962D01*
X180963428Y-93149055D01*
X180710475Y-92895660D01*
X180379806Y-92758355D01*
X180021764Y-92758042D01*
X179690857Y-92894770D01*
X179437462Y-93147723D01*
X179400078Y-93237754D01*
X179363428Y-93149055D01*
X179110475Y-92895660D01*
X178779806Y-92758355D01*
X178421764Y-92758042D01*
X178090857Y-92894770D01*
X177837462Y-93147723D01*
X177700157Y-93478392D01*
X177699844Y-93836434D01*
X177836572Y-94167341D01*
X178000000Y-94331055D01*
X178000000Y-96244330D01*
X175900000Y-98344330D01*
X175900000Y-97372729D01*
X176062538Y-97210475D01*
X176199843Y-96879806D01*
X176200156Y-96521764D01*
X176063428Y-96190857D01*
X175810475Y-95937462D01*
X175479806Y-95800157D01*
X175121764Y-95799844D01*
X174790857Y-95936572D01*
X174537462Y-96189525D01*
X174400157Y-96520194D01*
X174400000Y-96699787D01*
X174400000Y-94330927D01*
X174562538Y-94168673D01*
X174699843Y-93838004D01*
X174700156Y-93479962D01*
X174563428Y-93149055D01*
X174310475Y-92895660D01*
X173979806Y-92758355D01*
X173621764Y-92758042D01*
X173290857Y-92894770D01*
X173037462Y-93147723D01*
X173000078Y-93237754D01*
X172963428Y-93149055D01*
X172710475Y-92895660D01*
X172379806Y-92758355D01*
X172021764Y-92758042D01*
X171690857Y-92894770D01*
X171437462Y-93147723D01*
X171300157Y-93478392D01*
X171299844Y-93836434D01*
X171436572Y-94167341D01*
X171600000Y-94331055D01*
X171600000Y-100951472D01*
X156718718Y-115832754D01*
X155315774Y-115832754D01*
X167024264Y-104124264D01*
X167154328Y-103929610D01*
X167200000Y-103700000D01*
X167200000Y-98748528D01*
X168448573Y-97499955D01*
X168678236Y-97500156D01*
X169009143Y-97363428D01*
X169262538Y-97110475D01*
X169399843Y-96779806D01*
X169400156Y-96421764D01*
X169263428Y-96090857D01*
X169010475Y-95837462D01*
X168679806Y-95700157D01*
X168321764Y-95699844D01*
X167990857Y-95836572D01*
X167737462Y-96089525D01*
X167600157Y-96420194D01*
X167599955Y-96651517D01*
X166800989Y-97450483D01*
X166800989Y-95105737D01*
X167348573Y-94558153D01*
X167578236Y-94558354D01*
X167909143Y-94421626D01*
X168162538Y-94168673D01*
X168299843Y-93838004D01*
X168300156Y-93479962D01*
X168163428Y-93149055D01*
X167910475Y-92895660D01*
X167579806Y-92758355D01*
X167221764Y-92758042D01*
X166890857Y-92894770D01*
X166637462Y-93147723D01*
X166600078Y-93237754D01*
X166563428Y-93149055D01*
X166310475Y-92895660D01*
X165979806Y-92758355D01*
X165621764Y-92758042D01*
X165290857Y-92894770D01*
X165037462Y-93147723D01*
X164900157Y-93478392D01*
X164899844Y-93836434D01*
X165036572Y-94167341D01*
X165200000Y-94331055D01*
X165200000Y-103022900D01*
X156300113Y-111922787D01*
X156300217Y-111803946D01*
X155996396Y-111068644D01*
X155434315Y-110505581D01*
X154699544Y-110200478D01*
X153903946Y-110199783D01*
X153168644Y-110503604D01*
X152605581Y-111065685D01*
X152300478Y-111800456D01*
X152299783Y-112596054D01*
X152603604Y-113331356D01*
X153165685Y-113894419D01*
X153900456Y-114199522D01*
X154023271Y-114199629D01*
X153522900Y-114700000D01*
X153201192Y-114700000D01*
X152971581Y-114745672D01*
X152776928Y-114875736D01*
X152177724Y-115474940D01*
X152047660Y-115669594D01*
X152001988Y-115899204D01*
X152001988Y-117249484D01*
X148377818Y-120873654D01*
X148173510Y-120873654D01*
X148089308Y-120890403D01*
X148124334Y-120714316D01*
X148124334Y-119724194D01*
X151525254Y-116323274D01*
X151655318Y-116128621D01*
X151700990Y-115899010D01*
X151700990Y-115399914D01*
X151978236Y-115400156D01*
X152309143Y-115263428D01*
X152562538Y-115010475D01*
X152699843Y-114679806D01*
X152700156Y-114321764D01*
X152563428Y-113990857D01*
X152373378Y-113800475D01*
X152354328Y-113704705D01*
X152224264Y-113510051D01*
X152100000Y-113385787D01*
X152100000Y-111248528D01*
X162824264Y-100524264D01*
X162954328Y-100329610D01*
X163000000Y-100100000D01*
X163000000Y-97272729D01*
X163162538Y-97110475D01*
X163299843Y-96779806D01*
X163300156Y-96421764D01*
X163163428Y-96090857D01*
X162910475Y-95837462D01*
X162579806Y-95700157D01*
X162221764Y-95699844D01*
X161890857Y-95836572D01*
X161637462Y-96089525D01*
X161500157Y-96420194D01*
X161499844Y-96778236D01*
X161636572Y-97109143D01*
X161800000Y-97272857D01*
X161800000Y-99851472D01*
X160400989Y-101250483D01*
X160400989Y-95105737D01*
X160948573Y-94558153D01*
X161178236Y-94558354D01*
X161509143Y-94421626D01*
X161762538Y-94168673D01*
X161899843Y-93838004D01*
X161900156Y-93479962D01*
X161763428Y-93149055D01*
X161510475Y-92895660D01*
X161179806Y-92758355D01*
X160821764Y-92758042D01*
X160490857Y-92894770D01*
X160237462Y-93147723D01*
X160193203Y-93254311D01*
X160140054Y-93125681D01*
X159887101Y-92872286D01*
X159556432Y-92734981D01*
X159198390Y-92734668D01*
X158867483Y-92871396D01*
X158614088Y-93124349D01*
X158476783Y-93455018D01*
X158476470Y-93813060D01*
X158613198Y-94143967D01*
X158776626Y-94307681D01*
X158776626Y-101709370D01*
X153672700Y-106813296D01*
X153663428Y-106790857D01*
X153410475Y-106537462D01*
X153079806Y-106400157D01*
X153000000Y-106400087D01*
X153000000Y-98348528D01*
X154148528Y-97200000D01*
X155327271Y-97200000D01*
X155489525Y-97362538D01*
X155820194Y-97499843D01*
X156178236Y-97500156D01*
X156509143Y-97363428D01*
X156762538Y-97110475D01*
X156899843Y-96779806D01*
X156900156Y-96421764D01*
X156763428Y-96090857D01*
X156510475Y-95837462D01*
X156179806Y-95700157D01*
X155821764Y-95699844D01*
X155490857Y-95836572D01*
X155327143Y-96000000D01*
X153900000Y-96000000D01*
X153670389Y-96045672D01*
X153475736Y-96175736D01*
X153100043Y-96551429D01*
X153100156Y-96421764D01*
X152963428Y-96090857D01*
X152710475Y-95837462D01*
X152705602Y-95835439D01*
X154111274Y-94429767D01*
X154420194Y-94558041D01*
X154778236Y-94558354D01*
X155109143Y-94421626D01*
X155362538Y-94168673D01*
X155499843Y-93838004D01*
X155500156Y-93479962D01*
X155363428Y-93149055D01*
X155110475Y-92895660D01*
X154779806Y-92758355D01*
X154421764Y-92758042D01*
X154090857Y-92894770D01*
X153900475Y-93084820D01*
X153804705Y-93103870D01*
X153752886Y-93138494D01*
X153510475Y-92895660D01*
X153179806Y-92758355D01*
X152821764Y-92758042D01*
X152490857Y-92894770D01*
X152237462Y-93147723D01*
X152100157Y-93478392D01*
X152099955Y-93709715D01*
X150001978Y-95807692D01*
X150001978Y-94760176D01*
X149956306Y-94530566D01*
X149826242Y-94335912D01*
X149199955Y-93709625D01*
X149200156Y-93479962D01*
X149063428Y-93149055D01*
X148810475Y-92895660D01*
X148479806Y-92758355D01*
X148121764Y-92758042D01*
X147790857Y-92894770D01*
X147537462Y-93147723D01*
X147520839Y-93187756D01*
X147395295Y-93103870D01*
X147299251Y-93084766D01*
X147110475Y-92895660D01*
X146779806Y-92758355D01*
X146421764Y-92758042D01*
X146090857Y-92894770D01*
X145837462Y-93147723D01*
X145700157Y-93478392D01*
X145699844Y-93836434D01*
X145836572Y-94167341D01*
X146089525Y-94420736D01*
X146420194Y-94558041D01*
X146778236Y-94558354D01*
X147088935Y-94429976D01*
X147400000Y-94741041D01*
X147400000Y-96521386D01*
X147263428Y-96190857D01*
X147010475Y-95937462D01*
X146679806Y-95800157D01*
X146321764Y-95799844D01*
X145990857Y-95936572D01*
X145737462Y-96189525D01*
X145600157Y-96520194D01*
X145599844Y-96878236D01*
X145736572Y-97209143D01*
X145900000Y-97372857D01*
X145900000Y-102791475D01*
X145790857Y-102836572D01*
X145537462Y-103089525D01*
X145400157Y-103420194D01*
X145400001Y-103598643D01*
X145400001Y-74977099D01*
X145922286Y-74454814D01*
X146052350Y-74260160D01*
X146098022Y-74030550D01*
X146098022Y-72693554D01*
X191197323Y-72693554D01*
X191501144Y-73428856D01*
X192063225Y-73991919D01*
X192797996Y-74297022D01*
X193593594Y-74297717D01*
X194328896Y-73993896D01*
X194891959Y-73431815D01*
X195197062Y-72697044D01*
X195197757Y-71901446D01*
X194893936Y-71166144D01*
X194331855Y-70603081D01*
X193597084Y-70297978D01*
X192801486Y-70297283D01*
X192066184Y-70601104D01*
X191503121Y-71163185D01*
X191198018Y-71897956D01*
X191197323Y-72693554D01*
X146098022Y-72693554D01*
X146098022Y-69354330D01*
X152188037Y-69354330D01*
X152463302Y-70020523D01*
X152972556Y-70530667D01*
X153638268Y-70807094D01*
X154359090Y-70807723D01*
X155025283Y-70532458D01*
X155535427Y-70023204D01*
X155811854Y-69357492D01*
X155811856Y-69354330D01*
X156185997Y-69354330D01*
X156461262Y-70020523D01*
X156970516Y-70530667D01*
X157636228Y-70807094D01*
X158357050Y-70807723D01*
X159023243Y-70532458D01*
X159533387Y-70023204D01*
X159809814Y-69357492D01*
X159809816Y-69354330D01*
X160186497Y-69354330D01*
X160461762Y-70020523D01*
X160971016Y-70530667D01*
X161636728Y-70807094D01*
X162357550Y-70807723D01*
X163023743Y-70532458D01*
X163533887Y-70023204D01*
X163810314Y-69357492D01*
X163810316Y-69354330D01*
X164186997Y-69354330D01*
X164462262Y-70020523D01*
X164971516Y-70530667D01*
X165637228Y-70807094D01*
X166358050Y-70807723D01*
X167024243Y-70532458D01*
X167534387Y-70023204D01*
X167810814Y-69357492D01*
X167810816Y-69354330D01*
X168184957Y-69354330D01*
X168460222Y-70020523D01*
X168969476Y-70530667D01*
X169635188Y-70807094D01*
X170356010Y-70807723D01*
X171022203Y-70532458D01*
X171532347Y-70023204D01*
X171808774Y-69357492D01*
X171808776Y-69354330D01*
X172185457Y-69354330D01*
X172460722Y-70020523D01*
X172969976Y-70530667D01*
X173635688Y-70807094D01*
X174356510Y-70807723D01*
X175022703Y-70532458D01*
X175532847Y-70023204D01*
X175809274Y-69357492D01*
X175809276Y-69354330D01*
X176185957Y-69354330D01*
X176461222Y-70020523D01*
X176970476Y-70530667D01*
X177636188Y-70807094D01*
X178357010Y-70807723D01*
X179023203Y-70532458D01*
X179533347Y-70023204D01*
X179809774Y-69357492D01*
X179809776Y-69354330D01*
X180183917Y-69354330D01*
X180459182Y-70020523D01*
X180968436Y-70530667D01*
X181634148Y-70807094D01*
X182354970Y-70807723D01*
X183021163Y-70532458D01*
X183531307Y-70023204D01*
X183807734Y-69357492D01*
X183808363Y-68636670D01*
X183533098Y-67970477D01*
X183023844Y-67460333D01*
X182358132Y-67183906D01*
X181637310Y-67183277D01*
X180971117Y-67458542D01*
X180460973Y-67967796D01*
X180184546Y-68633508D01*
X180183917Y-69354330D01*
X179809776Y-69354330D01*
X179810403Y-68636670D01*
X179535138Y-67970477D01*
X179025884Y-67460333D01*
X178360172Y-67183906D01*
X177639350Y-67183277D01*
X176973157Y-67458542D01*
X176463013Y-67967796D01*
X176186586Y-68633508D01*
X176185957Y-69354330D01*
X175809276Y-69354330D01*
X175809903Y-68636670D01*
X175534638Y-67970477D01*
X175025384Y-67460333D01*
X174359672Y-67183906D01*
X173638850Y-67183277D01*
X172972657Y-67458542D01*
X172462513Y-67967796D01*
X172186086Y-68633508D01*
X172185457Y-69354330D01*
X171808776Y-69354330D01*
X171809403Y-68636670D01*
X171534138Y-67970477D01*
X171024884Y-67460333D01*
X170359172Y-67183906D01*
X169638350Y-67183277D01*
X168972157Y-67458542D01*
X168462013Y-67967796D01*
X168185586Y-68633508D01*
X168184957Y-69354330D01*
X167810816Y-69354330D01*
X167811443Y-68636670D01*
X167536178Y-67970477D01*
X167026924Y-67460333D01*
X166361212Y-67183906D01*
X165640390Y-67183277D01*
X164974197Y-67458542D01*
X164464053Y-67967796D01*
X164187626Y-68633508D01*
X164186997Y-69354330D01*
X163810316Y-69354330D01*
X163810943Y-68636670D01*
X163535678Y-67970477D01*
X163026424Y-67460333D01*
X162360712Y-67183906D01*
X161639890Y-67183277D01*
X160973697Y-67458542D01*
X160463553Y-67967796D01*
X160187126Y-68633508D01*
X160186497Y-69354330D01*
X159809816Y-69354330D01*
X159810443Y-68636670D01*
X159535178Y-67970477D01*
X159025924Y-67460333D01*
X158360212Y-67183906D01*
X157639390Y-67183277D01*
X156973197Y-67458542D01*
X156463053Y-67967796D01*
X156186626Y-68633508D01*
X156185997Y-69354330D01*
X155811856Y-69354330D01*
X155812483Y-68636670D01*
X155537218Y-67970477D01*
X155027964Y-67460333D01*
X154362252Y-67183906D01*
X153641430Y-67183277D01*
X152975237Y-67458542D01*
X152465093Y-67967796D01*
X152188666Y-68633508D01*
X152188037Y-69354330D01*
X146098022Y-69354330D01*
X146098022Y-65356370D01*
X154187017Y-65356370D01*
X154462282Y-66022563D01*
X154971536Y-66532707D01*
X155637248Y-66809134D01*
X156358070Y-66809763D01*
X157024263Y-66534498D01*
X157534407Y-66025244D01*
X157810834Y-65359532D01*
X157810836Y-65356370D01*
X158187517Y-65356370D01*
X158462782Y-66022563D01*
X158972036Y-66532707D01*
X159637748Y-66809134D01*
X160358570Y-66809763D01*
X161024763Y-66534498D01*
X161534907Y-66025244D01*
X161811334Y-65359532D01*
X161811336Y-65356370D01*
X162188017Y-65356370D01*
X162463282Y-66022563D01*
X162972536Y-66532707D01*
X163638248Y-66809134D01*
X164359070Y-66809763D01*
X165025263Y-66534498D01*
X165535407Y-66025244D01*
X165811834Y-65359532D01*
X165811836Y-65356370D01*
X166185977Y-65356370D01*
X166461242Y-66022563D01*
X166970496Y-66532707D01*
X167636208Y-66809134D01*
X168357030Y-66809763D01*
X169023223Y-66534498D01*
X169533367Y-66025244D01*
X169809794Y-65359532D01*
X169809796Y-65356370D01*
X170183937Y-65356370D01*
X170459202Y-66022563D01*
X170968456Y-66532707D01*
X171634168Y-66809134D01*
X172354990Y-66809763D01*
X173021183Y-66534498D01*
X173531327Y-66025244D01*
X173807754Y-65359532D01*
X173807756Y-65356370D01*
X174184437Y-65356370D01*
X174459702Y-66022563D01*
X174968956Y-66532707D01*
X175634668Y-66809134D01*
X176355490Y-66809763D01*
X177021683Y-66534498D01*
X177531827Y-66025244D01*
X177808254Y-65359532D01*
X177808256Y-65356370D01*
X178184937Y-65356370D01*
X178460202Y-66022563D01*
X178969456Y-66532707D01*
X179635168Y-66809134D01*
X180355990Y-66809763D01*
X181022183Y-66534498D01*
X181532327Y-66025244D01*
X181808754Y-65359532D01*
X181809383Y-64638710D01*
X181534118Y-63972517D01*
X181024864Y-63462373D01*
X180359152Y-63185946D01*
X179638330Y-63185317D01*
X178972137Y-63460582D01*
X178461993Y-63969836D01*
X178185566Y-64635548D01*
X178184937Y-65356370D01*
X177808256Y-65356370D01*
X177808883Y-64638710D01*
X177533618Y-63972517D01*
X177024364Y-63462373D01*
X176358652Y-63185946D01*
X175637830Y-63185317D01*
X174971637Y-63460582D01*
X174461493Y-63969836D01*
X174185066Y-64635548D01*
X174184437Y-65356370D01*
X173807756Y-65356370D01*
X173808383Y-64638710D01*
X173533118Y-63972517D01*
X173023864Y-63462373D01*
X172358152Y-63185946D01*
X171637330Y-63185317D01*
X170971137Y-63460582D01*
X170460993Y-63969836D01*
X170184566Y-64635548D01*
X170183937Y-65356370D01*
X169809796Y-65356370D01*
X169810423Y-64638710D01*
X169535158Y-63972517D01*
X169025904Y-63462373D01*
X168360192Y-63185946D01*
X167639370Y-63185317D01*
X166973177Y-63460582D01*
X166463033Y-63969836D01*
X166186606Y-64635548D01*
X166185977Y-65356370D01*
X165811836Y-65356370D01*
X165812463Y-64638710D01*
X165537198Y-63972517D01*
X165027944Y-63462373D01*
X164362232Y-63185946D01*
X163641410Y-63185317D01*
X162975217Y-63460582D01*
X162465073Y-63969836D01*
X162188646Y-64635548D01*
X162188017Y-65356370D01*
X161811336Y-65356370D01*
X161811963Y-64638710D01*
X161536698Y-63972517D01*
X161027444Y-63462373D01*
X160361732Y-63185946D01*
X159640910Y-63185317D01*
X158974717Y-63460582D01*
X158464573Y-63969836D01*
X158188146Y-64635548D01*
X158187517Y-65356370D01*
X157810836Y-65356370D01*
X157811463Y-64638710D01*
X157536198Y-63972517D01*
X157026944Y-63462373D01*
X156361232Y-63185946D01*
X155640410Y-63185317D01*
X154974217Y-63460582D01*
X154464073Y-63969836D01*
X154187646Y-64635548D01*
X154187017Y-65356370D01*
X146098022Y-65356370D01*
X146098022Y-60150506D01*
X146560858Y-59687670D01*
X152178555Y-59687670D01*
X152178555Y-62311490D01*
X152217361Y-62506580D01*
X152327870Y-62671970D01*
X152493260Y-62782479D01*
X152688350Y-62821285D01*
X155312170Y-62821285D01*
X155507260Y-62782479D01*
X155672650Y-62671970D01*
X155783159Y-62506580D01*
X155821965Y-62311490D01*
X155821965Y-61358410D01*
X156185997Y-61358410D01*
X156461262Y-62024603D01*
X156970516Y-62534747D01*
X157636228Y-62811174D01*
X158357050Y-62811803D01*
X159023243Y-62536538D01*
X159533387Y-62027284D01*
X159809814Y-61361572D01*
X159809816Y-61358410D01*
X160186497Y-61358410D01*
X160461762Y-62024603D01*
X160971016Y-62534747D01*
X161636728Y-62811174D01*
X162357550Y-62811803D01*
X163023743Y-62536538D01*
X163533887Y-62027284D01*
X163810314Y-61361572D01*
X163810316Y-61358410D01*
X164186997Y-61358410D01*
X164462262Y-62024603D01*
X164971516Y-62534747D01*
X165637228Y-62811174D01*
X166358050Y-62811803D01*
X167024243Y-62536538D01*
X167534387Y-62027284D01*
X167810814Y-61361572D01*
X167810816Y-61358410D01*
X168184957Y-61358410D01*
X168460222Y-62024603D01*
X168969476Y-62534747D01*
X169635188Y-62811174D01*
X170356010Y-62811803D01*
X171022203Y-62536538D01*
X171532347Y-62027284D01*
X171808774Y-61361572D01*
X171808776Y-61358410D01*
X172185457Y-61358410D01*
X172460722Y-62024603D01*
X172969976Y-62534747D01*
X173635688Y-62811174D01*
X174356510Y-62811803D01*
X175022703Y-62536538D01*
X175532847Y-62027284D01*
X175809274Y-61361572D01*
X175809276Y-61358410D01*
X176185957Y-61358410D01*
X176461222Y-62024603D01*
X176970476Y-62534747D01*
X177636188Y-62811174D01*
X178357010Y-62811803D01*
X179023203Y-62536538D01*
X179533347Y-62027284D01*
X179809774Y-61361572D01*
X179809776Y-61358410D01*
X180183917Y-61358410D01*
X180459182Y-62024603D01*
X180968436Y-62534747D01*
X181634148Y-62811174D01*
X182354970Y-62811803D01*
X183021163Y-62536538D01*
X183531307Y-62027284D01*
X183807734Y-61361572D01*
X183808363Y-60640750D01*
X183533098Y-59974557D01*
X183023844Y-59464413D01*
X182358132Y-59187986D01*
X181637310Y-59187357D01*
X180971117Y-59462622D01*
X180460973Y-59971876D01*
X180184546Y-60637588D01*
X180183917Y-61358410D01*
X179809776Y-61358410D01*
X179810403Y-60640750D01*
X179535138Y-59974557D01*
X179025884Y-59464413D01*
X178360172Y-59187986D01*
X177639350Y-59187357D01*
X176973157Y-59462622D01*
X176463013Y-59971876D01*
X176186586Y-60637588D01*
X176185957Y-61358410D01*
X175809276Y-61358410D01*
X175809903Y-60640750D01*
X175534638Y-59974557D01*
X175025384Y-59464413D01*
X174359672Y-59187986D01*
X173638850Y-59187357D01*
X172972657Y-59462622D01*
X172462513Y-59971876D01*
X172186086Y-60637588D01*
X172185457Y-61358410D01*
X171808776Y-61358410D01*
X171809403Y-60640750D01*
X171534138Y-59974557D01*
X171024884Y-59464413D01*
X170359172Y-59187986D01*
X169638350Y-59187357D01*
X168972157Y-59462622D01*
X168462013Y-59971876D01*
X168185586Y-60637588D01*
X168184957Y-61358410D01*
X167810816Y-61358410D01*
X167811443Y-60640750D01*
X167536178Y-59974557D01*
X167026924Y-59464413D01*
X166361212Y-59187986D01*
X165640390Y-59187357D01*
X164974197Y-59462622D01*
X164464053Y-59971876D01*
X164187626Y-60637588D01*
X164186997Y-61358410D01*
X163810316Y-61358410D01*
X163810943Y-60640750D01*
X163535678Y-59974557D01*
X163026424Y-59464413D01*
X162360712Y-59187986D01*
X161639890Y-59187357D01*
X160973697Y-59462622D01*
X160463553Y-59971876D01*
X160187126Y-60637588D01*
X160186497Y-61358410D01*
X159809816Y-61358410D01*
X159810443Y-60640750D01*
X159535178Y-59974557D01*
X159025924Y-59464413D01*
X158360212Y-59187986D01*
X157639390Y-59187357D01*
X156973197Y-59462622D01*
X156463053Y-59971876D01*
X156186626Y-60637588D01*
X156185997Y-61358410D01*
X155821965Y-61358410D01*
X155821965Y-59687670D01*
X155783159Y-59492580D01*
X155672650Y-59327190D01*
X155507260Y-59216681D01*
X155312170Y-59177875D01*
X152688350Y-59177875D01*
X152493260Y-59216681D01*
X152327870Y-59327190D01*
X152217361Y-59492580D01*
X152178555Y-59687670D01*
X146560858Y-59687670D01*
X149548529Y-56700000D01*
X167427271Y-56700000D01*
X167589525Y-56862538D01*
X167920194Y-56999843D01*
X168278236Y-57000156D01*
X168609143Y-56863428D01*
X168862538Y-56610475D01*
X168999843Y-56279806D01*
X169000156Y-55921764D01*
X168863428Y-55590857D01*
X168610475Y-55337462D01*
X168279806Y-55200157D01*
X167921764Y-55199844D01*
X167590857Y-55336572D01*
X167427143Y-55500000D01*
X150184243Y-55500000D01*
X151183253Y-54500990D01*
X169752462Y-54500990D01*
X171200045Y-55948573D01*
X171199844Y-56178236D01*
X171336572Y-56509143D01*
X171589525Y-56762538D01*
X171920194Y-56899843D01*
X172278236Y-56900156D01*
X172609143Y-56763428D01*
X172862538Y-56510475D01*
X172999843Y-56179806D01*
X173000156Y-55821764D01*
X172863428Y-55490857D01*
X172610475Y-55237462D01*
X172279806Y-55100157D01*
X172048483Y-55099955D01*
X171050508Y-54101980D01*
X175053452Y-54101980D01*
X175800045Y-54848573D01*
X175799844Y-55078236D01*
X175936572Y-55409143D01*
X176189525Y-55662538D01*
X176520194Y-55799843D01*
X176878236Y-55800156D01*
X177209143Y-55663428D01*
X177462538Y-55410475D01*
X177599843Y-55079806D01*
X177600156Y-54721764D01*
X177463428Y-54390857D01*
X177210475Y-54137462D01*
X176879806Y-54000157D01*
X176648483Y-53999955D01*
X176351498Y-53702970D01*
X180302407Y-53702970D01*
X180302210Y-53927766D01*
X180438938Y-54258673D01*
X180691891Y-54512068D01*
X181022560Y-54649373D01*
X181380602Y-54649686D01*
X181510401Y-54596054D01*
X189696183Y-54596054D01*
X190000004Y-55331356D01*
X190562085Y-55894419D01*
X191296856Y-56199522D01*
X192092454Y-56200217D01*
X192827756Y-55896396D01*
X193390819Y-55334315D01*
X193695922Y-54599544D01*
X193696617Y-53803946D01*
X193392796Y-53068644D01*
X192830715Y-52505581D01*
X192095944Y-52200478D01*
X191300346Y-52199783D01*
X190565044Y-52503604D01*
X190001981Y-53065685D01*
X189696878Y-53800456D01*
X189696183Y-54596054D01*
X181510401Y-54596054D01*
X181711509Y-54512958D01*
X181964904Y-54260005D01*
X182102209Y-53929336D01*
X182102522Y-53571294D01*
X181965794Y-53240387D01*
X181712841Y-52986992D01*
X181382172Y-52849687D01*
X181150849Y-52849485D01*
X180980070Y-52678706D01*
X180785416Y-52548642D01*
X180555806Y-52502970D01*
X166899910Y-52502969D01*
X166900156Y-52221765D01*
X166763428Y-51890858D01*
X166510475Y-51637463D01*
X166179806Y-51500158D01*
X165948483Y-51499956D01*
X164931197Y-50482670D01*
X164736543Y-50352606D01*
X164506933Y-50306934D01*
X150543064Y-50306934D01*
X150313454Y-50352606D01*
X150118800Y-50482670D01*
X146299782Y-54301688D01*
X146300217Y-53803946D01*
X145996396Y-53068644D01*
X145434315Y-52505581D01*
X144699544Y-52200478D01*
X143903946Y-52199783D01*
X143168644Y-52503604D01*
X142605581Y-53065685D01*
X142300478Y-53800456D01*
X142299783Y-54596054D01*
X142603604Y-55331356D01*
X143165685Y-55894419D01*
X143900456Y-56199522D01*
X144401510Y-56199960D01*
X138550000Y-62051470D01*
X138550000Y-51054171D01*
X138670330Y-50449232D01*
X138982314Y-49982314D01*
X139449232Y-49670330D01*
X140054170Y-49550000D01*
X195945829Y-49550000D01*
X196550768Y-49670330D01*
X196550768Y-49670330D01*
G37*
X196550768Y-49670330D02*
X197017686Y-49982314D01*
X197329670Y-50449232D01*
X197450000Y-51054170D01*
X197450000Y-68177231D01*
X197310475Y-68037462D01*
X196979806Y-67900157D01*
X196621764Y-67899844D01*
X196290857Y-68036572D01*
X196037462Y-68289525D01*
X195900157Y-68620194D01*
X195899844Y-68978236D01*
X196036572Y-69309143D01*
X196289525Y-69562538D01*
X196500000Y-69649934D01*
X196500000Y-128710050D01*
X195510050Y-129700000D01*
X192772904Y-129700000D01*
X192710475Y-129637462D01*
X192379806Y-129500157D01*
X192021764Y-129499844D01*
X191690857Y-129636572D01*
X191437462Y-129889525D01*
X191300157Y-130220194D01*
X191299844Y-130578236D01*
X191436572Y-130909143D01*
X191689525Y-131162538D01*
X192020194Y-131299843D01*
X192378236Y-131300156D01*
X192709143Y-131163428D01*
X192772682Y-131100000D01*
X195800000Y-131100000D01*
X196067879Y-131046716D01*
X196294975Y-130894975D01*
X197450000Y-129739950D01*
X197450000Y-136945830D01*
X197329670Y-137550768D01*
X197017686Y-138017686D01*
X196550768Y-138329670D01*
X195945829Y-138450000D01*
X174651453Y-138450000D01*
X174689953Y-138424275D01*
X178924275Y-134189953D01*
X179054339Y-133995299D01*
X179100011Y-133765689D01*
X179100011Y-130693554D01*
X181197363Y-130693554D01*
X181501184Y-131428856D01*
X182063265Y-131991919D01*
X182798036Y-132297022D01*
X183593634Y-132297717D01*
X184328936Y-131993896D01*
X184891999Y-131431815D01*
X185197102Y-130697044D01*
X185197797Y-129901446D01*
X184893976Y-129166144D01*
X184331895Y-128603081D01*
X183597124Y-128297978D01*
X182801526Y-128297283D01*
X182066224Y-128601104D01*
X181503161Y-129163185D01*
X181198058Y-129897956D01*
X181197363Y-130693554D01*
X179100011Y-130693554D01*
X179100011Y-126300011D01*
X179054339Y-126070401D01*
X178924275Y-125875747D01*
X178699955Y-125651427D01*
X178700156Y-125421764D01*
X178563428Y-125090857D01*
X178310475Y-124837462D01*
X177979806Y-124700157D01*
X177621764Y-124699844D01*
X177290857Y-124836572D01*
X177037462Y-125089525D01*
X176900157Y-125420194D01*
X176899844Y-125778236D01*
X177036572Y-126109143D01*
X177188839Y-126261676D01*
X176961982Y-126355411D01*
X176708587Y-126608364D01*
X176571282Y-126939033D01*
X176570969Y-127297075D01*
X176707697Y-127627982D01*
X176960650Y-127881377D01*
X177291319Y-128018682D01*
X177500000Y-128018864D01*
X177500000Y-133351472D01*
X173851472Y-137000000D01*
X143448528Y-137000000D01*
X140400000Y-133951472D01*
X140400000Y-130693554D01*
X150798643Y-130693554D01*
X151102464Y-131428856D01*
X151664545Y-131991919D01*
X152399316Y-132297022D01*
X153194914Y-132297717D01*
X153930216Y-131993896D01*
X154493279Y-131431815D01*
X154798382Y-130697044D01*
X154799077Y-129901446D01*
X154495256Y-129166144D01*
X153933175Y-128603081D01*
X153198404Y-128297978D01*
X152402806Y-128297283D01*
X151667504Y-128601104D01*
X151104441Y-129163185D01*
X150799338Y-129897956D01*
X150798643Y-130693554D01*
X140400000Y-130693554D01*
X140400000Y-129235595D01*
X140924274Y-128711321D01*
X141054338Y-128516667D01*
X141073442Y-128420623D01*
X141262548Y-128231847D01*
X141399853Y-127901178D01*
X141400166Y-127543136D01*
X141263438Y-127212229D01*
X141010485Y-126958834D01*
X140699974Y-126829899D01*
X140700156Y-126621764D01*
X140563428Y-126290857D01*
X140310475Y-126037462D01*
X139979806Y-125900157D01*
X139621764Y-125899844D01*
X139290857Y-126036572D01*
X139037462Y-126289525D01*
X138900157Y-126620194D01*
X138899922Y-126889194D01*
X138845661Y-126970401D01*
X138799989Y-127200011D01*
X138799989Y-134365689D01*
X138845661Y-134595299D01*
X138975725Y-134789953D01*
X142610047Y-138424275D01*
X142648547Y-138450000D01*
X140054170Y-138450000D01*
X139449232Y-138329670D01*
X138982314Y-138017686D01*
X138670330Y-137550768D01*
X138550000Y-136945829D01*
X138550000Y-114298528D01*
X139300045Y-115048573D01*
X139299844Y-115278236D01*
X139436572Y-115609143D01*
X139689525Y-115862538D01*
X140020194Y-115999843D01*
X140378236Y-116000156D01*
X140709143Y-115863428D01*
X140962538Y-115610475D01*
X141099843Y-115279806D01*
X141100156Y-114921764D01*
X140963428Y-114590857D01*
X140710475Y-114337462D01*
X140379806Y-114200157D01*
X140148483Y-114199955D01*
X139203958Y-113255430D01*
X139203958Y-110846269D01*
X141698693Y-113341004D01*
X141698693Y-122176927D01*
X141744365Y-122406537D01*
X141874429Y-122601191D01*
X141966653Y-122693415D01*
X141966452Y-122923078D01*
X142103180Y-123253985D01*
X142356133Y-123507380D01*
X142686802Y-123644685D01*
X143044844Y-123644998D01*
X143375751Y-123508270D01*
X143416979Y-123467114D01*
X143486477Y-123536733D01*
X143509914Y-123546465D01*
X143193028Y-123863351D01*
X142963365Y-123863150D01*
X142632458Y-123999878D01*
X142379063Y-124252831D01*
X142241758Y-124583500D01*
X142241445Y-124941542D01*
X142378173Y-125272449D01*
X142631126Y-125525844D01*
X142961795Y-125663149D01*
X143319837Y-125663462D01*
X143650744Y-125526734D01*
X143889412Y-125288482D01*
X144029138Y-125428452D01*
X144359807Y-125565757D01*
X144717849Y-125566070D01*
X145048756Y-125429342D01*
X145302151Y-125176389D01*
X145375666Y-124999344D01*
X145540655Y-124999488D01*
X145776408Y-124902077D01*
X145776408Y-125145149D01*
X145822080Y-125374759D01*
X145876485Y-125456181D01*
X145876251Y-125723384D01*
X146012979Y-126054291D01*
X146265932Y-126307686D01*
X146596601Y-126444991D01*
X146954643Y-126445304D01*
X147258100Y-126319918D01*
X147258100Y-126593372D01*
X146351427Y-127500045D01*
X146121764Y-127499844D01*
X145790857Y-127636572D01*
X145537462Y-127889525D01*
X145400157Y-128220194D01*
X145399844Y-128578236D01*
X145536572Y-128909143D01*
X145789525Y-129162538D01*
X146120194Y-129299843D01*
X146478236Y-129300156D01*
X146809143Y-129163428D01*
X146849849Y-129122793D01*
X146889525Y-129162538D01*
X147220194Y-129299843D01*
X147578236Y-129300156D01*
X147909143Y-129163428D01*
X148162538Y-128910475D01*
X148299843Y-128579806D01*
X148300045Y-128348483D01*
X148681374Y-127967154D01*
X148811438Y-127772500D01*
X148857110Y-127542890D01*
X148857110Y-127354330D01*
X162188037Y-127354330D01*
X162463302Y-128020523D01*
X162972556Y-128530667D01*
X163638268Y-128807094D01*
X164359090Y-128807723D01*
X165025283Y-128532458D01*
X165535427Y-128023204D01*
X165811854Y-127357492D01*
X165812483Y-126636670D01*
X165537218Y-125970477D01*
X165027964Y-125460333D01*
X164362252Y-125183906D01*
X163641430Y-125183277D01*
X162975237Y-125458542D01*
X162465093Y-125967796D01*
X162188666Y-126633508D01*
X162188037Y-127354330D01*
X148857110Y-127354330D01*
X148857110Y-125072656D01*
X149134347Y-125072898D01*
X149322462Y-124995170D01*
X149448111Y-125121039D01*
X149778780Y-125258344D01*
X150010103Y-125258546D01*
X151275821Y-126524264D01*
X151470474Y-126654328D01*
X151700085Y-126700000D01*
X153792858Y-126700000D01*
X154022468Y-126654328D01*
X154217122Y-126524264D01*
X157385016Y-123356370D01*
X164187017Y-123356370D01*
X164462282Y-124022563D01*
X164971536Y-124532707D01*
X165637248Y-124809134D01*
X166358070Y-124809763D01*
X166686011Y-124674261D01*
X167324951Y-125313201D01*
X166973197Y-125458542D01*
X166463053Y-125967796D01*
X166186626Y-126633508D01*
X166185997Y-127354330D01*
X166461262Y-128020523D01*
X166970516Y-128530667D01*
X167636228Y-128807094D01*
X168357050Y-128807723D01*
X169023243Y-128532458D01*
X169533387Y-128023204D01*
X169809814Y-127357492D01*
X169810443Y-126636670D01*
X169535178Y-125970477D01*
X169265173Y-125700000D01*
X170729277Y-125700000D01*
X170461013Y-125967796D01*
X170184586Y-126633508D01*
X170183957Y-127354330D01*
X170459222Y-128020523D01*
X170968476Y-128530667D01*
X171634188Y-128807094D01*
X172355010Y-128807723D01*
X173021203Y-128532458D01*
X173531347Y-128023204D01*
X173807774Y-127357492D01*
X173808403Y-126636670D01*
X173533138Y-125970477D01*
X173063537Y-125500056D01*
X173178236Y-125500156D01*
X173509143Y-125363428D01*
X173762538Y-125110475D01*
X173899843Y-124779806D01*
X173900156Y-124421764D01*
X173768805Y-124103870D01*
X173962538Y-123910475D01*
X174099843Y-123579806D01*
X174100156Y-123221764D01*
X173963428Y-122890857D01*
X173710475Y-122637462D01*
X173379806Y-122500157D01*
X173021764Y-122499844D01*
X172690857Y-122636572D01*
X172627318Y-122700000D01*
X171809370Y-122700000D01*
X171809423Y-122638710D01*
X171534158Y-121972517D01*
X171024904Y-121462373D01*
X170359192Y-121185946D01*
X169638370Y-121185317D01*
X168972177Y-121460582D01*
X168462033Y-121969836D01*
X168185606Y-122635548D01*
X168184977Y-123356370D01*
X168460242Y-124022563D01*
X168737195Y-124300000D01*
X168291650Y-124300000D01*
X167675970Y-123684320D01*
X167810834Y-123359532D01*
X167811463Y-122638710D01*
X167536198Y-121972517D01*
X167026944Y-121462373D01*
X166361232Y-121185946D01*
X165640410Y-121185317D01*
X164974217Y-121460582D01*
X164464073Y-121969836D01*
X164187646Y-122635548D01*
X164187017Y-123356370D01*
X157385016Y-123356370D01*
X162178555Y-118562831D01*
X162178555Y-120311490D01*
X162217361Y-120506580D01*
X162327870Y-120671970D01*
X162493260Y-120782479D01*
X162688350Y-120821285D01*
X165312170Y-120821285D01*
X165507260Y-120782479D01*
X165672650Y-120671970D01*
X165783159Y-120506580D01*
X165821965Y-120311490D01*
X165821965Y-120221036D01*
X166783835Y-120221036D01*
X166916390Y-120497096D01*
X167571815Y-120797103D01*
X168292156Y-120823453D01*
X168967747Y-120572135D01*
X169080050Y-120497096D01*
X169212605Y-120221036D01*
X167998220Y-119006651D01*
X166783835Y-120221036D01*
X165821965Y-120221036D01*
X165821965Y-119293516D01*
X166174347Y-119293516D01*
X166425665Y-119969107D01*
X166500704Y-120081410D01*
X166776764Y-120213965D01*
X167991149Y-118999580D01*
X168005291Y-118999580D01*
X169219676Y-120213965D01*
X169495736Y-120081410D01*
X169795743Y-119425985D01*
X169798214Y-119358410D01*
X170183957Y-119358410D01*
X170459222Y-120024603D01*
X170968476Y-120534747D01*
X171634188Y-120811174D01*
X172355010Y-120811803D01*
X173021203Y-120536538D01*
X173531347Y-120027284D01*
X173807774Y-119361572D01*
X173808403Y-118640750D01*
X173533138Y-117974557D01*
X173023884Y-117464413D01*
X172358172Y-117187986D01*
X171637350Y-117187357D01*
X170971157Y-117462622D01*
X170461013Y-117971876D01*
X170184586Y-118637588D01*
X170183957Y-119358410D01*
X169798214Y-119358410D01*
X169822093Y-118705644D01*
X169570775Y-118030053D01*
X169495736Y-117917750D01*
X169219676Y-117785195D01*
X168005291Y-118999580D01*
X167991149Y-118999580D01*
X166776764Y-117785195D01*
X166500704Y-117917750D01*
X166200697Y-118573175D01*
X166174347Y-119293516D01*
X165821965Y-119293516D01*
X165821965Y-117778124D01*
X166783835Y-117778124D01*
X167998220Y-118992509D01*
X169212605Y-117778124D01*
X169080050Y-117502064D01*
X168424625Y-117202057D01*
X167704284Y-117175707D01*
X167028693Y-117427025D01*
X166916390Y-117502064D01*
X166783835Y-117778124D01*
X165821965Y-117778124D01*
X165821965Y-117687670D01*
X165783159Y-117492580D01*
X165672650Y-117327190D01*
X165507260Y-117216681D01*
X165312170Y-117177875D01*
X163563511Y-117177875D01*
X168145332Y-112596054D01*
X179696223Y-112596054D01*
X180000044Y-113331356D01*
X180562125Y-113894419D01*
X181296896Y-114199522D01*
X182092494Y-114200217D01*
X182827796Y-113896396D01*
X183390859Y-113334315D01*
X183695962Y-112599544D01*
X183696657Y-111803946D01*
X183392836Y-111068644D01*
X182830755Y-110505581D01*
X182095984Y-110200478D01*
X181300386Y-110199783D01*
X180565084Y-110503604D01*
X180002021Y-111065685D01*
X179696918Y-111800456D01*
X179696223Y-112596054D01*
X168145332Y-112596054D01*
X183541386Y-97200000D01*
X187127271Y-97200000D01*
X187289525Y-97362538D01*
X187620194Y-97499843D01*
X187978236Y-97500156D01*
X188309143Y-97363428D01*
X188562538Y-97110475D01*
X188699843Y-96779806D01*
X188700156Y-96421764D01*
X188563428Y-96090857D01*
X188310475Y-95837462D01*
X187979806Y-95700157D01*
X187621764Y-95699844D01*
X187290857Y-95836572D01*
X187127143Y-96000000D01*
X184122060Y-96000000D01*
X184922060Y-95200000D01*
X185658198Y-95200000D01*
X185887808Y-95154328D01*
X186082462Y-95024264D01*
X186548573Y-94558153D01*
X186778236Y-94558354D01*
X187109143Y-94421626D01*
X187362538Y-94168673D01*
X187499843Y-93838004D01*
X187500156Y-93479962D01*
X187363428Y-93149055D01*
X187110475Y-92895660D01*
X186779806Y-92758355D01*
X186421764Y-92758042D01*
X186090857Y-92894770D01*
X185837462Y-93147723D01*
X185800078Y-93237754D01*
X185763428Y-93149055D01*
X185510475Y-92895660D01*
X185179806Y-92758355D01*
X184821764Y-92758042D01*
X184490857Y-92894770D01*
X184237462Y-93147723D01*
X184100157Y-93478392D01*
X184099955Y-93709715D01*
X181538098Y-96271572D01*
X181463428Y-96090857D01*
X181210475Y-95837462D01*
X180879806Y-95700157D01*
X180745450Y-95700040D01*
X180754328Y-95686753D01*
X180800000Y-95457143D01*
X180800000Y-94330927D01*
X180962538Y-94168673D01*
X181099843Y-93838004D01*
X181100156Y-93479962D01*
X180963428Y-93149055D01*
X180710475Y-92895660D01*
X180379806Y-92758355D01*
X180021764Y-92758042D01*
X179690857Y-92894770D01*
X179437462Y-93147723D01*
X179400078Y-93237754D01*
X179363428Y-93149055D01*
X179110475Y-92895660D01*
X178779806Y-92758355D01*
X178421764Y-92758042D01*
X178090857Y-92894770D01*
X177837462Y-93147723D01*
X177700157Y-93478392D01*
X177699844Y-93836434D01*
X177836572Y-94167341D01*
X178000000Y-94331055D01*
X178000000Y-96244330D01*
X175900000Y-98344330D01*
X175900000Y-97372729D01*
X176062538Y-97210475D01*
X176199843Y-96879806D01*
X176200156Y-96521764D01*
X176063428Y-96190857D01*
X175810475Y-95937462D01*
X175479806Y-95800157D01*
X175121764Y-95799844D01*
X174790857Y-95936572D01*
X174537462Y-96189525D01*
X174400157Y-96520194D01*
X174400000Y-96699787D01*
X174400000Y-94330927D01*
X174562538Y-94168673D01*
X174699843Y-93838004D01*
X174700156Y-93479962D01*
X174563428Y-93149055D01*
X174310475Y-92895660D01*
X173979806Y-92758355D01*
X173621764Y-92758042D01*
X173290857Y-92894770D01*
X173037462Y-93147723D01*
X173000078Y-93237754D01*
X172963428Y-93149055D01*
X172710475Y-92895660D01*
X172379806Y-92758355D01*
X172021764Y-92758042D01*
X171690857Y-92894770D01*
X171437462Y-93147723D01*
X171300157Y-93478392D01*
X171299844Y-93836434D01*
X171436572Y-94167341D01*
X171600000Y-94331055D01*
X171600000Y-100951472D01*
X156718718Y-115832754D01*
X155315774Y-115832754D01*
X167024264Y-104124264D01*
X167154328Y-103929610D01*
X167200000Y-103700000D01*
X167200000Y-98748528D01*
X168448573Y-97499955D01*
X168678236Y-97500156D01*
X169009143Y-97363428D01*
X169262538Y-97110475D01*
X169399843Y-96779806D01*
X169400156Y-96421764D01*
X169263428Y-96090857D01*
X169010475Y-95837462D01*
X168679806Y-95700157D01*
X168321764Y-95699844D01*
X167990857Y-95836572D01*
X167737462Y-96089525D01*
X167600157Y-96420194D01*
X167599955Y-96651517D01*
X166800989Y-97450483D01*
X166800989Y-95105737D01*
X167348573Y-94558153D01*
X167578236Y-94558354D01*
X167909143Y-94421626D01*
X168162538Y-94168673D01*
X168299843Y-93838004D01*
X168300156Y-93479962D01*
X168163428Y-93149055D01*
X167910475Y-92895660D01*
X167579806Y-92758355D01*
X167221764Y-92758042D01*
X166890857Y-92894770D01*
X166637462Y-93147723D01*
X166600078Y-93237754D01*
X166563428Y-93149055D01*
X166310475Y-92895660D01*
X165979806Y-92758355D01*
X165621764Y-92758042D01*
X165290857Y-92894770D01*
X165037462Y-93147723D01*
X164900157Y-93478392D01*
X164899844Y-93836434D01*
X165036572Y-94167341D01*
X165200000Y-94331055D01*
X165200000Y-103022900D01*
X156300113Y-111922787D01*
X156300217Y-111803946D01*
X155996396Y-111068644D01*
X155434315Y-110505581D01*
X154699544Y-110200478D01*
X153903946Y-110199783D01*
X153168644Y-110503604D01*
X152605581Y-111065685D01*
X152300478Y-111800456D01*
X152299783Y-112596054D01*
X152603604Y-113331356D01*
X153165685Y-113894419D01*
X153900456Y-114199522D01*
X154023271Y-114199629D01*
X153522900Y-114700000D01*
X153201192Y-114700000D01*
X152971581Y-114745672D01*
X152776928Y-114875736D01*
X152177724Y-115474940D01*
X152047660Y-115669594D01*
X152001988Y-115899204D01*
X152001988Y-117249484D01*
X148377818Y-120873654D01*
X148173510Y-120873654D01*
X148089308Y-120890403D01*
X148124334Y-120714316D01*
X148124334Y-119724194D01*
X151525254Y-116323274D01*
X151655318Y-116128621D01*
X151700990Y-115899010D01*
X151700990Y-115399914D01*
X151978236Y-115400156D01*
X152309143Y-115263428D01*
X152562538Y-115010475D01*
X152699843Y-114679806D01*
X152700156Y-114321764D01*
X152563428Y-113990857D01*
X152373378Y-113800475D01*
X152354328Y-113704705D01*
X152224264Y-113510051D01*
X152100000Y-113385787D01*
X152100000Y-111248528D01*
X162824264Y-100524264D01*
X162954328Y-100329610D01*
X163000000Y-100100000D01*
X163000000Y-97272729D01*
X163162538Y-97110475D01*
X163299843Y-96779806D01*
X163300156Y-96421764D01*
X163163428Y-96090857D01*
X162910475Y-95837462D01*
X162579806Y-95700157D01*
X162221764Y-95699844D01*
X161890857Y-95836572D01*
X161637462Y-96089525D01*
X161500157Y-96420194D01*
X161499844Y-96778236D01*
X161636572Y-97109143D01*
X161800000Y-97272857D01*
X161800000Y-99851472D01*
X160400989Y-101250483D01*
X160400989Y-95105737D01*
X160948573Y-94558153D01*
X161178236Y-94558354D01*
X161509143Y-94421626D01*
X161762538Y-94168673D01*
X161899843Y-93838004D01*
X161900156Y-93479962D01*
X161763428Y-93149055D01*
X161510475Y-92895660D01*
X161179806Y-92758355D01*
X160821764Y-92758042D01*
X160490857Y-92894770D01*
X160237462Y-93147723D01*
X160193203Y-93254311D01*
X160140054Y-93125681D01*
X159887101Y-92872286D01*
X159556432Y-92734981D01*
X159198390Y-92734668D01*
X158867483Y-92871396D01*
X158614088Y-93124349D01*
X158476783Y-93455018D01*
X158476470Y-93813060D01*
X158613198Y-94143967D01*
X158776626Y-94307681D01*
X158776626Y-101709370D01*
X153672700Y-106813296D01*
X153663428Y-106790857D01*
X153410475Y-106537462D01*
X153079806Y-106400157D01*
X153000000Y-106400087D01*
X153000000Y-98348528D01*
X154148528Y-97200000D01*
X155327271Y-97200000D01*
X155489525Y-97362538D01*
X155820194Y-97499843D01*
X156178236Y-97500156D01*
X156509143Y-97363428D01*
X156762538Y-97110475D01*
X156899843Y-96779806D01*
X156900156Y-96421764D01*
X156763428Y-96090857D01*
X156510475Y-95837462D01*
X156179806Y-95700157D01*
X155821764Y-95699844D01*
X155490857Y-95836572D01*
X155327143Y-96000000D01*
X153900000Y-96000000D01*
X153670389Y-96045672D01*
X153475736Y-96175736D01*
X153100043Y-96551429D01*
X153100156Y-96421764D01*
X152963428Y-96090857D01*
X152710475Y-95837462D01*
X152705602Y-95835439D01*
X154111274Y-94429767D01*
X154420194Y-94558041D01*
X154778236Y-94558354D01*
X155109143Y-94421626D01*
X155362538Y-94168673D01*
X155499843Y-93838004D01*
X155500156Y-93479962D01*
X155363428Y-93149055D01*
X155110475Y-92895660D01*
X154779806Y-92758355D01*
X154421764Y-92758042D01*
X154090857Y-92894770D01*
X153900475Y-93084820D01*
X153804705Y-93103870D01*
X153752886Y-93138494D01*
X153510475Y-92895660D01*
X153179806Y-92758355D01*
X152821764Y-92758042D01*
X152490857Y-92894770D01*
X152237462Y-93147723D01*
X152100157Y-93478392D01*
X152099955Y-93709715D01*
X150001978Y-95807692D01*
X150001978Y-94760176D01*
X149956306Y-94530566D01*
X149826242Y-94335912D01*
X149199955Y-93709625D01*
X149200156Y-93479962D01*
X149063428Y-93149055D01*
X148810475Y-92895660D01*
X148479806Y-92758355D01*
X148121764Y-92758042D01*
X147790857Y-92894770D01*
X147537462Y-93147723D01*
X147520839Y-93187756D01*
X147395295Y-93103870D01*
X147299251Y-93084766D01*
X147110475Y-92895660D01*
X146779806Y-92758355D01*
X146421764Y-92758042D01*
X146090857Y-92894770D01*
X145837462Y-93147723D01*
X145700157Y-93478392D01*
X145699844Y-93836434D01*
X145836572Y-94167341D01*
X146089525Y-94420736D01*
X146420194Y-94558041D01*
X146778236Y-94558354D01*
X147088935Y-94429976D01*
X147400000Y-94741041D01*
X147400000Y-96521386D01*
X147263428Y-96190857D01*
X147010475Y-95937462D01*
X146679806Y-95800157D01*
X146321764Y-95799844D01*
X145990857Y-95936572D01*
X145737462Y-96189525D01*
X145600157Y-96520194D01*
X145599844Y-96878236D01*
X145736572Y-97209143D01*
X145900000Y-97372857D01*
X145900000Y-102791475D01*
X145790857Y-102836572D01*
X145537462Y-103089525D01*
X145400157Y-103420194D01*
X145400001Y-103598643D01*
X145400001Y-74977099D01*
X145922286Y-74454814D01*
X146052350Y-74260160D01*
X146098022Y-74030550D01*
X146098022Y-72693554D01*
X191197323Y-72693554D01*
X191501144Y-73428856D01*
X192063225Y-73991919D01*
X192797996Y-74297022D01*
X193593594Y-74297717D01*
X194328896Y-73993896D01*
X194891959Y-73431815D01*
X195197062Y-72697044D01*
X195197757Y-71901446D01*
X194893936Y-71166144D01*
X194331855Y-70603081D01*
X193597084Y-70297978D01*
X192801486Y-70297283D01*
X192066184Y-70601104D01*
X191503121Y-71163185D01*
X191198018Y-71897956D01*
X191197323Y-72693554D01*
X146098022Y-72693554D01*
X146098022Y-69354330D01*
X152188037Y-69354330D01*
X152463302Y-70020523D01*
X152972556Y-70530667D01*
X153638268Y-70807094D01*
X154359090Y-70807723D01*
X155025283Y-70532458D01*
X155535427Y-70023204D01*
X155811854Y-69357492D01*
X155811856Y-69354330D01*
X156185997Y-69354330D01*
X156461262Y-70020523D01*
X156970516Y-70530667D01*
X157636228Y-70807094D01*
X158357050Y-70807723D01*
X159023243Y-70532458D01*
X159533387Y-70023204D01*
X159809814Y-69357492D01*
X159809816Y-69354330D01*
X160186497Y-69354330D01*
X160461762Y-70020523D01*
X160971016Y-70530667D01*
X161636728Y-70807094D01*
X162357550Y-70807723D01*
X163023743Y-70532458D01*
X163533887Y-70023204D01*
X163810314Y-69357492D01*
X163810316Y-69354330D01*
X164186997Y-69354330D01*
X164462262Y-70020523D01*
X164971516Y-70530667D01*
X165637228Y-70807094D01*
X166358050Y-70807723D01*
X167024243Y-70532458D01*
X167534387Y-70023204D01*
X167810814Y-69357492D01*
X167810816Y-69354330D01*
X168184957Y-69354330D01*
X168460222Y-70020523D01*
X168969476Y-70530667D01*
X169635188Y-70807094D01*
X170356010Y-70807723D01*
X171022203Y-70532458D01*
X171532347Y-70023204D01*
X171808774Y-69357492D01*
X171808776Y-69354330D01*
X172185457Y-69354330D01*
X172460722Y-70020523D01*
X172969976Y-70530667D01*
X173635688Y-70807094D01*
X174356510Y-70807723D01*
X175022703Y-70532458D01*
X175532847Y-70023204D01*
X175809274Y-69357492D01*
X175809276Y-69354330D01*
X176185957Y-69354330D01*
X176461222Y-70020523D01*
X176970476Y-70530667D01*
X177636188Y-70807094D01*
X178357010Y-70807723D01*
X179023203Y-70532458D01*
X179533347Y-70023204D01*
X179809774Y-69357492D01*
X179809776Y-69354330D01*
X180183917Y-69354330D01*
X180459182Y-70020523D01*
X180968436Y-70530667D01*
X181634148Y-70807094D01*
X182354970Y-70807723D01*
X183021163Y-70532458D01*
X183531307Y-70023204D01*
X183807734Y-69357492D01*
X183808363Y-68636670D01*
X183533098Y-67970477D01*
X183023844Y-67460333D01*
X182358132Y-67183906D01*
X181637310Y-67183277D01*
X180971117Y-67458542D01*
X180460973Y-67967796D01*
X180184546Y-68633508D01*
X180183917Y-69354330D01*
X179809776Y-69354330D01*
X179810403Y-68636670D01*
X179535138Y-67970477D01*
X179025884Y-67460333D01*
X178360172Y-67183906D01*
X177639350Y-67183277D01*
X176973157Y-67458542D01*
X176463013Y-67967796D01*
X176186586Y-68633508D01*
X176185957Y-69354330D01*
X175809276Y-69354330D01*
X175809903Y-68636670D01*
X175534638Y-67970477D01*
X175025384Y-67460333D01*
X174359672Y-67183906D01*
X173638850Y-67183277D01*
X172972657Y-67458542D01*
X172462513Y-67967796D01*
X172186086Y-68633508D01*
X172185457Y-69354330D01*
X171808776Y-69354330D01*
X171809403Y-68636670D01*
X171534138Y-67970477D01*
X171024884Y-67460333D01*
X170359172Y-67183906D01*
X169638350Y-67183277D01*
X168972157Y-67458542D01*
X168462013Y-67967796D01*
X168185586Y-68633508D01*
X168184957Y-69354330D01*
X167810816Y-69354330D01*
X167811443Y-68636670D01*
X167536178Y-67970477D01*
X167026924Y-67460333D01*
X166361212Y-67183906D01*
X165640390Y-67183277D01*
X164974197Y-67458542D01*
X164464053Y-67967796D01*
X164187626Y-68633508D01*
X164186997Y-69354330D01*
X163810316Y-69354330D01*
X163810943Y-68636670D01*
X163535678Y-67970477D01*
X163026424Y-67460333D01*
X162360712Y-67183906D01*
X161639890Y-67183277D01*
X160973697Y-67458542D01*
X160463553Y-67967796D01*
X160187126Y-68633508D01*
X160186497Y-69354330D01*
X159809816Y-69354330D01*
X159810443Y-68636670D01*
X159535178Y-67970477D01*
X159025924Y-67460333D01*
X158360212Y-67183906D01*
X157639390Y-67183277D01*
X156973197Y-67458542D01*
X156463053Y-67967796D01*
X156186626Y-68633508D01*
X156185997Y-69354330D01*
X155811856Y-69354330D01*
X155812483Y-68636670D01*
X155537218Y-67970477D01*
X155027964Y-67460333D01*
X154362252Y-67183906D01*
X153641430Y-67183277D01*
X152975237Y-67458542D01*
X152465093Y-67967796D01*
X152188666Y-68633508D01*
X152188037Y-69354330D01*
X146098022Y-69354330D01*
X146098022Y-65356370D01*
X154187017Y-65356370D01*
X154462282Y-66022563D01*
X154971536Y-66532707D01*
X155637248Y-66809134D01*
X156358070Y-66809763D01*
X157024263Y-66534498D01*
X157534407Y-66025244D01*
X157810834Y-65359532D01*
X157810836Y-65356370D01*
X158187517Y-65356370D01*
X158462782Y-66022563D01*
X158972036Y-66532707D01*
X159637748Y-66809134D01*
X160358570Y-66809763D01*
X161024763Y-66534498D01*
X161534907Y-66025244D01*
X161811334Y-65359532D01*
X161811336Y-65356370D01*
X162188017Y-65356370D01*
X162463282Y-66022563D01*
X162972536Y-66532707D01*
X163638248Y-66809134D01*
X164359070Y-66809763D01*
X165025263Y-66534498D01*
X165535407Y-66025244D01*
X165811834Y-65359532D01*
X165811836Y-65356370D01*
X166185977Y-65356370D01*
X166461242Y-66022563D01*
X166970496Y-66532707D01*
X167636208Y-66809134D01*
X168357030Y-66809763D01*
X169023223Y-66534498D01*
X169533367Y-66025244D01*
X169809794Y-65359532D01*
X169809796Y-65356370D01*
X170183937Y-65356370D01*
X170459202Y-66022563D01*
X170968456Y-66532707D01*
X171634168Y-66809134D01*
X172354990Y-66809763D01*
X173021183Y-66534498D01*
X173531327Y-66025244D01*
X173807754Y-65359532D01*
X173807756Y-65356370D01*
X174184437Y-65356370D01*
X174459702Y-66022563D01*
X174968956Y-66532707D01*
X175634668Y-66809134D01*
X176355490Y-66809763D01*
X177021683Y-66534498D01*
X177531827Y-66025244D01*
X177808254Y-65359532D01*
X177808256Y-65356370D01*
X178184937Y-65356370D01*
X178460202Y-66022563D01*
X178969456Y-66532707D01*
X179635168Y-66809134D01*
X180355990Y-66809763D01*
X181022183Y-66534498D01*
X181532327Y-66025244D01*
X181808754Y-65359532D01*
X181809383Y-64638710D01*
X181534118Y-63972517D01*
X181024864Y-63462373D01*
X180359152Y-63185946D01*
X179638330Y-63185317D01*
X178972137Y-63460582D01*
X178461993Y-63969836D01*
X178185566Y-64635548D01*
X178184937Y-65356370D01*
X177808256Y-65356370D01*
X177808883Y-64638710D01*
X177533618Y-63972517D01*
X177024364Y-63462373D01*
X176358652Y-63185946D01*
X175637830Y-63185317D01*
X174971637Y-63460582D01*
X174461493Y-63969836D01*
X174185066Y-64635548D01*
X174184437Y-65356370D01*
X173807756Y-65356370D01*
X173808383Y-64638710D01*
X173533118Y-63972517D01*
X173023864Y-63462373D01*
X172358152Y-63185946D01*
X171637330Y-63185317D01*
X170971137Y-63460582D01*
X170460993Y-63969836D01*
X170184566Y-64635548D01*
X170183937Y-65356370D01*
X169809796Y-65356370D01*
X169810423Y-64638710D01*
X169535158Y-63972517D01*
X169025904Y-63462373D01*
X168360192Y-63185946D01*
X167639370Y-63185317D01*
X166973177Y-63460582D01*
X166463033Y-63969836D01*
X166186606Y-64635548D01*
X166185977Y-65356370D01*
X165811836Y-65356370D01*
X165812463Y-64638710D01*
X165537198Y-63972517D01*
X165027944Y-63462373D01*
X164362232Y-63185946D01*
X163641410Y-63185317D01*
X162975217Y-63460582D01*
X162465073Y-63969836D01*
X162188646Y-64635548D01*
X162188017Y-65356370D01*
X161811336Y-65356370D01*
X161811963Y-64638710D01*
X161536698Y-63972517D01*
X161027444Y-63462373D01*
X160361732Y-63185946D01*
X159640910Y-63185317D01*
X158974717Y-63460582D01*
X158464573Y-63969836D01*
X158188146Y-64635548D01*
X158187517Y-65356370D01*
X157810836Y-65356370D01*
X157811463Y-64638710D01*
X157536198Y-63972517D01*
X157026944Y-63462373D01*
X156361232Y-63185946D01*
X155640410Y-63185317D01*
X154974217Y-63460582D01*
X154464073Y-63969836D01*
X154187646Y-64635548D01*
X154187017Y-65356370D01*
X146098022Y-65356370D01*
X146098022Y-60150506D01*
X146560858Y-59687670D01*
X152178555Y-59687670D01*
X152178555Y-62311490D01*
X152217361Y-62506580D01*
X152327870Y-62671970D01*
X152493260Y-62782479D01*
X152688350Y-62821285D01*
X155312170Y-62821285D01*
X155507260Y-62782479D01*
X155672650Y-62671970D01*
X155783159Y-62506580D01*
X155821965Y-62311490D01*
X155821965Y-61358410D01*
X156185997Y-61358410D01*
X156461262Y-62024603D01*
X156970516Y-62534747D01*
X157636228Y-62811174D01*
X158357050Y-62811803D01*
X159023243Y-62536538D01*
X159533387Y-62027284D01*
X159809814Y-61361572D01*
X159809816Y-61358410D01*
X160186497Y-61358410D01*
X160461762Y-62024603D01*
X160971016Y-62534747D01*
X161636728Y-62811174D01*
X162357550Y-62811803D01*
X163023743Y-62536538D01*
X163533887Y-62027284D01*
X163810314Y-61361572D01*
X163810316Y-61358410D01*
X164186997Y-61358410D01*
X164462262Y-62024603D01*
X164971516Y-62534747D01*
X165637228Y-62811174D01*
X166358050Y-62811803D01*
X167024243Y-62536538D01*
X167534387Y-62027284D01*
X167810814Y-61361572D01*
X167810816Y-61358410D01*
X168184957Y-61358410D01*
X168460222Y-62024603D01*
X168969476Y-62534747D01*
X169635188Y-62811174D01*
X170356010Y-62811803D01*
X171022203Y-62536538D01*
X171532347Y-62027284D01*
X171808774Y-61361572D01*
X171808776Y-61358410D01*
X172185457Y-61358410D01*
X172460722Y-62024603D01*
X172969976Y-62534747D01*
X173635688Y-62811174D01*
X174356510Y-62811803D01*
X175022703Y-62536538D01*
X175532847Y-62027284D01*
X175809274Y-61361572D01*
X175809276Y-61358410D01*
X176185957Y-61358410D01*
X176461222Y-62024603D01*
X176970476Y-62534747D01*
X177636188Y-62811174D01*
X178357010Y-62811803D01*
X179023203Y-62536538D01*
X179533347Y-62027284D01*
X179809774Y-61361572D01*
X179809776Y-61358410D01*
X180183917Y-61358410D01*
X180459182Y-62024603D01*
X180968436Y-62534747D01*
X181634148Y-62811174D01*
X182354970Y-62811803D01*
X183021163Y-62536538D01*
X183531307Y-62027284D01*
X183807734Y-61361572D01*
X183808363Y-60640750D01*
X183533098Y-59974557D01*
X183023844Y-59464413D01*
X182358132Y-59187986D01*
X181637310Y-59187357D01*
X180971117Y-59462622D01*
X180460973Y-59971876D01*
X180184546Y-60637588D01*
X180183917Y-61358410D01*
X179809776Y-61358410D01*
X179810403Y-60640750D01*
X179535138Y-59974557D01*
X179025884Y-59464413D01*
X178360172Y-59187986D01*
X177639350Y-59187357D01*
X176973157Y-59462622D01*
X176463013Y-59971876D01*
X176186586Y-60637588D01*
X176185957Y-61358410D01*
X175809276Y-61358410D01*
X175809903Y-60640750D01*
X175534638Y-59974557D01*
X175025384Y-59464413D01*
X174359672Y-59187986D01*
X173638850Y-59187357D01*
X172972657Y-59462622D01*
X172462513Y-59971876D01*
X172186086Y-60637588D01*
X172185457Y-61358410D01*
X171808776Y-61358410D01*
X171809403Y-60640750D01*
X171534138Y-59974557D01*
X171024884Y-59464413D01*
X170359172Y-59187986D01*
X169638350Y-59187357D01*
X168972157Y-59462622D01*
X168462013Y-59971876D01*
X168185586Y-60637588D01*
X168184957Y-61358410D01*
X167810816Y-61358410D01*
X167811443Y-60640750D01*
X167536178Y-59974557D01*
X167026924Y-59464413D01*
X166361212Y-59187986D01*
X165640390Y-59187357D01*
X164974197Y-59462622D01*
X164464053Y-59971876D01*
X164187626Y-60637588D01*
X164186997Y-61358410D01*
X163810316Y-61358410D01*
X163810943Y-60640750D01*
X163535678Y-59974557D01*
X163026424Y-59464413D01*
X162360712Y-59187986D01*
X161639890Y-59187357D01*
X160973697Y-59462622D01*
X160463553Y-59971876D01*
X160187126Y-60637588D01*
X160186497Y-61358410D01*
X159809816Y-61358410D01*
X159810443Y-60640750D01*
X159535178Y-59974557D01*
X159025924Y-59464413D01*
X158360212Y-59187986D01*
X157639390Y-59187357D01*
X156973197Y-59462622D01*
X156463053Y-59971876D01*
X156186626Y-60637588D01*
X156185997Y-61358410D01*
X155821965Y-61358410D01*
X155821965Y-59687670D01*
X155783159Y-59492580D01*
X155672650Y-59327190D01*
X155507260Y-59216681D01*
X155312170Y-59177875D01*
X152688350Y-59177875D01*
X152493260Y-59216681D01*
X152327870Y-59327190D01*
X152217361Y-59492580D01*
X152178555Y-59687670D01*
X146560858Y-59687670D01*
X149548529Y-56700000D01*
X167427271Y-56700000D01*
X167589525Y-56862538D01*
X167920194Y-56999843D01*
X168278236Y-57000156D01*
X168609143Y-56863428D01*
X168862538Y-56610475D01*
X168999843Y-56279806D01*
X169000156Y-55921764D01*
X168863428Y-55590857D01*
X168610475Y-55337462D01*
X168279806Y-55200157D01*
X167921764Y-55199844D01*
X167590857Y-55336572D01*
X167427143Y-55500000D01*
X150184243Y-55500000D01*
X151183253Y-54500990D01*
X169752462Y-54500990D01*
X171200045Y-55948573D01*
X171199844Y-56178236D01*
X171336572Y-56509143D01*
X171589525Y-56762538D01*
X171920194Y-56899843D01*
X172278236Y-56900156D01*
X172609143Y-56763428D01*
X172862538Y-56510475D01*
X172999843Y-56179806D01*
X173000156Y-55821764D01*
X172863428Y-55490857D01*
X172610475Y-55237462D01*
X172279806Y-55100157D01*
X172048483Y-55099955D01*
X171050508Y-54101980D01*
X175053452Y-54101980D01*
X175800045Y-54848573D01*
X175799844Y-55078236D01*
X175936572Y-55409143D01*
X176189525Y-55662538D01*
X176520194Y-55799843D01*
X176878236Y-55800156D01*
X177209143Y-55663428D01*
X177462538Y-55410475D01*
X177599843Y-55079806D01*
X177600156Y-54721764D01*
X177463428Y-54390857D01*
X177210475Y-54137462D01*
X176879806Y-54000157D01*
X176648483Y-53999955D01*
X176351498Y-53702970D01*
X180302407Y-53702970D01*
X180302210Y-53927766D01*
X180438938Y-54258673D01*
X180691891Y-54512068D01*
X181022560Y-54649373D01*
X181380602Y-54649686D01*
X181510401Y-54596054D01*
X189696183Y-54596054D01*
X190000004Y-55331356D01*
X190562085Y-55894419D01*
X191296856Y-56199522D01*
X192092454Y-56200217D01*
X192827756Y-55896396D01*
X193390819Y-55334315D01*
X193695922Y-54599544D01*
X193696617Y-53803946D01*
X193392796Y-53068644D01*
X192830715Y-52505581D01*
X192095944Y-52200478D01*
X191300346Y-52199783D01*
X190565044Y-52503604D01*
X190001981Y-53065685D01*
X189696878Y-53800456D01*
X189696183Y-54596054D01*
X181510401Y-54596054D01*
X181711509Y-54512958D01*
X181964904Y-54260005D01*
X182102209Y-53929336D01*
X182102522Y-53571294D01*
X181965794Y-53240387D01*
X181712841Y-52986992D01*
X181382172Y-52849687D01*
X181150849Y-52849485D01*
X180980070Y-52678706D01*
X180785416Y-52548642D01*
X180555806Y-52502970D01*
X166899910Y-52502969D01*
X166900156Y-52221765D01*
X166763428Y-51890858D01*
X166510475Y-51637463D01*
X166179806Y-51500158D01*
X165948483Y-51499956D01*
X164931197Y-50482670D01*
X164736543Y-50352606D01*
X164506933Y-50306934D01*
X150543064Y-50306934D01*
X150313454Y-50352606D01*
X150118800Y-50482670D01*
X146299782Y-54301688D01*
X146300217Y-53803946D01*
X145996396Y-53068644D01*
X145434315Y-52505581D01*
X144699544Y-52200478D01*
X143903946Y-52199783D01*
X143168644Y-52503604D01*
X142605581Y-53065685D01*
X142300478Y-53800456D01*
X142299783Y-54596054D01*
X142603604Y-55331356D01*
X143165685Y-55894419D01*
X143900456Y-56199522D01*
X144401510Y-56199960D01*
X138550000Y-62051470D01*
X138550000Y-51054171D01*
X138670330Y-50449232D01*
X138982314Y-49982314D01*
X139449232Y-49670330D01*
X140054170Y-49550000D01*
X195945829Y-49550000D01*
X196550768Y-49670330D01*
G36*
X179799844Y-96778236D02*
X179936572Y-97109143D01*
X180089317Y-97262155D01*
X153805975Y-123545497D01*
X152399910Y-123545497D01*
X152400156Y-123263693D01*
X152263428Y-122932786D01*
X152010475Y-122679391D01*
X151679806Y-122542086D01*
X151321764Y-122541773D01*
X151011065Y-122670151D01*
X150900000Y-122559086D01*
X150900000Y-121848528D01*
X152472399Y-120276129D01*
X155029908Y-120276129D01*
X155259518Y-120230457D01*
X155454172Y-120100393D01*
X155641916Y-119912649D01*
X156344494Y-119912649D01*
X156574104Y-119866977D01*
X156768758Y-119736913D01*
X179799907Y-96705764D01*
X179799844Y-96778236D01*
X179799844Y-96778236D01*
G37*
X179799844Y-96778236D02*
X179936572Y-97109143D01*
X180089317Y-97262155D01*
X153805975Y-123545497D01*
X152399910Y-123545497D01*
X152400156Y-123263693D01*
X152263428Y-122932786D01*
X152010475Y-122679391D01*
X151679806Y-122542086D01*
X151321764Y-122541773D01*
X151011065Y-122670151D01*
X150900000Y-122559086D01*
X150900000Y-121848528D01*
X152472399Y-120276129D01*
X155029908Y-120276129D01*
X155259518Y-120230457D01*
X155454172Y-120100393D01*
X155641916Y-119912649D01*
X156344494Y-119912649D01*
X156574104Y-119866977D01*
X156768758Y-119736913D01*
X179799907Y-96705764D01*
X179799844Y-96778236D01*
G36*
X147400000Y-99100000D02*
X147445672Y-99329610D01*
X147575736Y-99524264D01*
X148400000Y-100348528D01*
X148400000Y-114930042D01*
X146712868Y-116617174D01*
X146161212Y-116617174D01*
X146077648Y-116533464D01*
X145746979Y-116396159D01*
X145400001Y-116395856D01*
X145400001Y-103778616D01*
X145536572Y-104109143D01*
X145789525Y-104362538D01*
X146120194Y-104499843D01*
X146478236Y-104500156D01*
X146809143Y-104363428D01*
X147062538Y-104110475D01*
X147199843Y-103779806D01*
X147200156Y-103421764D01*
X147100000Y-103179368D01*
X147100000Y-97372729D01*
X147262538Y-97210475D01*
X147399843Y-96879806D01*
X147400000Y-96700000D01*
X147400000Y-99100000D01*
X147400000Y-99100000D01*
G37*
X147400000Y-99100000D02*
X147445672Y-99329610D01*
X147575736Y-99524264D01*
X148400000Y-100348528D01*
X148400000Y-114930042D01*
X146712868Y-116617174D01*
X146161212Y-116617174D01*
X146077648Y-116533464D01*
X145746979Y-116396159D01*
X145400001Y-116395856D01*
X145400001Y-103778616D01*
X145536572Y-104109143D01*
X145789525Y-104362538D01*
X146120194Y-104499843D01*
X146478236Y-104500156D01*
X146809143Y-104363428D01*
X147062538Y-104110475D01*
X147199843Y-103779806D01*
X147200156Y-103421764D01*
X147100000Y-103179368D01*
X147100000Y-97372729D01*
X147262538Y-97210475D01*
X147399843Y-96879806D01*
X147400000Y-96700000D01*
X147400000Y-99100000D01*
G36*
X141102464Y-73428856D02*
X141664545Y-73991919D01*
X142399316Y-74297022D01*
X143194914Y-74297717D01*
X143420587Y-74204471D01*
X143401979Y-74298021D01*
X143401979Y-111654378D01*
X140800002Y-109052399D01*
X140800002Y-72696843D01*
X141102464Y-73428856D01*
X141102464Y-73428856D01*
G37*
X141102464Y-73428856D02*
X141664545Y-73991919D01*
X142399316Y-74297022D01*
X143194914Y-74297717D01*
X143420587Y-74204471D01*
X143401979Y-74298021D01*
X143401979Y-111654378D01*
X140800002Y-109052399D01*
X140800002Y-72696843D01*
X141102464Y-73428856D01*
G36*
X144100000Y-70770197D02*
X143933175Y-70603081D01*
X143198404Y-70297978D01*
X142402806Y-70297283D01*
X141667504Y-70601104D01*
X141104441Y-71163185D01*
X140800002Y-71896357D01*
X140800002Y-63755668D01*
X144100000Y-60455670D01*
X144100000Y-70770197D01*
X144100000Y-70770197D01*
G37*
X144100000Y-70770197D02*
X143933175Y-70603081D01*
X143198404Y-70297978D01*
X142402806Y-70297283D01*
X141667504Y-70601104D01*
X141104441Y-71163185D01*
X140800002Y-71896357D01*
X140800002Y-63755668D01*
X144100000Y-60455670D01*
X144100000Y-70770197D01*
M02*
