G04 #@! TF.GenerationSoftware,KiCad,Pcbnew,(5.0.0-rc2-dev-130-g0bdae22af-dirty)*
G04 #@! TF.CreationDate,2018-07-07T09:45:52+03:00*
G04 #@! TF.ProjectId,icu,6963752E6B696361645F706362000000,rev?*
G04 #@! TF.SameCoordinates,Original*
G04 #@! TF.FileFunction,Copper,L2,Bot,Signal*
G04 #@! TF.FilePolarity,Positive*
%FSLAX46Y46*%
G04 Gerber Fmt 4.6, Leading zero omitted, Abs format (unit mm)*
G04 Created by KiCad (PCBNEW (5.0.0-rc2-dev-130-g0bdae22af-dirty)) date Sat Jul  7 09:45:52 2018*
%MOMM*%
%LPD*%
G01*
G04 APERTURE LIST*
%ADD10R,2.623820X2.623820*%
%ADD11C,2.623820*%
%ADD12C,2.999740*%
%ADD13C,0.800000*%
%ADD14C,0.200000*%
%ADD15C,0.400000*%
G04 APERTURE END LIST*
D10*
X154000260Y-60999580D03*
D11*
X157998220Y-60999580D03*
X161998720Y-60999580D03*
X165999220Y-60999580D03*
X169997180Y-60999580D03*
X173997680Y-60999580D03*
X177998180Y-60999580D03*
X181996140Y-60999580D03*
X155999240Y-64997540D03*
X159999740Y-64997540D03*
X164000240Y-64997540D03*
X167998200Y-64997540D03*
X171996160Y-64997540D03*
X175996660Y-64997540D03*
X179997160Y-64997540D03*
X154000260Y-68995500D03*
X157998220Y-68995500D03*
X161998720Y-68995500D03*
X165999220Y-68995500D03*
X169997180Y-68995500D03*
X173997680Y-68995500D03*
X177998180Y-68995500D03*
X181996140Y-68995500D03*
D12*
X144300000Y-54200000D03*
X191696400Y-54200000D03*
X142798860Y-72297500D03*
X193197540Y-72297500D03*
D10*
X164000260Y-118999580D03*
D11*
X167998220Y-118999580D03*
X171996180Y-118999580D03*
X165999240Y-122997540D03*
X169997200Y-122997540D03*
X164000260Y-126995500D03*
X167998220Y-126995500D03*
X171996180Y-126995500D03*
D12*
X154300000Y-112200000D03*
X181696440Y-112200000D03*
X183197580Y-130297500D03*
X152798860Y-130297500D03*
D13*
X169050000Y-115500000D03*
X166500000Y-116200000D03*
X171450000Y-110550000D03*
X196850000Y-112150000D03*
X197000000Y-100850000D03*
X184200000Y-110500000D03*
X188750000Y-117300000D03*
X180150000Y-117450000D03*
X177200000Y-120700000D03*
X193250000Y-124450000D03*
X197050000Y-123600000D03*
X196750000Y-137350000D03*
X193100000Y-132100000D03*
X185500000Y-127050000D03*
X178950000Y-132150000D03*
X186550000Y-138000000D03*
X177400000Y-135600000D03*
X178300000Y-127250000D03*
X174300000Y-131500000D03*
X141150000Y-125750000D03*
X142950000Y-128500000D03*
X158100000Y-129850000D03*
X138900000Y-136900000D03*
X143700000Y-135950000D03*
X148800000Y-135850000D03*
X161150000Y-136000000D03*
X171950000Y-138150000D03*
X166800000Y-136350000D03*
X163400000Y-94638200D03*
X156250000Y-110700000D03*
X153000000Y-114200000D03*
X148301987Y-120299010D03*
X145689302Y-125539302D03*
X150100000Y-119850000D03*
X151338474Y-122448310D03*
X147700000Y-130350000D03*
X144350000Y-131000000D03*
X141700000Y-103100000D03*
X141099999Y-64400001D03*
X143599996Y-61900000D03*
X164100000Y-55200000D03*
X151399998Y-55400000D03*
X147500000Y-103100000D03*
X141500000Y-114200000D03*
X142900000Y-110400000D03*
X185000000Y-50400000D03*
X148300000Y-51300000D03*
X139900000Y-50500000D03*
X139100000Y-59800000D03*
X146800000Y-60100000D03*
X146500000Y-64300000D03*
X142500000Y-68500000D03*
X150600000Y-69800000D03*
X146200000Y-75700000D03*
X141600000Y-75800000D03*
X141100000Y-85800000D03*
X151000000Y-57600000D03*
X156000000Y-58000000D03*
X163900000Y-58300000D03*
X182800000Y-65800000D03*
X196700000Y-50600000D03*
X196500000Y-66700000D03*
X196100000Y-70700000D03*
X195800000Y-85300000D03*
X155700000Y-115700000D03*
X146500000Y-116500000D03*
X155518606Y-120175919D03*
X150102752Y-125549604D03*
X147218388Y-94954985D03*
X147300000Y-108200000D03*
X139199865Y-119226615D03*
X139799012Y-111627318D03*
X138900843Y-115967799D03*
X183700000Y-57800000D03*
X171700000Y-58000000D03*
X175500000Y-57800000D03*
X179500000Y-57800000D03*
X190600000Y-79400000D03*
X145800000Y-79400000D03*
X152400000Y-79400000D03*
X158600000Y-79400000D03*
X165000000Y-79400000D03*
X171400000Y-79400000D03*
X177800000Y-79400000D03*
X184200000Y-79400000D03*
X147600000Y-113200000D03*
X155000000Y-127200000D03*
X169000000Y-130600000D03*
X182600000Y-94638200D03*
X176200000Y-94638200D03*
X169800000Y-94638200D03*
X157100000Y-94638200D03*
X189000000Y-94638200D03*
X146900000Y-91600000D03*
X153500000Y-91500000D03*
X159700000Y-91800000D03*
X166100000Y-91700000D03*
X172500000Y-91600000D03*
X178900000Y-91600000D03*
X185400000Y-91600000D03*
X146300000Y-103600000D03*
X146500000Y-96700000D03*
X182260765Y-122709264D03*
X139800000Y-126800000D03*
X181599010Y-125750000D03*
X140500010Y-127721372D03*
X152000000Y-108300000D03*
X152200000Y-96600000D03*
X156000000Y-96600000D03*
X152900000Y-107300000D03*
X151357575Y-113853875D03*
X162400000Y-96600000D03*
X153700000Y-116500000D03*
X168500000Y-96600000D03*
X155400990Y-118184236D03*
X175300000Y-96700000D03*
X148544958Y-123525501D03*
X180700000Y-96600000D03*
X149505098Y-123801465D03*
X187800000Y-96600000D03*
X146335989Y-117933926D03*
X148300000Y-93658198D03*
X145567173Y-117296002D03*
X146600000Y-93658198D03*
X145782853Y-120293286D03*
X154600000Y-93658198D03*
X145723845Y-118908382D03*
X153000000Y-93658198D03*
X148200000Y-119300000D03*
X161000000Y-93658198D03*
X159376626Y-93634824D03*
X146753969Y-119901331D03*
X146449330Y-128257288D03*
X167400000Y-93658198D03*
X150200000Y-118700000D03*
X165800000Y-93658198D03*
X154954479Y-117290562D03*
X173800000Y-93658198D03*
X147448320Y-128250760D03*
X172200000Y-93658198D03*
X151513497Y-123431871D03*
X180200000Y-93658198D03*
X154702905Y-118977119D03*
X178600000Y-93658198D03*
X152296610Y-125400990D03*
X186600000Y-93658198D03*
X154594703Y-109650990D03*
X150950000Y-117100000D03*
X165650000Y-111600000D03*
X185000000Y-93658198D03*
X175650000Y-124600000D03*
X175700000Y-123400000D03*
X144539613Y-124665914D03*
X182200000Y-54800000D03*
X178000000Y-54700000D03*
X145362419Y-124099332D03*
X146710373Y-125590876D03*
X173900000Y-54700000D03*
X147105368Y-124673269D03*
X169900000Y-54900000D03*
X143141601Y-124763306D03*
X153900000Y-52403957D03*
X143996952Y-122774195D03*
X158000000Y-52400000D03*
X142866608Y-122744842D03*
X162000002Y-52400000D03*
X166000000Y-52400001D03*
X140200000Y-115100000D03*
D14*
X153400000Y-110350000D02*
X155900000Y-110350000D01*
X155900000Y-110350000D02*
X156250000Y-110700000D01*
X152500000Y-111250000D02*
X153400000Y-110350000D01*
X152500000Y-113134315D02*
X152500000Y-111250000D01*
X153000000Y-114200000D02*
X153000000Y-113634315D01*
X153000000Y-113634315D02*
X152500000Y-113134315D01*
X142900000Y-110400000D02*
X142900000Y-104300000D01*
X141700000Y-86400000D02*
X141700000Y-102534315D01*
X142099999Y-103499999D02*
X141700000Y-103100000D01*
X141100000Y-85800000D02*
X141700000Y-86400000D01*
X141700000Y-102534315D02*
X141700000Y-103100000D01*
X142900000Y-104300000D02*
X142099999Y-103499999D01*
X143599996Y-61900000D02*
X141099999Y-64399997D01*
X141099999Y-64399997D02*
X141099999Y-64400001D01*
X143599996Y-61900004D02*
X141099999Y-64400001D01*
X163900000Y-55400000D02*
X164100000Y-55200000D01*
X151399998Y-55400000D02*
X163900000Y-55400000D01*
X147500000Y-103100000D02*
X147500000Y-108000000D01*
X147500000Y-108000000D02*
X147300000Y-108200000D01*
X141500000Y-114200000D02*
X139799012Y-112499012D01*
X139799012Y-112499012D02*
X139799012Y-111627318D01*
X141600000Y-75800000D02*
X141100000Y-76300000D01*
X147500000Y-50500000D02*
X139900000Y-50500000D01*
X148300000Y-51300000D02*
X147500000Y-50500000D01*
X139900000Y-59000000D02*
X139100000Y-59800000D01*
X139900000Y-50500000D02*
X139900000Y-59000000D01*
X146800000Y-64000000D02*
X146500000Y-64300000D01*
X146800000Y-60100000D02*
X146800000Y-64000000D01*
X146200000Y-74200000D02*
X146200000Y-75700000D01*
X150600000Y-69800000D02*
X146200000Y-74200000D01*
X141100000Y-76300000D02*
X141100000Y-85800000D01*
X156000000Y-58000000D02*
X155600000Y-57600000D01*
X155600000Y-57600000D02*
X151000000Y-57600000D01*
X163900000Y-58300000D02*
X156300000Y-58300000D01*
X156300000Y-58300000D02*
X156000000Y-58000000D01*
X171700000Y-58000000D02*
X164200000Y-58000000D01*
X164200000Y-58000000D02*
X163900000Y-58300000D01*
X185000000Y-63100000D02*
X182800000Y-65300000D01*
X182800000Y-65300000D02*
X182800000Y-65800000D01*
X185000000Y-61800000D02*
X185000000Y-63100000D01*
X183700000Y-60500000D02*
X185000000Y-61800000D01*
X183700000Y-57800000D02*
X183700000Y-60500000D01*
X185000000Y-50400000D02*
X183700000Y-51700000D01*
X183700000Y-51700000D02*
X183700000Y-57800000D01*
X196700000Y-50600000D02*
X185200000Y-50600000D01*
X185200000Y-50600000D02*
X185000000Y-50400000D01*
X196500000Y-66700000D02*
X196500000Y-50800000D01*
X196500000Y-50800000D02*
X196700000Y-50600000D01*
X195000000Y-69600000D02*
X195000000Y-68200000D01*
X195000000Y-68200000D02*
X196500000Y-66700000D01*
X196100000Y-70700000D02*
X195000000Y-69600000D01*
X195800000Y-85300000D02*
X195800000Y-71000000D01*
X195800000Y-71000000D02*
X196100000Y-70700000D01*
X189000000Y-94638200D02*
X189000000Y-92100000D01*
X189000000Y-92100000D02*
X195800000Y-85300000D01*
X146500000Y-96700000D02*
X146500000Y-103400000D01*
X146500000Y-103400000D02*
X146300000Y-103600000D01*
X139800000Y-126800000D02*
X139800000Y-134765700D01*
X143034311Y-138000011D02*
X170534513Y-138000011D01*
X139800000Y-134765700D02*
X143034311Y-138000011D01*
X182660764Y-125873760D02*
X182660764Y-123109263D01*
X170534513Y-138000011D02*
X182660764Y-125873760D01*
X182660764Y-123109263D02*
X182260765Y-122709264D01*
X140500010Y-134900010D02*
X143200000Y-137600000D01*
X140500010Y-127721372D02*
X140500010Y-134900010D01*
X143200000Y-137600000D02*
X169749010Y-137600000D01*
X169749010Y-137600000D02*
X181199011Y-126149999D01*
X181199011Y-126149999D02*
X181599010Y-125750000D01*
X152200000Y-96600000D02*
X152000000Y-96800000D01*
X152000000Y-96800000D02*
X152000000Y-108300000D01*
X152900000Y-107300000D02*
X152400000Y-106800000D01*
X153900000Y-96600000D02*
X156000000Y-96600000D01*
X152400000Y-106800000D02*
X152400000Y-98100000D01*
X152400000Y-98100000D02*
X153900000Y-96600000D01*
X151357575Y-111078139D02*
X151357575Y-113288190D01*
X162400000Y-100035714D02*
X151357575Y-111078139D01*
X162400000Y-96600000D02*
X162400000Y-100035714D01*
X151357575Y-113288190D02*
X151357575Y-113853875D01*
X166600000Y-98500000D02*
X166600000Y-103700000D01*
X168500000Y-96600000D02*
X166600000Y-98500000D01*
X155199999Y-115100001D02*
X153900000Y-116400000D01*
X153900000Y-116400000D02*
X153900000Y-116500000D01*
X153900000Y-116500000D02*
X153700000Y-116500000D01*
X166600000Y-103700000D02*
X155199999Y-115100001D01*
X166600000Y-103600000D02*
X166600000Y-103700000D01*
X175300000Y-96700000D02*
X175300000Y-99072618D01*
X175300000Y-99072618D02*
X156188382Y-118184236D01*
X155966675Y-118184236D02*
X155400990Y-118184236D01*
X156188382Y-118184236D02*
X155966675Y-118184236D01*
X164950998Y-111784716D02*
X152594775Y-124140939D01*
X179615476Y-96600000D02*
X164950998Y-111264478D01*
X164950998Y-111264478D02*
X164950998Y-111784716D01*
X151175463Y-124140939D02*
X150085520Y-123050996D01*
X148717344Y-123525501D02*
X148544958Y-123525501D01*
X180700000Y-96600000D02*
X179615476Y-96600000D01*
X150085520Y-123050996D02*
X149191849Y-123050996D01*
X149191849Y-123050996D02*
X148717344Y-123525501D01*
X152594775Y-124140939D02*
X151175463Y-124140939D01*
X151700085Y-126100000D02*
X149905097Y-124305012D01*
X149905097Y-124201464D02*
X149505098Y-123801465D01*
X149905097Y-124305012D02*
X149905097Y-124201464D01*
X183292858Y-96600000D02*
X153792858Y-126100000D01*
X187800000Y-96600000D02*
X183292858Y-96600000D01*
X153792858Y-126100000D02*
X151700085Y-126100000D01*
X148300000Y-93658198D02*
X149062523Y-94420721D01*
X146688694Y-117933926D02*
X146335989Y-117933926D01*
X149062534Y-115560086D02*
X146688694Y-117933926D01*
X149062523Y-94420721D02*
X149062534Y-115560086D01*
X146809606Y-117217174D02*
X145646001Y-117217174D01*
X148663515Y-95156028D02*
X148663524Y-115341965D01*
X145646001Y-117217174D02*
X145567173Y-117296002D01*
X148663524Y-115341965D02*
X146809606Y-117217174D01*
X147165685Y-93658198D02*
X148663515Y-95156028D01*
X146600000Y-93658198D02*
X147165685Y-93658198D01*
X150041807Y-113006547D02*
X149860552Y-113187804D01*
X154600000Y-93658198D02*
X154034315Y-93658198D01*
X149860555Y-115896587D02*
X147401978Y-118355164D01*
X149860552Y-113187804D02*
X149860555Y-115896587D01*
X147401978Y-118469450D02*
X146669098Y-119202330D01*
X146669098Y-119202330D02*
X146460570Y-119202330D01*
X145782853Y-119880047D02*
X145782853Y-120293286D01*
X147401978Y-118355164D02*
X147401978Y-118469450D01*
X150041808Y-97650705D02*
X150041807Y-113006547D01*
X154034315Y-93658198D02*
X150041808Y-97650705D01*
X146460570Y-119202330D02*
X145782853Y-119880047D01*
X145800000Y-120000000D02*
X145800000Y-120276139D01*
X145800000Y-120276139D02*
X145782853Y-120293286D01*
X149461544Y-115731312D02*
X147002967Y-118189889D01*
X147002967Y-118304175D02*
X146503823Y-118803319D01*
X146503823Y-118803319D02*
X146253172Y-118803320D01*
X146253172Y-118803320D02*
X146148110Y-118908382D01*
X147002967Y-118189889D02*
X147002967Y-118304175D01*
X149461544Y-97196654D02*
X149461544Y-115731312D01*
X153000000Y-93658198D02*
X149461544Y-97196654D01*
X146148110Y-118908382D02*
X145723845Y-118908382D01*
X161000000Y-100871428D02*
X150839829Y-111031599D01*
X150658573Y-113518353D02*
X150658573Y-116227141D01*
X148200000Y-118685714D02*
X148200000Y-118734315D01*
X150839829Y-113337097D02*
X150658573Y-113518353D01*
X150839829Y-111031599D02*
X150839829Y-113337097D01*
X150658573Y-116227141D02*
X148200000Y-118685714D01*
X148200000Y-118734315D02*
X148200000Y-119300000D01*
X161000000Y-93658198D02*
X161000000Y-100871428D01*
X150440818Y-113171822D02*
X150259562Y-113353078D01*
X147500998Y-119154302D02*
X147153968Y-119501332D01*
X147800989Y-118520439D02*
X147800989Y-118634725D01*
X147500998Y-118934716D02*
X147500998Y-119154302D01*
X150440818Y-110866324D02*
X150440818Y-113171822D01*
X147153968Y-119501332D02*
X146753969Y-119901331D01*
X159376626Y-93634824D02*
X159376626Y-101930516D01*
X150259562Y-113353078D02*
X150259562Y-116061866D01*
X150259562Y-116061866D02*
X147800989Y-118520439D01*
X159376626Y-101930516D02*
X150440818Y-110866324D01*
X147800989Y-118634725D02*
X147500998Y-118934716D01*
X166200989Y-94857209D02*
X166200989Y-103434725D01*
X166200989Y-103434725D02*
X153936703Y-115699011D01*
X147441429Y-123024701D02*
X147441429Y-123974808D01*
X148038644Y-122427486D02*
X147441429Y-123024701D01*
X147858099Y-126771102D02*
X146711720Y-127917481D01*
X147858099Y-124391478D02*
X147858099Y-126771102D01*
X146476063Y-128257288D02*
X146449330Y-128257288D01*
X147441429Y-123974808D02*
X147858099Y-124391478D01*
X146711720Y-128021631D02*
X146476063Y-128257288D01*
X153936703Y-115699011D02*
X153366467Y-115699011D01*
X152849075Y-116216403D02*
X152849010Y-118215276D01*
X148636801Y-122427485D02*
X148038644Y-122427486D01*
X152849010Y-118215276D02*
X148636801Y-122427485D01*
X153366467Y-115699011D02*
X152849075Y-116216403D01*
X146711720Y-127917481D02*
X146711720Y-128021631D01*
X167400000Y-93658198D02*
X166200989Y-94857209D01*
X152450000Y-116034315D02*
X152450000Y-118050000D01*
X151800000Y-118700000D02*
X150200000Y-118700000D01*
X153771428Y-115300000D02*
X153184315Y-115300000D01*
X153184315Y-115300000D02*
X152450000Y-116034315D01*
X152450000Y-118050000D02*
X151800000Y-118700000D01*
X165800000Y-93658198D02*
X165800000Y-103271428D01*
X165800000Y-103271428D02*
X153771428Y-115300000D01*
X173800000Y-93658198D02*
X173800000Y-100008332D01*
X156517770Y-117290562D02*
X155520164Y-117290562D01*
X173800000Y-100008332D02*
X156517770Y-117290562D01*
X155520164Y-117290562D02*
X154954479Y-117290562D01*
X153248020Y-118380552D02*
X148802076Y-122826496D01*
X148802076Y-122826496D02*
X148203920Y-122826496D01*
X148203920Y-122826496D02*
X147840440Y-123189976D01*
X172200000Y-101044046D02*
X156811292Y-116432754D01*
X147840440Y-123189976D02*
X147840440Y-123809533D01*
X172200000Y-93658198D02*
X172200000Y-101044046D01*
X153248020Y-117998812D02*
X153248020Y-118380552D01*
X147848319Y-127850761D02*
X147448320Y-128250760D01*
X154814078Y-116432754D02*
X153248020Y-117998812D01*
X156811292Y-116432754D02*
X154814078Y-116432754D01*
X147840440Y-123809533D02*
X148257110Y-124226203D01*
X148257110Y-127441970D02*
X147848319Y-127850761D01*
X148257110Y-124226203D02*
X148257110Y-127441970D01*
X155029908Y-119676129D02*
X152516729Y-119676129D01*
X150300000Y-121892858D02*
X150300000Y-122601190D01*
X180200000Y-95301190D02*
X156188541Y-119312649D01*
X180200000Y-93658198D02*
X180200000Y-95301190D01*
X155393388Y-119312649D02*
X155029908Y-119676129D01*
X151130681Y-123431871D02*
X151513497Y-123431871D01*
X152516729Y-119676129D02*
X150300000Y-121892858D01*
X156188541Y-119312649D02*
X155393388Y-119312649D01*
X150300000Y-122601190D02*
X151130681Y-123431871D01*
X154795596Y-118884428D02*
X154702905Y-118977119D01*
X178600000Y-96336904D02*
X156052476Y-118884428D01*
X178600000Y-93658198D02*
X178600000Y-96336904D01*
X156052476Y-118884428D02*
X154795596Y-118884428D01*
X181498020Y-97775512D02*
X181498020Y-97830552D01*
X152862295Y-125400990D02*
X152296610Y-125400990D01*
X184673532Y-94600000D02*
X181498020Y-97775512D01*
X153927582Y-125400990D02*
X152862295Y-125400990D01*
X181498020Y-97830552D02*
X153927582Y-125400990D01*
X186600000Y-93658198D02*
X185658198Y-94600000D01*
X185658198Y-94600000D02*
X184673532Y-94600000D01*
X150950000Y-117100000D02*
X150950000Y-116534315D01*
X152082130Y-115402185D02*
X152082130Y-110967870D01*
X152082130Y-110967870D02*
X153399010Y-109650990D01*
X153399010Y-109650990D02*
X154029018Y-109650990D01*
X154029018Y-109650990D02*
X154594703Y-109650990D01*
X150950000Y-116534315D02*
X152082130Y-115402185D01*
X179234724Y-97665276D02*
X165650000Y-111250000D01*
X165650000Y-111250000D02*
X165650000Y-111600000D01*
X181099010Y-97665276D02*
X179234724Y-97665276D01*
X181099011Y-97559187D02*
X181099010Y-97665276D01*
X185000000Y-93658198D02*
X181099011Y-97559187D01*
D15*
X168001700Y-125000000D02*
X175250001Y-124999999D01*
X175250001Y-124999999D02*
X175650000Y-124600000D01*
X165999240Y-122997540D02*
X168001700Y-125000000D01*
X169997200Y-122997540D02*
X175297540Y-122997540D01*
X175297540Y-122997540D02*
X175700000Y-123400000D01*
D14*
X144539613Y-124665914D02*
X144539613Y-123931945D01*
X144539613Y-123931945D02*
X145069841Y-123401717D01*
X181800001Y-54400001D02*
X182200000Y-54800000D01*
X140200002Y-109300927D02*
X140200002Y-63507140D01*
X140200002Y-63507140D02*
X150604174Y-53102968D01*
X145690810Y-122894958D02*
X143602969Y-120807117D01*
X150604174Y-53102968D02*
X180502968Y-53102968D01*
X180502968Y-53102968D02*
X181800001Y-54400001D01*
X143602968Y-112703895D02*
X140200002Y-109300927D01*
X143602969Y-120807117D02*
X143602968Y-112703895D01*
X145213844Y-123401717D02*
X145690810Y-122924751D01*
X145690810Y-122924751D02*
X145690810Y-122894958D01*
X145069841Y-123401717D02*
X145213844Y-123401717D01*
X145362419Y-124099332D02*
X146100989Y-123360762D01*
X150769450Y-53501979D02*
X176801979Y-53501979D01*
X144001979Y-120641841D02*
X144001979Y-74298021D01*
X176801979Y-53501979D02*
X177600001Y-54300001D01*
X144001979Y-74298021D02*
X144700000Y-73600000D01*
X146100989Y-122740851D02*
X144001979Y-120641841D01*
X177600001Y-54300001D02*
X178000000Y-54700000D01*
X144700000Y-59571428D02*
X150769450Y-53501979D01*
X146100989Y-123360762D02*
X146100989Y-122740851D01*
X144700000Y-73600000D02*
X144700000Y-59571428D01*
X173900000Y-54700000D02*
X173100989Y-53900989D01*
X146297673Y-125063150D02*
X146413301Y-125178778D01*
X146297673Y-124471647D02*
X146297673Y-125063150D01*
X144400990Y-74563296D02*
X144400990Y-120476564D01*
X146502978Y-122578552D02*
X146502978Y-124266342D01*
X173100989Y-53900989D02*
X150934725Y-53900989D01*
X146413301Y-125178778D02*
X146413301Y-125293804D01*
X150934725Y-53900989D02*
X145099012Y-59736702D01*
X145099011Y-73865275D02*
X144400990Y-74563296D01*
X146413301Y-125293804D02*
X146710373Y-125590876D01*
X146502978Y-124266342D02*
X146297673Y-124471647D01*
X144400990Y-120476564D02*
X146502978Y-122578552D01*
X145099012Y-59736702D02*
X145099011Y-73865275D01*
X150300000Y-55100000D02*
X145498022Y-59901978D01*
X145498022Y-59901978D02*
X145498022Y-74030550D01*
X147042419Y-122553707D02*
X147042420Y-124191572D01*
X144800001Y-74728571D02*
X144800001Y-120311289D01*
X144800001Y-120311289D02*
X147042419Y-122553707D01*
X145498022Y-74030550D02*
X144800001Y-74728571D01*
X147153017Y-124302169D02*
X147153017Y-124625620D01*
X147042420Y-124191572D02*
X147153017Y-124302169D01*
X147153017Y-124625620D02*
X147105368Y-124673269D01*
X151100001Y-54299999D02*
X150300000Y-55100000D01*
X150300000Y-55100000D02*
X149300000Y-56100000D01*
X168734314Y-54299999D02*
X151100001Y-54299999D01*
X169334315Y-54900000D02*
X168734314Y-54299999D01*
X169900000Y-54900000D02*
X169334315Y-54900000D01*
X143541600Y-124363307D02*
X143141601Y-124763306D01*
X145051415Y-122853492D02*
X143541600Y-124363307D01*
X143203959Y-120972393D02*
X145051415Y-122819849D01*
X143203958Y-112869171D02*
X143203959Y-120972393D01*
X139800991Y-63341865D02*
X139800991Y-109466202D01*
X150738899Y-52403957D02*
X139800991Y-63341865D01*
X153900000Y-52403957D02*
X150738899Y-52403957D01*
X145051415Y-122819849D02*
X145051415Y-122853492D01*
X139800991Y-109466202D02*
X143203958Y-112869171D01*
X158000000Y-52400000D02*
X157304956Y-51704956D01*
X143596953Y-122374196D02*
X143996952Y-122774195D01*
X139401980Y-109631477D02*
X142804947Y-113034446D01*
X142804947Y-121582190D02*
X143596953Y-122374196D01*
X139401980Y-63176590D02*
X139401980Y-109631477D01*
X150873614Y-51704956D02*
X139401980Y-63176590D01*
X142804947Y-113034446D02*
X142804947Y-121582190D01*
X157304956Y-51704956D02*
X150873614Y-51704956D01*
X160905947Y-51305945D02*
X150708339Y-51305945D01*
X139002969Y-109796752D02*
X142298693Y-113092476D01*
X150708339Y-51305945D02*
X139002970Y-63011314D01*
X162000002Y-52400000D02*
X160905947Y-51305945D01*
X142466609Y-122344843D02*
X142866608Y-122744842D01*
X142298693Y-122176927D02*
X142466609Y-122344843D01*
X142298693Y-113092476D02*
X142298693Y-122176927D01*
X139002970Y-63011314D02*
X139002969Y-109796752D01*
X150543064Y-50906934D02*
X164506933Y-50906934D01*
X138603958Y-113503958D02*
X138603958Y-62846040D01*
X140200000Y-115100000D02*
X138603958Y-113503958D01*
X138603958Y-62846040D02*
X150543064Y-50906934D01*
X164506933Y-50906934D02*
X165600001Y-52000002D01*
X165600001Y-52000002D02*
X166000000Y-52400001D01*
G36*
X196320478Y-49589396D02*
X196625034Y-49695454D01*
X196898522Y-49866348D01*
X197127352Y-50093585D01*
X197300152Y-50365876D01*
X197408332Y-50669681D01*
X197450001Y-51019131D01*
X197450000Y-136969253D01*
X197410604Y-137320479D01*
X197304547Y-137625033D01*
X197133652Y-137898522D01*
X196906415Y-138127352D01*
X196634124Y-138300152D01*
X196330323Y-138408331D01*
X195980877Y-138450000D01*
X170941026Y-138450000D01*
X170967088Y-138432586D01*
X171000562Y-138382489D01*
X179483350Y-129899701D01*
X181197710Y-129899701D01*
X181197710Y-130695299D01*
X181502172Y-131430335D01*
X182064745Y-131992908D01*
X182799781Y-132297370D01*
X183595379Y-132297370D01*
X184330415Y-131992908D01*
X184892988Y-131430335D01*
X185197450Y-130695299D01*
X185197450Y-129899701D01*
X184892988Y-129164665D01*
X184330415Y-128602092D01*
X183595379Y-128297630D01*
X182799781Y-128297630D01*
X182064745Y-128602092D01*
X181502172Y-129164665D01*
X181197710Y-129899701D01*
X179483350Y-129899701D01*
X183043246Y-126339806D01*
X183093339Y-126306335D01*
X183162634Y-126202629D01*
X183225951Y-126107868D01*
X183227516Y-126099999D01*
X183260764Y-125932851D01*
X183260764Y-125932848D01*
X183272517Y-125873760D01*
X183260764Y-125814672D01*
X183260764Y-123168349D01*
X183272517Y-123109262D01*
X183260764Y-123050176D01*
X183260764Y-123050172D01*
X183225951Y-122875155D01*
X183160765Y-122777598D01*
X183160765Y-122530243D01*
X183023748Y-122199455D01*
X182770574Y-121946281D01*
X182439786Y-121809264D01*
X182081744Y-121809264D01*
X181750956Y-121946281D01*
X181497782Y-122199455D01*
X181360765Y-122530243D01*
X181360765Y-122888285D01*
X181497782Y-123219073D01*
X181750956Y-123472247D01*
X182060765Y-123600574D01*
X182060764Y-124967112D01*
X181778031Y-124850000D01*
X181419989Y-124850000D01*
X181089201Y-124987017D01*
X180836027Y-125240191D01*
X180699010Y-125570979D01*
X180699010Y-125801472D01*
X169500483Y-137000000D01*
X143448528Y-137000000D01*
X141100010Y-134651483D01*
X141100010Y-129899701D01*
X150798990Y-129899701D01*
X150798990Y-130695299D01*
X151103452Y-131430335D01*
X151666025Y-131992908D01*
X152401061Y-132297370D01*
X153196659Y-132297370D01*
X153931695Y-131992908D01*
X154494268Y-131430335D01*
X154798730Y-130695299D01*
X154798730Y-129899701D01*
X154494268Y-129164665D01*
X153931695Y-128602092D01*
X153196659Y-128297630D01*
X152401061Y-128297630D01*
X151666025Y-128602092D01*
X151103452Y-129164665D01*
X150798990Y-129899701D01*
X141100010Y-129899701D01*
X141100010Y-128394164D01*
X141262993Y-128231181D01*
X141400010Y-127900393D01*
X141400010Y-127542351D01*
X141262993Y-127211563D01*
X141009819Y-126958389D01*
X140700000Y-126830058D01*
X140700000Y-126620979D01*
X140562983Y-126290191D01*
X140309809Y-126037017D01*
X139979021Y-125900000D01*
X139620979Y-125900000D01*
X139290191Y-126037017D01*
X139037017Y-126290191D01*
X138900000Y-126620979D01*
X138900000Y-126979021D01*
X139037017Y-127309809D01*
X139200000Y-127472792D01*
X139200001Y-134706609D01*
X139188247Y-134765700D01*
X139200001Y-134824791D01*
X139234814Y-134999808D01*
X139367426Y-135198275D01*
X139417520Y-135231747D01*
X142568264Y-138382492D01*
X142601736Y-138432586D01*
X142627798Y-138450000D01*
X140030747Y-138450000D01*
X139679521Y-138410604D01*
X139374967Y-138304547D01*
X139101478Y-138133652D01*
X138872648Y-137906415D01*
X138699848Y-137634124D01*
X138591669Y-137330323D01*
X138550000Y-136980877D01*
X138550000Y-114298527D01*
X139300000Y-115048528D01*
X139300000Y-115279021D01*
X139437017Y-115609809D01*
X139690191Y-115862983D01*
X140020979Y-116000000D01*
X140379021Y-116000000D01*
X140709809Y-115862983D01*
X140962983Y-115609809D01*
X141100000Y-115279021D01*
X141100000Y-114920979D01*
X140962983Y-114590191D01*
X140709809Y-114337017D01*
X140379021Y-114200000D01*
X140148528Y-114200000D01*
X139203958Y-113255431D01*
X139203958Y-110846268D01*
X141698693Y-113341005D01*
X141698694Y-122117836D01*
X141686940Y-122176927D01*
X141733507Y-122411035D01*
X141828838Y-122553707D01*
X141866119Y-122609502D01*
X141916213Y-122642974D01*
X141966608Y-122693369D01*
X141966608Y-122923863D01*
X142103625Y-123254651D01*
X142356799Y-123507825D01*
X142687587Y-123644842D01*
X143045629Y-123644842D01*
X143376417Y-123507825D01*
X143417104Y-123467139D01*
X143487143Y-123537178D01*
X143509812Y-123546568D01*
X143193074Y-123863306D01*
X142962580Y-123863306D01*
X142631792Y-124000323D01*
X142378618Y-124253497D01*
X142241601Y-124584285D01*
X142241601Y-124942327D01*
X142378618Y-125273115D01*
X142631792Y-125526289D01*
X142962580Y-125663306D01*
X143320622Y-125663306D01*
X143651410Y-125526289D01*
X143889303Y-125288396D01*
X144029804Y-125428897D01*
X144360592Y-125565914D01*
X144718634Y-125565914D01*
X145049422Y-125428897D01*
X145302596Y-125175723D01*
X145375660Y-124999332D01*
X145541440Y-124999332D01*
X145697673Y-124934618D01*
X145697673Y-125004064D01*
X145685920Y-125063150D01*
X145697673Y-125122236D01*
X145697673Y-125122241D01*
X145732486Y-125297258D01*
X145810373Y-125413823D01*
X145810373Y-125769897D01*
X145947390Y-126100685D01*
X146200564Y-126353859D01*
X146531352Y-126490876D01*
X146889394Y-126490876D01*
X147220182Y-126353859D01*
X147258100Y-126315941D01*
X147258100Y-126522573D01*
X146423386Y-127357288D01*
X146270309Y-127357288D01*
X145939521Y-127494305D01*
X145686347Y-127747479D01*
X145549330Y-128078267D01*
X145549330Y-128436309D01*
X145686347Y-128767097D01*
X145939521Y-129020271D01*
X146270309Y-129157288D01*
X146628351Y-129157288D01*
X146956705Y-129021279D01*
X147269299Y-129150760D01*
X147627341Y-129150760D01*
X147958129Y-129013743D01*
X148211303Y-128760569D01*
X148348320Y-128429781D01*
X148348320Y-128199287D01*
X148639591Y-127908017D01*
X148689685Y-127874545D01*
X148747831Y-127787524D01*
X148822297Y-127676079D01*
X148844793Y-127562983D01*
X148857110Y-127501061D01*
X148857110Y-127501058D01*
X148868863Y-127441970D01*
X148857110Y-127382882D01*
X148857110Y-124426269D01*
X148995289Y-124564448D01*
X149326077Y-124701465D01*
X149448386Y-124701465D01*
X149472522Y-124737587D01*
X149522619Y-124771061D01*
X151234038Y-126482481D01*
X151267510Y-126532575D01*
X151465977Y-126665187D01*
X151640994Y-126700000D01*
X151640998Y-126700000D01*
X151700084Y-126711753D01*
X151759170Y-126700000D01*
X153733772Y-126700000D01*
X153792858Y-126711753D01*
X153851944Y-126700000D01*
X153851949Y-126700000D01*
X154026966Y-126665187D01*
X154072010Y-126635089D01*
X162188350Y-126635089D01*
X162188350Y-127355911D01*
X162464197Y-128021864D01*
X162973896Y-128531563D01*
X163639849Y-128807410D01*
X164360671Y-128807410D01*
X165026624Y-128531563D01*
X165536323Y-128021864D01*
X165812170Y-127355911D01*
X165812170Y-126635089D01*
X165536323Y-125969136D01*
X165026624Y-125459437D01*
X164360671Y-125183590D01*
X163639849Y-125183590D01*
X162973896Y-125459437D01*
X162464197Y-125969136D01*
X162188350Y-126635089D01*
X154072010Y-126635089D01*
X154225433Y-126532575D01*
X154258907Y-126482478D01*
X158104256Y-122637129D01*
X164187330Y-122637129D01*
X164187330Y-123357951D01*
X164463177Y-124023904D01*
X164972876Y-124533603D01*
X165638829Y-124809450D01*
X166359651Y-124809450D01*
X166686016Y-124674265D01*
X167324937Y-125313186D01*
X166971856Y-125459437D01*
X166462157Y-125969136D01*
X166186310Y-126635089D01*
X166186310Y-127355911D01*
X166462157Y-128021864D01*
X166971856Y-128531563D01*
X167637809Y-128807410D01*
X168358631Y-128807410D01*
X169024584Y-128531563D01*
X169534283Y-128021864D01*
X169810130Y-127355911D01*
X169810130Y-126635089D01*
X169534283Y-125969136D01*
X169265147Y-125700000D01*
X170729254Y-125699999D01*
X170460117Y-125969136D01*
X170184270Y-126635089D01*
X170184270Y-127355911D01*
X170460117Y-128021864D01*
X170969816Y-128531563D01*
X171635769Y-128807410D01*
X172356591Y-128807410D01*
X173022544Y-128531563D01*
X173532243Y-128021864D01*
X173808090Y-127355911D01*
X173808090Y-126635089D01*
X173532243Y-125969136D01*
X173263106Y-125699999D01*
X175181061Y-125699998D01*
X175250001Y-125713711D01*
X175523127Y-125659383D01*
X175696227Y-125543721D01*
X175754672Y-125504669D01*
X175757792Y-125500000D01*
X175829021Y-125500000D01*
X176159809Y-125362983D01*
X176412983Y-125109809D01*
X176550000Y-124779021D01*
X176550000Y-124420979D01*
X176412983Y-124090191D01*
X176347792Y-124025000D01*
X176462983Y-123909809D01*
X176600000Y-123579021D01*
X176600000Y-123220979D01*
X176462983Y-122890191D01*
X176209809Y-122637017D01*
X175879021Y-122500000D01*
X175806976Y-122500000D01*
X175802211Y-122492869D01*
X175570666Y-122338155D01*
X175366480Y-122297540D01*
X175366475Y-122297540D01*
X175297540Y-122283828D01*
X175228605Y-122297540D01*
X171668448Y-122297540D01*
X171533263Y-121971176D01*
X171023564Y-121461477D01*
X170357611Y-121185630D01*
X169636789Y-121185630D01*
X168970836Y-121461477D01*
X168461137Y-121971176D01*
X168185290Y-122637129D01*
X168185290Y-123357951D01*
X168461137Y-124023904D01*
X168737234Y-124300001D01*
X168291650Y-124300001D01*
X167675965Y-123684316D01*
X167811150Y-123357951D01*
X167811150Y-122637129D01*
X167535303Y-121971176D01*
X167025604Y-121461477D01*
X166359651Y-121185630D01*
X165638829Y-121185630D01*
X164972876Y-121461477D01*
X164463177Y-121971176D01*
X164187330Y-122637129D01*
X158104256Y-122637129D01*
X162178555Y-118562830D01*
X162178555Y-120311490D01*
X162217361Y-120506580D01*
X162327870Y-120671970D01*
X162493260Y-120782479D01*
X162688350Y-120821285D01*
X165312170Y-120821285D01*
X165507260Y-120782479D01*
X165672650Y-120671970D01*
X165783159Y-120506580D01*
X165821965Y-120311490D01*
X165821965Y-120221036D01*
X166783835Y-120221036D01*
X166916390Y-120497096D01*
X167571815Y-120797103D01*
X168292156Y-120823453D01*
X168967747Y-120572135D01*
X169080050Y-120497096D01*
X169212605Y-120221036D01*
X167998220Y-119006651D01*
X166783835Y-120221036D01*
X165821965Y-120221036D01*
X165821965Y-119293516D01*
X166174347Y-119293516D01*
X166425665Y-119969107D01*
X166500704Y-120081410D01*
X166776764Y-120213965D01*
X167991149Y-118999580D01*
X168005291Y-118999580D01*
X169219676Y-120213965D01*
X169495736Y-120081410D01*
X169795743Y-119425985D01*
X169822093Y-118705644D01*
X169797365Y-118639169D01*
X170184270Y-118639169D01*
X170184270Y-119359991D01*
X170460117Y-120025944D01*
X170969816Y-120535643D01*
X171635769Y-120811490D01*
X172356591Y-120811490D01*
X173022544Y-120535643D01*
X173532243Y-120025944D01*
X173808090Y-119359991D01*
X173808090Y-118639169D01*
X173532243Y-117973216D01*
X173022544Y-117463517D01*
X172356591Y-117187670D01*
X171635769Y-117187670D01*
X170969816Y-117463517D01*
X170460117Y-117973216D01*
X170184270Y-118639169D01*
X169797365Y-118639169D01*
X169570775Y-118030053D01*
X169495736Y-117917750D01*
X169219676Y-117785195D01*
X168005291Y-118999580D01*
X167991149Y-118999580D01*
X166776764Y-117785195D01*
X166500704Y-117917750D01*
X166200697Y-118573175D01*
X166174347Y-119293516D01*
X165821965Y-119293516D01*
X165821965Y-117778124D01*
X166783835Y-117778124D01*
X167998220Y-118992509D01*
X169212605Y-117778124D01*
X169080050Y-117502064D01*
X168424625Y-117202057D01*
X167704284Y-117175707D01*
X167028693Y-117427025D01*
X166916390Y-117502064D01*
X166783835Y-117778124D01*
X165821965Y-117778124D01*
X165821965Y-117687670D01*
X165783159Y-117492580D01*
X165672650Y-117327190D01*
X165507260Y-117216681D01*
X165312170Y-117177875D01*
X163563510Y-117177875D01*
X168939184Y-111802201D01*
X179696570Y-111802201D01*
X179696570Y-112597799D01*
X180001032Y-113332835D01*
X180563605Y-113895408D01*
X181298641Y-114199870D01*
X182094239Y-114199870D01*
X182829275Y-113895408D01*
X183391848Y-113332835D01*
X183696310Y-112597799D01*
X183696310Y-111802201D01*
X183391848Y-111067165D01*
X182829275Y-110504592D01*
X182094239Y-110200130D01*
X181298641Y-110200130D01*
X180563605Y-110504592D01*
X180001032Y-111067165D01*
X179696570Y-111802201D01*
X168939184Y-111802201D01*
X183541386Y-97200000D01*
X187127208Y-97200000D01*
X187290191Y-97362983D01*
X187620979Y-97500000D01*
X187979021Y-97500000D01*
X188309809Y-97362983D01*
X188562983Y-97109809D01*
X188700000Y-96779021D01*
X188700000Y-96420979D01*
X188562983Y-96090191D01*
X188309809Y-95837017D01*
X187979021Y-95700000D01*
X187620979Y-95700000D01*
X187290191Y-95837017D01*
X187127208Y-96000000D01*
X184122060Y-96000000D01*
X184922060Y-95200000D01*
X185599112Y-95200000D01*
X185658198Y-95211753D01*
X185717284Y-95200000D01*
X185717289Y-95200000D01*
X185892306Y-95165187D01*
X186090773Y-95032575D01*
X186124247Y-94982479D01*
X186548527Y-94558198D01*
X186779021Y-94558198D01*
X187109809Y-94421181D01*
X187362983Y-94168007D01*
X187500000Y-93837219D01*
X187500000Y-93479177D01*
X187362983Y-93148389D01*
X187109809Y-92895215D01*
X186779021Y-92758198D01*
X186420979Y-92758198D01*
X186090191Y-92895215D01*
X185837017Y-93148389D01*
X185800000Y-93237756D01*
X185762983Y-93148389D01*
X185509809Y-92895215D01*
X185179021Y-92758198D01*
X184820979Y-92758198D01*
X184490191Y-92895215D01*
X184237017Y-93148389D01*
X184100000Y-93479177D01*
X184100000Y-93709669D01*
X181538109Y-96271561D01*
X181462983Y-96090191D01*
X181209809Y-95837017D01*
X180879021Y-95700000D01*
X180655136Y-95700000D01*
X180765187Y-95535298D01*
X180800000Y-95360281D01*
X180800000Y-95360277D01*
X180811753Y-95301190D01*
X180800000Y-95242104D01*
X180800000Y-94330990D01*
X180962983Y-94168007D01*
X181100000Y-93837219D01*
X181100000Y-93479177D01*
X180962983Y-93148389D01*
X180709809Y-92895215D01*
X180379021Y-92758198D01*
X180020979Y-92758198D01*
X179690191Y-92895215D01*
X179437017Y-93148389D01*
X179400000Y-93237756D01*
X179362983Y-93148389D01*
X179109809Y-92895215D01*
X178779021Y-92758198D01*
X178420979Y-92758198D01*
X178090191Y-92895215D01*
X177837017Y-93148389D01*
X177700000Y-93479177D01*
X177700000Y-93837219D01*
X177837017Y-94168007D01*
X178000000Y-94330990D01*
X178000001Y-96088375D01*
X175900000Y-98188376D01*
X175900000Y-97372792D01*
X176062983Y-97209809D01*
X176200000Y-96879021D01*
X176200000Y-96520979D01*
X176062983Y-96190191D01*
X175809809Y-95937017D01*
X175479021Y-95800000D01*
X175120979Y-95800000D01*
X174790191Y-95937017D01*
X174537017Y-96190191D01*
X174400000Y-96520979D01*
X174400000Y-94330990D01*
X174562983Y-94168007D01*
X174700000Y-93837219D01*
X174700000Y-93479177D01*
X174562983Y-93148389D01*
X174309809Y-92895215D01*
X173979021Y-92758198D01*
X173620979Y-92758198D01*
X173290191Y-92895215D01*
X173037017Y-93148389D01*
X173000000Y-93237756D01*
X172962983Y-93148389D01*
X172709809Y-92895215D01*
X172379021Y-92758198D01*
X172020979Y-92758198D01*
X171690191Y-92895215D01*
X171437017Y-93148389D01*
X171300000Y-93479177D01*
X171300000Y-93837219D01*
X171437017Y-94168007D01*
X171600000Y-94330990D01*
X171600001Y-100795516D01*
X156562765Y-115832754D01*
X155315774Y-115832754D01*
X155666046Y-115482482D01*
X155666048Y-115482479D01*
X166982481Y-104166047D01*
X167032575Y-104132575D01*
X167077028Y-104066047D01*
X167165187Y-103934108D01*
X167200000Y-103759091D01*
X167200000Y-103759087D01*
X167211753Y-103700001D01*
X167200000Y-103640914D01*
X167200000Y-98748527D01*
X168448528Y-97500000D01*
X168679021Y-97500000D01*
X169009809Y-97362983D01*
X169262983Y-97109809D01*
X169400000Y-96779021D01*
X169400000Y-96420979D01*
X169262983Y-96090191D01*
X169009809Y-95837017D01*
X168679021Y-95700000D01*
X168320979Y-95700000D01*
X167990191Y-95837017D01*
X167737017Y-96090191D01*
X167600000Y-96420979D01*
X167600000Y-96651472D01*
X166800989Y-97450484D01*
X166800989Y-95105736D01*
X167348528Y-94558198D01*
X167579021Y-94558198D01*
X167909809Y-94421181D01*
X168162983Y-94168007D01*
X168300000Y-93837219D01*
X168300000Y-93479177D01*
X168162983Y-93148389D01*
X167909809Y-92895215D01*
X167579021Y-92758198D01*
X167220979Y-92758198D01*
X166890191Y-92895215D01*
X166637017Y-93148389D01*
X166600000Y-93237756D01*
X166562983Y-93148389D01*
X166309809Y-92895215D01*
X165979021Y-92758198D01*
X165620979Y-92758198D01*
X165290191Y-92895215D01*
X165037017Y-93148389D01*
X164900000Y-93479177D01*
X164900000Y-93837219D01*
X165037017Y-94168007D01*
X165200000Y-94330990D01*
X165200001Y-103022899D01*
X156299870Y-111923031D01*
X156299870Y-111802201D01*
X155995408Y-111067165D01*
X155432835Y-110504592D01*
X155136598Y-110381887D01*
X155357686Y-110160799D01*
X155494703Y-109830011D01*
X155494703Y-109471969D01*
X155357686Y-109141181D01*
X155104512Y-108888007D01*
X154773724Y-108750990D01*
X154533251Y-108750990D01*
X162782481Y-100501761D01*
X162832575Y-100468289D01*
X162965187Y-100269822D01*
X163000000Y-100094805D01*
X163000000Y-100094801D01*
X163011753Y-100035715D01*
X163000000Y-99976628D01*
X163000000Y-97272792D01*
X163162983Y-97109809D01*
X163300000Y-96779021D01*
X163300000Y-96420979D01*
X163162983Y-96090191D01*
X162909809Y-95837017D01*
X162579021Y-95700000D01*
X162220979Y-95700000D01*
X161890191Y-95837017D01*
X161637017Y-96090191D01*
X161600000Y-96179558D01*
X161600000Y-94330990D01*
X161762983Y-94168007D01*
X161900000Y-93837219D01*
X161900000Y-93479177D01*
X161762983Y-93148389D01*
X161509809Y-92895215D01*
X161179021Y-92758198D01*
X160820979Y-92758198D01*
X160490191Y-92895215D01*
X160237017Y-93148389D01*
X160193154Y-93254284D01*
X160139609Y-93125015D01*
X159886435Y-92871841D01*
X159555647Y-92734824D01*
X159197605Y-92734824D01*
X158866817Y-92871841D01*
X158613643Y-93125015D01*
X158476626Y-93455803D01*
X158476626Y-93813845D01*
X158613643Y-94144633D01*
X158776626Y-94307616D01*
X158776627Y-101681987D01*
X153664577Y-106794038D01*
X153662983Y-106790191D01*
X153409809Y-106537017D01*
X153079021Y-106400000D01*
X153000000Y-106400000D01*
X153000000Y-98348527D01*
X154148528Y-97200000D01*
X155327208Y-97200000D01*
X155490191Y-97362983D01*
X155820979Y-97500000D01*
X156179021Y-97500000D01*
X156509809Y-97362983D01*
X156762983Y-97109809D01*
X156900000Y-96779021D01*
X156900000Y-96420979D01*
X156762983Y-96090191D01*
X156509809Y-95837017D01*
X156179021Y-95700000D01*
X155820979Y-95700000D01*
X155490191Y-95837017D01*
X155327208Y-96000000D01*
X153959085Y-96000000D01*
X153899999Y-95988247D01*
X153840913Y-96000000D01*
X153840909Y-96000000D01*
X153665892Y-96034813D01*
X153467425Y-96167425D01*
X153433953Y-96217519D01*
X153100000Y-96551472D01*
X153100000Y-96420979D01*
X152962983Y-96090191D01*
X152709809Y-95837017D01*
X152705718Y-95835323D01*
X154111171Y-94429871D01*
X154420979Y-94558198D01*
X154779021Y-94558198D01*
X155109809Y-94421181D01*
X155362983Y-94168007D01*
X155500000Y-93837219D01*
X155500000Y-93479177D01*
X155362983Y-93148389D01*
X155109809Y-92895215D01*
X154779021Y-92758198D01*
X154420979Y-92758198D01*
X154090191Y-92895215D01*
X153915286Y-93070120D01*
X153800207Y-93093011D01*
X153744696Y-93130102D01*
X153509809Y-92895215D01*
X153179021Y-92758198D01*
X152820979Y-92758198D01*
X152490191Y-92895215D01*
X152237017Y-93148389D01*
X152100000Y-93479177D01*
X152100000Y-93709670D01*
X149662523Y-96147148D01*
X149662522Y-94479811D01*
X149674276Y-94420720D01*
X149627709Y-94186612D01*
X149528570Y-94038240D01*
X149528567Y-94038237D01*
X149495097Y-93988146D01*
X149445006Y-93954676D01*
X149200000Y-93709670D01*
X149200000Y-93479177D01*
X149062983Y-93148389D01*
X148809809Y-92895215D01*
X148479021Y-92758198D01*
X148120979Y-92758198D01*
X147790191Y-92895215D01*
X147537017Y-93148389D01*
X147525236Y-93176830D01*
X147399793Y-93093011D01*
X147284714Y-93070120D01*
X147109809Y-92895215D01*
X146779021Y-92758198D01*
X146420979Y-92758198D01*
X146090191Y-92895215D01*
X145837017Y-93148389D01*
X145700000Y-93479177D01*
X145700000Y-93837219D01*
X145837017Y-94168007D01*
X146090191Y-94421181D01*
X146420979Y-94558198D01*
X146779021Y-94558198D01*
X147088830Y-94429871D01*
X148063515Y-95404557D01*
X148063525Y-115095441D01*
X146559070Y-116617174D01*
X146161137Y-116617174D01*
X146076982Y-116533019D01*
X145746194Y-116396002D01*
X145400001Y-116396002D01*
X145400001Y-103779023D01*
X145537017Y-104109809D01*
X145790191Y-104362983D01*
X146120979Y-104500000D01*
X146479021Y-104500000D01*
X146809809Y-104362983D01*
X147062983Y-104109809D01*
X147200000Y-103779021D01*
X147200000Y-103420979D01*
X147100000Y-103179558D01*
X147100000Y-97372792D01*
X147262983Y-97209809D01*
X147400000Y-96879021D01*
X147400000Y-96520979D01*
X147262983Y-96190191D01*
X147009809Y-95937017D01*
X146679021Y-95800000D01*
X146320979Y-95800000D01*
X145990191Y-95937017D01*
X145737017Y-96190191D01*
X145600000Y-96520979D01*
X145600000Y-96879021D01*
X145737017Y-97209809D01*
X145900000Y-97372792D01*
X145900001Y-102791532D01*
X145790191Y-102837017D01*
X145537017Y-103090191D01*
X145400001Y-103420977D01*
X145400001Y-74977098D01*
X145880503Y-74496597D01*
X145930597Y-74463125D01*
X146020091Y-74329189D01*
X146063209Y-74264659D01*
X146082995Y-74165187D01*
X146098022Y-74089641D01*
X146098022Y-74089638D01*
X146109775Y-74030550D01*
X146098022Y-73971462D01*
X146098022Y-71899701D01*
X191197670Y-71899701D01*
X191197670Y-72695299D01*
X191502132Y-73430335D01*
X192064705Y-73992908D01*
X192799741Y-74297370D01*
X193595339Y-74297370D01*
X194330375Y-73992908D01*
X194892948Y-73430335D01*
X195197410Y-72695299D01*
X195197410Y-71899701D01*
X194892948Y-71164665D01*
X194330375Y-70602092D01*
X193595339Y-70297630D01*
X192799741Y-70297630D01*
X192064705Y-70602092D01*
X191502132Y-71164665D01*
X191197670Y-71899701D01*
X146098022Y-71899701D01*
X146098022Y-68635089D01*
X152188350Y-68635089D01*
X152188350Y-69355911D01*
X152464197Y-70021864D01*
X152973896Y-70531563D01*
X153639849Y-70807410D01*
X154360671Y-70807410D01*
X155026624Y-70531563D01*
X155536323Y-70021864D01*
X155812170Y-69355911D01*
X155812170Y-68635089D01*
X156186310Y-68635089D01*
X156186310Y-69355911D01*
X156462157Y-70021864D01*
X156971856Y-70531563D01*
X157637809Y-70807410D01*
X158358631Y-70807410D01*
X159024584Y-70531563D01*
X159534283Y-70021864D01*
X159810130Y-69355911D01*
X159810130Y-68635089D01*
X160186810Y-68635089D01*
X160186810Y-69355911D01*
X160462657Y-70021864D01*
X160972356Y-70531563D01*
X161638309Y-70807410D01*
X162359131Y-70807410D01*
X163025084Y-70531563D01*
X163534783Y-70021864D01*
X163810630Y-69355911D01*
X163810630Y-68635089D01*
X164187310Y-68635089D01*
X164187310Y-69355911D01*
X164463157Y-70021864D01*
X164972856Y-70531563D01*
X165638809Y-70807410D01*
X166359631Y-70807410D01*
X167025584Y-70531563D01*
X167535283Y-70021864D01*
X167811130Y-69355911D01*
X167811130Y-68635089D01*
X168185270Y-68635089D01*
X168185270Y-69355911D01*
X168461117Y-70021864D01*
X168970816Y-70531563D01*
X169636769Y-70807410D01*
X170357591Y-70807410D01*
X171023544Y-70531563D01*
X171533243Y-70021864D01*
X171809090Y-69355911D01*
X171809090Y-68635089D01*
X172185770Y-68635089D01*
X172185770Y-69355911D01*
X172461617Y-70021864D01*
X172971316Y-70531563D01*
X173637269Y-70807410D01*
X174358091Y-70807410D01*
X175024044Y-70531563D01*
X175533743Y-70021864D01*
X175809590Y-69355911D01*
X175809590Y-68635089D01*
X176186270Y-68635089D01*
X176186270Y-69355911D01*
X176462117Y-70021864D01*
X176971816Y-70531563D01*
X177637769Y-70807410D01*
X178358591Y-70807410D01*
X179024544Y-70531563D01*
X179534243Y-70021864D01*
X179810090Y-69355911D01*
X179810090Y-68635089D01*
X180184230Y-68635089D01*
X180184230Y-69355911D01*
X180460077Y-70021864D01*
X180969776Y-70531563D01*
X181635729Y-70807410D01*
X182356551Y-70807410D01*
X183022504Y-70531563D01*
X183532203Y-70021864D01*
X183808050Y-69355911D01*
X183808050Y-68635089D01*
X183532203Y-67969136D01*
X183022504Y-67459437D01*
X182356551Y-67183590D01*
X181635729Y-67183590D01*
X180969776Y-67459437D01*
X180460077Y-67969136D01*
X180184230Y-68635089D01*
X179810090Y-68635089D01*
X179534243Y-67969136D01*
X179024544Y-67459437D01*
X178358591Y-67183590D01*
X177637769Y-67183590D01*
X176971816Y-67459437D01*
X176462117Y-67969136D01*
X176186270Y-68635089D01*
X175809590Y-68635089D01*
X175533743Y-67969136D01*
X175024044Y-67459437D01*
X174358091Y-67183590D01*
X173637269Y-67183590D01*
X172971316Y-67459437D01*
X172461617Y-67969136D01*
X172185770Y-68635089D01*
X171809090Y-68635089D01*
X171533243Y-67969136D01*
X171023544Y-67459437D01*
X170357591Y-67183590D01*
X169636769Y-67183590D01*
X168970816Y-67459437D01*
X168461117Y-67969136D01*
X168185270Y-68635089D01*
X167811130Y-68635089D01*
X167535283Y-67969136D01*
X167025584Y-67459437D01*
X166359631Y-67183590D01*
X165638809Y-67183590D01*
X164972856Y-67459437D01*
X164463157Y-67969136D01*
X164187310Y-68635089D01*
X163810630Y-68635089D01*
X163534783Y-67969136D01*
X163025084Y-67459437D01*
X162359131Y-67183590D01*
X161638309Y-67183590D01*
X160972356Y-67459437D01*
X160462657Y-67969136D01*
X160186810Y-68635089D01*
X159810130Y-68635089D01*
X159534283Y-67969136D01*
X159024584Y-67459437D01*
X158358631Y-67183590D01*
X157637809Y-67183590D01*
X156971856Y-67459437D01*
X156462157Y-67969136D01*
X156186310Y-68635089D01*
X155812170Y-68635089D01*
X155536323Y-67969136D01*
X155026624Y-67459437D01*
X154360671Y-67183590D01*
X153639849Y-67183590D01*
X152973896Y-67459437D01*
X152464197Y-67969136D01*
X152188350Y-68635089D01*
X146098022Y-68635089D01*
X146098022Y-64637129D01*
X154187330Y-64637129D01*
X154187330Y-65357951D01*
X154463177Y-66023904D01*
X154972876Y-66533603D01*
X155638829Y-66809450D01*
X156359651Y-66809450D01*
X157025604Y-66533603D01*
X157535303Y-66023904D01*
X157811150Y-65357951D01*
X157811150Y-64637129D01*
X158187830Y-64637129D01*
X158187830Y-65357951D01*
X158463677Y-66023904D01*
X158973376Y-66533603D01*
X159639329Y-66809450D01*
X160360151Y-66809450D01*
X161026104Y-66533603D01*
X161535803Y-66023904D01*
X161811650Y-65357951D01*
X161811650Y-64637129D01*
X162188330Y-64637129D01*
X162188330Y-65357951D01*
X162464177Y-66023904D01*
X162973876Y-66533603D01*
X163639829Y-66809450D01*
X164360651Y-66809450D01*
X165026604Y-66533603D01*
X165536303Y-66023904D01*
X165812150Y-65357951D01*
X165812150Y-64637129D01*
X166186290Y-64637129D01*
X166186290Y-65357951D01*
X166462137Y-66023904D01*
X166971836Y-66533603D01*
X167637789Y-66809450D01*
X168358611Y-66809450D01*
X169024564Y-66533603D01*
X169534263Y-66023904D01*
X169810110Y-65357951D01*
X169810110Y-64637129D01*
X170184250Y-64637129D01*
X170184250Y-65357951D01*
X170460097Y-66023904D01*
X170969796Y-66533603D01*
X171635749Y-66809450D01*
X172356571Y-66809450D01*
X173022524Y-66533603D01*
X173532223Y-66023904D01*
X173808070Y-65357951D01*
X173808070Y-64637129D01*
X174184750Y-64637129D01*
X174184750Y-65357951D01*
X174460597Y-66023904D01*
X174970296Y-66533603D01*
X175636249Y-66809450D01*
X176357071Y-66809450D01*
X177023024Y-66533603D01*
X177532723Y-66023904D01*
X177808570Y-65357951D01*
X177808570Y-64637129D01*
X178185250Y-64637129D01*
X178185250Y-65357951D01*
X178461097Y-66023904D01*
X178970796Y-66533603D01*
X179636749Y-66809450D01*
X180357571Y-66809450D01*
X181023524Y-66533603D01*
X181533223Y-66023904D01*
X181809070Y-65357951D01*
X181809070Y-64637129D01*
X181533223Y-63971176D01*
X181023524Y-63461477D01*
X180357571Y-63185630D01*
X179636749Y-63185630D01*
X178970796Y-63461477D01*
X178461097Y-63971176D01*
X178185250Y-64637129D01*
X177808570Y-64637129D01*
X177532723Y-63971176D01*
X177023024Y-63461477D01*
X176357071Y-63185630D01*
X175636249Y-63185630D01*
X174970296Y-63461477D01*
X174460597Y-63971176D01*
X174184750Y-64637129D01*
X173808070Y-64637129D01*
X173532223Y-63971176D01*
X173022524Y-63461477D01*
X172356571Y-63185630D01*
X171635749Y-63185630D01*
X170969796Y-63461477D01*
X170460097Y-63971176D01*
X170184250Y-64637129D01*
X169810110Y-64637129D01*
X169534263Y-63971176D01*
X169024564Y-63461477D01*
X168358611Y-63185630D01*
X167637789Y-63185630D01*
X166971836Y-63461477D01*
X166462137Y-63971176D01*
X166186290Y-64637129D01*
X165812150Y-64637129D01*
X165536303Y-63971176D01*
X165026604Y-63461477D01*
X164360651Y-63185630D01*
X163639829Y-63185630D01*
X162973876Y-63461477D01*
X162464177Y-63971176D01*
X162188330Y-64637129D01*
X161811650Y-64637129D01*
X161535803Y-63971176D01*
X161026104Y-63461477D01*
X160360151Y-63185630D01*
X159639329Y-63185630D01*
X158973376Y-63461477D01*
X158463677Y-63971176D01*
X158187830Y-64637129D01*
X157811150Y-64637129D01*
X157535303Y-63971176D01*
X157025604Y-63461477D01*
X156359651Y-63185630D01*
X155638829Y-63185630D01*
X154972876Y-63461477D01*
X154463177Y-63971176D01*
X154187330Y-64637129D01*
X146098022Y-64637129D01*
X146098022Y-60150505D01*
X146560857Y-59687670D01*
X152178555Y-59687670D01*
X152178555Y-62311490D01*
X152217361Y-62506580D01*
X152327870Y-62671970D01*
X152493260Y-62782479D01*
X152688350Y-62821285D01*
X155312170Y-62821285D01*
X155507260Y-62782479D01*
X155672650Y-62671970D01*
X155783159Y-62506580D01*
X155821965Y-62311490D01*
X155821965Y-60639169D01*
X156186310Y-60639169D01*
X156186310Y-61359991D01*
X156462157Y-62025944D01*
X156971856Y-62535643D01*
X157637809Y-62811490D01*
X158358631Y-62811490D01*
X159024584Y-62535643D01*
X159534283Y-62025944D01*
X159810130Y-61359991D01*
X159810130Y-60639169D01*
X160186810Y-60639169D01*
X160186810Y-61359991D01*
X160462657Y-62025944D01*
X160972356Y-62535643D01*
X161638309Y-62811490D01*
X162359131Y-62811490D01*
X163025084Y-62535643D01*
X163534783Y-62025944D01*
X163810630Y-61359991D01*
X163810630Y-60639169D01*
X164187310Y-60639169D01*
X164187310Y-61359991D01*
X164463157Y-62025944D01*
X164972856Y-62535643D01*
X165638809Y-62811490D01*
X166359631Y-62811490D01*
X167025584Y-62535643D01*
X167535283Y-62025944D01*
X167811130Y-61359991D01*
X167811130Y-60639169D01*
X168185270Y-60639169D01*
X168185270Y-61359991D01*
X168461117Y-62025944D01*
X168970816Y-62535643D01*
X169636769Y-62811490D01*
X170357591Y-62811490D01*
X171023544Y-62535643D01*
X171533243Y-62025944D01*
X171809090Y-61359991D01*
X171809090Y-60639169D01*
X172185770Y-60639169D01*
X172185770Y-61359991D01*
X172461617Y-62025944D01*
X172971316Y-62535643D01*
X173637269Y-62811490D01*
X174358091Y-62811490D01*
X175024044Y-62535643D01*
X175533743Y-62025944D01*
X175809590Y-61359991D01*
X175809590Y-60639169D01*
X176186270Y-60639169D01*
X176186270Y-61359991D01*
X176462117Y-62025944D01*
X176971816Y-62535643D01*
X177637769Y-62811490D01*
X178358591Y-62811490D01*
X179024544Y-62535643D01*
X179534243Y-62025944D01*
X179810090Y-61359991D01*
X179810090Y-60639169D01*
X180184230Y-60639169D01*
X180184230Y-61359991D01*
X180460077Y-62025944D01*
X180969776Y-62535643D01*
X181635729Y-62811490D01*
X182356551Y-62811490D01*
X183022504Y-62535643D01*
X183532203Y-62025944D01*
X183808050Y-61359991D01*
X183808050Y-60639169D01*
X183532203Y-59973216D01*
X183022504Y-59463517D01*
X182356551Y-59187670D01*
X181635729Y-59187670D01*
X180969776Y-59463517D01*
X180460077Y-59973216D01*
X180184230Y-60639169D01*
X179810090Y-60639169D01*
X179534243Y-59973216D01*
X179024544Y-59463517D01*
X178358591Y-59187670D01*
X177637769Y-59187670D01*
X176971816Y-59463517D01*
X176462117Y-59973216D01*
X176186270Y-60639169D01*
X175809590Y-60639169D01*
X175533743Y-59973216D01*
X175024044Y-59463517D01*
X174358091Y-59187670D01*
X173637269Y-59187670D01*
X172971316Y-59463517D01*
X172461617Y-59973216D01*
X172185770Y-60639169D01*
X171809090Y-60639169D01*
X171533243Y-59973216D01*
X171023544Y-59463517D01*
X170357591Y-59187670D01*
X169636769Y-59187670D01*
X168970816Y-59463517D01*
X168461117Y-59973216D01*
X168185270Y-60639169D01*
X167811130Y-60639169D01*
X167535283Y-59973216D01*
X167025584Y-59463517D01*
X166359631Y-59187670D01*
X165638809Y-59187670D01*
X164972856Y-59463517D01*
X164463157Y-59973216D01*
X164187310Y-60639169D01*
X163810630Y-60639169D01*
X163534783Y-59973216D01*
X163025084Y-59463517D01*
X162359131Y-59187670D01*
X161638309Y-59187670D01*
X160972356Y-59463517D01*
X160462657Y-59973216D01*
X160186810Y-60639169D01*
X159810130Y-60639169D01*
X159534283Y-59973216D01*
X159024584Y-59463517D01*
X158358631Y-59187670D01*
X157637809Y-59187670D01*
X156971856Y-59463517D01*
X156462157Y-59973216D01*
X156186310Y-60639169D01*
X155821965Y-60639169D01*
X155821965Y-59687670D01*
X155783159Y-59492580D01*
X155672650Y-59327190D01*
X155507260Y-59216681D01*
X155312170Y-59177875D01*
X152688350Y-59177875D01*
X152493260Y-59216681D01*
X152327870Y-59327190D01*
X152217361Y-59492580D01*
X152178555Y-59687670D01*
X146560857Y-59687670D01*
X150448528Y-55800000D01*
X150766048Y-55482481D01*
X150766052Y-55482475D01*
X151348529Y-54899999D01*
X168485786Y-54899999D01*
X168868270Y-55282484D01*
X168901740Y-55332575D01*
X168951831Y-55366045D01*
X168951834Y-55366048D01*
X169096908Y-55462983D01*
X169100207Y-55465187D01*
X169215286Y-55488078D01*
X169390191Y-55662983D01*
X169720979Y-55800000D01*
X170079021Y-55800000D01*
X170409809Y-55662983D01*
X170662983Y-55409809D01*
X170800000Y-55079021D01*
X170800000Y-54720979D01*
X170708877Y-54500989D01*
X172852462Y-54500989D01*
X173000000Y-54648527D01*
X173000000Y-54879021D01*
X173137017Y-55209809D01*
X173390191Y-55462983D01*
X173720979Y-55600000D01*
X174079021Y-55600000D01*
X174409809Y-55462983D01*
X174662983Y-55209809D01*
X174800000Y-54879021D01*
X174800000Y-54520979D01*
X174662983Y-54190191D01*
X174574771Y-54101979D01*
X176553452Y-54101979D01*
X177100000Y-54648529D01*
X177100000Y-54879021D01*
X177237017Y-55209809D01*
X177490191Y-55462983D01*
X177820979Y-55600000D01*
X178179021Y-55600000D01*
X178509809Y-55462983D01*
X178762983Y-55209809D01*
X178900000Y-54879021D01*
X178900000Y-54520979D01*
X178762983Y-54190191D01*
X178509809Y-53937017D01*
X178179021Y-53800000D01*
X177948529Y-53800000D01*
X177851497Y-53702968D01*
X180254441Y-53702968D01*
X181300000Y-54748528D01*
X181300000Y-54979021D01*
X181437017Y-55309809D01*
X181690191Y-55562983D01*
X182020979Y-55700000D01*
X182379021Y-55700000D01*
X182709809Y-55562983D01*
X182962983Y-55309809D01*
X183100000Y-54979021D01*
X183100000Y-54620979D01*
X182962983Y-54290191D01*
X182709809Y-54037017D01*
X182379021Y-53900000D01*
X182148528Y-53900000D01*
X182050729Y-53802201D01*
X189696530Y-53802201D01*
X189696530Y-54597799D01*
X190000992Y-55332835D01*
X190563565Y-55895408D01*
X191298601Y-56199870D01*
X192094199Y-56199870D01*
X192829235Y-55895408D01*
X193391808Y-55332835D01*
X193696270Y-54597799D01*
X193696270Y-53802201D01*
X193391808Y-53067165D01*
X192829235Y-52504592D01*
X192094199Y-52200130D01*
X191298601Y-52200130D01*
X190563565Y-52504592D01*
X190000992Y-53067165D01*
X189696530Y-53802201D01*
X182050729Y-53802201D01*
X180969017Y-52720489D01*
X180935543Y-52670393D01*
X180737076Y-52537781D01*
X180562059Y-52502968D01*
X180562054Y-52502968D01*
X180502968Y-52491215D01*
X180443882Y-52502968D01*
X166900000Y-52502968D01*
X166900000Y-52220980D01*
X166762983Y-51890192D01*
X166509809Y-51637018D01*
X166179021Y-51500001D01*
X165948529Y-51500001D01*
X164972981Y-50524455D01*
X164939508Y-50474359D01*
X164741041Y-50341747D01*
X164566024Y-50306934D01*
X164566019Y-50306934D01*
X164506933Y-50295181D01*
X164447847Y-50306934D01*
X150602152Y-50306934D01*
X150543064Y-50295181D01*
X150483976Y-50306934D01*
X150483973Y-50306934D01*
X150308956Y-50341747D01*
X150163071Y-50439225D01*
X150110489Y-50474359D01*
X150077017Y-50524453D01*
X146299870Y-54301600D01*
X146299870Y-53802201D01*
X145995408Y-53067165D01*
X145432835Y-52504592D01*
X144697799Y-52200130D01*
X143902201Y-52200130D01*
X143167165Y-52504592D01*
X142604592Y-53067165D01*
X142300130Y-53802201D01*
X142300130Y-54597799D01*
X142604592Y-55332835D01*
X143167165Y-55895408D01*
X143902201Y-56199870D01*
X144401600Y-56199870D01*
X138550000Y-62051471D01*
X138550000Y-51030746D01*
X138589396Y-50679522D01*
X138695454Y-50374966D01*
X138866348Y-50101478D01*
X139093585Y-49872648D01*
X139365876Y-49699848D01*
X139669681Y-49591668D01*
X140019122Y-49550000D01*
X195969254Y-49550000D01*
X196320478Y-49589396D01*
X196320478Y-49589396D01*
G37*
X196320478Y-49589396D02*
X196625034Y-49695454D01*
X196898522Y-49866348D01*
X197127352Y-50093585D01*
X197300152Y-50365876D01*
X197408332Y-50669681D01*
X197450001Y-51019131D01*
X197450000Y-136969253D01*
X197410604Y-137320479D01*
X197304547Y-137625033D01*
X197133652Y-137898522D01*
X196906415Y-138127352D01*
X196634124Y-138300152D01*
X196330323Y-138408331D01*
X195980877Y-138450000D01*
X170941026Y-138450000D01*
X170967088Y-138432586D01*
X171000562Y-138382489D01*
X179483350Y-129899701D01*
X181197710Y-129899701D01*
X181197710Y-130695299D01*
X181502172Y-131430335D01*
X182064745Y-131992908D01*
X182799781Y-132297370D01*
X183595379Y-132297370D01*
X184330415Y-131992908D01*
X184892988Y-131430335D01*
X185197450Y-130695299D01*
X185197450Y-129899701D01*
X184892988Y-129164665D01*
X184330415Y-128602092D01*
X183595379Y-128297630D01*
X182799781Y-128297630D01*
X182064745Y-128602092D01*
X181502172Y-129164665D01*
X181197710Y-129899701D01*
X179483350Y-129899701D01*
X183043246Y-126339806D01*
X183093339Y-126306335D01*
X183162634Y-126202629D01*
X183225951Y-126107868D01*
X183227516Y-126099999D01*
X183260764Y-125932851D01*
X183260764Y-125932848D01*
X183272517Y-125873760D01*
X183260764Y-125814672D01*
X183260764Y-123168349D01*
X183272517Y-123109262D01*
X183260764Y-123050176D01*
X183260764Y-123050172D01*
X183225951Y-122875155D01*
X183160765Y-122777598D01*
X183160765Y-122530243D01*
X183023748Y-122199455D01*
X182770574Y-121946281D01*
X182439786Y-121809264D01*
X182081744Y-121809264D01*
X181750956Y-121946281D01*
X181497782Y-122199455D01*
X181360765Y-122530243D01*
X181360765Y-122888285D01*
X181497782Y-123219073D01*
X181750956Y-123472247D01*
X182060765Y-123600574D01*
X182060764Y-124967112D01*
X181778031Y-124850000D01*
X181419989Y-124850000D01*
X181089201Y-124987017D01*
X180836027Y-125240191D01*
X180699010Y-125570979D01*
X180699010Y-125801472D01*
X169500483Y-137000000D01*
X143448528Y-137000000D01*
X141100010Y-134651483D01*
X141100010Y-129899701D01*
X150798990Y-129899701D01*
X150798990Y-130695299D01*
X151103452Y-131430335D01*
X151666025Y-131992908D01*
X152401061Y-132297370D01*
X153196659Y-132297370D01*
X153931695Y-131992908D01*
X154494268Y-131430335D01*
X154798730Y-130695299D01*
X154798730Y-129899701D01*
X154494268Y-129164665D01*
X153931695Y-128602092D01*
X153196659Y-128297630D01*
X152401061Y-128297630D01*
X151666025Y-128602092D01*
X151103452Y-129164665D01*
X150798990Y-129899701D01*
X141100010Y-129899701D01*
X141100010Y-128394164D01*
X141262993Y-128231181D01*
X141400010Y-127900393D01*
X141400010Y-127542351D01*
X141262993Y-127211563D01*
X141009819Y-126958389D01*
X140700000Y-126830058D01*
X140700000Y-126620979D01*
X140562983Y-126290191D01*
X140309809Y-126037017D01*
X139979021Y-125900000D01*
X139620979Y-125900000D01*
X139290191Y-126037017D01*
X139037017Y-126290191D01*
X138900000Y-126620979D01*
X138900000Y-126979021D01*
X139037017Y-127309809D01*
X139200000Y-127472792D01*
X139200001Y-134706609D01*
X139188247Y-134765700D01*
X139200001Y-134824791D01*
X139234814Y-134999808D01*
X139367426Y-135198275D01*
X139417520Y-135231747D01*
X142568264Y-138382492D01*
X142601736Y-138432586D01*
X142627798Y-138450000D01*
X140030747Y-138450000D01*
X139679521Y-138410604D01*
X139374967Y-138304547D01*
X139101478Y-138133652D01*
X138872648Y-137906415D01*
X138699848Y-137634124D01*
X138591669Y-137330323D01*
X138550000Y-136980877D01*
X138550000Y-114298527D01*
X139300000Y-115048528D01*
X139300000Y-115279021D01*
X139437017Y-115609809D01*
X139690191Y-115862983D01*
X140020979Y-116000000D01*
X140379021Y-116000000D01*
X140709809Y-115862983D01*
X140962983Y-115609809D01*
X141100000Y-115279021D01*
X141100000Y-114920979D01*
X140962983Y-114590191D01*
X140709809Y-114337017D01*
X140379021Y-114200000D01*
X140148528Y-114200000D01*
X139203958Y-113255431D01*
X139203958Y-110846268D01*
X141698693Y-113341005D01*
X141698694Y-122117836D01*
X141686940Y-122176927D01*
X141733507Y-122411035D01*
X141828838Y-122553707D01*
X141866119Y-122609502D01*
X141916213Y-122642974D01*
X141966608Y-122693369D01*
X141966608Y-122923863D01*
X142103625Y-123254651D01*
X142356799Y-123507825D01*
X142687587Y-123644842D01*
X143045629Y-123644842D01*
X143376417Y-123507825D01*
X143417104Y-123467139D01*
X143487143Y-123537178D01*
X143509812Y-123546568D01*
X143193074Y-123863306D01*
X142962580Y-123863306D01*
X142631792Y-124000323D01*
X142378618Y-124253497D01*
X142241601Y-124584285D01*
X142241601Y-124942327D01*
X142378618Y-125273115D01*
X142631792Y-125526289D01*
X142962580Y-125663306D01*
X143320622Y-125663306D01*
X143651410Y-125526289D01*
X143889303Y-125288396D01*
X144029804Y-125428897D01*
X144360592Y-125565914D01*
X144718634Y-125565914D01*
X145049422Y-125428897D01*
X145302596Y-125175723D01*
X145375660Y-124999332D01*
X145541440Y-124999332D01*
X145697673Y-124934618D01*
X145697673Y-125004064D01*
X145685920Y-125063150D01*
X145697673Y-125122236D01*
X145697673Y-125122241D01*
X145732486Y-125297258D01*
X145810373Y-125413823D01*
X145810373Y-125769897D01*
X145947390Y-126100685D01*
X146200564Y-126353859D01*
X146531352Y-126490876D01*
X146889394Y-126490876D01*
X147220182Y-126353859D01*
X147258100Y-126315941D01*
X147258100Y-126522573D01*
X146423386Y-127357288D01*
X146270309Y-127357288D01*
X145939521Y-127494305D01*
X145686347Y-127747479D01*
X145549330Y-128078267D01*
X145549330Y-128436309D01*
X145686347Y-128767097D01*
X145939521Y-129020271D01*
X146270309Y-129157288D01*
X146628351Y-129157288D01*
X146956705Y-129021279D01*
X147269299Y-129150760D01*
X147627341Y-129150760D01*
X147958129Y-129013743D01*
X148211303Y-128760569D01*
X148348320Y-128429781D01*
X148348320Y-128199287D01*
X148639591Y-127908017D01*
X148689685Y-127874545D01*
X148747831Y-127787524D01*
X148822297Y-127676079D01*
X148844793Y-127562983D01*
X148857110Y-127501061D01*
X148857110Y-127501058D01*
X148868863Y-127441970D01*
X148857110Y-127382882D01*
X148857110Y-124426269D01*
X148995289Y-124564448D01*
X149326077Y-124701465D01*
X149448386Y-124701465D01*
X149472522Y-124737587D01*
X149522619Y-124771061D01*
X151234038Y-126482481D01*
X151267510Y-126532575D01*
X151465977Y-126665187D01*
X151640994Y-126700000D01*
X151640998Y-126700000D01*
X151700084Y-126711753D01*
X151759170Y-126700000D01*
X153733772Y-126700000D01*
X153792858Y-126711753D01*
X153851944Y-126700000D01*
X153851949Y-126700000D01*
X154026966Y-126665187D01*
X154072010Y-126635089D01*
X162188350Y-126635089D01*
X162188350Y-127355911D01*
X162464197Y-128021864D01*
X162973896Y-128531563D01*
X163639849Y-128807410D01*
X164360671Y-128807410D01*
X165026624Y-128531563D01*
X165536323Y-128021864D01*
X165812170Y-127355911D01*
X165812170Y-126635089D01*
X165536323Y-125969136D01*
X165026624Y-125459437D01*
X164360671Y-125183590D01*
X163639849Y-125183590D01*
X162973896Y-125459437D01*
X162464197Y-125969136D01*
X162188350Y-126635089D01*
X154072010Y-126635089D01*
X154225433Y-126532575D01*
X154258907Y-126482478D01*
X158104256Y-122637129D01*
X164187330Y-122637129D01*
X164187330Y-123357951D01*
X164463177Y-124023904D01*
X164972876Y-124533603D01*
X165638829Y-124809450D01*
X166359651Y-124809450D01*
X166686016Y-124674265D01*
X167324937Y-125313186D01*
X166971856Y-125459437D01*
X166462157Y-125969136D01*
X166186310Y-126635089D01*
X166186310Y-127355911D01*
X166462157Y-128021864D01*
X166971856Y-128531563D01*
X167637809Y-128807410D01*
X168358631Y-128807410D01*
X169024584Y-128531563D01*
X169534283Y-128021864D01*
X169810130Y-127355911D01*
X169810130Y-126635089D01*
X169534283Y-125969136D01*
X169265147Y-125700000D01*
X170729254Y-125699999D01*
X170460117Y-125969136D01*
X170184270Y-126635089D01*
X170184270Y-127355911D01*
X170460117Y-128021864D01*
X170969816Y-128531563D01*
X171635769Y-128807410D01*
X172356591Y-128807410D01*
X173022544Y-128531563D01*
X173532243Y-128021864D01*
X173808090Y-127355911D01*
X173808090Y-126635089D01*
X173532243Y-125969136D01*
X173263106Y-125699999D01*
X175181061Y-125699998D01*
X175250001Y-125713711D01*
X175523127Y-125659383D01*
X175696227Y-125543721D01*
X175754672Y-125504669D01*
X175757792Y-125500000D01*
X175829021Y-125500000D01*
X176159809Y-125362983D01*
X176412983Y-125109809D01*
X176550000Y-124779021D01*
X176550000Y-124420979D01*
X176412983Y-124090191D01*
X176347792Y-124025000D01*
X176462983Y-123909809D01*
X176600000Y-123579021D01*
X176600000Y-123220979D01*
X176462983Y-122890191D01*
X176209809Y-122637017D01*
X175879021Y-122500000D01*
X175806976Y-122500000D01*
X175802211Y-122492869D01*
X175570666Y-122338155D01*
X175366480Y-122297540D01*
X175366475Y-122297540D01*
X175297540Y-122283828D01*
X175228605Y-122297540D01*
X171668448Y-122297540D01*
X171533263Y-121971176D01*
X171023564Y-121461477D01*
X170357611Y-121185630D01*
X169636789Y-121185630D01*
X168970836Y-121461477D01*
X168461137Y-121971176D01*
X168185290Y-122637129D01*
X168185290Y-123357951D01*
X168461137Y-124023904D01*
X168737234Y-124300001D01*
X168291650Y-124300001D01*
X167675965Y-123684316D01*
X167811150Y-123357951D01*
X167811150Y-122637129D01*
X167535303Y-121971176D01*
X167025604Y-121461477D01*
X166359651Y-121185630D01*
X165638829Y-121185630D01*
X164972876Y-121461477D01*
X164463177Y-121971176D01*
X164187330Y-122637129D01*
X158104256Y-122637129D01*
X162178555Y-118562830D01*
X162178555Y-120311490D01*
X162217361Y-120506580D01*
X162327870Y-120671970D01*
X162493260Y-120782479D01*
X162688350Y-120821285D01*
X165312170Y-120821285D01*
X165507260Y-120782479D01*
X165672650Y-120671970D01*
X165783159Y-120506580D01*
X165821965Y-120311490D01*
X165821965Y-120221036D01*
X166783835Y-120221036D01*
X166916390Y-120497096D01*
X167571815Y-120797103D01*
X168292156Y-120823453D01*
X168967747Y-120572135D01*
X169080050Y-120497096D01*
X169212605Y-120221036D01*
X167998220Y-119006651D01*
X166783835Y-120221036D01*
X165821965Y-120221036D01*
X165821965Y-119293516D01*
X166174347Y-119293516D01*
X166425665Y-119969107D01*
X166500704Y-120081410D01*
X166776764Y-120213965D01*
X167991149Y-118999580D01*
X168005291Y-118999580D01*
X169219676Y-120213965D01*
X169495736Y-120081410D01*
X169795743Y-119425985D01*
X169822093Y-118705644D01*
X169797365Y-118639169D01*
X170184270Y-118639169D01*
X170184270Y-119359991D01*
X170460117Y-120025944D01*
X170969816Y-120535643D01*
X171635769Y-120811490D01*
X172356591Y-120811490D01*
X173022544Y-120535643D01*
X173532243Y-120025944D01*
X173808090Y-119359991D01*
X173808090Y-118639169D01*
X173532243Y-117973216D01*
X173022544Y-117463517D01*
X172356591Y-117187670D01*
X171635769Y-117187670D01*
X170969816Y-117463517D01*
X170460117Y-117973216D01*
X170184270Y-118639169D01*
X169797365Y-118639169D01*
X169570775Y-118030053D01*
X169495736Y-117917750D01*
X169219676Y-117785195D01*
X168005291Y-118999580D01*
X167991149Y-118999580D01*
X166776764Y-117785195D01*
X166500704Y-117917750D01*
X166200697Y-118573175D01*
X166174347Y-119293516D01*
X165821965Y-119293516D01*
X165821965Y-117778124D01*
X166783835Y-117778124D01*
X167998220Y-118992509D01*
X169212605Y-117778124D01*
X169080050Y-117502064D01*
X168424625Y-117202057D01*
X167704284Y-117175707D01*
X167028693Y-117427025D01*
X166916390Y-117502064D01*
X166783835Y-117778124D01*
X165821965Y-117778124D01*
X165821965Y-117687670D01*
X165783159Y-117492580D01*
X165672650Y-117327190D01*
X165507260Y-117216681D01*
X165312170Y-117177875D01*
X163563510Y-117177875D01*
X168939184Y-111802201D01*
X179696570Y-111802201D01*
X179696570Y-112597799D01*
X180001032Y-113332835D01*
X180563605Y-113895408D01*
X181298641Y-114199870D01*
X182094239Y-114199870D01*
X182829275Y-113895408D01*
X183391848Y-113332835D01*
X183696310Y-112597799D01*
X183696310Y-111802201D01*
X183391848Y-111067165D01*
X182829275Y-110504592D01*
X182094239Y-110200130D01*
X181298641Y-110200130D01*
X180563605Y-110504592D01*
X180001032Y-111067165D01*
X179696570Y-111802201D01*
X168939184Y-111802201D01*
X183541386Y-97200000D01*
X187127208Y-97200000D01*
X187290191Y-97362983D01*
X187620979Y-97500000D01*
X187979021Y-97500000D01*
X188309809Y-97362983D01*
X188562983Y-97109809D01*
X188700000Y-96779021D01*
X188700000Y-96420979D01*
X188562983Y-96090191D01*
X188309809Y-95837017D01*
X187979021Y-95700000D01*
X187620979Y-95700000D01*
X187290191Y-95837017D01*
X187127208Y-96000000D01*
X184122060Y-96000000D01*
X184922060Y-95200000D01*
X185599112Y-95200000D01*
X185658198Y-95211753D01*
X185717284Y-95200000D01*
X185717289Y-95200000D01*
X185892306Y-95165187D01*
X186090773Y-95032575D01*
X186124247Y-94982479D01*
X186548527Y-94558198D01*
X186779021Y-94558198D01*
X187109809Y-94421181D01*
X187362983Y-94168007D01*
X187500000Y-93837219D01*
X187500000Y-93479177D01*
X187362983Y-93148389D01*
X187109809Y-92895215D01*
X186779021Y-92758198D01*
X186420979Y-92758198D01*
X186090191Y-92895215D01*
X185837017Y-93148389D01*
X185800000Y-93237756D01*
X185762983Y-93148389D01*
X185509809Y-92895215D01*
X185179021Y-92758198D01*
X184820979Y-92758198D01*
X184490191Y-92895215D01*
X184237017Y-93148389D01*
X184100000Y-93479177D01*
X184100000Y-93709669D01*
X181538109Y-96271561D01*
X181462983Y-96090191D01*
X181209809Y-95837017D01*
X180879021Y-95700000D01*
X180655136Y-95700000D01*
X180765187Y-95535298D01*
X180800000Y-95360281D01*
X180800000Y-95360277D01*
X180811753Y-95301190D01*
X180800000Y-95242104D01*
X180800000Y-94330990D01*
X180962983Y-94168007D01*
X181100000Y-93837219D01*
X181100000Y-93479177D01*
X180962983Y-93148389D01*
X180709809Y-92895215D01*
X180379021Y-92758198D01*
X180020979Y-92758198D01*
X179690191Y-92895215D01*
X179437017Y-93148389D01*
X179400000Y-93237756D01*
X179362983Y-93148389D01*
X179109809Y-92895215D01*
X178779021Y-92758198D01*
X178420979Y-92758198D01*
X178090191Y-92895215D01*
X177837017Y-93148389D01*
X177700000Y-93479177D01*
X177700000Y-93837219D01*
X177837017Y-94168007D01*
X178000000Y-94330990D01*
X178000001Y-96088375D01*
X175900000Y-98188376D01*
X175900000Y-97372792D01*
X176062983Y-97209809D01*
X176200000Y-96879021D01*
X176200000Y-96520979D01*
X176062983Y-96190191D01*
X175809809Y-95937017D01*
X175479021Y-95800000D01*
X175120979Y-95800000D01*
X174790191Y-95937017D01*
X174537017Y-96190191D01*
X174400000Y-96520979D01*
X174400000Y-94330990D01*
X174562983Y-94168007D01*
X174700000Y-93837219D01*
X174700000Y-93479177D01*
X174562983Y-93148389D01*
X174309809Y-92895215D01*
X173979021Y-92758198D01*
X173620979Y-92758198D01*
X173290191Y-92895215D01*
X173037017Y-93148389D01*
X173000000Y-93237756D01*
X172962983Y-93148389D01*
X172709809Y-92895215D01*
X172379021Y-92758198D01*
X172020979Y-92758198D01*
X171690191Y-92895215D01*
X171437017Y-93148389D01*
X171300000Y-93479177D01*
X171300000Y-93837219D01*
X171437017Y-94168007D01*
X171600000Y-94330990D01*
X171600001Y-100795516D01*
X156562765Y-115832754D01*
X155315774Y-115832754D01*
X155666046Y-115482482D01*
X155666048Y-115482479D01*
X166982481Y-104166047D01*
X167032575Y-104132575D01*
X167077028Y-104066047D01*
X167165187Y-103934108D01*
X167200000Y-103759091D01*
X167200000Y-103759087D01*
X167211753Y-103700001D01*
X167200000Y-103640914D01*
X167200000Y-98748527D01*
X168448528Y-97500000D01*
X168679021Y-97500000D01*
X169009809Y-97362983D01*
X169262983Y-97109809D01*
X169400000Y-96779021D01*
X169400000Y-96420979D01*
X169262983Y-96090191D01*
X169009809Y-95837017D01*
X168679021Y-95700000D01*
X168320979Y-95700000D01*
X167990191Y-95837017D01*
X167737017Y-96090191D01*
X167600000Y-96420979D01*
X167600000Y-96651472D01*
X166800989Y-97450484D01*
X166800989Y-95105736D01*
X167348528Y-94558198D01*
X167579021Y-94558198D01*
X167909809Y-94421181D01*
X168162983Y-94168007D01*
X168300000Y-93837219D01*
X168300000Y-93479177D01*
X168162983Y-93148389D01*
X167909809Y-92895215D01*
X167579021Y-92758198D01*
X167220979Y-92758198D01*
X166890191Y-92895215D01*
X166637017Y-93148389D01*
X166600000Y-93237756D01*
X166562983Y-93148389D01*
X166309809Y-92895215D01*
X165979021Y-92758198D01*
X165620979Y-92758198D01*
X165290191Y-92895215D01*
X165037017Y-93148389D01*
X164900000Y-93479177D01*
X164900000Y-93837219D01*
X165037017Y-94168007D01*
X165200000Y-94330990D01*
X165200001Y-103022899D01*
X156299870Y-111923031D01*
X156299870Y-111802201D01*
X155995408Y-111067165D01*
X155432835Y-110504592D01*
X155136598Y-110381887D01*
X155357686Y-110160799D01*
X155494703Y-109830011D01*
X155494703Y-109471969D01*
X155357686Y-109141181D01*
X155104512Y-108888007D01*
X154773724Y-108750990D01*
X154533251Y-108750990D01*
X162782481Y-100501761D01*
X162832575Y-100468289D01*
X162965187Y-100269822D01*
X163000000Y-100094805D01*
X163000000Y-100094801D01*
X163011753Y-100035715D01*
X163000000Y-99976628D01*
X163000000Y-97272792D01*
X163162983Y-97109809D01*
X163300000Y-96779021D01*
X163300000Y-96420979D01*
X163162983Y-96090191D01*
X162909809Y-95837017D01*
X162579021Y-95700000D01*
X162220979Y-95700000D01*
X161890191Y-95837017D01*
X161637017Y-96090191D01*
X161600000Y-96179558D01*
X161600000Y-94330990D01*
X161762983Y-94168007D01*
X161900000Y-93837219D01*
X161900000Y-93479177D01*
X161762983Y-93148389D01*
X161509809Y-92895215D01*
X161179021Y-92758198D01*
X160820979Y-92758198D01*
X160490191Y-92895215D01*
X160237017Y-93148389D01*
X160193154Y-93254284D01*
X160139609Y-93125015D01*
X159886435Y-92871841D01*
X159555647Y-92734824D01*
X159197605Y-92734824D01*
X158866817Y-92871841D01*
X158613643Y-93125015D01*
X158476626Y-93455803D01*
X158476626Y-93813845D01*
X158613643Y-94144633D01*
X158776626Y-94307616D01*
X158776627Y-101681987D01*
X153664577Y-106794038D01*
X153662983Y-106790191D01*
X153409809Y-106537017D01*
X153079021Y-106400000D01*
X153000000Y-106400000D01*
X153000000Y-98348527D01*
X154148528Y-97200000D01*
X155327208Y-97200000D01*
X155490191Y-97362983D01*
X155820979Y-97500000D01*
X156179021Y-97500000D01*
X156509809Y-97362983D01*
X156762983Y-97109809D01*
X156900000Y-96779021D01*
X156900000Y-96420979D01*
X156762983Y-96090191D01*
X156509809Y-95837017D01*
X156179021Y-95700000D01*
X155820979Y-95700000D01*
X155490191Y-95837017D01*
X155327208Y-96000000D01*
X153959085Y-96000000D01*
X153899999Y-95988247D01*
X153840913Y-96000000D01*
X153840909Y-96000000D01*
X153665892Y-96034813D01*
X153467425Y-96167425D01*
X153433953Y-96217519D01*
X153100000Y-96551472D01*
X153100000Y-96420979D01*
X152962983Y-96090191D01*
X152709809Y-95837017D01*
X152705718Y-95835323D01*
X154111171Y-94429871D01*
X154420979Y-94558198D01*
X154779021Y-94558198D01*
X155109809Y-94421181D01*
X155362983Y-94168007D01*
X155500000Y-93837219D01*
X155500000Y-93479177D01*
X155362983Y-93148389D01*
X155109809Y-92895215D01*
X154779021Y-92758198D01*
X154420979Y-92758198D01*
X154090191Y-92895215D01*
X153915286Y-93070120D01*
X153800207Y-93093011D01*
X153744696Y-93130102D01*
X153509809Y-92895215D01*
X153179021Y-92758198D01*
X152820979Y-92758198D01*
X152490191Y-92895215D01*
X152237017Y-93148389D01*
X152100000Y-93479177D01*
X152100000Y-93709670D01*
X149662523Y-96147148D01*
X149662522Y-94479811D01*
X149674276Y-94420720D01*
X149627709Y-94186612D01*
X149528570Y-94038240D01*
X149528567Y-94038237D01*
X149495097Y-93988146D01*
X149445006Y-93954676D01*
X149200000Y-93709670D01*
X149200000Y-93479177D01*
X149062983Y-93148389D01*
X148809809Y-92895215D01*
X148479021Y-92758198D01*
X148120979Y-92758198D01*
X147790191Y-92895215D01*
X147537017Y-93148389D01*
X147525236Y-93176830D01*
X147399793Y-93093011D01*
X147284714Y-93070120D01*
X147109809Y-92895215D01*
X146779021Y-92758198D01*
X146420979Y-92758198D01*
X146090191Y-92895215D01*
X145837017Y-93148389D01*
X145700000Y-93479177D01*
X145700000Y-93837219D01*
X145837017Y-94168007D01*
X146090191Y-94421181D01*
X146420979Y-94558198D01*
X146779021Y-94558198D01*
X147088830Y-94429871D01*
X148063515Y-95404557D01*
X148063525Y-115095441D01*
X146559070Y-116617174D01*
X146161137Y-116617174D01*
X146076982Y-116533019D01*
X145746194Y-116396002D01*
X145400001Y-116396002D01*
X145400001Y-103779023D01*
X145537017Y-104109809D01*
X145790191Y-104362983D01*
X146120979Y-104500000D01*
X146479021Y-104500000D01*
X146809809Y-104362983D01*
X147062983Y-104109809D01*
X147200000Y-103779021D01*
X147200000Y-103420979D01*
X147100000Y-103179558D01*
X147100000Y-97372792D01*
X147262983Y-97209809D01*
X147400000Y-96879021D01*
X147400000Y-96520979D01*
X147262983Y-96190191D01*
X147009809Y-95937017D01*
X146679021Y-95800000D01*
X146320979Y-95800000D01*
X145990191Y-95937017D01*
X145737017Y-96190191D01*
X145600000Y-96520979D01*
X145600000Y-96879021D01*
X145737017Y-97209809D01*
X145900000Y-97372792D01*
X145900001Y-102791532D01*
X145790191Y-102837017D01*
X145537017Y-103090191D01*
X145400001Y-103420977D01*
X145400001Y-74977098D01*
X145880503Y-74496597D01*
X145930597Y-74463125D01*
X146020091Y-74329189D01*
X146063209Y-74264659D01*
X146082995Y-74165187D01*
X146098022Y-74089641D01*
X146098022Y-74089638D01*
X146109775Y-74030550D01*
X146098022Y-73971462D01*
X146098022Y-71899701D01*
X191197670Y-71899701D01*
X191197670Y-72695299D01*
X191502132Y-73430335D01*
X192064705Y-73992908D01*
X192799741Y-74297370D01*
X193595339Y-74297370D01*
X194330375Y-73992908D01*
X194892948Y-73430335D01*
X195197410Y-72695299D01*
X195197410Y-71899701D01*
X194892948Y-71164665D01*
X194330375Y-70602092D01*
X193595339Y-70297630D01*
X192799741Y-70297630D01*
X192064705Y-70602092D01*
X191502132Y-71164665D01*
X191197670Y-71899701D01*
X146098022Y-71899701D01*
X146098022Y-68635089D01*
X152188350Y-68635089D01*
X152188350Y-69355911D01*
X152464197Y-70021864D01*
X152973896Y-70531563D01*
X153639849Y-70807410D01*
X154360671Y-70807410D01*
X155026624Y-70531563D01*
X155536323Y-70021864D01*
X155812170Y-69355911D01*
X155812170Y-68635089D01*
X156186310Y-68635089D01*
X156186310Y-69355911D01*
X156462157Y-70021864D01*
X156971856Y-70531563D01*
X157637809Y-70807410D01*
X158358631Y-70807410D01*
X159024584Y-70531563D01*
X159534283Y-70021864D01*
X159810130Y-69355911D01*
X159810130Y-68635089D01*
X160186810Y-68635089D01*
X160186810Y-69355911D01*
X160462657Y-70021864D01*
X160972356Y-70531563D01*
X161638309Y-70807410D01*
X162359131Y-70807410D01*
X163025084Y-70531563D01*
X163534783Y-70021864D01*
X163810630Y-69355911D01*
X163810630Y-68635089D01*
X164187310Y-68635089D01*
X164187310Y-69355911D01*
X164463157Y-70021864D01*
X164972856Y-70531563D01*
X165638809Y-70807410D01*
X166359631Y-70807410D01*
X167025584Y-70531563D01*
X167535283Y-70021864D01*
X167811130Y-69355911D01*
X167811130Y-68635089D01*
X168185270Y-68635089D01*
X168185270Y-69355911D01*
X168461117Y-70021864D01*
X168970816Y-70531563D01*
X169636769Y-70807410D01*
X170357591Y-70807410D01*
X171023544Y-70531563D01*
X171533243Y-70021864D01*
X171809090Y-69355911D01*
X171809090Y-68635089D01*
X172185770Y-68635089D01*
X172185770Y-69355911D01*
X172461617Y-70021864D01*
X172971316Y-70531563D01*
X173637269Y-70807410D01*
X174358091Y-70807410D01*
X175024044Y-70531563D01*
X175533743Y-70021864D01*
X175809590Y-69355911D01*
X175809590Y-68635089D01*
X176186270Y-68635089D01*
X176186270Y-69355911D01*
X176462117Y-70021864D01*
X176971816Y-70531563D01*
X177637769Y-70807410D01*
X178358591Y-70807410D01*
X179024544Y-70531563D01*
X179534243Y-70021864D01*
X179810090Y-69355911D01*
X179810090Y-68635089D01*
X180184230Y-68635089D01*
X180184230Y-69355911D01*
X180460077Y-70021864D01*
X180969776Y-70531563D01*
X181635729Y-70807410D01*
X182356551Y-70807410D01*
X183022504Y-70531563D01*
X183532203Y-70021864D01*
X183808050Y-69355911D01*
X183808050Y-68635089D01*
X183532203Y-67969136D01*
X183022504Y-67459437D01*
X182356551Y-67183590D01*
X181635729Y-67183590D01*
X180969776Y-67459437D01*
X180460077Y-67969136D01*
X180184230Y-68635089D01*
X179810090Y-68635089D01*
X179534243Y-67969136D01*
X179024544Y-67459437D01*
X178358591Y-67183590D01*
X177637769Y-67183590D01*
X176971816Y-67459437D01*
X176462117Y-67969136D01*
X176186270Y-68635089D01*
X175809590Y-68635089D01*
X175533743Y-67969136D01*
X175024044Y-67459437D01*
X174358091Y-67183590D01*
X173637269Y-67183590D01*
X172971316Y-67459437D01*
X172461617Y-67969136D01*
X172185770Y-68635089D01*
X171809090Y-68635089D01*
X171533243Y-67969136D01*
X171023544Y-67459437D01*
X170357591Y-67183590D01*
X169636769Y-67183590D01*
X168970816Y-67459437D01*
X168461117Y-67969136D01*
X168185270Y-68635089D01*
X167811130Y-68635089D01*
X167535283Y-67969136D01*
X167025584Y-67459437D01*
X166359631Y-67183590D01*
X165638809Y-67183590D01*
X164972856Y-67459437D01*
X164463157Y-67969136D01*
X164187310Y-68635089D01*
X163810630Y-68635089D01*
X163534783Y-67969136D01*
X163025084Y-67459437D01*
X162359131Y-67183590D01*
X161638309Y-67183590D01*
X160972356Y-67459437D01*
X160462657Y-67969136D01*
X160186810Y-68635089D01*
X159810130Y-68635089D01*
X159534283Y-67969136D01*
X159024584Y-67459437D01*
X158358631Y-67183590D01*
X157637809Y-67183590D01*
X156971856Y-67459437D01*
X156462157Y-67969136D01*
X156186310Y-68635089D01*
X155812170Y-68635089D01*
X155536323Y-67969136D01*
X155026624Y-67459437D01*
X154360671Y-67183590D01*
X153639849Y-67183590D01*
X152973896Y-67459437D01*
X152464197Y-67969136D01*
X152188350Y-68635089D01*
X146098022Y-68635089D01*
X146098022Y-64637129D01*
X154187330Y-64637129D01*
X154187330Y-65357951D01*
X154463177Y-66023904D01*
X154972876Y-66533603D01*
X155638829Y-66809450D01*
X156359651Y-66809450D01*
X157025604Y-66533603D01*
X157535303Y-66023904D01*
X157811150Y-65357951D01*
X157811150Y-64637129D01*
X158187830Y-64637129D01*
X158187830Y-65357951D01*
X158463677Y-66023904D01*
X158973376Y-66533603D01*
X159639329Y-66809450D01*
X160360151Y-66809450D01*
X161026104Y-66533603D01*
X161535803Y-66023904D01*
X161811650Y-65357951D01*
X161811650Y-64637129D01*
X162188330Y-64637129D01*
X162188330Y-65357951D01*
X162464177Y-66023904D01*
X162973876Y-66533603D01*
X163639829Y-66809450D01*
X164360651Y-66809450D01*
X165026604Y-66533603D01*
X165536303Y-66023904D01*
X165812150Y-65357951D01*
X165812150Y-64637129D01*
X166186290Y-64637129D01*
X166186290Y-65357951D01*
X166462137Y-66023904D01*
X166971836Y-66533603D01*
X167637789Y-66809450D01*
X168358611Y-66809450D01*
X169024564Y-66533603D01*
X169534263Y-66023904D01*
X169810110Y-65357951D01*
X169810110Y-64637129D01*
X170184250Y-64637129D01*
X170184250Y-65357951D01*
X170460097Y-66023904D01*
X170969796Y-66533603D01*
X171635749Y-66809450D01*
X172356571Y-66809450D01*
X173022524Y-66533603D01*
X173532223Y-66023904D01*
X173808070Y-65357951D01*
X173808070Y-64637129D01*
X174184750Y-64637129D01*
X174184750Y-65357951D01*
X174460597Y-66023904D01*
X174970296Y-66533603D01*
X175636249Y-66809450D01*
X176357071Y-66809450D01*
X177023024Y-66533603D01*
X177532723Y-66023904D01*
X177808570Y-65357951D01*
X177808570Y-64637129D01*
X178185250Y-64637129D01*
X178185250Y-65357951D01*
X178461097Y-66023904D01*
X178970796Y-66533603D01*
X179636749Y-66809450D01*
X180357571Y-66809450D01*
X181023524Y-66533603D01*
X181533223Y-66023904D01*
X181809070Y-65357951D01*
X181809070Y-64637129D01*
X181533223Y-63971176D01*
X181023524Y-63461477D01*
X180357571Y-63185630D01*
X179636749Y-63185630D01*
X178970796Y-63461477D01*
X178461097Y-63971176D01*
X178185250Y-64637129D01*
X177808570Y-64637129D01*
X177532723Y-63971176D01*
X177023024Y-63461477D01*
X176357071Y-63185630D01*
X175636249Y-63185630D01*
X174970296Y-63461477D01*
X174460597Y-63971176D01*
X174184750Y-64637129D01*
X173808070Y-64637129D01*
X173532223Y-63971176D01*
X173022524Y-63461477D01*
X172356571Y-63185630D01*
X171635749Y-63185630D01*
X170969796Y-63461477D01*
X170460097Y-63971176D01*
X170184250Y-64637129D01*
X169810110Y-64637129D01*
X169534263Y-63971176D01*
X169024564Y-63461477D01*
X168358611Y-63185630D01*
X167637789Y-63185630D01*
X166971836Y-63461477D01*
X166462137Y-63971176D01*
X166186290Y-64637129D01*
X165812150Y-64637129D01*
X165536303Y-63971176D01*
X165026604Y-63461477D01*
X164360651Y-63185630D01*
X163639829Y-63185630D01*
X162973876Y-63461477D01*
X162464177Y-63971176D01*
X162188330Y-64637129D01*
X161811650Y-64637129D01*
X161535803Y-63971176D01*
X161026104Y-63461477D01*
X160360151Y-63185630D01*
X159639329Y-63185630D01*
X158973376Y-63461477D01*
X158463677Y-63971176D01*
X158187830Y-64637129D01*
X157811150Y-64637129D01*
X157535303Y-63971176D01*
X157025604Y-63461477D01*
X156359651Y-63185630D01*
X155638829Y-63185630D01*
X154972876Y-63461477D01*
X154463177Y-63971176D01*
X154187330Y-64637129D01*
X146098022Y-64637129D01*
X146098022Y-60150505D01*
X146560857Y-59687670D01*
X152178555Y-59687670D01*
X152178555Y-62311490D01*
X152217361Y-62506580D01*
X152327870Y-62671970D01*
X152493260Y-62782479D01*
X152688350Y-62821285D01*
X155312170Y-62821285D01*
X155507260Y-62782479D01*
X155672650Y-62671970D01*
X155783159Y-62506580D01*
X155821965Y-62311490D01*
X155821965Y-60639169D01*
X156186310Y-60639169D01*
X156186310Y-61359991D01*
X156462157Y-62025944D01*
X156971856Y-62535643D01*
X157637809Y-62811490D01*
X158358631Y-62811490D01*
X159024584Y-62535643D01*
X159534283Y-62025944D01*
X159810130Y-61359991D01*
X159810130Y-60639169D01*
X160186810Y-60639169D01*
X160186810Y-61359991D01*
X160462657Y-62025944D01*
X160972356Y-62535643D01*
X161638309Y-62811490D01*
X162359131Y-62811490D01*
X163025084Y-62535643D01*
X163534783Y-62025944D01*
X163810630Y-61359991D01*
X163810630Y-60639169D01*
X164187310Y-60639169D01*
X164187310Y-61359991D01*
X164463157Y-62025944D01*
X164972856Y-62535643D01*
X165638809Y-62811490D01*
X166359631Y-62811490D01*
X167025584Y-62535643D01*
X167535283Y-62025944D01*
X167811130Y-61359991D01*
X167811130Y-60639169D01*
X168185270Y-60639169D01*
X168185270Y-61359991D01*
X168461117Y-62025944D01*
X168970816Y-62535643D01*
X169636769Y-62811490D01*
X170357591Y-62811490D01*
X171023544Y-62535643D01*
X171533243Y-62025944D01*
X171809090Y-61359991D01*
X171809090Y-60639169D01*
X172185770Y-60639169D01*
X172185770Y-61359991D01*
X172461617Y-62025944D01*
X172971316Y-62535643D01*
X173637269Y-62811490D01*
X174358091Y-62811490D01*
X175024044Y-62535643D01*
X175533743Y-62025944D01*
X175809590Y-61359991D01*
X175809590Y-60639169D01*
X176186270Y-60639169D01*
X176186270Y-61359991D01*
X176462117Y-62025944D01*
X176971816Y-62535643D01*
X177637769Y-62811490D01*
X178358591Y-62811490D01*
X179024544Y-62535643D01*
X179534243Y-62025944D01*
X179810090Y-61359991D01*
X179810090Y-60639169D01*
X180184230Y-60639169D01*
X180184230Y-61359991D01*
X180460077Y-62025944D01*
X180969776Y-62535643D01*
X181635729Y-62811490D01*
X182356551Y-62811490D01*
X183022504Y-62535643D01*
X183532203Y-62025944D01*
X183808050Y-61359991D01*
X183808050Y-60639169D01*
X183532203Y-59973216D01*
X183022504Y-59463517D01*
X182356551Y-59187670D01*
X181635729Y-59187670D01*
X180969776Y-59463517D01*
X180460077Y-59973216D01*
X180184230Y-60639169D01*
X179810090Y-60639169D01*
X179534243Y-59973216D01*
X179024544Y-59463517D01*
X178358591Y-59187670D01*
X177637769Y-59187670D01*
X176971816Y-59463517D01*
X176462117Y-59973216D01*
X176186270Y-60639169D01*
X175809590Y-60639169D01*
X175533743Y-59973216D01*
X175024044Y-59463517D01*
X174358091Y-59187670D01*
X173637269Y-59187670D01*
X172971316Y-59463517D01*
X172461617Y-59973216D01*
X172185770Y-60639169D01*
X171809090Y-60639169D01*
X171533243Y-59973216D01*
X171023544Y-59463517D01*
X170357591Y-59187670D01*
X169636769Y-59187670D01*
X168970816Y-59463517D01*
X168461117Y-59973216D01*
X168185270Y-60639169D01*
X167811130Y-60639169D01*
X167535283Y-59973216D01*
X167025584Y-59463517D01*
X166359631Y-59187670D01*
X165638809Y-59187670D01*
X164972856Y-59463517D01*
X164463157Y-59973216D01*
X164187310Y-60639169D01*
X163810630Y-60639169D01*
X163534783Y-59973216D01*
X163025084Y-59463517D01*
X162359131Y-59187670D01*
X161638309Y-59187670D01*
X160972356Y-59463517D01*
X160462657Y-59973216D01*
X160186810Y-60639169D01*
X159810130Y-60639169D01*
X159534283Y-59973216D01*
X159024584Y-59463517D01*
X158358631Y-59187670D01*
X157637809Y-59187670D01*
X156971856Y-59463517D01*
X156462157Y-59973216D01*
X156186310Y-60639169D01*
X155821965Y-60639169D01*
X155821965Y-59687670D01*
X155783159Y-59492580D01*
X155672650Y-59327190D01*
X155507260Y-59216681D01*
X155312170Y-59177875D01*
X152688350Y-59177875D01*
X152493260Y-59216681D01*
X152327870Y-59327190D01*
X152217361Y-59492580D01*
X152178555Y-59687670D01*
X146560857Y-59687670D01*
X150448528Y-55800000D01*
X150766048Y-55482481D01*
X150766052Y-55482475D01*
X151348529Y-54899999D01*
X168485786Y-54899999D01*
X168868270Y-55282484D01*
X168901740Y-55332575D01*
X168951831Y-55366045D01*
X168951834Y-55366048D01*
X169096908Y-55462983D01*
X169100207Y-55465187D01*
X169215286Y-55488078D01*
X169390191Y-55662983D01*
X169720979Y-55800000D01*
X170079021Y-55800000D01*
X170409809Y-55662983D01*
X170662983Y-55409809D01*
X170800000Y-55079021D01*
X170800000Y-54720979D01*
X170708877Y-54500989D01*
X172852462Y-54500989D01*
X173000000Y-54648527D01*
X173000000Y-54879021D01*
X173137017Y-55209809D01*
X173390191Y-55462983D01*
X173720979Y-55600000D01*
X174079021Y-55600000D01*
X174409809Y-55462983D01*
X174662983Y-55209809D01*
X174800000Y-54879021D01*
X174800000Y-54520979D01*
X174662983Y-54190191D01*
X174574771Y-54101979D01*
X176553452Y-54101979D01*
X177100000Y-54648529D01*
X177100000Y-54879021D01*
X177237017Y-55209809D01*
X177490191Y-55462983D01*
X177820979Y-55600000D01*
X178179021Y-55600000D01*
X178509809Y-55462983D01*
X178762983Y-55209809D01*
X178900000Y-54879021D01*
X178900000Y-54520979D01*
X178762983Y-54190191D01*
X178509809Y-53937017D01*
X178179021Y-53800000D01*
X177948529Y-53800000D01*
X177851497Y-53702968D01*
X180254441Y-53702968D01*
X181300000Y-54748528D01*
X181300000Y-54979021D01*
X181437017Y-55309809D01*
X181690191Y-55562983D01*
X182020979Y-55700000D01*
X182379021Y-55700000D01*
X182709809Y-55562983D01*
X182962983Y-55309809D01*
X183100000Y-54979021D01*
X183100000Y-54620979D01*
X182962983Y-54290191D01*
X182709809Y-54037017D01*
X182379021Y-53900000D01*
X182148528Y-53900000D01*
X182050729Y-53802201D01*
X189696530Y-53802201D01*
X189696530Y-54597799D01*
X190000992Y-55332835D01*
X190563565Y-55895408D01*
X191298601Y-56199870D01*
X192094199Y-56199870D01*
X192829235Y-55895408D01*
X193391808Y-55332835D01*
X193696270Y-54597799D01*
X193696270Y-53802201D01*
X193391808Y-53067165D01*
X192829235Y-52504592D01*
X192094199Y-52200130D01*
X191298601Y-52200130D01*
X190563565Y-52504592D01*
X190000992Y-53067165D01*
X189696530Y-53802201D01*
X182050729Y-53802201D01*
X180969017Y-52720489D01*
X180935543Y-52670393D01*
X180737076Y-52537781D01*
X180562059Y-52502968D01*
X180562054Y-52502968D01*
X180502968Y-52491215D01*
X180443882Y-52502968D01*
X166900000Y-52502968D01*
X166900000Y-52220980D01*
X166762983Y-51890192D01*
X166509809Y-51637018D01*
X166179021Y-51500001D01*
X165948529Y-51500001D01*
X164972981Y-50524455D01*
X164939508Y-50474359D01*
X164741041Y-50341747D01*
X164566024Y-50306934D01*
X164566019Y-50306934D01*
X164506933Y-50295181D01*
X164447847Y-50306934D01*
X150602152Y-50306934D01*
X150543064Y-50295181D01*
X150483976Y-50306934D01*
X150483973Y-50306934D01*
X150308956Y-50341747D01*
X150163071Y-50439225D01*
X150110489Y-50474359D01*
X150077017Y-50524453D01*
X146299870Y-54301600D01*
X146299870Y-53802201D01*
X145995408Y-53067165D01*
X145432835Y-52504592D01*
X144697799Y-52200130D01*
X143902201Y-52200130D01*
X143167165Y-52504592D01*
X142604592Y-53067165D01*
X142300130Y-53802201D01*
X142300130Y-54597799D01*
X142604592Y-55332835D01*
X143167165Y-55895408D01*
X143902201Y-56199870D01*
X144401600Y-56199870D01*
X138550000Y-62051471D01*
X138550000Y-51030746D01*
X138589396Y-50679522D01*
X138695454Y-50374966D01*
X138866348Y-50101478D01*
X139093585Y-49872648D01*
X139365876Y-49699848D01*
X139669681Y-49591668D01*
X140019122Y-49550000D01*
X195969254Y-49550000D01*
X196320478Y-49589396D01*
G36*
X152413497Y-123473690D02*
X152413497Y-123252850D01*
X152276480Y-122922062D01*
X152023306Y-122668888D01*
X151692518Y-122531871D01*
X151334476Y-122531871D01*
X151153975Y-122606637D01*
X150900000Y-122352663D01*
X150900000Y-122141385D01*
X152765257Y-120276129D01*
X154970822Y-120276129D01*
X155029908Y-120287882D01*
X155088994Y-120276129D01*
X155088999Y-120276129D01*
X155264016Y-120241316D01*
X155462483Y-120108704D01*
X155495957Y-120058607D01*
X155641915Y-119912649D01*
X155974538Y-119912649D01*
X152413497Y-123473690D01*
X152413497Y-123473690D01*
G37*
X152413497Y-123473690D02*
X152413497Y-123252850D01*
X152276480Y-122922062D01*
X152023306Y-122668888D01*
X151692518Y-122531871D01*
X151334476Y-122531871D01*
X151153975Y-122606637D01*
X150900000Y-122352663D01*
X150900000Y-122141385D01*
X152765257Y-120276129D01*
X154970822Y-120276129D01*
X155029908Y-120287882D01*
X155088994Y-120276129D01*
X155088999Y-120276129D01*
X155264016Y-120241316D01*
X155462483Y-120108704D01*
X155495957Y-120058607D01*
X155641915Y-119912649D01*
X155974538Y-119912649D01*
X152413497Y-123473690D01*
G36*
X149300000Y-118520979D02*
X149300000Y-118879021D01*
X149437017Y-119209809D01*
X149690191Y-119462983D01*
X150020979Y-119600000D01*
X150379021Y-119600000D01*
X150709809Y-119462983D01*
X150872792Y-119300000D01*
X150915758Y-119300000D01*
X148388273Y-121827486D01*
X148097735Y-121827487D01*
X148038644Y-121815733D01*
X147804536Y-121862299D01*
X147656163Y-121961438D01*
X147656157Y-121961444D01*
X147606069Y-121994912D01*
X147572601Y-122045000D01*
X147483595Y-122134006D01*
X147474993Y-122121132D01*
X147424902Y-122087662D01*
X146343085Y-121005846D01*
X146545836Y-120803095D01*
X146550723Y-120791297D01*
X146574948Y-120801331D01*
X146932990Y-120801331D01*
X147263778Y-120664314D01*
X147516952Y-120411140D01*
X147653969Y-120080352D01*
X147653969Y-120026761D01*
X147690191Y-120062983D01*
X148020979Y-120200000D01*
X148379021Y-120200000D01*
X148709809Y-120062983D01*
X148962983Y-119809809D01*
X149100000Y-119479021D01*
X149100000Y-119120979D01*
X148962983Y-118790191D01*
X148953517Y-118780725D01*
X149361333Y-118372908D01*
X149300000Y-118520979D01*
X149300000Y-118520979D01*
G37*
X149300000Y-118520979D02*
X149300000Y-118879021D01*
X149437017Y-119209809D01*
X149690191Y-119462983D01*
X150020979Y-119600000D01*
X150379021Y-119600000D01*
X150709809Y-119462983D01*
X150872792Y-119300000D01*
X150915758Y-119300000D01*
X148388273Y-121827486D01*
X148097735Y-121827487D01*
X148038644Y-121815733D01*
X147804536Y-121862299D01*
X147656163Y-121961438D01*
X147656157Y-121961444D01*
X147606069Y-121994912D01*
X147572601Y-122045000D01*
X147483595Y-122134006D01*
X147474993Y-122121132D01*
X147424902Y-122087662D01*
X146343085Y-121005846D01*
X146545836Y-120803095D01*
X146550723Y-120791297D01*
X146574948Y-120801331D01*
X146932990Y-120801331D01*
X147263778Y-120664314D01*
X147516952Y-120411140D01*
X147653969Y-120080352D01*
X147653969Y-120026761D01*
X147690191Y-120062983D01*
X148020979Y-120200000D01*
X148379021Y-120200000D01*
X148709809Y-120062983D01*
X148962983Y-119809809D01*
X149100000Y-119479021D01*
X149100000Y-119120979D01*
X148962983Y-118790191D01*
X148953517Y-118780725D01*
X149361333Y-118372908D01*
X149300000Y-118520979D01*
G36*
X153167165Y-113895408D02*
X153902201Y-114199870D01*
X154023031Y-114199870D01*
X153522901Y-114700000D01*
X153243401Y-114700000D01*
X153184314Y-114688247D01*
X153125228Y-114700000D01*
X153125224Y-114700000D01*
X152950207Y-114734813D01*
X152751740Y-114867425D01*
X152718268Y-114917519D01*
X152682130Y-114953657D01*
X152682130Y-113410373D01*
X153167165Y-113895408D01*
X153167165Y-113895408D01*
G37*
X153167165Y-113895408D02*
X153902201Y-114199870D01*
X154023031Y-114199870D01*
X153522901Y-114700000D01*
X153243401Y-114700000D01*
X153184314Y-114688247D01*
X153125228Y-114700000D01*
X153125224Y-114700000D01*
X152950207Y-114734813D01*
X152751740Y-114867425D01*
X152718268Y-114917519D01*
X152682130Y-114953657D01*
X152682130Y-113410373D01*
X153167165Y-113895408D01*
G36*
X141103452Y-73430335D02*
X141666025Y-73992908D01*
X142401061Y-74297370D01*
X143196659Y-74297370D01*
X143407748Y-74209934D01*
X143390226Y-74298021D01*
X143401980Y-74357112D01*
X143401979Y-111654378D01*
X140800002Y-109052400D01*
X140800002Y-72697742D01*
X141103452Y-73430335D01*
X141103452Y-73430335D01*
G37*
X141103452Y-73430335D02*
X141666025Y-73992908D01*
X142401061Y-74297370D01*
X143196659Y-74297370D01*
X143407748Y-74209934D01*
X143390226Y-74298021D01*
X143401980Y-74357112D01*
X143401979Y-111654378D01*
X140800002Y-109052400D01*
X140800002Y-72697742D01*
X141103452Y-73430335D01*
G36*
X144100000Y-70770397D02*
X143931695Y-70602092D01*
X143196659Y-70297630D01*
X142401061Y-70297630D01*
X141666025Y-70602092D01*
X141103452Y-71164665D01*
X140800002Y-71897258D01*
X140800002Y-63755667D01*
X144100001Y-60455668D01*
X144100000Y-70770397D01*
X144100000Y-70770397D01*
G37*
X144100000Y-70770397D02*
X143931695Y-70602092D01*
X143196659Y-70297630D01*
X142401061Y-70297630D01*
X141666025Y-70602092D01*
X141103452Y-71164665D01*
X140800002Y-71897258D01*
X140800002Y-63755667D01*
X144100001Y-60455668D01*
X144100000Y-70770397D01*
M02*
