G04 #@! TF.GenerationSoftware,KiCad,Pcbnew,(5.0.0-rc2-dev-130-g0bdae22af-dirty)*
G04 #@! TF.CreationDate,2018-10-04T20:35:14+03:00*
G04 #@! TF.ProjectId,icu,6963752E6B696361645F706362000000,rev?*
G04 #@! TF.SameCoordinates,Original*
G04 #@! TF.FileFunction,Copper,L2,Bot,Signal*
G04 #@! TF.FilePolarity,Positive*
%FSLAX46Y46*%
G04 Gerber Fmt 4.6, Leading zero omitted, Abs format (unit mm)*
G04 Created by KiCad (PCBNEW (5.0.0-rc2-dev-130-g0bdae22af-dirty)) date Thu Oct  4 20:35:14 2018*
%MOMM*%
%LPD*%
G01*
G04 APERTURE LIST*
%ADD10R,2.623820X2.623820*%
%ADD11C,2.623820*%
%ADD12C,2.999740*%
%ADD13C,0.800000*%
%ADD14C,0.200000*%
%ADD15C,0.400000*%
G04 APERTURE END LIST*
D10*
X154000260Y-60999580D03*
D11*
X157998220Y-60999580D03*
X161998720Y-60999580D03*
X165999220Y-60999580D03*
X169997180Y-60999580D03*
X173997680Y-60999580D03*
X177998180Y-60999580D03*
X181996140Y-60999580D03*
X155999240Y-64997540D03*
X159999740Y-64997540D03*
X164000240Y-64997540D03*
X167998200Y-64997540D03*
X171996160Y-64997540D03*
X175996660Y-64997540D03*
X179997160Y-64997540D03*
X154000260Y-68995500D03*
X157998220Y-68995500D03*
X161998720Y-68995500D03*
X165999220Y-68995500D03*
X169997180Y-68995500D03*
X173997680Y-68995500D03*
X177998180Y-68995500D03*
X181996140Y-68995500D03*
D12*
X144300000Y-54200000D03*
X191696400Y-54200000D03*
X142798860Y-72297500D03*
X193197540Y-72297500D03*
D10*
X164000260Y-118999580D03*
D11*
X167998220Y-118999580D03*
X171996180Y-118999580D03*
X165999240Y-122997540D03*
X169997200Y-122997540D03*
X164000260Y-126995500D03*
X167998220Y-126995500D03*
X171996180Y-126995500D03*
D12*
X154300000Y-112200000D03*
X181696440Y-112200000D03*
X183197580Y-130297500D03*
X152798860Y-130297500D03*
D13*
X151350338Y-122454191D03*
X147500000Y-103100000D03*
X141500000Y-114200000D03*
X142900000Y-110400000D03*
X141900000Y-102700000D03*
X141100000Y-85800000D03*
X141600000Y-75800000D03*
X146200000Y-75700000D03*
X150600000Y-69800000D03*
X142500000Y-68500000D03*
X146500000Y-64300000D03*
X146800000Y-60100000D03*
X143900000Y-61700000D03*
X141000000Y-64500000D03*
X139100000Y-59800000D03*
X139900000Y-50500000D03*
X148300000Y-51300000D03*
X164100000Y-54900000D03*
X151300000Y-55000000D03*
X151000000Y-57600000D03*
X156000000Y-58000000D03*
X163900000Y-58300000D03*
X182800000Y-65800000D03*
X185000000Y-50400000D03*
X196700000Y-50600000D03*
X196500000Y-66700000D03*
X196100000Y-70700000D03*
X195800000Y-85300000D03*
X156500000Y-110400000D03*
X161500000Y-110200000D03*
X165700000Y-111300000D03*
X171400000Y-110400000D03*
X195900000Y-103000000D03*
X195800000Y-115000000D03*
X185000000Y-111300000D03*
X180300000Y-117400000D03*
X186400000Y-120400000D03*
X195400000Y-128900000D03*
X197000000Y-130700000D03*
X196600000Y-137600000D03*
X177900000Y-138000000D03*
X185900000Y-130500000D03*
X186400000Y-124700000D03*
X176800000Y-120900000D03*
X173700000Y-128900000D03*
X173800000Y-135200000D03*
X164900000Y-134700000D03*
X155900000Y-134300000D03*
X143900000Y-136100000D03*
X144500000Y-128500000D03*
X155700000Y-115700000D03*
X148700000Y-120100000D03*
X146500000Y-116500000D03*
X155518606Y-120175919D03*
X150102752Y-125549604D03*
X147218388Y-94954985D03*
X147300000Y-108200000D03*
X139199865Y-119226615D03*
X139799012Y-111627318D03*
X138900843Y-115967799D03*
X183700000Y-57800000D03*
X176481161Y-125928875D03*
X171700000Y-58000000D03*
X175500000Y-57800000D03*
X179500000Y-57800000D03*
X190600000Y-79400000D03*
X145800000Y-79400000D03*
X152400000Y-79400000D03*
X158600000Y-79400000D03*
X165000000Y-79400000D03*
X171400000Y-79400000D03*
X177800000Y-79400000D03*
X184200000Y-79400000D03*
X183997852Y-125002138D03*
X175985404Y-131799990D03*
X148800000Y-131400000D03*
X147600000Y-113200000D03*
X155000000Y-127200000D03*
X142600000Y-131600000D03*
X146200000Y-133800000D03*
X169000000Y-130600000D03*
X188800000Y-135200000D03*
X171400000Y-136800000D03*
X182600000Y-94638200D03*
X176200000Y-94638200D03*
X169800000Y-94638200D03*
X163400000Y-94638200D03*
X157100000Y-94638200D03*
X189000000Y-94638200D03*
X146900000Y-91600000D03*
X153500000Y-91500000D03*
X159700000Y-91800000D03*
X166100000Y-91700000D03*
X172500000Y-91600000D03*
X178900000Y-91600000D03*
X185400000Y-91600000D03*
X196800000Y-68800000D03*
X192200000Y-130400000D03*
X139800000Y-126800000D03*
X177800000Y-125600000D03*
X140500010Y-127721372D03*
X177471125Y-127118839D03*
X152000000Y-108300000D03*
X152200000Y-96600000D03*
X156000000Y-96600000D03*
X152900000Y-107300000D03*
X151800000Y-114500000D03*
X162400000Y-96600000D03*
X153700000Y-116500000D03*
X168500000Y-96600000D03*
X155400990Y-118184236D03*
X175300000Y-96700000D03*
X148956111Y-124172742D03*
X180700000Y-96600000D03*
X149958586Y-124358501D03*
X187800000Y-96600000D03*
X146335989Y-117933926D03*
X148300000Y-93658198D03*
X145567173Y-117296002D03*
X146600000Y-93658198D03*
X145782853Y-120293286D03*
X154600000Y-93658198D03*
X153000000Y-93658198D03*
X145825379Y-118986071D03*
X147124335Y-121114315D03*
X161000000Y-93658198D03*
X146817166Y-120163698D03*
X159376626Y-93634824D03*
X167400000Y-93658198D03*
X146300000Y-128400000D03*
X147773511Y-121873653D03*
X165800000Y-93658198D03*
X154954479Y-117290562D03*
X173800000Y-93658198D03*
X172200000Y-93658198D03*
X147400000Y-128400000D03*
X151500000Y-123441929D03*
X180200000Y-93658198D03*
X154702905Y-118977119D03*
X178600000Y-93658198D03*
X152296610Y-125400990D03*
X186600000Y-93658198D03*
X151437606Y-124839940D03*
X185000000Y-93658198D03*
X173000000Y-124600000D03*
X173200000Y-123400000D03*
X147159089Y-124622337D03*
X168100000Y-56100000D03*
X146776407Y-125545148D03*
X172100000Y-56000000D03*
X145362419Y-124099332D03*
X176700000Y-54900000D03*
X143141601Y-124763306D03*
X153900000Y-52403957D03*
X143996952Y-122774195D03*
X158000000Y-52400000D03*
X142866608Y-122744842D03*
X162000002Y-52400000D03*
X144539613Y-124665914D03*
X181202366Y-53749530D03*
X166000000Y-52400001D03*
X140200000Y-115100000D03*
D14*
X147500000Y-103100000D02*
X147500000Y-108000000D01*
X147500000Y-108000000D02*
X147300000Y-108200000D01*
X141500000Y-114200000D02*
X139799012Y-112499012D01*
X139799012Y-112499012D02*
X139799012Y-111627318D01*
X141900000Y-102700000D02*
X142900000Y-103700000D01*
X142900000Y-103700000D02*
X142900000Y-110400000D01*
X142100000Y-87365685D02*
X142100000Y-102500000D01*
X142100000Y-102500000D02*
X141900000Y-102700000D01*
X141100000Y-85800000D02*
X141100000Y-86365685D01*
X141100000Y-86365685D02*
X142100000Y-87365685D01*
X141600000Y-75800000D02*
X141100000Y-76300000D01*
X141100000Y-76300000D02*
X141100000Y-85800000D01*
X150600000Y-69800000D02*
X146200000Y-74200000D01*
X146200000Y-74200000D02*
X146200000Y-75700000D01*
X146800000Y-60100000D02*
X146800000Y-64000000D01*
X146800000Y-64000000D02*
X146500000Y-64300000D01*
X143400000Y-62100000D02*
X143800000Y-61700000D01*
X143800000Y-61700000D02*
X143900000Y-61700000D01*
X141000000Y-64500000D02*
X143400000Y-62100000D01*
X139900000Y-50500000D02*
X139900000Y-59000000D01*
X139900000Y-59000000D02*
X139100000Y-59800000D01*
X148300000Y-51300000D02*
X147500000Y-50500000D01*
X147500000Y-50500000D02*
X139900000Y-50500000D01*
X151300000Y-55000000D02*
X164000000Y-55000000D01*
X164000000Y-55000000D02*
X164100000Y-54900000D01*
X156000000Y-58000000D02*
X155600000Y-57600000D01*
X155600000Y-57600000D02*
X151000000Y-57600000D01*
X163900000Y-58300000D02*
X156300000Y-58300000D01*
X156300000Y-58300000D02*
X156000000Y-58000000D01*
X171700000Y-58000000D02*
X164200000Y-58000000D01*
X164200000Y-58000000D02*
X163900000Y-58300000D01*
X185000000Y-63100000D02*
X182800000Y-65300000D01*
X182800000Y-65300000D02*
X182800000Y-65800000D01*
X185000000Y-61800000D02*
X185000000Y-63100000D01*
X183700000Y-60500000D02*
X185000000Y-61800000D01*
X183700000Y-57800000D02*
X183700000Y-60500000D01*
X185000000Y-50400000D02*
X183700000Y-51700000D01*
X183700000Y-51700000D02*
X183700000Y-57800000D01*
X196700000Y-50600000D02*
X185200000Y-50600000D01*
X185200000Y-50600000D02*
X185000000Y-50400000D01*
X196500000Y-66700000D02*
X196500000Y-50800000D01*
X196500000Y-50800000D02*
X196700000Y-50600000D01*
X195000000Y-69600000D02*
X195000000Y-68200000D01*
X195000000Y-68200000D02*
X196500000Y-66700000D01*
X196100000Y-70700000D02*
X195000000Y-69600000D01*
X195800000Y-85300000D02*
X195800000Y-71000000D01*
X195800000Y-71000000D02*
X196100000Y-70700000D01*
X189000000Y-94638200D02*
X189000000Y-92100000D01*
X189000000Y-92100000D02*
X195800000Y-85300000D01*
X190100000Y-100000000D02*
X190100000Y-95738200D01*
X190100000Y-95738200D02*
X189000000Y-94638200D01*
X185000000Y-105100000D02*
X190100000Y-100000000D01*
X185000000Y-111300000D02*
X185000000Y-105100000D01*
X164500000Y-101834315D02*
X164500000Y-95738200D01*
X164500000Y-95738200D02*
X163400000Y-94638200D01*
X156500000Y-110400000D02*
X156500000Y-109834315D01*
X156500000Y-109834315D02*
X164500000Y-101834315D01*
X189700000Y-109200000D02*
X172600000Y-109200000D01*
X172600000Y-109200000D02*
X171400000Y-110400000D01*
X195900000Y-103000000D02*
X189700000Y-109200000D01*
X195800000Y-115000000D02*
X195800000Y-103100000D01*
X195800000Y-103100000D02*
X195900000Y-103000000D01*
X185000000Y-111300000D02*
X192100000Y-111300000D01*
X192100000Y-111300000D02*
X195800000Y-115000000D01*
X180300000Y-117400000D02*
X185000000Y-112700000D01*
X185000000Y-112700000D02*
X185000000Y-111300000D01*
X186400000Y-120400000D02*
X183300000Y-120400000D01*
X183300000Y-120400000D02*
X180300000Y-117400000D01*
X195400000Y-128900000D02*
X186900000Y-120400000D01*
X186900000Y-120400000D02*
X186400000Y-120400000D01*
X196600000Y-137600000D02*
X196600000Y-131100000D01*
X196600000Y-131100000D02*
X197000000Y-130700000D01*
X177900000Y-138000000D02*
X178300000Y-137600000D01*
X178300000Y-137600000D02*
X196600000Y-137600000D01*
X188800000Y-135200000D02*
X180700000Y-135200000D01*
X180700000Y-135200000D02*
X177900000Y-138000000D01*
X185900000Y-130500000D02*
X188800000Y-133400000D01*
X188800000Y-133400000D02*
X188800000Y-135200000D01*
X186400000Y-124700000D02*
X186400000Y-130000000D01*
X186400000Y-130000000D02*
X185900000Y-130500000D01*
X176800000Y-120900000D02*
X180600000Y-124700000D01*
X180600000Y-124700000D02*
X186400000Y-124700000D01*
X176481161Y-125928875D02*
X176481161Y-121218839D01*
X176481161Y-121218839D02*
X176800000Y-120900000D01*
X173700000Y-128900000D02*
X176481161Y-126118839D01*
X176481161Y-126118839D02*
X176481161Y-125928875D01*
X175985404Y-131799990D02*
X175985404Y-131185404D01*
X175985404Y-131185404D02*
X173700000Y-128900000D01*
X173800000Y-135200000D02*
X175985404Y-133014596D01*
X175985404Y-133014596D02*
X175985404Y-131799990D01*
X171400000Y-136800000D02*
X172200000Y-136800000D01*
X172200000Y-136800000D02*
X173800000Y-135200000D01*
X164900000Y-134700000D02*
X169300000Y-134700000D01*
X169300000Y-134700000D02*
X171400000Y-136800000D01*
X155900000Y-134300000D02*
X156300000Y-134700000D01*
X156300000Y-134700000D02*
X164900000Y-134700000D01*
X146600000Y-133400000D02*
X155000000Y-133400000D01*
X155000000Y-133400000D02*
X155900000Y-134300000D01*
X143900000Y-136100000D02*
X146600000Y-133400000D01*
X146200000Y-133800000D02*
X143900000Y-136100000D01*
X144500000Y-128500000D02*
X143934315Y-128500000D01*
X143934315Y-128500000D02*
X142600000Y-129834315D01*
X142600000Y-129834315D02*
X142600000Y-131034315D01*
X142600000Y-131034315D02*
X142600000Y-131600000D01*
X147434315Y-130600000D02*
X146600000Y-130600000D01*
X146600000Y-130600000D02*
X144500000Y-128500000D01*
X148800000Y-131400000D02*
X148234315Y-131400000D01*
X148234315Y-131400000D02*
X147434315Y-130600000D01*
D15*
X197200000Y-69200000D02*
X196800000Y-68800000D01*
X192200000Y-130400000D02*
X195800000Y-130400000D01*
X195800000Y-130400000D02*
X197200000Y-129000000D01*
X197200000Y-129000000D02*
X197200000Y-69200000D01*
D14*
X178199999Y-125999999D02*
X177800000Y-125600000D01*
X178500011Y-126300011D02*
X178199999Y-125999999D01*
X178500011Y-133765689D02*
X178500011Y-126300011D01*
X174265689Y-138000011D02*
X178500011Y-133765689D01*
X143034311Y-138000011D02*
X174265689Y-138000011D01*
X139399989Y-134365689D02*
X143034311Y-138000011D01*
X139399989Y-127200011D02*
X139399989Y-134365689D01*
X139800000Y-126800000D02*
X139399989Y-127200011D01*
X139800000Y-128987067D02*
X140500010Y-128287057D01*
X177471125Y-127118839D02*
X178100000Y-127747714D01*
X139800000Y-134200000D02*
X139800000Y-128987067D01*
X174100000Y-137600000D02*
X143200000Y-137600000D01*
X143200000Y-137600000D02*
X139800000Y-134200000D01*
X178100000Y-127747714D02*
X178100000Y-133600000D01*
X178100000Y-133600000D02*
X174100000Y-137600000D01*
X140500010Y-128287057D02*
X140500010Y-127721372D01*
X152200000Y-96600000D02*
X152000000Y-96800000D01*
X152000000Y-96800000D02*
X152000000Y-108300000D01*
X152900000Y-107300000D02*
X152400000Y-106800000D01*
X153900000Y-96600000D02*
X156000000Y-96600000D01*
X152400000Y-106800000D02*
X152400000Y-98100000D01*
X152400000Y-98100000D02*
X153900000Y-96600000D01*
X162400000Y-96600000D02*
X162400000Y-100100000D01*
X162400000Y-100100000D02*
X151500000Y-111000000D01*
X151500000Y-111000000D02*
X151500000Y-113634315D01*
X151500000Y-113634315D02*
X151800000Y-113934315D01*
X151800000Y-113934315D02*
X151800000Y-114500000D01*
X166600000Y-98500000D02*
X166600000Y-103700000D01*
X168500000Y-96600000D02*
X166600000Y-98500000D01*
X155199999Y-115100001D02*
X153900000Y-116400000D01*
X153900000Y-116400000D02*
X153900000Y-116500000D01*
X153900000Y-116500000D02*
X153700000Y-116500000D01*
X166600000Y-103700000D02*
X155199999Y-115100001D01*
X166600000Y-103600000D02*
X166600000Y-103700000D01*
X155966675Y-118184236D02*
X155400990Y-118184236D01*
X175300000Y-99228572D02*
X156344336Y-118184236D01*
X175300000Y-96700000D02*
X175300000Y-99228572D01*
X156344336Y-118184236D02*
X155966675Y-118184236D01*
X150294107Y-123659500D02*
X149469353Y-123659500D01*
X151773127Y-124140939D02*
X150775546Y-124140939D01*
X151777685Y-124145497D02*
X151773127Y-124140939D01*
X154054503Y-124145497D02*
X151777685Y-124145497D01*
X180700000Y-96600000D02*
X180700000Y-97500000D01*
X149356110Y-123772743D02*
X148956111Y-124172742D01*
X150775546Y-124140939D02*
X150294107Y-123659500D01*
X149469353Y-123659500D02*
X149356110Y-123772743D01*
X180700000Y-97500000D02*
X154054503Y-124145497D01*
X151700085Y-126100000D02*
X150358585Y-124758500D01*
X183292858Y-96600000D02*
X153792858Y-126100000D01*
X187800000Y-96600000D02*
X183292858Y-96600000D01*
X150358585Y-124758500D02*
X149958586Y-124358501D01*
X153792858Y-126100000D02*
X151700085Y-126100000D01*
X146808930Y-117933926D02*
X146335989Y-117933926D01*
X149401978Y-94760176D02*
X149401978Y-115340878D01*
X149401978Y-115340878D02*
X146808930Y-117933926D01*
X148300000Y-93658198D02*
X149401978Y-94760176D01*
X146600000Y-93658198D02*
X147165685Y-93658198D01*
X149000000Y-100100000D02*
X149000000Y-115178570D01*
X148000000Y-94492513D02*
X148000000Y-99100000D01*
X147165685Y-93658198D02*
X148000000Y-94492513D01*
X148000000Y-99100000D02*
X149000000Y-100100000D01*
X149000000Y-115178570D02*
X146961396Y-117217174D01*
X145646001Y-117217174D02*
X145567173Y-117296002D01*
X146961396Y-117217174D02*
X145646001Y-117217174D01*
X145782853Y-120088575D02*
X145782853Y-120293286D01*
X150299010Y-115572418D02*
X145782853Y-120088575D01*
X154034315Y-93658198D02*
X150299010Y-97393503D01*
X154600000Y-93658198D02*
X154034315Y-93658198D01*
X150299010Y-97393503D02*
X150299010Y-115572418D01*
X145800000Y-120000000D02*
X145800000Y-120276139D01*
X145800000Y-120276139D02*
X145782853Y-120293286D01*
X152600001Y-94058197D02*
X153000000Y-93658198D01*
X149899999Y-115407143D02*
X149900000Y-96758198D01*
X146321071Y-118986071D02*
X149899999Y-115407143D01*
X149900000Y-96758198D02*
X152600001Y-94058197D01*
X145825379Y-118986071D02*
X146321071Y-118986071D01*
X159800989Y-94857209D02*
X159800989Y-102097821D01*
X151100990Y-115899010D02*
X147524334Y-119475666D01*
X147524334Y-120714316D02*
X147124335Y-121114315D01*
X161000000Y-93658198D02*
X159800989Y-94857209D01*
X159800989Y-102097821D02*
X151100990Y-110797820D01*
X151100990Y-110797820D02*
X151100990Y-115899010D01*
X147524334Y-119475666D02*
X147524334Y-120714316D01*
X150701979Y-110632545D02*
X150701979Y-115733735D01*
X146817166Y-119618548D02*
X146817166Y-120163698D01*
X150701979Y-115733735D02*
X146817166Y-119618548D01*
X159376626Y-101957898D02*
X150701979Y-110632545D01*
X159376626Y-93634824D02*
X159376626Y-101957898D01*
X166200989Y-94857209D02*
X167000001Y-94058197D01*
X153936703Y-115699011D02*
X166200989Y-103434725D01*
X153366467Y-115699011D02*
X153936703Y-115699011D01*
X153000999Y-117681547D02*
X153000999Y-116064479D01*
X167000001Y-94058197D02*
X167400000Y-93658198D01*
X147858100Y-122824446D02*
X153000999Y-117681547D01*
X153000999Y-116064479D02*
X153366467Y-115699011D01*
X146300000Y-128400000D02*
X147858100Y-126841900D01*
X166200989Y-103434725D02*
X166200989Y-94857209D01*
X147858100Y-126841900D02*
X147858100Y-122824446D01*
X165800000Y-93658198D02*
X165800000Y-103271428D01*
X165800000Y-103271428D02*
X153771428Y-115300000D01*
X153771428Y-115300000D02*
X153201192Y-115300000D01*
X153201192Y-115300000D02*
X152601988Y-115899204D01*
X152601988Y-115899204D02*
X152601988Y-117498012D01*
X152601988Y-117498012D02*
X148626346Y-121473654D01*
X148626346Y-121473654D02*
X148173510Y-121473654D01*
X148173510Y-121473654D02*
X147773511Y-121873653D01*
X156673724Y-117290562D02*
X155520164Y-117290562D01*
X173800000Y-100164286D02*
X156673724Y-117290562D01*
X173800000Y-93658198D02*
X173800000Y-100164286D01*
X155520164Y-117290562D02*
X154954479Y-117290562D01*
X147400000Y-128400000D02*
X148257110Y-127542890D01*
X148257110Y-127542890D02*
X148257110Y-122989722D01*
X148257110Y-122989722D02*
X154814078Y-116432754D01*
X156967246Y-116432754D02*
X172200000Y-101200000D01*
X172200000Y-94223883D02*
X172200000Y-93658198D01*
X154814078Y-116432754D02*
X156967246Y-116432754D01*
X172200000Y-101200000D02*
X172200000Y-94223883D01*
X155029908Y-119676129D02*
X152223871Y-119676129D01*
X150300000Y-122807614D02*
X150934315Y-123441929D01*
X156344494Y-119312649D02*
X155393388Y-119312649D01*
X150934315Y-123441929D02*
X151500000Y-123441929D01*
X150300000Y-121600000D02*
X150300000Y-122807614D01*
X155393388Y-119312649D02*
X155029908Y-119676129D01*
X152223871Y-119676129D02*
X150300000Y-121600000D01*
X180200000Y-93658198D02*
X180200000Y-95457143D01*
X180200000Y-95457143D02*
X156344494Y-119312649D01*
X178600000Y-96492858D02*
X156208430Y-118884428D01*
X178600000Y-93658198D02*
X178600000Y-96492858D01*
X156208430Y-118884428D02*
X154795596Y-118884428D01*
X154795596Y-118884428D02*
X154702905Y-118977119D01*
X181498020Y-97775512D02*
X181498020Y-97830552D01*
X152862295Y-125400990D02*
X152296610Y-125400990D01*
X184673532Y-94600000D02*
X181498020Y-97775512D01*
X153927582Y-125400990D02*
X152862295Y-125400990D01*
X181498020Y-97830552D02*
X153927582Y-125400990D01*
X186600000Y-93658198D02*
X185658198Y-94600000D01*
X185658198Y-94600000D02*
X184673532Y-94600000D01*
X181099011Y-97559187D02*
X181099010Y-97665276D01*
X185000000Y-93658198D02*
X181099011Y-97559187D01*
X181099010Y-97665276D02*
X154062297Y-124701989D01*
X154062297Y-124701989D02*
X151575557Y-124701989D01*
X151575557Y-124701989D02*
X151437606Y-124839940D01*
D15*
X172034315Y-125000000D02*
X168001700Y-125000000D01*
X168001700Y-125000000D02*
X165999240Y-122997540D01*
X173000000Y-124600000D02*
X172434315Y-124600000D01*
X172434315Y-124600000D02*
X172034315Y-125000000D01*
X173200000Y-123400000D02*
X170399660Y-123400000D01*
X170399660Y-123400000D02*
X169997200Y-122997540D01*
D14*
X147159089Y-124056652D02*
X147159089Y-124622337D01*
X147159089Y-122670377D02*
X147159089Y-124056652D01*
X145498022Y-74030550D02*
X144800001Y-74728571D01*
X145498022Y-59901978D02*
X145498022Y-74030550D01*
X168100000Y-56100000D02*
X149300001Y-56100000D01*
X144800001Y-74728571D02*
X144800001Y-120311289D01*
X149300001Y-56100000D02*
X145498022Y-59901978D01*
X144800001Y-120311289D02*
X147159089Y-122670377D01*
X144400990Y-74563296D02*
X144400990Y-120476564D01*
X172100000Y-56000000D02*
X170000990Y-53900990D01*
X170000990Y-53900990D02*
X150934725Y-53900990D01*
X146376408Y-125145149D02*
X146776407Y-125545148D01*
X146376408Y-124392912D02*
X146376408Y-125145149D01*
X146502978Y-124266342D02*
X146376408Y-124392912D01*
X146502978Y-122578552D02*
X146502978Y-124266342D01*
X150934725Y-53900990D02*
X145099012Y-59736702D01*
X145099012Y-59736702D02*
X145099011Y-73865275D01*
X144400990Y-120476564D02*
X146502978Y-122578552D01*
X145099011Y-73865275D02*
X144400990Y-74563296D01*
X145762418Y-123699333D02*
X145362419Y-124099332D01*
X146100989Y-123360762D02*
X145762418Y-123699333D01*
X146100989Y-122740851D02*
X146100989Y-123360762D01*
X144001979Y-120641841D02*
X146100989Y-122740851D01*
X144001979Y-74298021D02*
X144001979Y-120641841D01*
X176700000Y-54900000D02*
X175301980Y-53501980D01*
X144700000Y-59571428D02*
X144700000Y-73600000D01*
X175301980Y-53501980D02*
X150769450Y-53501979D01*
X150769450Y-53501979D02*
X144700000Y-59571428D01*
X144700000Y-73600000D02*
X144001979Y-74298021D01*
X143541600Y-124363307D02*
X143141601Y-124763306D01*
X145051415Y-122853492D02*
X143541600Y-124363307D01*
X143203959Y-120972393D02*
X145051415Y-122819849D01*
X143203958Y-112869171D02*
X143203959Y-120972393D01*
X139800991Y-63341865D02*
X139800991Y-109466202D01*
X150738899Y-52403957D02*
X139800991Y-63341865D01*
X153900000Y-52403957D02*
X150738899Y-52403957D01*
X145051415Y-122819849D02*
X145051415Y-122853492D01*
X139800991Y-109466202D02*
X143203958Y-112869171D01*
X158000000Y-52400000D02*
X157304956Y-51704956D01*
X143596953Y-122374196D02*
X143996952Y-122774195D01*
X139401980Y-109631477D02*
X142804947Y-113034446D01*
X142804947Y-121582190D02*
X143596953Y-122374196D01*
X139401980Y-63176590D02*
X139401980Y-109631477D01*
X150873614Y-51704956D02*
X139401980Y-63176590D01*
X142804947Y-113034446D02*
X142804947Y-121582190D01*
X157304956Y-51704956D02*
X150873614Y-51704956D01*
X160905947Y-51305945D02*
X150708339Y-51305945D01*
X139002969Y-109796752D02*
X142298693Y-113092476D01*
X150708339Y-51305945D02*
X139002970Y-63011314D01*
X162000002Y-52400000D02*
X160905947Y-51305945D01*
X142466609Y-122344843D02*
X142866608Y-122744842D01*
X142298693Y-122176927D02*
X142466609Y-122344843D01*
X142298693Y-113092476D02*
X142298693Y-122176927D01*
X139002970Y-63011314D02*
X139002969Y-109796752D01*
X181202366Y-53749530D02*
X180555806Y-53102970D01*
X140200002Y-109300927D02*
X143602968Y-112703895D01*
X143602968Y-112703895D02*
X143602969Y-120807117D01*
X150604174Y-53102968D02*
X140200002Y-63507140D01*
X145213844Y-123401717D02*
X145069841Y-123401717D01*
X145069841Y-123401717D02*
X144539613Y-123931945D01*
X145690810Y-122924751D02*
X145213844Y-123401717D01*
X143602969Y-120807117D02*
X145690810Y-122894958D01*
X140200002Y-63507140D02*
X140200002Y-109300927D01*
X180555806Y-53102970D02*
X150604174Y-53102968D01*
X144539613Y-123931945D02*
X144539613Y-124100229D01*
X144539613Y-124100229D02*
X144539613Y-124665914D01*
X145690810Y-122894958D02*
X145690810Y-122924751D01*
X150543064Y-50906934D02*
X164506933Y-50906934D01*
X138603958Y-113503958D02*
X138603958Y-62846040D01*
X140200000Y-115100000D02*
X138603958Y-113503958D01*
X138603958Y-62846040D02*
X150543064Y-50906934D01*
X164506933Y-50906934D02*
X165600001Y-52000002D01*
X165600001Y-52000002D02*
X166000000Y-52400001D01*
G36*
X196320478Y-49589396D02*
X196625034Y-49695454D01*
X196898522Y-49866348D01*
X197127352Y-50093585D01*
X197300152Y-50365876D01*
X197408332Y-50669681D01*
X197450001Y-51019131D01*
X197450001Y-68177209D01*
X197309809Y-68037017D01*
X196979021Y-67900000D01*
X196620979Y-67900000D01*
X196290191Y-68037017D01*
X196037017Y-68290191D01*
X195900000Y-68620979D01*
X195900000Y-68979021D01*
X196037017Y-69309809D01*
X196290191Y-69562983D01*
X196500001Y-69649889D01*
X196500000Y-128710051D01*
X195510052Y-129700000D01*
X192772792Y-129700000D01*
X192709809Y-129637017D01*
X192379021Y-129500000D01*
X192020979Y-129500000D01*
X191690191Y-129637017D01*
X191437017Y-129890191D01*
X191300000Y-130220979D01*
X191300000Y-130579021D01*
X191437017Y-130909809D01*
X191690191Y-131162983D01*
X192020979Y-131300000D01*
X192379021Y-131300000D01*
X192709809Y-131162983D01*
X192772792Y-131100000D01*
X195731065Y-131100000D01*
X195800000Y-131113712D01*
X195868935Y-131100000D01*
X195868940Y-131100000D01*
X196073126Y-131059385D01*
X196304671Y-130904671D01*
X196343724Y-130846224D01*
X197450000Y-129739949D01*
X197450000Y-136969253D01*
X197410604Y-137320479D01*
X197304547Y-137625033D01*
X197133652Y-137898522D01*
X196906415Y-138127352D01*
X196634124Y-138300152D01*
X196330323Y-138408331D01*
X195980877Y-138450000D01*
X174672202Y-138450000D01*
X174698264Y-138432586D01*
X174731738Y-138382489D01*
X178882493Y-134231735D01*
X178932586Y-134198264D01*
X179065198Y-133999797D01*
X179100011Y-133824780D01*
X179100011Y-133824777D01*
X179111764Y-133765689D01*
X179100011Y-133706601D01*
X179100011Y-129899701D01*
X181197710Y-129899701D01*
X181197710Y-130695299D01*
X181502172Y-131430335D01*
X182064745Y-131992908D01*
X182799781Y-132297370D01*
X183595379Y-132297370D01*
X184330415Y-131992908D01*
X184892988Y-131430335D01*
X185197450Y-130695299D01*
X185197450Y-129899701D01*
X184892988Y-129164665D01*
X184330415Y-128602092D01*
X183595379Y-128297630D01*
X182799781Y-128297630D01*
X182064745Y-128602092D01*
X181502172Y-129164665D01*
X181197710Y-129899701D01*
X179100011Y-129899701D01*
X179100011Y-126359097D01*
X179111764Y-126300010D01*
X179100011Y-126240924D01*
X179100011Y-126240920D01*
X179065198Y-126065903D01*
X178932586Y-125867436D01*
X178882489Y-125833962D01*
X178700000Y-125651473D01*
X178700000Y-125420979D01*
X178562983Y-125090191D01*
X178309809Y-124837017D01*
X177979021Y-124700000D01*
X177620979Y-124700000D01*
X177290191Y-124837017D01*
X177037017Y-125090191D01*
X176900000Y-125420979D01*
X176900000Y-125779021D01*
X177037017Y-126109809D01*
X177188826Y-126261618D01*
X176961316Y-126355856D01*
X176708142Y-126609030D01*
X176571125Y-126939818D01*
X176571125Y-127297860D01*
X176708142Y-127628648D01*
X176961316Y-127881822D01*
X177292104Y-128018839D01*
X177500000Y-128018839D01*
X177500001Y-133351471D01*
X173851473Y-137000000D01*
X143448528Y-137000000D01*
X140400000Y-133951473D01*
X140400000Y-129899701D01*
X150798990Y-129899701D01*
X150798990Y-130695299D01*
X151103452Y-131430335D01*
X151666025Y-131992908D01*
X152401061Y-132297370D01*
X153196659Y-132297370D01*
X153931695Y-131992908D01*
X154494268Y-131430335D01*
X154798730Y-130695299D01*
X154798730Y-129899701D01*
X154494268Y-129164665D01*
X153931695Y-128602092D01*
X153196659Y-128297630D01*
X152401061Y-128297630D01*
X151666025Y-128602092D01*
X151103452Y-129164665D01*
X150798990Y-129899701D01*
X140400000Y-129899701D01*
X140400000Y-129235594D01*
X140882492Y-128753103D01*
X140932585Y-128719632D01*
X141065197Y-128521165D01*
X141088088Y-128406086D01*
X141262993Y-128231181D01*
X141400010Y-127900393D01*
X141400010Y-127542351D01*
X141262993Y-127211563D01*
X141009819Y-126958389D01*
X140700000Y-126830058D01*
X140700000Y-126620979D01*
X140562983Y-126290191D01*
X140309809Y-126037017D01*
X139979021Y-125900000D01*
X139620979Y-125900000D01*
X139290191Y-126037017D01*
X139037017Y-126290191D01*
X138900000Y-126620979D01*
X138900000Y-126868328D01*
X138834802Y-126965904D01*
X138799989Y-127140921D01*
X138799989Y-127140925D01*
X138788236Y-127200011D01*
X138799989Y-127259097D01*
X138799990Y-134306598D01*
X138788236Y-134365689D01*
X138799990Y-134424780D01*
X138834803Y-134599797D01*
X138967415Y-134798264D01*
X139017509Y-134831736D01*
X142568264Y-138382492D01*
X142601736Y-138432586D01*
X142627798Y-138450000D01*
X140030747Y-138450000D01*
X139679521Y-138410604D01*
X139374967Y-138304547D01*
X139101478Y-138133652D01*
X138872648Y-137906415D01*
X138699848Y-137634124D01*
X138591669Y-137330323D01*
X138550000Y-136980877D01*
X138550000Y-114298527D01*
X139300000Y-115048528D01*
X139300000Y-115279021D01*
X139437017Y-115609809D01*
X139690191Y-115862983D01*
X140020979Y-116000000D01*
X140379021Y-116000000D01*
X140709809Y-115862983D01*
X140962983Y-115609809D01*
X141100000Y-115279021D01*
X141100000Y-114920979D01*
X140962983Y-114590191D01*
X140709809Y-114337017D01*
X140379021Y-114200000D01*
X140148528Y-114200000D01*
X139203958Y-113255431D01*
X139203958Y-110846268D01*
X141698693Y-113341005D01*
X141698694Y-122117836D01*
X141686940Y-122176927D01*
X141733507Y-122411035D01*
X141819737Y-122540086D01*
X141866119Y-122609502D01*
X141916213Y-122642974D01*
X141966608Y-122693369D01*
X141966608Y-122923863D01*
X142103625Y-123254651D01*
X142356799Y-123507825D01*
X142687587Y-123644842D01*
X143045629Y-123644842D01*
X143376417Y-123507825D01*
X143417104Y-123467139D01*
X143487143Y-123537178D01*
X143509812Y-123546568D01*
X143193074Y-123863306D01*
X142962580Y-123863306D01*
X142631792Y-124000323D01*
X142378618Y-124253497D01*
X142241601Y-124584285D01*
X142241601Y-124942327D01*
X142378618Y-125273115D01*
X142631792Y-125526289D01*
X142962580Y-125663306D01*
X143320622Y-125663306D01*
X143651410Y-125526289D01*
X143889303Y-125288396D01*
X144029804Y-125428897D01*
X144360592Y-125565914D01*
X144718634Y-125565914D01*
X145049422Y-125428897D01*
X145302596Y-125175723D01*
X145375660Y-124999332D01*
X145541440Y-124999332D01*
X145776408Y-124902005D01*
X145776408Y-125086063D01*
X145764655Y-125145149D01*
X145776408Y-125204235D01*
X145776408Y-125204240D01*
X145808610Y-125366127D01*
X145811222Y-125379257D01*
X145844391Y-125428897D01*
X145876407Y-125476813D01*
X145876407Y-125724169D01*
X146013424Y-126054957D01*
X146266598Y-126308131D01*
X146597386Y-126445148D01*
X146955428Y-126445148D01*
X147258100Y-126319777D01*
X147258100Y-126593372D01*
X146351473Y-127500000D01*
X146120979Y-127500000D01*
X145790191Y-127637017D01*
X145537017Y-127890191D01*
X145400000Y-128220979D01*
X145400000Y-128579021D01*
X145537017Y-128909809D01*
X145790191Y-129162983D01*
X146120979Y-129300000D01*
X146479021Y-129300000D01*
X146809809Y-129162983D01*
X146850000Y-129122792D01*
X146890191Y-129162983D01*
X147220979Y-129300000D01*
X147579021Y-129300000D01*
X147909809Y-129162983D01*
X148162983Y-128909809D01*
X148300000Y-128579021D01*
X148300000Y-128348528D01*
X148639594Y-128008935D01*
X148689685Y-127975465D01*
X148723155Y-127925374D01*
X148723158Y-127925371D01*
X148822297Y-127776998D01*
X148828122Y-127747714D01*
X148857110Y-127601981D01*
X148857110Y-127601978D01*
X148868863Y-127542890D01*
X148857110Y-127483802D01*
X148857110Y-125072742D01*
X149135132Y-125072742D01*
X149322447Y-124995154D01*
X149448777Y-125121484D01*
X149779565Y-125258501D01*
X150010059Y-125258501D01*
X151234038Y-126482481D01*
X151267510Y-126532575D01*
X151465977Y-126665187D01*
X151640994Y-126700000D01*
X151640998Y-126700000D01*
X151700084Y-126711753D01*
X151759170Y-126700000D01*
X153733772Y-126700000D01*
X153792858Y-126711753D01*
X153851944Y-126700000D01*
X153851949Y-126700000D01*
X154026966Y-126665187D01*
X154072010Y-126635089D01*
X162188350Y-126635089D01*
X162188350Y-127355911D01*
X162464197Y-128021864D01*
X162973896Y-128531563D01*
X163639849Y-128807410D01*
X164360671Y-128807410D01*
X165026624Y-128531563D01*
X165536323Y-128021864D01*
X165812170Y-127355911D01*
X165812170Y-126635089D01*
X165536323Y-125969136D01*
X165026624Y-125459437D01*
X164360671Y-125183590D01*
X163639849Y-125183590D01*
X162973896Y-125459437D01*
X162464197Y-125969136D01*
X162188350Y-126635089D01*
X154072010Y-126635089D01*
X154225433Y-126532575D01*
X154258907Y-126482478D01*
X158104256Y-122637129D01*
X164187330Y-122637129D01*
X164187330Y-123357951D01*
X164463177Y-124023904D01*
X164972876Y-124533603D01*
X165638829Y-124809450D01*
X166359651Y-124809450D01*
X166686016Y-124674265D01*
X167324937Y-125313186D01*
X166971856Y-125459437D01*
X166462157Y-125969136D01*
X166186310Y-126635089D01*
X166186310Y-127355911D01*
X166462157Y-128021864D01*
X166971856Y-128531563D01*
X167637809Y-128807410D01*
X168358631Y-128807410D01*
X169024584Y-128531563D01*
X169534283Y-128021864D01*
X169810130Y-127355911D01*
X169810130Y-126635089D01*
X169534283Y-125969136D01*
X169265147Y-125700000D01*
X170729253Y-125700000D01*
X170460117Y-125969136D01*
X170184270Y-126635089D01*
X170184270Y-127355911D01*
X170460117Y-128021864D01*
X170969816Y-128531563D01*
X171635769Y-128807410D01*
X172356591Y-128807410D01*
X173022544Y-128531563D01*
X173532243Y-128021864D01*
X173808090Y-127355911D01*
X173808090Y-126635089D01*
X173532243Y-125969136D01*
X173063107Y-125500000D01*
X173179021Y-125500000D01*
X173509809Y-125362983D01*
X173762983Y-125109809D01*
X173900000Y-124779021D01*
X173900000Y-124420979D01*
X173768729Y-124104063D01*
X173962983Y-123909809D01*
X174100000Y-123579021D01*
X174100000Y-123220979D01*
X173962983Y-122890191D01*
X173709809Y-122637017D01*
X173379021Y-122500000D01*
X173020979Y-122500000D01*
X172690191Y-122637017D01*
X172627208Y-122700000D01*
X171809110Y-122700000D01*
X171809110Y-122637129D01*
X171533263Y-121971176D01*
X171023564Y-121461477D01*
X170357611Y-121185630D01*
X169636789Y-121185630D01*
X168970836Y-121461477D01*
X168461137Y-121971176D01*
X168185290Y-122637129D01*
X168185290Y-123357951D01*
X168461137Y-124023904D01*
X168737233Y-124300000D01*
X168291649Y-124300000D01*
X167675965Y-123684316D01*
X167811150Y-123357951D01*
X167811150Y-122637129D01*
X167535303Y-121971176D01*
X167025604Y-121461477D01*
X166359651Y-121185630D01*
X165638829Y-121185630D01*
X164972876Y-121461477D01*
X164463177Y-121971176D01*
X164187330Y-122637129D01*
X158104256Y-122637129D01*
X162178555Y-118562830D01*
X162178555Y-120311490D01*
X162217361Y-120506580D01*
X162327870Y-120671970D01*
X162493260Y-120782479D01*
X162688350Y-120821285D01*
X165312170Y-120821285D01*
X165507260Y-120782479D01*
X165672650Y-120671970D01*
X165783159Y-120506580D01*
X165821965Y-120311490D01*
X165821965Y-120221036D01*
X166783835Y-120221036D01*
X166916390Y-120497096D01*
X167571815Y-120797103D01*
X168292156Y-120823453D01*
X168967747Y-120572135D01*
X169080050Y-120497096D01*
X169212605Y-120221036D01*
X167998220Y-119006651D01*
X166783835Y-120221036D01*
X165821965Y-120221036D01*
X165821965Y-119293516D01*
X166174347Y-119293516D01*
X166425665Y-119969107D01*
X166500704Y-120081410D01*
X166776764Y-120213965D01*
X167991149Y-118999580D01*
X168005291Y-118999580D01*
X169219676Y-120213965D01*
X169495736Y-120081410D01*
X169795743Y-119425985D01*
X169822093Y-118705644D01*
X169797365Y-118639169D01*
X170184270Y-118639169D01*
X170184270Y-119359991D01*
X170460117Y-120025944D01*
X170969816Y-120535643D01*
X171635769Y-120811490D01*
X172356591Y-120811490D01*
X173022544Y-120535643D01*
X173532243Y-120025944D01*
X173808090Y-119359991D01*
X173808090Y-118639169D01*
X173532243Y-117973216D01*
X173022544Y-117463517D01*
X172356591Y-117187670D01*
X171635769Y-117187670D01*
X170969816Y-117463517D01*
X170460117Y-117973216D01*
X170184270Y-118639169D01*
X169797365Y-118639169D01*
X169570775Y-118030053D01*
X169495736Y-117917750D01*
X169219676Y-117785195D01*
X168005291Y-118999580D01*
X167991149Y-118999580D01*
X166776764Y-117785195D01*
X166500704Y-117917750D01*
X166200697Y-118573175D01*
X166174347Y-119293516D01*
X165821965Y-119293516D01*
X165821965Y-117778124D01*
X166783835Y-117778124D01*
X167998220Y-118992509D01*
X169212605Y-117778124D01*
X169080050Y-117502064D01*
X168424625Y-117202057D01*
X167704284Y-117175707D01*
X167028693Y-117427025D01*
X166916390Y-117502064D01*
X166783835Y-117778124D01*
X165821965Y-117778124D01*
X165821965Y-117687670D01*
X165783159Y-117492580D01*
X165672650Y-117327190D01*
X165507260Y-117216681D01*
X165312170Y-117177875D01*
X163563510Y-117177875D01*
X168939184Y-111802201D01*
X179696570Y-111802201D01*
X179696570Y-112597799D01*
X180001032Y-113332835D01*
X180563605Y-113895408D01*
X181298641Y-114199870D01*
X182094239Y-114199870D01*
X182829275Y-113895408D01*
X183391848Y-113332835D01*
X183696310Y-112597799D01*
X183696310Y-111802201D01*
X183391848Y-111067165D01*
X182829275Y-110504592D01*
X182094239Y-110200130D01*
X181298641Y-110200130D01*
X180563605Y-110504592D01*
X180001032Y-111067165D01*
X179696570Y-111802201D01*
X168939184Y-111802201D01*
X183541386Y-97200000D01*
X187127208Y-97200000D01*
X187290191Y-97362983D01*
X187620979Y-97500000D01*
X187979021Y-97500000D01*
X188309809Y-97362983D01*
X188562983Y-97109809D01*
X188700000Y-96779021D01*
X188700000Y-96420979D01*
X188562983Y-96090191D01*
X188309809Y-95837017D01*
X187979021Y-95700000D01*
X187620979Y-95700000D01*
X187290191Y-95837017D01*
X187127208Y-96000000D01*
X184122060Y-96000000D01*
X184922060Y-95200000D01*
X185599112Y-95200000D01*
X185658198Y-95211753D01*
X185717284Y-95200000D01*
X185717289Y-95200000D01*
X185892306Y-95165187D01*
X186090773Y-95032575D01*
X186124247Y-94982479D01*
X186548527Y-94558198D01*
X186779021Y-94558198D01*
X187109809Y-94421181D01*
X187362983Y-94168007D01*
X187500000Y-93837219D01*
X187500000Y-93479177D01*
X187362983Y-93148389D01*
X187109809Y-92895215D01*
X186779021Y-92758198D01*
X186420979Y-92758198D01*
X186090191Y-92895215D01*
X185837017Y-93148389D01*
X185800000Y-93237756D01*
X185762983Y-93148389D01*
X185509809Y-92895215D01*
X185179021Y-92758198D01*
X184820979Y-92758198D01*
X184490191Y-92895215D01*
X184237017Y-93148389D01*
X184100000Y-93479177D01*
X184100000Y-93709669D01*
X181538109Y-96271561D01*
X181462983Y-96090191D01*
X181209809Y-95837017D01*
X180879021Y-95700000D01*
X180759341Y-95700000D01*
X180765187Y-95691251D01*
X180800000Y-95516234D01*
X180800000Y-95516230D01*
X180811753Y-95457144D01*
X180800000Y-95398057D01*
X180800000Y-94330990D01*
X180962983Y-94168007D01*
X181100000Y-93837219D01*
X181100000Y-93479177D01*
X180962983Y-93148389D01*
X180709809Y-92895215D01*
X180379021Y-92758198D01*
X180020979Y-92758198D01*
X179690191Y-92895215D01*
X179437017Y-93148389D01*
X179400000Y-93237756D01*
X179362983Y-93148389D01*
X179109809Y-92895215D01*
X178779021Y-92758198D01*
X178420979Y-92758198D01*
X178090191Y-92895215D01*
X177837017Y-93148389D01*
X177700000Y-93479177D01*
X177700000Y-93837219D01*
X177837017Y-94168007D01*
X178000000Y-94330990D01*
X178000001Y-96244329D01*
X175900000Y-98344330D01*
X175900000Y-97372792D01*
X176062983Y-97209809D01*
X176200000Y-96879021D01*
X176200000Y-96520979D01*
X176062983Y-96190191D01*
X175809809Y-95937017D01*
X175479021Y-95800000D01*
X175120979Y-95800000D01*
X174790191Y-95937017D01*
X174537017Y-96190191D01*
X174400000Y-96520979D01*
X174400000Y-94330990D01*
X174562983Y-94168007D01*
X174700000Y-93837219D01*
X174700000Y-93479177D01*
X174562983Y-93148389D01*
X174309809Y-92895215D01*
X173979021Y-92758198D01*
X173620979Y-92758198D01*
X173290191Y-92895215D01*
X173037017Y-93148389D01*
X173000000Y-93237756D01*
X172962983Y-93148389D01*
X172709809Y-92895215D01*
X172379021Y-92758198D01*
X172020979Y-92758198D01*
X171690191Y-92895215D01*
X171437017Y-93148389D01*
X171300000Y-93479177D01*
X171300000Y-93837219D01*
X171437017Y-94168007D01*
X171600001Y-94330991D01*
X171600000Y-100951472D01*
X156718719Y-115832754D01*
X155315774Y-115832754D01*
X155666046Y-115482482D01*
X155666048Y-115482479D01*
X166982481Y-104166047D01*
X167032575Y-104132575D01*
X167165187Y-103934108D01*
X167200000Y-103759091D01*
X167200000Y-103759087D01*
X167211753Y-103700001D01*
X167200000Y-103640914D01*
X167200000Y-98748527D01*
X168448528Y-97500000D01*
X168679021Y-97500000D01*
X169009809Y-97362983D01*
X169262983Y-97109809D01*
X169400000Y-96779021D01*
X169400000Y-96420979D01*
X169262983Y-96090191D01*
X169009809Y-95837017D01*
X168679021Y-95700000D01*
X168320979Y-95700000D01*
X167990191Y-95837017D01*
X167737017Y-96090191D01*
X167600000Y-96420979D01*
X167600000Y-96651472D01*
X166800989Y-97450484D01*
X166800989Y-95105736D01*
X167348528Y-94558198D01*
X167579021Y-94558198D01*
X167909809Y-94421181D01*
X168162983Y-94168007D01*
X168300000Y-93837219D01*
X168300000Y-93479177D01*
X168162983Y-93148389D01*
X167909809Y-92895215D01*
X167579021Y-92758198D01*
X167220979Y-92758198D01*
X166890191Y-92895215D01*
X166637017Y-93148389D01*
X166600000Y-93237756D01*
X166562983Y-93148389D01*
X166309809Y-92895215D01*
X165979021Y-92758198D01*
X165620979Y-92758198D01*
X165290191Y-92895215D01*
X165037017Y-93148389D01*
X164900000Y-93479177D01*
X164900000Y-93837219D01*
X165037017Y-94168007D01*
X165200000Y-94330990D01*
X165200001Y-103022899D01*
X156299870Y-111923031D01*
X156299870Y-111802201D01*
X155995408Y-111067165D01*
X155432835Y-110504592D01*
X154697799Y-110200130D01*
X153902201Y-110200130D01*
X153167165Y-110504592D01*
X152604592Y-111067165D01*
X152300130Y-111802201D01*
X152300130Y-112597799D01*
X152604592Y-113332835D01*
X153167165Y-113895408D01*
X153902201Y-114199870D01*
X154023031Y-114199870D01*
X153522901Y-114700000D01*
X153260277Y-114700000D01*
X153201191Y-114688247D01*
X153142105Y-114700000D01*
X153142101Y-114700000D01*
X152967084Y-114734813D01*
X152768617Y-114867425D01*
X152735145Y-114917519D01*
X152219509Y-115433156D01*
X152169413Y-115466629D01*
X152036801Y-115665097D01*
X152001988Y-115840114D01*
X152001988Y-115840118D01*
X151990235Y-115899204D01*
X152001988Y-115958291D01*
X152001989Y-117249483D01*
X148377819Y-120873654D01*
X148232596Y-120873654D01*
X148173509Y-120861901D01*
X148114423Y-120873654D01*
X148114419Y-120873654D01*
X148103981Y-120875730D01*
X148124334Y-120773407D01*
X148124334Y-120773403D01*
X148136087Y-120714317D01*
X148124334Y-120655230D01*
X148124334Y-119724193D01*
X151483471Y-116365057D01*
X151533565Y-116331585D01*
X151666177Y-116133118D01*
X151700990Y-115958101D01*
X151700990Y-115958097D01*
X151712743Y-115899011D01*
X151700990Y-115839925D01*
X151700990Y-115400000D01*
X151979021Y-115400000D01*
X152309809Y-115262983D01*
X152562983Y-115009809D01*
X152700000Y-114679021D01*
X152700000Y-114320979D01*
X152562983Y-113990191D01*
X152388078Y-113815286D01*
X152365187Y-113700207D01*
X152232575Y-113501740D01*
X152182479Y-113468267D01*
X152100000Y-113385788D01*
X152100000Y-111248527D01*
X162782481Y-100566047D01*
X162832575Y-100532575D01*
X162922232Y-100398395D01*
X162965187Y-100334109D01*
X162973501Y-100292313D01*
X163000000Y-100159091D01*
X163000000Y-100159088D01*
X163011753Y-100100000D01*
X163000000Y-100040910D01*
X163000000Y-97272792D01*
X163162983Y-97109809D01*
X163300000Y-96779021D01*
X163300000Y-96420979D01*
X163162983Y-96090191D01*
X162909809Y-95837017D01*
X162579021Y-95700000D01*
X162220979Y-95700000D01*
X161890191Y-95837017D01*
X161637017Y-96090191D01*
X161500000Y-96420979D01*
X161500000Y-96779021D01*
X161637017Y-97109809D01*
X161800000Y-97272792D01*
X161800001Y-99851471D01*
X160400989Y-101250483D01*
X160400989Y-95105736D01*
X160948528Y-94558198D01*
X161179021Y-94558198D01*
X161509809Y-94421181D01*
X161762983Y-94168007D01*
X161900000Y-93837219D01*
X161900000Y-93479177D01*
X161762983Y-93148389D01*
X161509809Y-92895215D01*
X161179021Y-92758198D01*
X160820979Y-92758198D01*
X160490191Y-92895215D01*
X160237017Y-93148389D01*
X160193154Y-93254284D01*
X160139609Y-93125015D01*
X159886435Y-92871841D01*
X159555647Y-92734824D01*
X159197605Y-92734824D01*
X158866817Y-92871841D01*
X158613643Y-93125015D01*
X158476626Y-93455803D01*
X158476626Y-93813845D01*
X158613643Y-94144633D01*
X158776626Y-94307616D01*
X158776627Y-101709369D01*
X153672597Y-106813400D01*
X153662983Y-106790191D01*
X153409809Y-106537017D01*
X153079021Y-106400000D01*
X153000000Y-106400000D01*
X153000000Y-98348527D01*
X154148528Y-97200000D01*
X155327208Y-97200000D01*
X155490191Y-97362983D01*
X155820979Y-97500000D01*
X156179021Y-97500000D01*
X156509809Y-97362983D01*
X156762983Y-97109809D01*
X156900000Y-96779021D01*
X156900000Y-96420979D01*
X156762983Y-96090191D01*
X156509809Y-95837017D01*
X156179021Y-95700000D01*
X155820979Y-95700000D01*
X155490191Y-95837017D01*
X155327208Y-96000000D01*
X153959085Y-96000000D01*
X153899999Y-95988247D01*
X153840913Y-96000000D01*
X153840909Y-96000000D01*
X153665892Y-96034813D01*
X153467425Y-96167425D01*
X153433953Y-96217519D01*
X153100000Y-96551472D01*
X153100000Y-96420979D01*
X152962983Y-96090191D01*
X152709809Y-95837017D01*
X152705718Y-95835322D01*
X154111170Y-94429871D01*
X154420979Y-94558198D01*
X154779021Y-94558198D01*
X155109809Y-94421181D01*
X155362983Y-94168007D01*
X155500000Y-93837219D01*
X155500000Y-93479177D01*
X155362983Y-93148389D01*
X155109809Y-92895215D01*
X154779021Y-92758198D01*
X154420979Y-92758198D01*
X154090191Y-92895215D01*
X153915286Y-93070120D01*
X153800207Y-93093011D01*
X153800205Y-93093012D01*
X153800206Y-93093012D01*
X153744696Y-93130102D01*
X153509809Y-92895215D01*
X153179021Y-92758198D01*
X152820979Y-92758198D01*
X152490191Y-92895215D01*
X152237017Y-93148389D01*
X152100000Y-93479177D01*
X152100000Y-93709670D01*
X150001978Y-95807693D01*
X150001978Y-94819262D01*
X150013731Y-94760175D01*
X150001978Y-94701089D01*
X150001978Y-94701085D01*
X149967165Y-94526068D01*
X149834553Y-94327601D01*
X149784460Y-94294130D01*
X149200000Y-93709671D01*
X149200000Y-93479177D01*
X149062983Y-93148389D01*
X148809809Y-92895215D01*
X148479021Y-92758198D01*
X148120979Y-92758198D01*
X147790191Y-92895215D01*
X147537017Y-93148389D01*
X147525236Y-93176830D01*
X147399793Y-93093011D01*
X147284714Y-93070120D01*
X147109809Y-92895215D01*
X146779021Y-92758198D01*
X146420979Y-92758198D01*
X146090191Y-92895215D01*
X145837017Y-93148389D01*
X145700000Y-93479177D01*
X145700000Y-93837219D01*
X145837017Y-94168007D01*
X146090191Y-94421181D01*
X146420979Y-94558198D01*
X146779021Y-94558198D01*
X147088830Y-94429871D01*
X147400000Y-94741042D01*
X147400001Y-99040909D01*
X147388247Y-99100000D01*
X147400001Y-99159091D01*
X147434814Y-99334108D01*
X147567426Y-99532575D01*
X147617519Y-99566046D01*
X148400000Y-100348529D01*
X148400001Y-114930041D01*
X146712869Y-116617174D01*
X146161137Y-116617174D01*
X146076982Y-116533019D01*
X145746194Y-116396002D01*
X145400001Y-116396002D01*
X145400001Y-74977098D01*
X145880503Y-74496597D01*
X145930597Y-74463125D01*
X146020091Y-74329189D01*
X146063209Y-74264659D01*
X146082995Y-74165187D01*
X146098022Y-74089641D01*
X146098022Y-74089638D01*
X146109775Y-74030550D01*
X146098022Y-73971462D01*
X146098022Y-71899701D01*
X191197670Y-71899701D01*
X191197670Y-72695299D01*
X191502132Y-73430335D01*
X192064705Y-73992908D01*
X192799741Y-74297370D01*
X193595339Y-74297370D01*
X194330375Y-73992908D01*
X194892948Y-73430335D01*
X195197410Y-72695299D01*
X195197410Y-71899701D01*
X194892948Y-71164665D01*
X194330375Y-70602092D01*
X193595339Y-70297630D01*
X192799741Y-70297630D01*
X192064705Y-70602092D01*
X191502132Y-71164665D01*
X191197670Y-71899701D01*
X146098022Y-71899701D01*
X146098022Y-68635089D01*
X152188350Y-68635089D01*
X152188350Y-69355911D01*
X152464197Y-70021864D01*
X152973896Y-70531563D01*
X153639849Y-70807410D01*
X154360671Y-70807410D01*
X155026624Y-70531563D01*
X155536323Y-70021864D01*
X155812170Y-69355911D01*
X155812170Y-68635089D01*
X156186310Y-68635089D01*
X156186310Y-69355911D01*
X156462157Y-70021864D01*
X156971856Y-70531563D01*
X157637809Y-70807410D01*
X158358631Y-70807410D01*
X159024584Y-70531563D01*
X159534283Y-70021864D01*
X159810130Y-69355911D01*
X159810130Y-68635089D01*
X160186810Y-68635089D01*
X160186810Y-69355911D01*
X160462657Y-70021864D01*
X160972356Y-70531563D01*
X161638309Y-70807410D01*
X162359131Y-70807410D01*
X163025084Y-70531563D01*
X163534783Y-70021864D01*
X163810630Y-69355911D01*
X163810630Y-68635089D01*
X164187310Y-68635089D01*
X164187310Y-69355911D01*
X164463157Y-70021864D01*
X164972856Y-70531563D01*
X165638809Y-70807410D01*
X166359631Y-70807410D01*
X167025584Y-70531563D01*
X167535283Y-70021864D01*
X167811130Y-69355911D01*
X167811130Y-68635089D01*
X168185270Y-68635089D01*
X168185270Y-69355911D01*
X168461117Y-70021864D01*
X168970816Y-70531563D01*
X169636769Y-70807410D01*
X170357591Y-70807410D01*
X171023544Y-70531563D01*
X171533243Y-70021864D01*
X171809090Y-69355911D01*
X171809090Y-68635089D01*
X172185770Y-68635089D01*
X172185770Y-69355911D01*
X172461617Y-70021864D01*
X172971316Y-70531563D01*
X173637269Y-70807410D01*
X174358091Y-70807410D01*
X175024044Y-70531563D01*
X175533743Y-70021864D01*
X175809590Y-69355911D01*
X175809590Y-68635089D01*
X176186270Y-68635089D01*
X176186270Y-69355911D01*
X176462117Y-70021864D01*
X176971816Y-70531563D01*
X177637769Y-70807410D01*
X178358591Y-70807410D01*
X179024544Y-70531563D01*
X179534243Y-70021864D01*
X179810090Y-69355911D01*
X179810090Y-68635089D01*
X180184230Y-68635089D01*
X180184230Y-69355911D01*
X180460077Y-70021864D01*
X180969776Y-70531563D01*
X181635729Y-70807410D01*
X182356551Y-70807410D01*
X183022504Y-70531563D01*
X183532203Y-70021864D01*
X183808050Y-69355911D01*
X183808050Y-68635089D01*
X183532203Y-67969136D01*
X183022504Y-67459437D01*
X182356551Y-67183590D01*
X181635729Y-67183590D01*
X180969776Y-67459437D01*
X180460077Y-67969136D01*
X180184230Y-68635089D01*
X179810090Y-68635089D01*
X179534243Y-67969136D01*
X179024544Y-67459437D01*
X178358591Y-67183590D01*
X177637769Y-67183590D01*
X176971816Y-67459437D01*
X176462117Y-67969136D01*
X176186270Y-68635089D01*
X175809590Y-68635089D01*
X175533743Y-67969136D01*
X175024044Y-67459437D01*
X174358091Y-67183590D01*
X173637269Y-67183590D01*
X172971316Y-67459437D01*
X172461617Y-67969136D01*
X172185770Y-68635089D01*
X171809090Y-68635089D01*
X171533243Y-67969136D01*
X171023544Y-67459437D01*
X170357591Y-67183590D01*
X169636769Y-67183590D01*
X168970816Y-67459437D01*
X168461117Y-67969136D01*
X168185270Y-68635089D01*
X167811130Y-68635089D01*
X167535283Y-67969136D01*
X167025584Y-67459437D01*
X166359631Y-67183590D01*
X165638809Y-67183590D01*
X164972856Y-67459437D01*
X164463157Y-67969136D01*
X164187310Y-68635089D01*
X163810630Y-68635089D01*
X163534783Y-67969136D01*
X163025084Y-67459437D01*
X162359131Y-67183590D01*
X161638309Y-67183590D01*
X160972356Y-67459437D01*
X160462657Y-67969136D01*
X160186810Y-68635089D01*
X159810130Y-68635089D01*
X159534283Y-67969136D01*
X159024584Y-67459437D01*
X158358631Y-67183590D01*
X157637809Y-67183590D01*
X156971856Y-67459437D01*
X156462157Y-67969136D01*
X156186310Y-68635089D01*
X155812170Y-68635089D01*
X155536323Y-67969136D01*
X155026624Y-67459437D01*
X154360671Y-67183590D01*
X153639849Y-67183590D01*
X152973896Y-67459437D01*
X152464197Y-67969136D01*
X152188350Y-68635089D01*
X146098022Y-68635089D01*
X146098022Y-64637129D01*
X154187330Y-64637129D01*
X154187330Y-65357951D01*
X154463177Y-66023904D01*
X154972876Y-66533603D01*
X155638829Y-66809450D01*
X156359651Y-66809450D01*
X157025604Y-66533603D01*
X157535303Y-66023904D01*
X157811150Y-65357951D01*
X157811150Y-64637129D01*
X158187830Y-64637129D01*
X158187830Y-65357951D01*
X158463677Y-66023904D01*
X158973376Y-66533603D01*
X159639329Y-66809450D01*
X160360151Y-66809450D01*
X161026104Y-66533603D01*
X161535803Y-66023904D01*
X161811650Y-65357951D01*
X161811650Y-64637129D01*
X162188330Y-64637129D01*
X162188330Y-65357951D01*
X162464177Y-66023904D01*
X162973876Y-66533603D01*
X163639829Y-66809450D01*
X164360651Y-66809450D01*
X165026604Y-66533603D01*
X165536303Y-66023904D01*
X165812150Y-65357951D01*
X165812150Y-64637129D01*
X166186290Y-64637129D01*
X166186290Y-65357951D01*
X166462137Y-66023904D01*
X166971836Y-66533603D01*
X167637789Y-66809450D01*
X168358611Y-66809450D01*
X169024564Y-66533603D01*
X169534263Y-66023904D01*
X169810110Y-65357951D01*
X169810110Y-64637129D01*
X170184250Y-64637129D01*
X170184250Y-65357951D01*
X170460097Y-66023904D01*
X170969796Y-66533603D01*
X171635749Y-66809450D01*
X172356571Y-66809450D01*
X173022524Y-66533603D01*
X173532223Y-66023904D01*
X173808070Y-65357951D01*
X173808070Y-64637129D01*
X174184750Y-64637129D01*
X174184750Y-65357951D01*
X174460597Y-66023904D01*
X174970296Y-66533603D01*
X175636249Y-66809450D01*
X176357071Y-66809450D01*
X177023024Y-66533603D01*
X177532723Y-66023904D01*
X177808570Y-65357951D01*
X177808570Y-64637129D01*
X178185250Y-64637129D01*
X178185250Y-65357951D01*
X178461097Y-66023904D01*
X178970796Y-66533603D01*
X179636749Y-66809450D01*
X180357571Y-66809450D01*
X181023524Y-66533603D01*
X181533223Y-66023904D01*
X181809070Y-65357951D01*
X181809070Y-64637129D01*
X181533223Y-63971176D01*
X181023524Y-63461477D01*
X180357571Y-63185630D01*
X179636749Y-63185630D01*
X178970796Y-63461477D01*
X178461097Y-63971176D01*
X178185250Y-64637129D01*
X177808570Y-64637129D01*
X177532723Y-63971176D01*
X177023024Y-63461477D01*
X176357071Y-63185630D01*
X175636249Y-63185630D01*
X174970296Y-63461477D01*
X174460597Y-63971176D01*
X174184750Y-64637129D01*
X173808070Y-64637129D01*
X173532223Y-63971176D01*
X173022524Y-63461477D01*
X172356571Y-63185630D01*
X171635749Y-63185630D01*
X170969796Y-63461477D01*
X170460097Y-63971176D01*
X170184250Y-64637129D01*
X169810110Y-64637129D01*
X169534263Y-63971176D01*
X169024564Y-63461477D01*
X168358611Y-63185630D01*
X167637789Y-63185630D01*
X166971836Y-63461477D01*
X166462137Y-63971176D01*
X166186290Y-64637129D01*
X165812150Y-64637129D01*
X165536303Y-63971176D01*
X165026604Y-63461477D01*
X164360651Y-63185630D01*
X163639829Y-63185630D01*
X162973876Y-63461477D01*
X162464177Y-63971176D01*
X162188330Y-64637129D01*
X161811650Y-64637129D01*
X161535803Y-63971176D01*
X161026104Y-63461477D01*
X160360151Y-63185630D01*
X159639329Y-63185630D01*
X158973376Y-63461477D01*
X158463677Y-63971176D01*
X158187830Y-64637129D01*
X157811150Y-64637129D01*
X157535303Y-63971176D01*
X157025604Y-63461477D01*
X156359651Y-63185630D01*
X155638829Y-63185630D01*
X154972876Y-63461477D01*
X154463177Y-63971176D01*
X154187330Y-64637129D01*
X146098022Y-64637129D01*
X146098022Y-60150505D01*
X146560857Y-59687670D01*
X152178555Y-59687670D01*
X152178555Y-62311490D01*
X152217361Y-62506580D01*
X152327870Y-62671970D01*
X152493260Y-62782479D01*
X152688350Y-62821285D01*
X155312170Y-62821285D01*
X155507260Y-62782479D01*
X155672650Y-62671970D01*
X155783159Y-62506580D01*
X155821965Y-62311490D01*
X155821965Y-60639169D01*
X156186310Y-60639169D01*
X156186310Y-61359991D01*
X156462157Y-62025944D01*
X156971856Y-62535643D01*
X157637809Y-62811490D01*
X158358631Y-62811490D01*
X159024584Y-62535643D01*
X159534283Y-62025944D01*
X159810130Y-61359991D01*
X159810130Y-60639169D01*
X160186810Y-60639169D01*
X160186810Y-61359991D01*
X160462657Y-62025944D01*
X160972356Y-62535643D01*
X161638309Y-62811490D01*
X162359131Y-62811490D01*
X163025084Y-62535643D01*
X163534783Y-62025944D01*
X163810630Y-61359991D01*
X163810630Y-60639169D01*
X164187310Y-60639169D01*
X164187310Y-61359991D01*
X164463157Y-62025944D01*
X164972856Y-62535643D01*
X165638809Y-62811490D01*
X166359631Y-62811490D01*
X167025584Y-62535643D01*
X167535283Y-62025944D01*
X167811130Y-61359991D01*
X167811130Y-60639169D01*
X168185270Y-60639169D01*
X168185270Y-61359991D01*
X168461117Y-62025944D01*
X168970816Y-62535643D01*
X169636769Y-62811490D01*
X170357591Y-62811490D01*
X171023544Y-62535643D01*
X171533243Y-62025944D01*
X171809090Y-61359991D01*
X171809090Y-60639169D01*
X172185770Y-60639169D01*
X172185770Y-61359991D01*
X172461617Y-62025944D01*
X172971316Y-62535643D01*
X173637269Y-62811490D01*
X174358091Y-62811490D01*
X175024044Y-62535643D01*
X175533743Y-62025944D01*
X175809590Y-61359991D01*
X175809590Y-60639169D01*
X176186270Y-60639169D01*
X176186270Y-61359991D01*
X176462117Y-62025944D01*
X176971816Y-62535643D01*
X177637769Y-62811490D01*
X178358591Y-62811490D01*
X179024544Y-62535643D01*
X179534243Y-62025944D01*
X179810090Y-61359991D01*
X179810090Y-60639169D01*
X180184230Y-60639169D01*
X180184230Y-61359991D01*
X180460077Y-62025944D01*
X180969776Y-62535643D01*
X181635729Y-62811490D01*
X182356551Y-62811490D01*
X183022504Y-62535643D01*
X183532203Y-62025944D01*
X183808050Y-61359991D01*
X183808050Y-60639169D01*
X183532203Y-59973216D01*
X183022504Y-59463517D01*
X182356551Y-59187670D01*
X181635729Y-59187670D01*
X180969776Y-59463517D01*
X180460077Y-59973216D01*
X180184230Y-60639169D01*
X179810090Y-60639169D01*
X179534243Y-59973216D01*
X179024544Y-59463517D01*
X178358591Y-59187670D01*
X177637769Y-59187670D01*
X176971816Y-59463517D01*
X176462117Y-59973216D01*
X176186270Y-60639169D01*
X175809590Y-60639169D01*
X175533743Y-59973216D01*
X175024044Y-59463517D01*
X174358091Y-59187670D01*
X173637269Y-59187670D01*
X172971316Y-59463517D01*
X172461617Y-59973216D01*
X172185770Y-60639169D01*
X171809090Y-60639169D01*
X171533243Y-59973216D01*
X171023544Y-59463517D01*
X170357591Y-59187670D01*
X169636769Y-59187670D01*
X168970816Y-59463517D01*
X168461117Y-59973216D01*
X168185270Y-60639169D01*
X167811130Y-60639169D01*
X167535283Y-59973216D01*
X167025584Y-59463517D01*
X166359631Y-59187670D01*
X165638809Y-59187670D01*
X164972856Y-59463517D01*
X164463157Y-59973216D01*
X164187310Y-60639169D01*
X163810630Y-60639169D01*
X163534783Y-59973216D01*
X163025084Y-59463517D01*
X162359131Y-59187670D01*
X161638309Y-59187670D01*
X160972356Y-59463517D01*
X160462657Y-59973216D01*
X160186810Y-60639169D01*
X159810130Y-60639169D01*
X159534283Y-59973216D01*
X159024584Y-59463517D01*
X158358631Y-59187670D01*
X157637809Y-59187670D01*
X156971856Y-59463517D01*
X156462157Y-59973216D01*
X156186310Y-60639169D01*
X155821965Y-60639169D01*
X155821965Y-59687670D01*
X155783159Y-59492580D01*
X155672650Y-59327190D01*
X155507260Y-59216681D01*
X155312170Y-59177875D01*
X152688350Y-59177875D01*
X152493260Y-59216681D01*
X152327870Y-59327190D01*
X152217361Y-59492580D01*
X152178555Y-59687670D01*
X146560857Y-59687670D01*
X149548529Y-56700000D01*
X167427208Y-56700000D01*
X167590191Y-56862983D01*
X167920979Y-57000000D01*
X168279021Y-57000000D01*
X168609809Y-56862983D01*
X168862983Y-56609809D01*
X169000000Y-56279021D01*
X169000000Y-55920979D01*
X168862983Y-55590191D01*
X168609809Y-55337017D01*
X168279021Y-55200000D01*
X167920979Y-55200000D01*
X167590191Y-55337017D01*
X167427208Y-55500000D01*
X150184243Y-55500000D01*
X151183253Y-54500990D01*
X169752463Y-54500990D01*
X171200000Y-55948528D01*
X171200000Y-56179021D01*
X171337017Y-56509809D01*
X171590191Y-56762983D01*
X171920979Y-56900000D01*
X172279021Y-56900000D01*
X172609809Y-56762983D01*
X172862983Y-56509809D01*
X173000000Y-56179021D01*
X173000000Y-55820979D01*
X172862983Y-55490191D01*
X172609809Y-55237017D01*
X172279021Y-55100000D01*
X172048528Y-55100000D01*
X171050507Y-54101980D01*
X175053453Y-54101980D01*
X175800000Y-54848528D01*
X175800000Y-55079021D01*
X175937017Y-55409809D01*
X176190191Y-55662983D01*
X176520979Y-55800000D01*
X176879021Y-55800000D01*
X177209809Y-55662983D01*
X177462983Y-55409809D01*
X177600000Y-55079021D01*
X177600000Y-54720979D01*
X177462983Y-54390191D01*
X177209809Y-54137017D01*
X176879021Y-54000000D01*
X176648528Y-54000000D01*
X176351497Y-53702970D01*
X180302366Y-53702970D01*
X180302366Y-53928551D01*
X180439383Y-54259339D01*
X180692557Y-54512513D01*
X181023345Y-54649530D01*
X181381387Y-54649530D01*
X181712175Y-54512513D01*
X181965349Y-54259339D01*
X182102366Y-53928551D01*
X182102366Y-53802201D01*
X189696530Y-53802201D01*
X189696530Y-54597799D01*
X190000992Y-55332835D01*
X190563565Y-55895408D01*
X191298601Y-56199870D01*
X192094199Y-56199870D01*
X192829235Y-55895408D01*
X193391808Y-55332835D01*
X193696270Y-54597799D01*
X193696270Y-53802201D01*
X193391808Y-53067165D01*
X192829235Y-52504592D01*
X192094199Y-52200130D01*
X191298601Y-52200130D01*
X190563565Y-52504592D01*
X190000992Y-53067165D01*
X189696530Y-53802201D01*
X182102366Y-53802201D01*
X182102366Y-53570509D01*
X181965349Y-53239721D01*
X181712175Y-52986547D01*
X181381387Y-52849530D01*
X181150893Y-52849530D01*
X181021852Y-52720489D01*
X180988381Y-52670396D01*
X180938287Y-52636924D01*
X180938286Y-52636923D01*
X180789914Y-52537784D01*
X180555806Y-52491217D01*
X180496715Y-52502971D01*
X166900000Y-52502970D01*
X166900000Y-52220980D01*
X166762983Y-51890192D01*
X166509809Y-51637018D01*
X166179021Y-51500001D01*
X165948529Y-51500001D01*
X164972981Y-50524455D01*
X164939508Y-50474359D01*
X164741041Y-50341747D01*
X164566024Y-50306934D01*
X164566019Y-50306934D01*
X164506933Y-50295181D01*
X164447847Y-50306934D01*
X150602152Y-50306934D01*
X150543064Y-50295181D01*
X150483976Y-50306934D01*
X150483973Y-50306934D01*
X150308956Y-50341747D01*
X150163071Y-50439225D01*
X150110489Y-50474359D01*
X150077017Y-50524453D01*
X146299870Y-54301600D01*
X146299870Y-53802201D01*
X145995408Y-53067165D01*
X145432835Y-52504592D01*
X144697799Y-52200130D01*
X143902201Y-52200130D01*
X143167165Y-52504592D01*
X142604592Y-53067165D01*
X142300130Y-53802201D01*
X142300130Y-54597799D01*
X142604592Y-55332835D01*
X143167165Y-55895408D01*
X143902201Y-56199870D01*
X144401600Y-56199870D01*
X138550000Y-62051471D01*
X138550000Y-51030746D01*
X138589396Y-50679522D01*
X138695454Y-50374966D01*
X138866348Y-50101478D01*
X139093585Y-49872648D01*
X139365876Y-49699848D01*
X139669681Y-49591668D01*
X140019122Y-49550000D01*
X195969254Y-49550000D01*
X196320478Y-49589396D01*
X196320478Y-49589396D01*
G37*
X196320478Y-49589396D02*
X196625034Y-49695454D01*
X196898522Y-49866348D01*
X197127352Y-50093585D01*
X197300152Y-50365876D01*
X197408332Y-50669681D01*
X197450001Y-51019131D01*
X197450001Y-68177209D01*
X197309809Y-68037017D01*
X196979021Y-67900000D01*
X196620979Y-67900000D01*
X196290191Y-68037017D01*
X196037017Y-68290191D01*
X195900000Y-68620979D01*
X195900000Y-68979021D01*
X196037017Y-69309809D01*
X196290191Y-69562983D01*
X196500001Y-69649889D01*
X196500000Y-128710051D01*
X195510052Y-129700000D01*
X192772792Y-129700000D01*
X192709809Y-129637017D01*
X192379021Y-129500000D01*
X192020979Y-129500000D01*
X191690191Y-129637017D01*
X191437017Y-129890191D01*
X191300000Y-130220979D01*
X191300000Y-130579021D01*
X191437017Y-130909809D01*
X191690191Y-131162983D01*
X192020979Y-131300000D01*
X192379021Y-131300000D01*
X192709809Y-131162983D01*
X192772792Y-131100000D01*
X195731065Y-131100000D01*
X195800000Y-131113712D01*
X195868935Y-131100000D01*
X195868940Y-131100000D01*
X196073126Y-131059385D01*
X196304671Y-130904671D01*
X196343724Y-130846224D01*
X197450000Y-129739949D01*
X197450000Y-136969253D01*
X197410604Y-137320479D01*
X197304547Y-137625033D01*
X197133652Y-137898522D01*
X196906415Y-138127352D01*
X196634124Y-138300152D01*
X196330323Y-138408331D01*
X195980877Y-138450000D01*
X174672202Y-138450000D01*
X174698264Y-138432586D01*
X174731738Y-138382489D01*
X178882493Y-134231735D01*
X178932586Y-134198264D01*
X179065198Y-133999797D01*
X179100011Y-133824780D01*
X179100011Y-133824777D01*
X179111764Y-133765689D01*
X179100011Y-133706601D01*
X179100011Y-129899701D01*
X181197710Y-129899701D01*
X181197710Y-130695299D01*
X181502172Y-131430335D01*
X182064745Y-131992908D01*
X182799781Y-132297370D01*
X183595379Y-132297370D01*
X184330415Y-131992908D01*
X184892988Y-131430335D01*
X185197450Y-130695299D01*
X185197450Y-129899701D01*
X184892988Y-129164665D01*
X184330415Y-128602092D01*
X183595379Y-128297630D01*
X182799781Y-128297630D01*
X182064745Y-128602092D01*
X181502172Y-129164665D01*
X181197710Y-129899701D01*
X179100011Y-129899701D01*
X179100011Y-126359097D01*
X179111764Y-126300010D01*
X179100011Y-126240924D01*
X179100011Y-126240920D01*
X179065198Y-126065903D01*
X178932586Y-125867436D01*
X178882489Y-125833962D01*
X178700000Y-125651473D01*
X178700000Y-125420979D01*
X178562983Y-125090191D01*
X178309809Y-124837017D01*
X177979021Y-124700000D01*
X177620979Y-124700000D01*
X177290191Y-124837017D01*
X177037017Y-125090191D01*
X176900000Y-125420979D01*
X176900000Y-125779021D01*
X177037017Y-126109809D01*
X177188826Y-126261618D01*
X176961316Y-126355856D01*
X176708142Y-126609030D01*
X176571125Y-126939818D01*
X176571125Y-127297860D01*
X176708142Y-127628648D01*
X176961316Y-127881822D01*
X177292104Y-128018839D01*
X177500000Y-128018839D01*
X177500001Y-133351471D01*
X173851473Y-137000000D01*
X143448528Y-137000000D01*
X140400000Y-133951473D01*
X140400000Y-129899701D01*
X150798990Y-129899701D01*
X150798990Y-130695299D01*
X151103452Y-131430335D01*
X151666025Y-131992908D01*
X152401061Y-132297370D01*
X153196659Y-132297370D01*
X153931695Y-131992908D01*
X154494268Y-131430335D01*
X154798730Y-130695299D01*
X154798730Y-129899701D01*
X154494268Y-129164665D01*
X153931695Y-128602092D01*
X153196659Y-128297630D01*
X152401061Y-128297630D01*
X151666025Y-128602092D01*
X151103452Y-129164665D01*
X150798990Y-129899701D01*
X140400000Y-129899701D01*
X140400000Y-129235594D01*
X140882492Y-128753103D01*
X140932585Y-128719632D01*
X141065197Y-128521165D01*
X141088088Y-128406086D01*
X141262993Y-128231181D01*
X141400010Y-127900393D01*
X141400010Y-127542351D01*
X141262993Y-127211563D01*
X141009819Y-126958389D01*
X140700000Y-126830058D01*
X140700000Y-126620979D01*
X140562983Y-126290191D01*
X140309809Y-126037017D01*
X139979021Y-125900000D01*
X139620979Y-125900000D01*
X139290191Y-126037017D01*
X139037017Y-126290191D01*
X138900000Y-126620979D01*
X138900000Y-126868328D01*
X138834802Y-126965904D01*
X138799989Y-127140921D01*
X138799989Y-127140925D01*
X138788236Y-127200011D01*
X138799989Y-127259097D01*
X138799990Y-134306598D01*
X138788236Y-134365689D01*
X138799990Y-134424780D01*
X138834803Y-134599797D01*
X138967415Y-134798264D01*
X139017509Y-134831736D01*
X142568264Y-138382492D01*
X142601736Y-138432586D01*
X142627798Y-138450000D01*
X140030747Y-138450000D01*
X139679521Y-138410604D01*
X139374967Y-138304547D01*
X139101478Y-138133652D01*
X138872648Y-137906415D01*
X138699848Y-137634124D01*
X138591669Y-137330323D01*
X138550000Y-136980877D01*
X138550000Y-114298527D01*
X139300000Y-115048528D01*
X139300000Y-115279021D01*
X139437017Y-115609809D01*
X139690191Y-115862983D01*
X140020979Y-116000000D01*
X140379021Y-116000000D01*
X140709809Y-115862983D01*
X140962983Y-115609809D01*
X141100000Y-115279021D01*
X141100000Y-114920979D01*
X140962983Y-114590191D01*
X140709809Y-114337017D01*
X140379021Y-114200000D01*
X140148528Y-114200000D01*
X139203958Y-113255431D01*
X139203958Y-110846268D01*
X141698693Y-113341005D01*
X141698694Y-122117836D01*
X141686940Y-122176927D01*
X141733507Y-122411035D01*
X141819737Y-122540086D01*
X141866119Y-122609502D01*
X141916213Y-122642974D01*
X141966608Y-122693369D01*
X141966608Y-122923863D01*
X142103625Y-123254651D01*
X142356799Y-123507825D01*
X142687587Y-123644842D01*
X143045629Y-123644842D01*
X143376417Y-123507825D01*
X143417104Y-123467139D01*
X143487143Y-123537178D01*
X143509812Y-123546568D01*
X143193074Y-123863306D01*
X142962580Y-123863306D01*
X142631792Y-124000323D01*
X142378618Y-124253497D01*
X142241601Y-124584285D01*
X142241601Y-124942327D01*
X142378618Y-125273115D01*
X142631792Y-125526289D01*
X142962580Y-125663306D01*
X143320622Y-125663306D01*
X143651410Y-125526289D01*
X143889303Y-125288396D01*
X144029804Y-125428897D01*
X144360592Y-125565914D01*
X144718634Y-125565914D01*
X145049422Y-125428897D01*
X145302596Y-125175723D01*
X145375660Y-124999332D01*
X145541440Y-124999332D01*
X145776408Y-124902005D01*
X145776408Y-125086063D01*
X145764655Y-125145149D01*
X145776408Y-125204235D01*
X145776408Y-125204240D01*
X145808610Y-125366127D01*
X145811222Y-125379257D01*
X145844391Y-125428897D01*
X145876407Y-125476813D01*
X145876407Y-125724169D01*
X146013424Y-126054957D01*
X146266598Y-126308131D01*
X146597386Y-126445148D01*
X146955428Y-126445148D01*
X147258100Y-126319777D01*
X147258100Y-126593372D01*
X146351473Y-127500000D01*
X146120979Y-127500000D01*
X145790191Y-127637017D01*
X145537017Y-127890191D01*
X145400000Y-128220979D01*
X145400000Y-128579021D01*
X145537017Y-128909809D01*
X145790191Y-129162983D01*
X146120979Y-129300000D01*
X146479021Y-129300000D01*
X146809809Y-129162983D01*
X146850000Y-129122792D01*
X146890191Y-129162983D01*
X147220979Y-129300000D01*
X147579021Y-129300000D01*
X147909809Y-129162983D01*
X148162983Y-128909809D01*
X148300000Y-128579021D01*
X148300000Y-128348528D01*
X148639594Y-128008935D01*
X148689685Y-127975465D01*
X148723155Y-127925374D01*
X148723158Y-127925371D01*
X148822297Y-127776998D01*
X148828122Y-127747714D01*
X148857110Y-127601981D01*
X148857110Y-127601978D01*
X148868863Y-127542890D01*
X148857110Y-127483802D01*
X148857110Y-125072742D01*
X149135132Y-125072742D01*
X149322447Y-124995154D01*
X149448777Y-125121484D01*
X149779565Y-125258501D01*
X150010059Y-125258501D01*
X151234038Y-126482481D01*
X151267510Y-126532575D01*
X151465977Y-126665187D01*
X151640994Y-126700000D01*
X151640998Y-126700000D01*
X151700084Y-126711753D01*
X151759170Y-126700000D01*
X153733772Y-126700000D01*
X153792858Y-126711753D01*
X153851944Y-126700000D01*
X153851949Y-126700000D01*
X154026966Y-126665187D01*
X154072010Y-126635089D01*
X162188350Y-126635089D01*
X162188350Y-127355911D01*
X162464197Y-128021864D01*
X162973896Y-128531563D01*
X163639849Y-128807410D01*
X164360671Y-128807410D01*
X165026624Y-128531563D01*
X165536323Y-128021864D01*
X165812170Y-127355911D01*
X165812170Y-126635089D01*
X165536323Y-125969136D01*
X165026624Y-125459437D01*
X164360671Y-125183590D01*
X163639849Y-125183590D01*
X162973896Y-125459437D01*
X162464197Y-125969136D01*
X162188350Y-126635089D01*
X154072010Y-126635089D01*
X154225433Y-126532575D01*
X154258907Y-126482478D01*
X158104256Y-122637129D01*
X164187330Y-122637129D01*
X164187330Y-123357951D01*
X164463177Y-124023904D01*
X164972876Y-124533603D01*
X165638829Y-124809450D01*
X166359651Y-124809450D01*
X166686016Y-124674265D01*
X167324937Y-125313186D01*
X166971856Y-125459437D01*
X166462157Y-125969136D01*
X166186310Y-126635089D01*
X166186310Y-127355911D01*
X166462157Y-128021864D01*
X166971856Y-128531563D01*
X167637809Y-128807410D01*
X168358631Y-128807410D01*
X169024584Y-128531563D01*
X169534283Y-128021864D01*
X169810130Y-127355911D01*
X169810130Y-126635089D01*
X169534283Y-125969136D01*
X169265147Y-125700000D01*
X170729253Y-125700000D01*
X170460117Y-125969136D01*
X170184270Y-126635089D01*
X170184270Y-127355911D01*
X170460117Y-128021864D01*
X170969816Y-128531563D01*
X171635769Y-128807410D01*
X172356591Y-128807410D01*
X173022544Y-128531563D01*
X173532243Y-128021864D01*
X173808090Y-127355911D01*
X173808090Y-126635089D01*
X173532243Y-125969136D01*
X173063107Y-125500000D01*
X173179021Y-125500000D01*
X173509809Y-125362983D01*
X173762983Y-125109809D01*
X173900000Y-124779021D01*
X173900000Y-124420979D01*
X173768729Y-124104063D01*
X173962983Y-123909809D01*
X174100000Y-123579021D01*
X174100000Y-123220979D01*
X173962983Y-122890191D01*
X173709809Y-122637017D01*
X173379021Y-122500000D01*
X173020979Y-122500000D01*
X172690191Y-122637017D01*
X172627208Y-122700000D01*
X171809110Y-122700000D01*
X171809110Y-122637129D01*
X171533263Y-121971176D01*
X171023564Y-121461477D01*
X170357611Y-121185630D01*
X169636789Y-121185630D01*
X168970836Y-121461477D01*
X168461137Y-121971176D01*
X168185290Y-122637129D01*
X168185290Y-123357951D01*
X168461137Y-124023904D01*
X168737233Y-124300000D01*
X168291649Y-124300000D01*
X167675965Y-123684316D01*
X167811150Y-123357951D01*
X167811150Y-122637129D01*
X167535303Y-121971176D01*
X167025604Y-121461477D01*
X166359651Y-121185630D01*
X165638829Y-121185630D01*
X164972876Y-121461477D01*
X164463177Y-121971176D01*
X164187330Y-122637129D01*
X158104256Y-122637129D01*
X162178555Y-118562830D01*
X162178555Y-120311490D01*
X162217361Y-120506580D01*
X162327870Y-120671970D01*
X162493260Y-120782479D01*
X162688350Y-120821285D01*
X165312170Y-120821285D01*
X165507260Y-120782479D01*
X165672650Y-120671970D01*
X165783159Y-120506580D01*
X165821965Y-120311490D01*
X165821965Y-120221036D01*
X166783835Y-120221036D01*
X166916390Y-120497096D01*
X167571815Y-120797103D01*
X168292156Y-120823453D01*
X168967747Y-120572135D01*
X169080050Y-120497096D01*
X169212605Y-120221036D01*
X167998220Y-119006651D01*
X166783835Y-120221036D01*
X165821965Y-120221036D01*
X165821965Y-119293516D01*
X166174347Y-119293516D01*
X166425665Y-119969107D01*
X166500704Y-120081410D01*
X166776764Y-120213965D01*
X167991149Y-118999580D01*
X168005291Y-118999580D01*
X169219676Y-120213965D01*
X169495736Y-120081410D01*
X169795743Y-119425985D01*
X169822093Y-118705644D01*
X169797365Y-118639169D01*
X170184270Y-118639169D01*
X170184270Y-119359991D01*
X170460117Y-120025944D01*
X170969816Y-120535643D01*
X171635769Y-120811490D01*
X172356591Y-120811490D01*
X173022544Y-120535643D01*
X173532243Y-120025944D01*
X173808090Y-119359991D01*
X173808090Y-118639169D01*
X173532243Y-117973216D01*
X173022544Y-117463517D01*
X172356591Y-117187670D01*
X171635769Y-117187670D01*
X170969816Y-117463517D01*
X170460117Y-117973216D01*
X170184270Y-118639169D01*
X169797365Y-118639169D01*
X169570775Y-118030053D01*
X169495736Y-117917750D01*
X169219676Y-117785195D01*
X168005291Y-118999580D01*
X167991149Y-118999580D01*
X166776764Y-117785195D01*
X166500704Y-117917750D01*
X166200697Y-118573175D01*
X166174347Y-119293516D01*
X165821965Y-119293516D01*
X165821965Y-117778124D01*
X166783835Y-117778124D01*
X167998220Y-118992509D01*
X169212605Y-117778124D01*
X169080050Y-117502064D01*
X168424625Y-117202057D01*
X167704284Y-117175707D01*
X167028693Y-117427025D01*
X166916390Y-117502064D01*
X166783835Y-117778124D01*
X165821965Y-117778124D01*
X165821965Y-117687670D01*
X165783159Y-117492580D01*
X165672650Y-117327190D01*
X165507260Y-117216681D01*
X165312170Y-117177875D01*
X163563510Y-117177875D01*
X168939184Y-111802201D01*
X179696570Y-111802201D01*
X179696570Y-112597799D01*
X180001032Y-113332835D01*
X180563605Y-113895408D01*
X181298641Y-114199870D01*
X182094239Y-114199870D01*
X182829275Y-113895408D01*
X183391848Y-113332835D01*
X183696310Y-112597799D01*
X183696310Y-111802201D01*
X183391848Y-111067165D01*
X182829275Y-110504592D01*
X182094239Y-110200130D01*
X181298641Y-110200130D01*
X180563605Y-110504592D01*
X180001032Y-111067165D01*
X179696570Y-111802201D01*
X168939184Y-111802201D01*
X183541386Y-97200000D01*
X187127208Y-97200000D01*
X187290191Y-97362983D01*
X187620979Y-97500000D01*
X187979021Y-97500000D01*
X188309809Y-97362983D01*
X188562983Y-97109809D01*
X188700000Y-96779021D01*
X188700000Y-96420979D01*
X188562983Y-96090191D01*
X188309809Y-95837017D01*
X187979021Y-95700000D01*
X187620979Y-95700000D01*
X187290191Y-95837017D01*
X187127208Y-96000000D01*
X184122060Y-96000000D01*
X184922060Y-95200000D01*
X185599112Y-95200000D01*
X185658198Y-95211753D01*
X185717284Y-95200000D01*
X185717289Y-95200000D01*
X185892306Y-95165187D01*
X186090773Y-95032575D01*
X186124247Y-94982479D01*
X186548527Y-94558198D01*
X186779021Y-94558198D01*
X187109809Y-94421181D01*
X187362983Y-94168007D01*
X187500000Y-93837219D01*
X187500000Y-93479177D01*
X187362983Y-93148389D01*
X187109809Y-92895215D01*
X186779021Y-92758198D01*
X186420979Y-92758198D01*
X186090191Y-92895215D01*
X185837017Y-93148389D01*
X185800000Y-93237756D01*
X185762983Y-93148389D01*
X185509809Y-92895215D01*
X185179021Y-92758198D01*
X184820979Y-92758198D01*
X184490191Y-92895215D01*
X184237017Y-93148389D01*
X184100000Y-93479177D01*
X184100000Y-93709669D01*
X181538109Y-96271561D01*
X181462983Y-96090191D01*
X181209809Y-95837017D01*
X180879021Y-95700000D01*
X180759341Y-95700000D01*
X180765187Y-95691251D01*
X180800000Y-95516234D01*
X180800000Y-95516230D01*
X180811753Y-95457144D01*
X180800000Y-95398057D01*
X180800000Y-94330990D01*
X180962983Y-94168007D01*
X181100000Y-93837219D01*
X181100000Y-93479177D01*
X180962983Y-93148389D01*
X180709809Y-92895215D01*
X180379021Y-92758198D01*
X180020979Y-92758198D01*
X179690191Y-92895215D01*
X179437017Y-93148389D01*
X179400000Y-93237756D01*
X179362983Y-93148389D01*
X179109809Y-92895215D01*
X178779021Y-92758198D01*
X178420979Y-92758198D01*
X178090191Y-92895215D01*
X177837017Y-93148389D01*
X177700000Y-93479177D01*
X177700000Y-93837219D01*
X177837017Y-94168007D01*
X178000000Y-94330990D01*
X178000001Y-96244329D01*
X175900000Y-98344330D01*
X175900000Y-97372792D01*
X176062983Y-97209809D01*
X176200000Y-96879021D01*
X176200000Y-96520979D01*
X176062983Y-96190191D01*
X175809809Y-95937017D01*
X175479021Y-95800000D01*
X175120979Y-95800000D01*
X174790191Y-95937017D01*
X174537017Y-96190191D01*
X174400000Y-96520979D01*
X174400000Y-94330990D01*
X174562983Y-94168007D01*
X174700000Y-93837219D01*
X174700000Y-93479177D01*
X174562983Y-93148389D01*
X174309809Y-92895215D01*
X173979021Y-92758198D01*
X173620979Y-92758198D01*
X173290191Y-92895215D01*
X173037017Y-93148389D01*
X173000000Y-93237756D01*
X172962983Y-93148389D01*
X172709809Y-92895215D01*
X172379021Y-92758198D01*
X172020979Y-92758198D01*
X171690191Y-92895215D01*
X171437017Y-93148389D01*
X171300000Y-93479177D01*
X171300000Y-93837219D01*
X171437017Y-94168007D01*
X171600001Y-94330991D01*
X171600000Y-100951472D01*
X156718719Y-115832754D01*
X155315774Y-115832754D01*
X155666046Y-115482482D01*
X155666048Y-115482479D01*
X166982481Y-104166047D01*
X167032575Y-104132575D01*
X167165187Y-103934108D01*
X167200000Y-103759091D01*
X167200000Y-103759087D01*
X167211753Y-103700001D01*
X167200000Y-103640914D01*
X167200000Y-98748527D01*
X168448528Y-97500000D01*
X168679021Y-97500000D01*
X169009809Y-97362983D01*
X169262983Y-97109809D01*
X169400000Y-96779021D01*
X169400000Y-96420979D01*
X169262983Y-96090191D01*
X169009809Y-95837017D01*
X168679021Y-95700000D01*
X168320979Y-95700000D01*
X167990191Y-95837017D01*
X167737017Y-96090191D01*
X167600000Y-96420979D01*
X167600000Y-96651472D01*
X166800989Y-97450484D01*
X166800989Y-95105736D01*
X167348528Y-94558198D01*
X167579021Y-94558198D01*
X167909809Y-94421181D01*
X168162983Y-94168007D01*
X168300000Y-93837219D01*
X168300000Y-93479177D01*
X168162983Y-93148389D01*
X167909809Y-92895215D01*
X167579021Y-92758198D01*
X167220979Y-92758198D01*
X166890191Y-92895215D01*
X166637017Y-93148389D01*
X166600000Y-93237756D01*
X166562983Y-93148389D01*
X166309809Y-92895215D01*
X165979021Y-92758198D01*
X165620979Y-92758198D01*
X165290191Y-92895215D01*
X165037017Y-93148389D01*
X164900000Y-93479177D01*
X164900000Y-93837219D01*
X165037017Y-94168007D01*
X165200000Y-94330990D01*
X165200001Y-103022899D01*
X156299870Y-111923031D01*
X156299870Y-111802201D01*
X155995408Y-111067165D01*
X155432835Y-110504592D01*
X154697799Y-110200130D01*
X153902201Y-110200130D01*
X153167165Y-110504592D01*
X152604592Y-111067165D01*
X152300130Y-111802201D01*
X152300130Y-112597799D01*
X152604592Y-113332835D01*
X153167165Y-113895408D01*
X153902201Y-114199870D01*
X154023031Y-114199870D01*
X153522901Y-114700000D01*
X153260277Y-114700000D01*
X153201191Y-114688247D01*
X153142105Y-114700000D01*
X153142101Y-114700000D01*
X152967084Y-114734813D01*
X152768617Y-114867425D01*
X152735145Y-114917519D01*
X152219509Y-115433156D01*
X152169413Y-115466629D01*
X152036801Y-115665097D01*
X152001988Y-115840114D01*
X152001988Y-115840118D01*
X151990235Y-115899204D01*
X152001988Y-115958291D01*
X152001989Y-117249483D01*
X148377819Y-120873654D01*
X148232596Y-120873654D01*
X148173509Y-120861901D01*
X148114423Y-120873654D01*
X148114419Y-120873654D01*
X148103981Y-120875730D01*
X148124334Y-120773407D01*
X148124334Y-120773403D01*
X148136087Y-120714317D01*
X148124334Y-120655230D01*
X148124334Y-119724193D01*
X151483471Y-116365057D01*
X151533565Y-116331585D01*
X151666177Y-116133118D01*
X151700990Y-115958101D01*
X151700990Y-115958097D01*
X151712743Y-115899011D01*
X151700990Y-115839925D01*
X151700990Y-115400000D01*
X151979021Y-115400000D01*
X152309809Y-115262983D01*
X152562983Y-115009809D01*
X152700000Y-114679021D01*
X152700000Y-114320979D01*
X152562983Y-113990191D01*
X152388078Y-113815286D01*
X152365187Y-113700207D01*
X152232575Y-113501740D01*
X152182479Y-113468267D01*
X152100000Y-113385788D01*
X152100000Y-111248527D01*
X162782481Y-100566047D01*
X162832575Y-100532575D01*
X162922232Y-100398395D01*
X162965187Y-100334109D01*
X162973501Y-100292313D01*
X163000000Y-100159091D01*
X163000000Y-100159088D01*
X163011753Y-100100000D01*
X163000000Y-100040910D01*
X163000000Y-97272792D01*
X163162983Y-97109809D01*
X163300000Y-96779021D01*
X163300000Y-96420979D01*
X163162983Y-96090191D01*
X162909809Y-95837017D01*
X162579021Y-95700000D01*
X162220979Y-95700000D01*
X161890191Y-95837017D01*
X161637017Y-96090191D01*
X161500000Y-96420979D01*
X161500000Y-96779021D01*
X161637017Y-97109809D01*
X161800000Y-97272792D01*
X161800001Y-99851471D01*
X160400989Y-101250483D01*
X160400989Y-95105736D01*
X160948528Y-94558198D01*
X161179021Y-94558198D01*
X161509809Y-94421181D01*
X161762983Y-94168007D01*
X161900000Y-93837219D01*
X161900000Y-93479177D01*
X161762983Y-93148389D01*
X161509809Y-92895215D01*
X161179021Y-92758198D01*
X160820979Y-92758198D01*
X160490191Y-92895215D01*
X160237017Y-93148389D01*
X160193154Y-93254284D01*
X160139609Y-93125015D01*
X159886435Y-92871841D01*
X159555647Y-92734824D01*
X159197605Y-92734824D01*
X158866817Y-92871841D01*
X158613643Y-93125015D01*
X158476626Y-93455803D01*
X158476626Y-93813845D01*
X158613643Y-94144633D01*
X158776626Y-94307616D01*
X158776627Y-101709369D01*
X153672597Y-106813400D01*
X153662983Y-106790191D01*
X153409809Y-106537017D01*
X153079021Y-106400000D01*
X153000000Y-106400000D01*
X153000000Y-98348527D01*
X154148528Y-97200000D01*
X155327208Y-97200000D01*
X155490191Y-97362983D01*
X155820979Y-97500000D01*
X156179021Y-97500000D01*
X156509809Y-97362983D01*
X156762983Y-97109809D01*
X156900000Y-96779021D01*
X156900000Y-96420979D01*
X156762983Y-96090191D01*
X156509809Y-95837017D01*
X156179021Y-95700000D01*
X155820979Y-95700000D01*
X155490191Y-95837017D01*
X155327208Y-96000000D01*
X153959085Y-96000000D01*
X153899999Y-95988247D01*
X153840913Y-96000000D01*
X153840909Y-96000000D01*
X153665892Y-96034813D01*
X153467425Y-96167425D01*
X153433953Y-96217519D01*
X153100000Y-96551472D01*
X153100000Y-96420979D01*
X152962983Y-96090191D01*
X152709809Y-95837017D01*
X152705718Y-95835322D01*
X154111170Y-94429871D01*
X154420979Y-94558198D01*
X154779021Y-94558198D01*
X155109809Y-94421181D01*
X155362983Y-94168007D01*
X155500000Y-93837219D01*
X155500000Y-93479177D01*
X155362983Y-93148389D01*
X155109809Y-92895215D01*
X154779021Y-92758198D01*
X154420979Y-92758198D01*
X154090191Y-92895215D01*
X153915286Y-93070120D01*
X153800207Y-93093011D01*
X153800205Y-93093012D01*
X153800206Y-93093012D01*
X153744696Y-93130102D01*
X153509809Y-92895215D01*
X153179021Y-92758198D01*
X152820979Y-92758198D01*
X152490191Y-92895215D01*
X152237017Y-93148389D01*
X152100000Y-93479177D01*
X152100000Y-93709670D01*
X150001978Y-95807693D01*
X150001978Y-94819262D01*
X150013731Y-94760175D01*
X150001978Y-94701089D01*
X150001978Y-94701085D01*
X149967165Y-94526068D01*
X149834553Y-94327601D01*
X149784460Y-94294130D01*
X149200000Y-93709671D01*
X149200000Y-93479177D01*
X149062983Y-93148389D01*
X148809809Y-92895215D01*
X148479021Y-92758198D01*
X148120979Y-92758198D01*
X147790191Y-92895215D01*
X147537017Y-93148389D01*
X147525236Y-93176830D01*
X147399793Y-93093011D01*
X147284714Y-93070120D01*
X147109809Y-92895215D01*
X146779021Y-92758198D01*
X146420979Y-92758198D01*
X146090191Y-92895215D01*
X145837017Y-93148389D01*
X145700000Y-93479177D01*
X145700000Y-93837219D01*
X145837017Y-94168007D01*
X146090191Y-94421181D01*
X146420979Y-94558198D01*
X146779021Y-94558198D01*
X147088830Y-94429871D01*
X147400000Y-94741042D01*
X147400001Y-99040909D01*
X147388247Y-99100000D01*
X147400001Y-99159091D01*
X147434814Y-99334108D01*
X147567426Y-99532575D01*
X147617519Y-99566046D01*
X148400000Y-100348529D01*
X148400001Y-114930041D01*
X146712869Y-116617174D01*
X146161137Y-116617174D01*
X146076982Y-116533019D01*
X145746194Y-116396002D01*
X145400001Y-116396002D01*
X145400001Y-74977098D01*
X145880503Y-74496597D01*
X145930597Y-74463125D01*
X146020091Y-74329189D01*
X146063209Y-74264659D01*
X146082995Y-74165187D01*
X146098022Y-74089641D01*
X146098022Y-74089638D01*
X146109775Y-74030550D01*
X146098022Y-73971462D01*
X146098022Y-71899701D01*
X191197670Y-71899701D01*
X191197670Y-72695299D01*
X191502132Y-73430335D01*
X192064705Y-73992908D01*
X192799741Y-74297370D01*
X193595339Y-74297370D01*
X194330375Y-73992908D01*
X194892948Y-73430335D01*
X195197410Y-72695299D01*
X195197410Y-71899701D01*
X194892948Y-71164665D01*
X194330375Y-70602092D01*
X193595339Y-70297630D01*
X192799741Y-70297630D01*
X192064705Y-70602092D01*
X191502132Y-71164665D01*
X191197670Y-71899701D01*
X146098022Y-71899701D01*
X146098022Y-68635089D01*
X152188350Y-68635089D01*
X152188350Y-69355911D01*
X152464197Y-70021864D01*
X152973896Y-70531563D01*
X153639849Y-70807410D01*
X154360671Y-70807410D01*
X155026624Y-70531563D01*
X155536323Y-70021864D01*
X155812170Y-69355911D01*
X155812170Y-68635089D01*
X156186310Y-68635089D01*
X156186310Y-69355911D01*
X156462157Y-70021864D01*
X156971856Y-70531563D01*
X157637809Y-70807410D01*
X158358631Y-70807410D01*
X159024584Y-70531563D01*
X159534283Y-70021864D01*
X159810130Y-69355911D01*
X159810130Y-68635089D01*
X160186810Y-68635089D01*
X160186810Y-69355911D01*
X160462657Y-70021864D01*
X160972356Y-70531563D01*
X161638309Y-70807410D01*
X162359131Y-70807410D01*
X163025084Y-70531563D01*
X163534783Y-70021864D01*
X163810630Y-69355911D01*
X163810630Y-68635089D01*
X164187310Y-68635089D01*
X164187310Y-69355911D01*
X164463157Y-70021864D01*
X164972856Y-70531563D01*
X165638809Y-70807410D01*
X166359631Y-70807410D01*
X167025584Y-70531563D01*
X167535283Y-70021864D01*
X167811130Y-69355911D01*
X167811130Y-68635089D01*
X168185270Y-68635089D01*
X168185270Y-69355911D01*
X168461117Y-70021864D01*
X168970816Y-70531563D01*
X169636769Y-70807410D01*
X170357591Y-70807410D01*
X171023544Y-70531563D01*
X171533243Y-70021864D01*
X171809090Y-69355911D01*
X171809090Y-68635089D01*
X172185770Y-68635089D01*
X172185770Y-69355911D01*
X172461617Y-70021864D01*
X172971316Y-70531563D01*
X173637269Y-70807410D01*
X174358091Y-70807410D01*
X175024044Y-70531563D01*
X175533743Y-70021864D01*
X175809590Y-69355911D01*
X175809590Y-68635089D01*
X176186270Y-68635089D01*
X176186270Y-69355911D01*
X176462117Y-70021864D01*
X176971816Y-70531563D01*
X177637769Y-70807410D01*
X178358591Y-70807410D01*
X179024544Y-70531563D01*
X179534243Y-70021864D01*
X179810090Y-69355911D01*
X179810090Y-68635089D01*
X180184230Y-68635089D01*
X180184230Y-69355911D01*
X180460077Y-70021864D01*
X180969776Y-70531563D01*
X181635729Y-70807410D01*
X182356551Y-70807410D01*
X183022504Y-70531563D01*
X183532203Y-70021864D01*
X183808050Y-69355911D01*
X183808050Y-68635089D01*
X183532203Y-67969136D01*
X183022504Y-67459437D01*
X182356551Y-67183590D01*
X181635729Y-67183590D01*
X180969776Y-67459437D01*
X180460077Y-67969136D01*
X180184230Y-68635089D01*
X179810090Y-68635089D01*
X179534243Y-67969136D01*
X179024544Y-67459437D01*
X178358591Y-67183590D01*
X177637769Y-67183590D01*
X176971816Y-67459437D01*
X176462117Y-67969136D01*
X176186270Y-68635089D01*
X175809590Y-68635089D01*
X175533743Y-67969136D01*
X175024044Y-67459437D01*
X174358091Y-67183590D01*
X173637269Y-67183590D01*
X172971316Y-67459437D01*
X172461617Y-67969136D01*
X172185770Y-68635089D01*
X171809090Y-68635089D01*
X171533243Y-67969136D01*
X171023544Y-67459437D01*
X170357591Y-67183590D01*
X169636769Y-67183590D01*
X168970816Y-67459437D01*
X168461117Y-67969136D01*
X168185270Y-68635089D01*
X167811130Y-68635089D01*
X167535283Y-67969136D01*
X167025584Y-67459437D01*
X166359631Y-67183590D01*
X165638809Y-67183590D01*
X164972856Y-67459437D01*
X164463157Y-67969136D01*
X164187310Y-68635089D01*
X163810630Y-68635089D01*
X163534783Y-67969136D01*
X163025084Y-67459437D01*
X162359131Y-67183590D01*
X161638309Y-67183590D01*
X160972356Y-67459437D01*
X160462657Y-67969136D01*
X160186810Y-68635089D01*
X159810130Y-68635089D01*
X159534283Y-67969136D01*
X159024584Y-67459437D01*
X158358631Y-67183590D01*
X157637809Y-67183590D01*
X156971856Y-67459437D01*
X156462157Y-67969136D01*
X156186310Y-68635089D01*
X155812170Y-68635089D01*
X155536323Y-67969136D01*
X155026624Y-67459437D01*
X154360671Y-67183590D01*
X153639849Y-67183590D01*
X152973896Y-67459437D01*
X152464197Y-67969136D01*
X152188350Y-68635089D01*
X146098022Y-68635089D01*
X146098022Y-64637129D01*
X154187330Y-64637129D01*
X154187330Y-65357951D01*
X154463177Y-66023904D01*
X154972876Y-66533603D01*
X155638829Y-66809450D01*
X156359651Y-66809450D01*
X157025604Y-66533603D01*
X157535303Y-66023904D01*
X157811150Y-65357951D01*
X157811150Y-64637129D01*
X158187830Y-64637129D01*
X158187830Y-65357951D01*
X158463677Y-66023904D01*
X158973376Y-66533603D01*
X159639329Y-66809450D01*
X160360151Y-66809450D01*
X161026104Y-66533603D01*
X161535803Y-66023904D01*
X161811650Y-65357951D01*
X161811650Y-64637129D01*
X162188330Y-64637129D01*
X162188330Y-65357951D01*
X162464177Y-66023904D01*
X162973876Y-66533603D01*
X163639829Y-66809450D01*
X164360651Y-66809450D01*
X165026604Y-66533603D01*
X165536303Y-66023904D01*
X165812150Y-65357951D01*
X165812150Y-64637129D01*
X166186290Y-64637129D01*
X166186290Y-65357951D01*
X166462137Y-66023904D01*
X166971836Y-66533603D01*
X167637789Y-66809450D01*
X168358611Y-66809450D01*
X169024564Y-66533603D01*
X169534263Y-66023904D01*
X169810110Y-65357951D01*
X169810110Y-64637129D01*
X170184250Y-64637129D01*
X170184250Y-65357951D01*
X170460097Y-66023904D01*
X170969796Y-66533603D01*
X171635749Y-66809450D01*
X172356571Y-66809450D01*
X173022524Y-66533603D01*
X173532223Y-66023904D01*
X173808070Y-65357951D01*
X173808070Y-64637129D01*
X174184750Y-64637129D01*
X174184750Y-65357951D01*
X174460597Y-66023904D01*
X174970296Y-66533603D01*
X175636249Y-66809450D01*
X176357071Y-66809450D01*
X177023024Y-66533603D01*
X177532723Y-66023904D01*
X177808570Y-65357951D01*
X177808570Y-64637129D01*
X178185250Y-64637129D01*
X178185250Y-65357951D01*
X178461097Y-66023904D01*
X178970796Y-66533603D01*
X179636749Y-66809450D01*
X180357571Y-66809450D01*
X181023524Y-66533603D01*
X181533223Y-66023904D01*
X181809070Y-65357951D01*
X181809070Y-64637129D01*
X181533223Y-63971176D01*
X181023524Y-63461477D01*
X180357571Y-63185630D01*
X179636749Y-63185630D01*
X178970796Y-63461477D01*
X178461097Y-63971176D01*
X178185250Y-64637129D01*
X177808570Y-64637129D01*
X177532723Y-63971176D01*
X177023024Y-63461477D01*
X176357071Y-63185630D01*
X175636249Y-63185630D01*
X174970296Y-63461477D01*
X174460597Y-63971176D01*
X174184750Y-64637129D01*
X173808070Y-64637129D01*
X173532223Y-63971176D01*
X173022524Y-63461477D01*
X172356571Y-63185630D01*
X171635749Y-63185630D01*
X170969796Y-63461477D01*
X170460097Y-63971176D01*
X170184250Y-64637129D01*
X169810110Y-64637129D01*
X169534263Y-63971176D01*
X169024564Y-63461477D01*
X168358611Y-63185630D01*
X167637789Y-63185630D01*
X166971836Y-63461477D01*
X166462137Y-63971176D01*
X166186290Y-64637129D01*
X165812150Y-64637129D01*
X165536303Y-63971176D01*
X165026604Y-63461477D01*
X164360651Y-63185630D01*
X163639829Y-63185630D01*
X162973876Y-63461477D01*
X162464177Y-63971176D01*
X162188330Y-64637129D01*
X161811650Y-64637129D01*
X161535803Y-63971176D01*
X161026104Y-63461477D01*
X160360151Y-63185630D01*
X159639329Y-63185630D01*
X158973376Y-63461477D01*
X158463677Y-63971176D01*
X158187830Y-64637129D01*
X157811150Y-64637129D01*
X157535303Y-63971176D01*
X157025604Y-63461477D01*
X156359651Y-63185630D01*
X155638829Y-63185630D01*
X154972876Y-63461477D01*
X154463177Y-63971176D01*
X154187330Y-64637129D01*
X146098022Y-64637129D01*
X146098022Y-60150505D01*
X146560857Y-59687670D01*
X152178555Y-59687670D01*
X152178555Y-62311490D01*
X152217361Y-62506580D01*
X152327870Y-62671970D01*
X152493260Y-62782479D01*
X152688350Y-62821285D01*
X155312170Y-62821285D01*
X155507260Y-62782479D01*
X155672650Y-62671970D01*
X155783159Y-62506580D01*
X155821965Y-62311490D01*
X155821965Y-60639169D01*
X156186310Y-60639169D01*
X156186310Y-61359991D01*
X156462157Y-62025944D01*
X156971856Y-62535643D01*
X157637809Y-62811490D01*
X158358631Y-62811490D01*
X159024584Y-62535643D01*
X159534283Y-62025944D01*
X159810130Y-61359991D01*
X159810130Y-60639169D01*
X160186810Y-60639169D01*
X160186810Y-61359991D01*
X160462657Y-62025944D01*
X160972356Y-62535643D01*
X161638309Y-62811490D01*
X162359131Y-62811490D01*
X163025084Y-62535643D01*
X163534783Y-62025944D01*
X163810630Y-61359991D01*
X163810630Y-60639169D01*
X164187310Y-60639169D01*
X164187310Y-61359991D01*
X164463157Y-62025944D01*
X164972856Y-62535643D01*
X165638809Y-62811490D01*
X166359631Y-62811490D01*
X167025584Y-62535643D01*
X167535283Y-62025944D01*
X167811130Y-61359991D01*
X167811130Y-60639169D01*
X168185270Y-60639169D01*
X168185270Y-61359991D01*
X168461117Y-62025944D01*
X168970816Y-62535643D01*
X169636769Y-62811490D01*
X170357591Y-62811490D01*
X171023544Y-62535643D01*
X171533243Y-62025944D01*
X171809090Y-61359991D01*
X171809090Y-60639169D01*
X172185770Y-60639169D01*
X172185770Y-61359991D01*
X172461617Y-62025944D01*
X172971316Y-62535643D01*
X173637269Y-62811490D01*
X174358091Y-62811490D01*
X175024044Y-62535643D01*
X175533743Y-62025944D01*
X175809590Y-61359991D01*
X175809590Y-60639169D01*
X176186270Y-60639169D01*
X176186270Y-61359991D01*
X176462117Y-62025944D01*
X176971816Y-62535643D01*
X177637769Y-62811490D01*
X178358591Y-62811490D01*
X179024544Y-62535643D01*
X179534243Y-62025944D01*
X179810090Y-61359991D01*
X179810090Y-60639169D01*
X180184230Y-60639169D01*
X180184230Y-61359991D01*
X180460077Y-62025944D01*
X180969776Y-62535643D01*
X181635729Y-62811490D01*
X182356551Y-62811490D01*
X183022504Y-62535643D01*
X183532203Y-62025944D01*
X183808050Y-61359991D01*
X183808050Y-60639169D01*
X183532203Y-59973216D01*
X183022504Y-59463517D01*
X182356551Y-59187670D01*
X181635729Y-59187670D01*
X180969776Y-59463517D01*
X180460077Y-59973216D01*
X180184230Y-60639169D01*
X179810090Y-60639169D01*
X179534243Y-59973216D01*
X179024544Y-59463517D01*
X178358591Y-59187670D01*
X177637769Y-59187670D01*
X176971816Y-59463517D01*
X176462117Y-59973216D01*
X176186270Y-60639169D01*
X175809590Y-60639169D01*
X175533743Y-59973216D01*
X175024044Y-59463517D01*
X174358091Y-59187670D01*
X173637269Y-59187670D01*
X172971316Y-59463517D01*
X172461617Y-59973216D01*
X172185770Y-60639169D01*
X171809090Y-60639169D01*
X171533243Y-59973216D01*
X171023544Y-59463517D01*
X170357591Y-59187670D01*
X169636769Y-59187670D01*
X168970816Y-59463517D01*
X168461117Y-59973216D01*
X168185270Y-60639169D01*
X167811130Y-60639169D01*
X167535283Y-59973216D01*
X167025584Y-59463517D01*
X166359631Y-59187670D01*
X165638809Y-59187670D01*
X164972856Y-59463517D01*
X164463157Y-59973216D01*
X164187310Y-60639169D01*
X163810630Y-60639169D01*
X163534783Y-59973216D01*
X163025084Y-59463517D01*
X162359131Y-59187670D01*
X161638309Y-59187670D01*
X160972356Y-59463517D01*
X160462657Y-59973216D01*
X160186810Y-60639169D01*
X159810130Y-60639169D01*
X159534283Y-59973216D01*
X159024584Y-59463517D01*
X158358631Y-59187670D01*
X157637809Y-59187670D01*
X156971856Y-59463517D01*
X156462157Y-59973216D01*
X156186310Y-60639169D01*
X155821965Y-60639169D01*
X155821965Y-59687670D01*
X155783159Y-59492580D01*
X155672650Y-59327190D01*
X155507260Y-59216681D01*
X155312170Y-59177875D01*
X152688350Y-59177875D01*
X152493260Y-59216681D01*
X152327870Y-59327190D01*
X152217361Y-59492580D01*
X152178555Y-59687670D01*
X146560857Y-59687670D01*
X149548529Y-56700000D01*
X167427208Y-56700000D01*
X167590191Y-56862983D01*
X167920979Y-57000000D01*
X168279021Y-57000000D01*
X168609809Y-56862983D01*
X168862983Y-56609809D01*
X169000000Y-56279021D01*
X169000000Y-55920979D01*
X168862983Y-55590191D01*
X168609809Y-55337017D01*
X168279021Y-55200000D01*
X167920979Y-55200000D01*
X167590191Y-55337017D01*
X167427208Y-55500000D01*
X150184243Y-55500000D01*
X151183253Y-54500990D01*
X169752463Y-54500990D01*
X171200000Y-55948528D01*
X171200000Y-56179021D01*
X171337017Y-56509809D01*
X171590191Y-56762983D01*
X171920979Y-56900000D01*
X172279021Y-56900000D01*
X172609809Y-56762983D01*
X172862983Y-56509809D01*
X173000000Y-56179021D01*
X173000000Y-55820979D01*
X172862983Y-55490191D01*
X172609809Y-55237017D01*
X172279021Y-55100000D01*
X172048528Y-55100000D01*
X171050507Y-54101980D01*
X175053453Y-54101980D01*
X175800000Y-54848528D01*
X175800000Y-55079021D01*
X175937017Y-55409809D01*
X176190191Y-55662983D01*
X176520979Y-55800000D01*
X176879021Y-55800000D01*
X177209809Y-55662983D01*
X177462983Y-55409809D01*
X177600000Y-55079021D01*
X177600000Y-54720979D01*
X177462983Y-54390191D01*
X177209809Y-54137017D01*
X176879021Y-54000000D01*
X176648528Y-54000000D01*
X176351497Y-53702970D01*
X180302366Y-53702970D01*
X180302366Y-53928551D01*
X180439383Y-54259339D01*
X180692557Y-54512513D01*
X181023345Y-54649530D01*
X181381387Y-54649530D01*
X181712175Y-54512513D01*
X181965349Y-54259339D01*
X182102366Y-53928551D01*
X182102366Y-53802201D01*
X189696530Y-53802201D01*
X189696530Y-54597799D01*
X190000992Y-55332835D01*
X190563565Y-55895408D01*
X191298601Y-56199870D01*
X192094199Y-56199870D01*
X192829235Y-55895408D01*
X193391808Y-55332835D01*
X193696270Y-54597799D01*
X193696270Y-53802201D01*
X193391808Y-53067165D01*
X192829235Y-52504592D01*
X192094199Y-52200130D01*
X191298601Y-52200130D01*
X190563565Y-52504592D01*
X190000992Y-53067165D01*
X189696530Y-53802201D01*
X182102366Y-53802201D01*
X182102366Y-53570509D01*
X181965349Y-53239721D01*
X181712175Y-52986547D01*
X181381387Y-52849530D01*
X181150893Y-52849530D01*
X181021852Y-52720489D01*
X180988381Y-52670396D01*
X180938287Y-52636924D01*
X180938286Y-52636923D01*
X180789914Y-52537784D01*
X180555806Y-52491217D01*
X180496715Y-52502971D01*
X166900000Y-52502970D01*
X166900000Y-52220980D01*
X166762983Y-51890192D01*
X166509809Y-51637018D01*
X166179021Y-51500001D01*
X165948529Y-51500001D01*
X164972981Y-50524455D01*
X164939508Y-50474359D01*
X164741041Y-50341747D01*
X164566024Y-50306934D01*
X164566019Y-50306934D01*
X164506933Y-50295181D01*
X164447847Y-50306934D01*
X150602152Y-50306934D01*
X150543064Y-50295181D01*
X150483976Y-50306934D01*
X150483973Y-50306934D01*
X150308956Y-50341747D01*
X150163071Y-50439225D01*
X150110489Y-50474359D01*
X150077017Y-50524453D01*
X146299870Y-54301600D01*
X146299870Y-53802201D01*
X145995408Y-53067165D01*
X145432835Y-52504592D01*
X144697799Y-52200130D01*
X143902201Y-52200130D01*
X143167165Y-52504592D01*
X142604592Y-53067165D01*
X142300130Y-53802201D01*
X142300130Y-54597799D01*
X142604592Y-55332835D01*
X143167165Y-55895408D01*
X143902201Y-56199870D01*
X144401600Y-56199870D01*
X138550000Y-62051471D01*
X138550000Y-51030746D01*
X138589396Y-50679522D01*
X138695454Y-50374966D01*
X138866348Y-50101478D01*
X139093585Y-49872648D01*
X139365876Y-49699848D01*
X139669681Y-49591668D01*
X140019122Y-49550000D01*
X195969254Y-49550000D01*
X196320478Y-49589396D01*
G36*
X179800000Y-96779021D02*
X179937017Y-97109809D01*
X180089340Y-97262132D01*
X153805976Y-123545497D01*
X152400000Y-123545497D01*
X152400000Y-123262908D01*
X152262983Y-122932120D01*
X152009809Y-122678946D01*
X151679021Y-122541929D01*
X151320979Y-122541929D01*
X151011170Y-122670256D01*
X150900000Y-122559087D01*
X150900000Y-121848527D01*
X152472399Y-120276129D01*
X154970822Y-120276129D01*
X155029908Y-120287882D01*
X155088994Y-120276129D01*
X155088999Y-120276129D01*
X155264016Y-120241316D01*
X155462483Y-120108704D01*
X155495957Y-120058607D01*
X155641915Y-119912649D01*
X156285408Y-119912649D01*
X156344494Y-119924402D01*
X156403580Y-119912649D01*
X156403585Y-119912649D01*
X156578602Y-119877836D01*
X156777069Y-119745224D01*
X156810543Y-119695127D01*
X179800000Y-96705671D01*
X179800000Y-96779021D01*
X179800000Y-96779021D01*
G37*
X179800000Y-96779021D02*
X179937017Y-97109809D01*
X180089340Y-97262132D01*
X153805976Y-123545497D01*
X152400000Y-123545497D01*
X152400000Y-123262908D01*
X152262983Y-122932120D01*
X152009809Y-122678946D01*
X151679021Y-122541929D01*
X151320979Y-122541929D01*
X151011170Y-122670256D01*
X150900000Y-122559087D01*
X150900000Y-121848527D01*
X152472399Y-120276129D01*
X154970822Y-120276129D01*
X155029908Y-120287882D01*
X155088994Y-120276129D01*
X155088999Y-120276129D01*
X155264016Y-120241316D01*
X155462483Y-120108704D01*
X155495957Y-120058607D01*
X155641915Y-119912649D01*
X156285408Y-119912649D01*
X156344494Y-119924402D01*
X156403580Y-119912649D01*
X156403585Y-119912649D01*
X156578602Y-119877836D01*
X156777069Y-119745224D01*
X156810543Y-119695127D01*
X179800000Y-96705671D01*
X179800000Y-96779021D01*
G36*
X141103452Y-73430335D02*
X141666025Y-73992908D01*
X142401061Y-74297370D01*
X143196659Y-74297370D01*
X143407747Y-74209935D01*
X143401979Y-74238931D01*
X143401979Y-74238935D01*
X143390226Y-74298021D01*
X143401979Y-74357107D01*
X143401980Y-111654379D01*
X140800002Y-109052400D01*
X140800002Y-72697742D01*
X141103452Y-73430335D01*
X141103452Y-73430335D01*
G37*
X141103452Y-73430335D02*
X141666025Y-73992908D01*
X142401061Y-74297370D01*
X143196659Y-74297370D01*
X143407747Y-74209935D01*
X143401979Y-74238931D01*
X143401979Y-74238935D01*
X143390226Y-74298021D01*
X143401979Y-74357107D01*
X143401980Y-111654379D01*
X140800002Y-109052400D01*
X140800002Y-72697742D01*
X141103452Y-73430335D01*
G36*
X144100001Y-70770398D02*
X143931695Y-70602092D01*
X143196659Y-70297630D01*
X142401061Y-70297630D01*
X141666025Y-70602092D01*
X141103452Y-71164665D01*
X140800002Y-71897258D01*
X140800002Y-63755667D01*
X144100000Y-60455669D01*
X144100001Y-70770398D01*
X144100001Y-70770398D01*
G37*
X144100001Y-70770398D02*
X143931695Y-70602092D01*
X143196659Y-70297630D01*
X142401061Y-70297630D01*
X141666025Y-70602092D01*
X141103452Y-71164665D01*
X140800002Y-71897258D01*
X140800002Y-63755667D01*
X144100000Y-60455669D01*
X144100001Y-70770398D01*
M02*
