M48
;DRILL file {KiCad (5.0.0-rc2-dev-130-g0bdae22af-dirty)} date Thu Oct  4 20:35:15 2018
;FORMAT={-:-/ absolute / inch / decimal}
FMAT,2
INCH,TZ
T1C0.0157
T2C0.0688
T3C0.0787
%
G90
G05
M72
T1
X5.4685Y-4.5657
X5.4764Y-2.3543
X5.4803Y-4.694
X5.5039Y-4.3948
X5.5039Y-4.9921
X5.5079Y-1.9882
X5.5197Y-4.5315
X5.5315Y-5.0284
X5.5512Y-2.5394
X5.5551Y-3.378
X5.5709Y-4.4961
X5.5748Y-2.9843
X5.5866Y-4.0433
X5.6102Y-2.6969
X5.6142Y-5.1811
X5.6247Y-4.8325
X5.626Y-4.3465
X5.6355Y-4.9119
X5.6654Y-2.4291
X5.6654Y-5.3583
X5.6692Y-4.8336
X5.689Y-5.0591
X5.6905Y-4.9081
X5.7229Y-4.8858
X5.731Y-4.618
X5.7395Y-4.736
X5.7402Y-3.126
X5.7412Y-4.6845
X5.7559Y-2.9803
X5.7559Y-5.2677
X5.7598Y-5.0551
X5.7613Y-4.6431
X5.7677Y-2.5315
X5.7677Y-4.5866
X5.7717Y-3.6873
X5.7786Y-4.9427
X5.7795Y-2.3661
X5.7802Y-4.7309
X5.7835Y-3.6063
X5.7923Y-4.7683
X5.7937Y-4.9064
X5.796Y-3.7384
X5.7992Y-4.2598
X5.8031Y-5.0551
X5.8071Y-4.0591
X5.811Y-4.4567
X5.8179Y-4.7982
X5.8386Y-2.0197
X5.8386Y-3.6873
X5.8543Y-4.7283
X5.8583Y-5.1732
X5.8644Y-4.8887
X5.9039Y-4.896
X5.9096Y-4.9429
X5.9291Y-2.748
X5.9449Y-2.2677
X5.9567Y-2.1654
X5.9587Y-4.821
X5.9621Y-4.915
X5.9646Y-4.8599
X5.9764Y-4.5079
X5.9843Y-4.2638
X5.9921Y-3.8031
X5.9959Y-4.937
X6.Y-3.126
X6.0197Y-4.2244
X6.0236Y-3.6873
X6.0433Y-3.6024
X6.0512Y-4.5866
X6.0591Y-2.0631
X6.0866Y-3.6873
X6.0907Y-4.6841
X6.1006Y-4.6177
X6.1024Y-5.0079
X6.1181Y-4.6529
X6.1228Y-4.7313
X6.1299Y-4.5551
X6.1378Y-5.2874
X6.1417Y-2.2835
X6.1417Y-3.8031
X6.1614Y-4.3465
X6.185Y-3.7259
X6.2205Y-2.063
X6.2441Y-3.126
X6.2747Y-3.6864
X6.2874Y-3.6142
X6.3386Y-3.6873
X6.3583Y-4.3386
X6.378Y-2.063
X6.3937Y-3.8031
X6.4331Y-3.7259
X6.4528Y-2.2953
X6.4606Y-2.1614
X6.4921Y-5.3031
X6.4961Y-3.126
X6.5236Y-4.3819
X6.5276Y-3.6873
X6.5354Y-2.063
X6.5394Y-3.6102
X6.5906Y-3.6873
X6.6181Y-2.2087
X6.6339Y-3.8031
X6.6535Y-5.1417
X6.685Y-3.7259
X6.748Y-3.126
X6.748Y-4.3465
X6.748Y-5.3858
X6.7598Y-2.2835
X6.7756Y-2.2047
X6.7795Y-3.6873
X6.7913Y-3.6063
X6.811Y-4.9055
X6.8189Y-4.8583
X6.8386Y-5.0748
X6.8425Y-3.6873
X6.8425Y-5.3228
X6.9016Y-3.8071
X6.9094Y-2.2756
X6.9286Y-5.189
X6.937Y-3.7259
X6.9481Y-4.9578
X6.9567Y-2.1614
X6.9606Y-4.7598
X6.9871Y-5.0047
X7.Y-3.126
X7.Y-4.9449
X7.0039Y-5.4331
X7.0315Y-3.6873
X7.0433Y-3.6063
X7.0669Y-2.2756
X7.0945Y-3.6873
X7.0984Y-4.622
X7.1142Y-3.8031
X7.134Y-2.1161
X7.189Y-3.7259
X7.1969Y-2.5906
X7.2323Y-2.2756
X7.244Y-4.9213
X7.252Y-3.126
X7.2835Y-1.9843
X7.2835Y-3.6873
X7.2835Y-4.3819
X7.2992Y-3.6063
X7.3189Y-5.1378
X7.3386Y-4.7402
X7.3386Y-4.9094
X7.3465Y-3.6873
X7.3937Y-3.8031
X7.4331Y-5.3228
X7.4409Y-3.7259
X7.5039Y-3.126
X7.5669Y-5.1339
X7.6929Y-5.0748
X7.7087Y-3.3583
X7.7087Y-4.5276
X7.7126Y-4.0551
X7.7205Y-2.7835
X7.7362Y-2.626
X7.7402Y-5.4173
X7.7441Y-1.9921
X7.748Y-2.7087
X7.7559Y-5.1457
T2
X6.063Y-2.4016
X6.063Y-2.7164
X6.1417Y-2.559
X6.2204Y-2.4016
X6.2204Y-2.7164
X6.2992Y-2.559
X6.3779Y-2.4016
X6.3779Y-2.7164
X6.4567Y-2.559
X6.5354Y-2.4016
X6.5354Y-2.7164
X6.6141Y-2.559
X6.6928Y-2.4016
X6.6928Y-2.7164
X6.7715Y-2.559
X6.8503Y-2.4016
X6.8503Y-2.7164
X6.929Y-2.559
X7.0078Y-2.4016
X7.0078Y-2.7164
X7.0865Y-2.559
X7.1652Y-2.4016
X7.1652Y-2.7164
X6.4567Y-4.685
X6.4567Y-4.9998
X6.5354Y-4.8424
X6.6141Y-4.685
X6.6141Y-4.9998
X6.6928Y-4.8424
X6.7715Y-4.685
X6.7715Y-4.9998
T3
X5.622Y-2.8464
X5.6811Y-2.1339
X7.5471Y-2.1339
X7.6062Y-2.8464
X6.0157Y-5.1298
X6.0748Y-4.4173
X7.1534Y-4.4173
X7.2125Y-5.1298
T0
M30
