M48
INCH,TZ
T1C0.0157
T2C0.0688
T3C0.0787
%
G90
G05
T1
X54685Y-53898
X54685Y-45657
X54764Y-23543
X54803Y-46940
X55039Y-43948
X55039Y-49921
X55079Y-19882
X55197Y-45315
X55315Y-50284
X55551Y-25354
X55551Y-33780
X55571Y-49508
X55709Y-44961
X55748Y-29843
X55787Y-40591
X56102Y-26969
X56247Y-48325
X56260Y-43465
X56280Y-50591
X56355Y-49119
X56535Y-24370
X56575Y-53524
X56692Y-48336
X56831Y-51575
X56905Y-49081
X57229Y-48858
X57310Y-46180
X57358Y-49425
X57372Y-46814
X57395Y-47360
X57402Y-31260
X57559Y-29803
X57598Y-40787
X57613Y-46431
X57657Y-50495
X57677Y-25315
X57677Y-38071
X57677Y-45866
X57717Y-36873
X57760Y-49445
X57777Y-47205
X57795Y-23661
X57835Y-36063
X57915Y-49084
X57960Y-37384
X57992Y-42598
X58051Y-50492
X58071Y-40591
X58110Y-44567
X58150Y-51319
X58346Y-46969
X58386Y-20197
X58386Y-36873
X58387Y-47362
X58482Y-48632
X58583Y-53484
X58860Y-48741
X59094Y-47185
X59096Y-49429
X59134Y-46732
X59291Y-27480
X59429Y-46102
X59449Y-22677
X59582Y-48208
X59590Y-44824
X59606Y-21811
X59651Y-48595
X59843Y-42638
X59921Y-38031
X59959Y-49370
X60000Y-31260
X60197Y-42244
X60236Y-36873
X60236Y-44961
X60433Y-36024
X60512Y-45866
X60591Y-20631
X60864Y-43170
X60866Y-36873
X60907Y-46841
X61006Y-46177
X61024Y-50079
X61181Y-46529
X61228Y-47313
X61299Y-45551
X61417Y-22835
X61417Y-38031
X61516Y-43583
X61850Y-37259
X62205Y-20630
X62244Y-51122
X62441Y-31260
X62747Y-36864
X62874Y-36142
X63386Y-36873
X63445Y-53543
X63780Y-20630
X63937Y-38031
X64331Y-37259
X64528Y-22953
X64606Y-21732
X64961Y-31260
X65217Y-43937
X65276Y-36873
X65354Y-20630
X65394Y-36102
X65551Y-45748
X65669Y-53681
X65906Y-36873
X66339Y-38031
X66535Y-51417
X66555Y-45472
X66850Y-37259
X66890Y-21614
X67480Y-31260
X67500Y-43524
X67598Y-22835
X67697Y-54390
X67795Y-36873
X67913Y-36063
X68425Y-36873
X68465Y-21535
X68622Y-51772
X69016Y-38071
X69094Y-22756
X69154Y-49055
X69173Y-48583
X69370Y-37259
X69764Y-47520
X69843Y-53386
X70000Y-31260
X70079Y-21535
X70197Y-50098
X70315Y-36873
X70433Y-36063
X70453Y-52028
X70669Y-22756
X70925Y-46240
X70945Y-36873
X71142Y-38031
X71496Y-49508
X71732Y-21575
X71756Y-48311
X71890Y-37259
X71969Y-25906
X72323Y-22756
X72520Y-31260
X72520Y-43504
X72835Y-19843
X72835Y-36873
X72992Y-36063
X73031Y-50020
X73445Y-54331
X73465Y-36873
X73937Y-38031
X74311Y-46181
X74409Y-37259
X75039Y-31260
X76024Y-52008
X76083Y-48996
X77087Y-33583
X77205Y-27835
X77362Y-26260
X77441Y-19921
X77461Y-54075
X77500Y-44154
X77559Y-39705
X77579Y-48661
T2
X64567Y-46850
X64567Y-49998
X65354Y-48424
X66141Y-46850
X66141Y-49998
X66928Y-48424
X67715Y-46850
X67715Y-49998
X60630Y-24016
X60630Y-27164
X61417Y-25590
X62204Y-24016
X62204Y-27164
X62992Y-25590
X63779Y-24016
X63779Y-27164
X64567Y-25590
X65354Y-24016
X65354Y-27164
X66141Y-25590
X66928Y-24016
X66928Y-27164
X67715Y-25590
X68503Y-24016
X68503Y-27164
X69290Y-25590
X70078Y-24016
X70078Y-27164
X70865Y-25590
X71652Y-24016
X71652Y-27164
T3
X60157Y-51298
X60748Y-44173
X71534Y-44173
X72125Y-51298
X56220Y-28464
X56811Y-21339
X75471Y-21339
X76062Y-28464
T0
M30
