M48
INCH,TZ
T1C0.016
T2C0.069
T3C0.079
%
G90
G05
T1
X54685Y-45657
X54764Y-23543
X54803Y-46940
X55039Y-43948
X55039Y-49921
X55079Y-19882
X55197Y-45315
X55315Y-50284
X55512Y-25394
X55551Y-33780
X55709Y-44961
X55748Y-29843
X55866Y-40433
X56102Y-26969
X56142Y-51811
X56247Y-48325
X56260Y-43465
X56355Y-49119
X56654Y-24291
X56654Y-53583
X56692Y-48336
X56890Y-50591
X56905Y-49081
X57229Y-48858
X57310Y-46180
X57395Y-47360
X57402Y-31260
X57412Y-46845
X57559Y-29803
X57559Y-52677
X57598Y-40787
X57598Y-50551
X57613Y-46431
X57677Y-25315
X57677Y-38071
X57677Y-45866
X57717Y-36873
X57786Y-49427
X57795Y-23661
X57802Y-47309
X57835Y-36063
X57923Y-47683
X57937Y-49064
X57960Y-37384
X57992Y-42598
X58031Y-50551
X58071Y-40591
X58110Y-44567
X58179Y-47982
X58386Y-20197
X58386Y-36873
X58543Y-47283
X58583Y-51732
X58644Y-48887
X59039Y-48960
X59096Y-49429
X59291Y-27480
X59449Y-22677
X59567Y-21654
X59587Y-48210
X59621Y-49150
X59646Y-48599
X59764Y-45079
X59843Y-42638
X59921Y-38031
X59959Y-49370
X60000Y-31260
X60197Y-42244
X60236Y-36873
X60433Y-36024
X60512Y-45866
X60591Y-20631
X60866Y-36873
X60907Y-46841
X61006Y-46177
X61024Y-50079
X61181Y-46529
X61228Y-47313
X61299Y-45551
X61378Y-52874
X61417Y-22835
X61417Y-38031
X61614Y-43465
X61850Y-37259
X62205Y-20630
X62441Y-31260
X62747Y-36864
X62874Y-36142
X63386Y-36873
X63583Y-43386
X63780Y-20630
X63937Y-38031
X64331Y-37259
X64528Y-22953
X64606Y-21614
X64921Y-53031
X64961Y-31260
X65236Y-43819
X65276Y-36873
X65354Y-20630
X65394Y-36102
X65906Y-36873
X66181Y-22087
X66339Y-38031
X66535Y-51417
X66850Y-37259
X67480Y-31260
X67480Y-43465
X67480Y-53858
X67598Y-22835
X67756Y-22047
X67795Y-36873
X67913Y-36063
X68110Y-49055
X68189Y-48583
X68386Y-50748
X68425Y-36873
X68425Y-53228
X69016Y-38071
X69094Y-22756
X69286Y-51890
X69370Y-37259
X69481Y-49578
X69567Y-21614
X69606Y-47598
X69871Y-50047
X70000Y-31260
X70000Y-49449
X70039Y-54331
X70315Y-36873
X70433Y-36063
X70669Y-22756
X70945Y-36873
X70984Y-46220
X71142Y-38031
X71340Y-21161
X71890Y-37259
X71969Y-25906
X72323Y-22756
X72440Y-49213
X72520Y-31260
X72835Y-19843
X72835Y-36873
X72835Y-43819
X72992Y-36063
X73189Y-51378
X73386Y-47402
X73386Y-49094
X73465Y-36873
X73937Y-38031
X74331Y-53228
X74409Y-37259
X75039Y-31260
X75669Y-51339
X76929Y-50748
X77087Y-33583
X77087Y-45276
X77126Y-40551
X77205Y-27835
X77362Y-26260
X77402Y-54173
X77441Y-19921
X77480Y-27087
X77559Y-51457
T2
X60630Y-24016
X60630Y-27164
X61417Y-25590
X62204Y-24016
X62204Y-27164
X62992Y-25590
X63779Y-24016
X63779Y-27164
X64567Y-25590
X64567Y-46850
X64567Y-49998
X65354Y-24016
X65354Y-27164
X65354Y-48424
X66141Y-25590
X66141Y-46850
X66141Y-49998
X66928Y-24016
X66928Y-27164
X66928Y-48424
X67715Y-25590
X67715Y-46850
X67715Y-49998
X68503Y-24016
X68503Y-27164
X69290Y-25590
X70078Y-24016
X70078Y-27164
X70865Y-25590
X71652Y-24016
X71652Y-27164
T3
X56220Y-28464
X56811Y-21339
X60157Y-51298
X60748Y-44173
X71534Y-44173
X72125Y-51298
X75471Y-21339
X76062Y-28464
T0
M30
